<svg xmlns="http://www.w3.org/2000/svg" width="78.894" height="47.832" viewBox="0 0 78.894 47.832">
    <defs>
        <style>
            .cls-2{fill:#f3b051}.cls-3{fill:#489cba}.cls-4{fill:#fff}.cls-5{fill:#dc3d39}.cls-6{fill:#df367c}.cls-7{fill:#6ab288}.cls-8{fill:#8f53cb}
        </style>
    </defs>
    <g id="brojevi_do_1000" transform="translate(-240.471 -256.162)">
        <g id="Group_219" opacity="0.656" transform="translate(-929.071 -4954.258)">
            <g id="Group_152" transform="translate(1204.071 5208.29)">
                <path id="Path_463" d="M65.34 20.3c-.1-.343-.355-.917-.915-.917v-.364a1.17 1.17 0 0 1 1.015.612 1.9 1.9 0 0 1 2.334-1.166 1.972 1.972 0 0 1-2.15 1.542 2.584 2.584 0 0 1 .11.358c4.145-1.6 3.83 4.2 1.514 5.626-.629.318-.7-.106-1.641-.2-.941.089-1.008.513-1.64.2-2.283-1.407-2.587-7.051 1.373-5.691z" class="cls-2" transform="translate(-48.769 1.607)"/>
                <path id="Path_485" d="M65.34 20.3c-.1-.343-.355-.917-.915-.917v-.364a1.17 1.17 0 0 1 1.015.612 1.9 1.9 0 0 1 2.334-1.166 1.972 1.972 0 0 1-2.15 1.542 2.584 2.584 0 0 1 .11.358c4.145-1.6 3.83 4.2 1.514 5.626-.629.318-.7-.106-1.641-.2-.941.089-1.008.513-1.64.2-2.283-1.407-2.587-7.051 1.373-5.691z" class="cls-2" transform="translate(-54.706 -6.969)"/>
                <path id="Path_491" d="M65.34 20.3c-.1-.343-.355-.917-.915-.917v-.364a1.17 1.17 0 0 1 1.015.612 1.9 1.9 0 0 1 2.334-1.166 1.972 1.972 0 0 1-2.15 1.542 2.584 2.584 0 0 1 .11.358c4.145-1.6 3.83 4.2 1.514 5.626-.629.318-.7-.106-1.641-.2-.941.089-1.008.513-1.64.2-2.283-1.407-2.587-7.051 1.373-5.691z" class="cls-3" transform="translate(-49.429 -11.587)"/>
                <path id="Path_481" d="M65.34 20.3c-.1-.343-.355-.917-.915-.917v-.364a1.17 1.17 0 0 1 1.015.612 1.9 1.9 0 0 1 2.334-1.166 1.972 1.972 0 0 1-2.15 1.542 2.584 2.584 0 0 1 .11.358c4.145-1.6 3.83 4.2 1.514 5.626-.629.318-.7-.106-1.641-.2-.941.089-1.008.513-1.64.2-2.283-1.407-2.587-7.051 1.373-5.691z" class="cls-3" transform="translate(-38.874 -2.351)"/>
                <path id="Path_465" d="M65.789 20.246c.1-.333.345-.891.889-.891V19a1.137 1.137 0 0 0-.986.594 1.844 1.844 0 0 0-2.268-1.133 1.916 1.916 0 0 0 2.089 1.5 2.514 2.514 0 0 0-.107.348c-4.028-1.552-3.722 4.082-1.471 5.467.611.309.682-.1 1.6-.19.914.087.98.5 1.594.19 2.213-1.367 2.509-6.852-1.34-5.53z" class="cls-4" transform="translate(-54.476 2.935)"/>
                <path id="Path_484" d="M65.789 20.246c.1-.333.345-.891.889-.891V19a1.137 1.137 0 0 0-.986.594 1.844 1.844 0 0 0-2.268-1.133 1.916 1.916 0 0 0 2.089 1.5 2.514 2.514 0 0 0-.107.348c-4.028-1.552-3.722 4.082-1.471 5.467.611.309.682-.1 1.6-.19.914.087.98.5 1.594.19 2.213-1.367 2.509-6.852-1.34-5.53z" class="cls-3" transform="translate(-60.413 -5.641)"/>
                <path id="Path_490" d="M66.571 20.664c.121-.407.422-1.09 1.088-1.09v-.434a1.391 1.391 0 0 0-1.207.727 2.257 2.257 0 0 0-2.776-1.386 2.345 2.345 0 0 0 2.557 1.834 3.077 3.077 0 0 0-.13.426c-4.93-1.9-4.555 5-1.8 6.691.747.378.835-.126 1.952-.233 1.119.106 1.2.61 1.951.233 2.713-1.673 3.075-8.386-1.635-6.768z" class="cls-5" transform="translate(-56.58 -11.94)"/>
                <path id="Path_495" d="M66.427 20.586c.117-.394.408-1.053 1.051-1.053v-.418a1.344 1.344 0 0 0-1.166.7 2.181 2.181 0 0 0-2.682-1.339 2.266 2.266 0 0 0 2.47 1.774 2.972 2.972 0 0 0-.126.412c-4.763-1.835-4.4 4.827-1.739 6.465.722.365.807-.122 1.886-.225 1.081.1 1.159.59 1.885.225 2.621-1.618 2.971-8.103-1.579-6.541z" class="cls-6" transform="translate(-39.963 -16.247)"/>
                <path id="Path_480" d="M65.789 20.246c.1-.333.345-.891.889-.891V19a1.137 1.137 0 0 0-.986.594 1.844 1.844 0 0 0-2.268-1.133 1.916 1.916 0 0 0 2.089 1.5 2.514 2.514 0 0 0-.107.348c-4.028-1.552-3.722 4.082-1.471 5.467.611.309.682-.1 1.6-.19.914.087.98.5 1.594.19 2.213-1.367 2.509-6.852-1.34-5.53z" class="cls-4" transform="translate(-44.581 -1.023)"/>
                <path id="Path_466" d="M65.665 20.5c-.113-.379-.393-1.015-1.012-1.015v-.4a1.294 1.294 0 0 1 1.123.677 2.1 2.1 0 0 1 2.583-1.29 2.182 2.182 0 0 1-2.379 1.706 2.861 2.861 0 0 1 .121.4c4.587-1.768 4.238 4.649 1.675 6.226-.7.352-.777-.118-1.816-.216-1.041.1-1.116.568-1.815.216-2.526-1.558-2.862-7.804 1.52-6.304z" class="cls-6" transform="translate(-27.519 1.341)"/>
                <path id="Path_473" d="M65.665 20.5c-.113-.379-.393-1.015-1.012-1.015v-.4a1.294 1.294 0 0 1 1.123.677 2.1 2.1 0 0 1 2.583-1.29 2.182 2.182 0 0 1-2.379 1.706 2.861 2.861 0 0 1 .121.4c4.587-1.768 4.238 4.649 1.675 6.226-.7.352-.777-.118-1.816-.216-1.041.1-1.116.568-1.815.216-2.526-1.558-2.862-7.804 1.52-6.304z" class="cls-3" transform="translate(-52.587 2.001)"/>
                <path id="Path_479" d="M65.665 20.5c-.113-.379-.393-1.015-1.012-1.015v-.4a1.294 1.294 0 0 1 1.123.677 2.1 2.1 0 0 1 2.583-1.29 2.182 2.182 0 0 1-2.379 1.706 2.861 2.861 0 0 1 .121.4c4.587-1.768 4.238 4.649 1.675 6.226-.7.352-.777-.118-1.816-.216-1.041.1-1.116.568-1.815.216-2.526-1.558-2.862-7.804 1.52-6.304z" class="cls-7" transform="translate(-45.99 -1.957)"/>
                <path id="Path_489" d="M65.665 20.5c-.113-.379-.393-1.015-1.012-1.015v-.4a1.294 1.294 0 0 1 1.123.677 2.1 2.1 0 0 1 2.583-1.29 2.182 2.182 0 0 1-2.379 1.706 2.861 2.861 0 0 1 .121.4c4.587-1.768 4.238 4.649 1.675 6.226-.7.352-.777-.118-1.816-.216-1.041.1-1.116.568-1.815.216-2.526-1.558-2.862-7.804 1.52-6.304z" class="cls-2" transform="translate(-33.456 -7.235)"/>
                <path id="Path_494" d="M65.11 20.154c-.094-.317-.328-.847-.845-.847v-.337a1.081 1.081 0 0 1 .938.565 1.754 1.754 0 0 1 2.158-1.077 1.823 1.823 0 0 1-1.987 1.425 2.39 2.39 0 0 1 .1.331c3.831-1.476 3.54 3.882 1.4 5.2-.581.294-.649-.1-1.517-.181-.869.083-.932.474-1.516.181-2.11-1.3-2.391-6.514 1.269-5.26z" class="cls-7" transform="translate(-45.023 -14.601)"/>
                <path id="Path_467" d="M64.916 20.032c-.088-.295-.306-.789-.787-.789v-.313a1.007 1.007 0 0 1 .874.526 1.634 1.634 0 0 1 2.009-1 1.7 1.7 0 0 1-1.851 1.327 2.225 2.225 0 0 1 .094.308c3.568-1.375 3.3 3.616 1.3 4.842-.541.273-.6-.091-1.413-.168-.81.077-.868.442-1.412.168-1.96-1.213-2.222-6.071 1.186-4.901z" class="cls-2" transform="translate(-37.228 2.242)"/>
                <path id="Path_471" d="M64.916 20.032c-.088-.295-.306-.789-.787-.789v-.313a1.007 1.007 0 0 1 .874.526 1.634 1.634 0 0 1 2.009-1 1.7 1.7 0 0 1-1.851 1.327 2.225 2.225 0 0 1 .094.308c3.568-1.375 3.3 3.616 1.3 4.842-.541.273-.6-.091-1.413-.168-.81.077-.868.442-1.412.168-1.96-1.213-2.222-6.071 1.186-4.901z" class="cls-8" transform="translate(-62.295 2.902)"/>
                <path id="Path_477" d="M64.916 20.032c-.088-.295-.306-.789-.787-.789v-.313a1.007 1.007 0 0 1 .874.526 1.634 1.634 0 0 1 2.009-1 1.7 1.7 0 0 1-1.851 1.327 2.225 2.225 0 0 1 .094.308c3.568-1.375 3.3 3.616 1.3 4.842-.541.273-.6-.091-1.413-.168-.81.077-.868.442-1.412.168-1.96-1.213-2.222-6.071 1.186-4.901z" class="cls-8" transform="translate(-55.699 -1.056)"/>
                <path id="Path_487" d="M64.916 20.032c-.088-.295-.306-.789-.787-.789v-.313a1.007 1.007 0 0 1 .874.526 1.634 1.634 0 0 1 2.009-1 1.7 1.7 0 0 1-1.851 1.327 2.225 2.225 0 0 1 .094.308c3.568-1.375 3.3 3.616 1.3 4.842-.541.273-.6-.091-1.413-.168-.81.077-.868.442-1.412.168-1.96-1.213-2.222-6.071 1.186-4.901z" class="cls-2" transform="translate(-43.165 -6.333)"/>
                <path id="Path_493" d="M64.916 20.032c-.088-.295-.306-.789-.787-.789v-.313a1.007 1.007 0 0 1 .874.526 1.634 1.634 0 0 1 2.009-1 1.7 1.7 0 0 1-1.851 1.327 2.225 2.225 0 0 1 .094.308c3.568-1.375 3.3 3.616 1.3 4.842-.541.273-.6-.091-1.413-.168-.81.077-.868.442-1.412.168-1.96-1.213-2.222-6.071 1.186-4.901z" class="cls-3" transform="translate(-37.887 -10.951)"/>
                <path id="Path_483" d="M64.916 20.032c-.088-.295-.306-.789-.787-.789v-.313a1.007 1.007 0 0 1 .874.526 1.634 1.634 0 0 1 2.009-1 1.7 1.7 0 0 1-1.851 1.327 2.225 2.225 0 0 1 .094.308c3.568-1.375 3.3 3.616 1.3 4.842-.541.273-.6-.091-1.413-.168-.81.077-.868.442-1.412.168-1.96-1.213-2.222-6.071 1.186-4.901z" class="cls-3" transform="translate(-27.333 -1.716)"/>
                <path id="Path_464" d="M65.78 20.241c.1-.332.344-.889.886-.889V19a1.134 1.134 0 0 0-.984.593 1.839 1.839 0 0 0-2.262-1.13 1.911 1.911 0 0 0 2.08 1.494 2.507 2.507 0 0 0-.106.347c-4.018-1.548-3.712 4.071-1.467 5.453.609.308.68-.1 1.591-.19.912.087.977.5 1.59.19 2.215-1.364 2.51-6.834-1.328-5.516z" class="cls-7" transform="translate(-32.832 1.872)"/>
                <path id="Path_472" d="M65.78 20.241c.1-.332.344-.889.886-.889V19a1.134 1.134 0 0 0-.984.593 1.839 1.839 0 0 0-2.262-1.13 1.911 1.911 0 0 0 2.08 1.494 2.507 2.507 0 0 0-.106.347c-4.018-1.548-3.712 4.071-1.467 5.453.609.308.68-.1 1.591-.19.912.087.977.5 1.59.19 2.215-1.364 2.51-6.834-1.328-5.516z" class="cls-6" transform="translate(-57.899 2.532)"/>
                <path id="Path_478" d="M65.78 20.241c.1-.332.344-.889.886-.889V19a1.134 1.134 0 0 0-.984.593 1.839 1.839 0 0 0-2.262-1.13 1.911 1.911 0 0 0 2.08 1.494 2.507 2.507 0 0 0-.106.347c-4.018-1.548-3.712 4.071-1.467 5.453.609.308.68-.1 1.591-.19.912.087.977.5 1.59.19 2.215-1.364 2.51-6.834-1.328-5.516z" class="cls-6" transform="translate(-51.302 -1.426)"/>
                <path id="Path_488" d="M67.1 20.947c.136-.458.474-1.225 1.222-1.225v-.486a1.563 1.563 0 0 0-1.357.817 2.537 2.537 0 0 0-3.12-1.558 2.635 2.635 0 0 0 2.874 2.061 3.458 3.458 0 0 0-.147.479c-5.54-2.135-5.119 5.614-2.023 7.519.84.425.938-.142 2.194-.261 1.257.119 1.348.686 2.192.261 3.052-1.881 3.458-9.425-1.835-7.607z" class="cls-8" transform="translate(-38.769 -9.543)"/>
                <path id="Path_462" d="M65.841 20.273c.1-.338.35-.9.9-.9v-.363a1.153 1.153 0 0 0-1 .6 1.872 1.872 0 0 0-2.3-1.149 1.944 1.944 0 0 0 2.12 1.52 2.551 2.551 0 0 0-.108.353c-4.087-1.575-3.776 4.142-1.493 5.548.62.313.692-.1 1.618-.193.927.088.994.506 1.617.193 2.251-1.382 2.55-6.95-1.354-5.609z" class="cls-5" transform="translate(-43.063 3.192)"/>
                <path id="Path_476" d="M65.841 20.273c.1-.338.35-.9.9-.9v-.363a1.153 1.153 0 0 0-1 .6 1.872 1.872 0 0 0-2.3-1.149 1.944 1.944 0 0 0 2.12 1.52 2.551 2.551 0 0 0-.108.353c-4.087-1.575-3.776 4.142-1.493 5.548.62.313.692-.1 1.618-.193.927.088.994.506 1.617.193 2.251-1.382 2.55-6.95-1.354-5.609z" class="cls-2" transform="translate(-61.534 -.107)"/>
                <path id="Path_486" d="M65.841 20.273c.1-.338.35-.9.9-.9v-.363a1.153 1.153 0 0 0-1 .6 1.872 1.872 0 0 0-2.3-1.149 1.944 1.944 0 0 0 2.12 1.52 2.551 2.551 0 0 0-.108.353c-4.087-1.575-3.776 4.142-1.493 5.548.62.313.692-.1 1.618-.193.927.088.994.506 1.617.193 2.251-1.382 2.55-6.95-1.354-5.609z" class="cls-8" transform="translate(-49 -6.244)"/>
                <path id="Path_492" fill="#ec8e43" d="M65.841 20.273c.1-.338.35-.9.9-.9v-.363a1.153 1.153 0 0 0-1 .6 1.872 1.872 0 0 0-2.3-1.149 1.944 1.944 0 0 0 2.12 1.52 2.551 2.551 0 0 0-.108.353c-4.087-1.575-3.776 4.142-1.493 5.548.62.313.692-.1 1.618-.193.927.088.994.506 1.617.193 2.251-1.382 2.55-6.95-1.354-5.609z" transform="translate(-43.722 -10.002)"/>
                <path id="Path_482" d="M65.841 20.273c.1-.338.35-.9.9-.9v-.363a1.153 1.153 0 0 0-1 .6 1.872 1.872 0 0 0-2.3-1.149 1.944 1.944 0 0 0 2.12 1.52 2.551 2.551 0 0 0-.108.353c-4.087-1.575-3.776 4.142-1.493 5.548.62.313.692-.1 1.618-.193.927.088.994.506 1.617.193 2.251-1.382 2.55-6.95-1.354-5.609z" class="cls-5" transform="translate(-33.167 -.766)"/>
            </g>
        </g>
        <g id="noun_Van_167136" transform="translate(587 666.443)">
            <path id="Path_580" fill="#148f91" d="M55.528 57.227a7.312 7.312 0 0 1 .268-1.972h4.068a3.582 3.582 0 1 0 5.982 0h4.066a7.327 7.327 0 1 1-14.384 1.972zm4.935 0l4.783-.005a2.392 2.392 0 1 1-4.783.005zM19.232 41.85a.843.843 0 0 0-.436-.74v-1.715a.407.407 0 0 0-.813 0v1.713a.845.845 0 1 0 1.249.742zm14.341-7.756c-.414-.972-1.048-1.149-2.048-1.149h-8.664c-1 0-1.633.176-2.048 1.149l-1.144 2.563a1.012 1.012 0 0 0-.066.375 1.044 1.044 0 0 0 1.043 1.043h2.1l-.793-1.575a.46.46 0 0 1 .823-.413l1 1.987h9.955a1.048 1.048 0 0 0 .978-1.417zm4.041 5.343a1.954 1.954 0 0 0 1.952 1.836H79.8a.95.95 0 0 1 .9.813l.2 1.036a2.3 2.3 0 0 1 1.461 2.14v8.371l-.008 1.4a2.3 2.3 0 0 1-2.3 2.3h-7.925v-2.968a1.149 1.149 0 0 0-1.149-1.15h-16.3a1.15 1.15 0 0 0-1.149 1.15v2.965H25.837v-.1a9.293 9.293 0 0 0-18.585 0v.1h-.181a2.3 2.3 0 0 1-2.3-2.3v-6.6a2.74 2.74 0 0 1-1.3-2.4c0-1.7 1.275-3.071 4.068-3.071h5.855v-2.53a2.3 2.3 0 0 1 2.3-2.3h.671l2.276-5.218h-2.473a.826.826 0 0 1-.812-1.069c.257-1.446 3-.248 5.181-2.126 1.544-1.575 3.693-2.068 6.575-2.157l7.956-.009a2.545 2.545 0 0 1 2.546 2.55v9.334zm-4.332-4.388c-.031.167-.1.344-.182.627-.133.441-.172.653-.013.718.181.074.25-.084.271.327.022.451.228.451.228.451a1.538 1.538 0 0 1 .262.236.423.423 0 0 1-.119.018H30.4c-.038-.4-.8-.273-1.519-.5-.608-.19-.278-.486-.216-.747.048-.2-.177-.227-.062-.595.028-.089-.484-.058-.267-.418.164-.27.479-.632.53-.742.082-.166.114-.348-.118-.434a.767.767 0 0 1-.379-.4h3.149c.881 0 1.183.134 1.452.759zM9.208 57.227a7.326 7.326 0 1 1 7.327 7.324 7.328 7.328 0 0 1-7.327-7.324zm3.746 0a3.581 3.581 0 1 0 3.581-3.582 3.582 3.582 0 0 0-3.581 3.582zm1.189 0l4.782-.005a2.391 2.391 0 1 1-4.782.005z" transform="translate(-350 -427)"/>
        </g>
    </g>
</svg>
