<svg xmlns="http://www.w3.org/2000/svg" width="76.594" height="45.021" viewBox="0 0 76.594 45.021">
    <defs>
        <style>
            .cls-3{fill:#148f91}
        </style>
    </defs>
    <g id="Group_267" transform="translate(-242.678 -483.738)">
        <g id="noun_school_board_1934071" transform="translate(324.339 766.607)">
            <g id="Group_266" transform="translate(-81.661 -282.869)">
                <path id="Path_708" fill="#dc3d39" d="M46.218 19.617H4.782a1.443 1.443 0 1 0 0 2.886h7.358L8.434 35.009a1.455 1.455 0 0 0 2.79.827l1.709-5.762h25.134l1.709 5.762a1.454 1.454 0 1 0 2.788-.827L38.86 22.5h7.358a1.443 1.443 0 1 0 0-2.886zM13.634 27.71l1.542-5.2h20.648l1.542 5.2z" transform="translate(-3.339 8.143)"/>
                <path id="Path_709" fill="#f3b051" d="M42.537 6.677a3.546 3.546 0 0 0-3.546-3.546H9.049A3.546 3.546 0 0 0 5.5 6.677v22.85h37.037zM19.8 24.656l-1.091 1.093-1.96-1.962-1.96 1.962-1.089-1.092 1.96-1.957-1.96-1.96 1.091-1.091 1.96 1.96 1.96-1.96 1.089 1.087-1.956 1.964zm.492-13.429h-2.77V14h-1.544v-2.773h-2.771V9.683h2.772V6.911h1.544v2.772h2.772zm11 14.474a.987.987 0 1 1 .985-.987.988.988 0 0 1-.988.986zm0-4.04a.986.986 0 1 1 .985-.985.987.987 0 0 1-.988.986zm3.544-10.435h-7.089V9.683h7.087z" transform="translate(-1.859 -3.131)"/>
            </g>
        </g>
        <g id="noun_Monster_3288365" transform="translate(273 482.253)">
            <path id="Path_706" d="M45.905 33.221a2.659 2.659 0 0 0-1.718-1.128 3.086 3.086 0 0 0-.429-.067 7.319 7.319 0 0 0-1.713.052c-1.34.191-2.685.667-3.948.973-1.723.424-3.446.843-5.179 1.216.264-2.189.621-4.377 1.04-6.551l1.2-1.382.74 1.992 1.977-1.961 1.2-6.571c2.127 2.38 2.09 6.737 1.325 9.826a1.32 1.32 0 0 0 1.526 1.594 1.127 1.127 0 0 0 .968-.905c1.144-4.621.849-10.819-3.425-13.551a9.2 9.2 0 0 0-.507-2.97l3.762-5.521c.523-.771.347-.937-.388-.367l-4.6 3.524A9.137 9.137 0 0 0 25.167 9.14L22.1 4.225c-.492-.792-.714-.7-.492.207l1.578 6.488a8.9 8.9 0 0 0-.688.952q-5.845-4.905-11.69-9.805C9.541 1.006 7.7 2.828 8.977 3.9l12.428 10.426c-.072.264-.135.528-.186.8l-1.444 7.954 1.159 2.53L22.326 24l.016.041c-2.923 4.186-5.836 9.784-2.6 12.827 1.62 1.516 4.1 1.361 6.131 1.154 1.382-.14 2.763-.331 4.134-.564-.031.517-.067 1.03-.083 1.542-.067 2.106-.254 5.764 1.894 7.047 1.9 1.138 5.107-.166 7.171-.471 1.64-.248.942-2.737-.688-2.494-1.237.181-4.465 1.252-5.257.6-1.185-.968-.678-4.776-.429-6.711 1.413-.285 2.82-.605 4.227-.947 1.133-.274 2.261-.564 3.394-.843.647-.166 2.639-1.019 3.177-.523.652.6-.285 3.042-.424 3.788a2.064 2.064 0 0 0-.036.905 1.411 1.411 0 0 0 1.035.916 1.117 1.117 0 0 0 1.045-.176 1.447 1.447 0 0 0 .326-.616 19.763 19.763 0 0 0 .849-3.819 3.8 3.8 0 0 0-.303-2.435zM30.222 34.8c-1.133.207-2.271.388-3.42.528-1.588.191-5.081.993-5.7-1.169-.445-1.547.735-3.71 1.4-5.024a37.711 37.711 0 0 1 2.282-3.922l.435 1.169 1.392-1.609.74 2 1.4-1.62.74 2.008 1.4-1.609.548 1.5c-.513 2.568-.939 5.16-1.217 7.748zm-1.149-16.362a4.086 4.086 0 1 1 4.75-3.291 4.083 4.083 0 0 1-4.75 3.291z" class="cls-3"/>
            <path id="Path_707" d="M47.076 20.195a2.139 2.139 0 1 0 1.724 2.487 2.139 2.139 0 0 0-1.724-2.487zm-.976 1.842a.48.48 0 1 1 .168-.944.48.48 0 0 1-.168.944z" class="cls-3" transform="translate(-17.599 -8.671)"/>
        </g>
    </g>
</svg>
