<svg xmlns="http://www.w3.org/2000/svg" width="84.732" height="49.71" viewBox="0 0 84.732 49.71">
    <defs>
        <style>
            .cls-1{fill:#f3b051}.cls-2{fill:#ec8e43}.cls-3{fill:#6ab288}.cls-4{fill:#489cba}.cls-10,.cls-5,.cls-9{fill:#fff}.cls-6{fill:#8f53cb}.cls-7{fill:#dc3d39}.cls-8{fill:#df367c}.cls-10,.cls-11,.cls-9{stroke:#148f91}.cls-9{stroke-width:.5px}.cls-11,.cls-12{fill:#148f91}.cls-13{stroke:none}.cls-14{fill:none}
        </style>
    </defs>
    <g id="brojevi_do_100_icon" data-name="brojevi do 100 icon" transform="translate(2 .71)">
        <path id="Path_463" d="M65.835 20.612c-.118-.4-.413-1.066-1.063-1.066v-.423a1.36 1.36 0 0 1 1.18.711 2.206 2.206 0 0 1 2.714-1.355 2.292 2.292 0 0 1-2.5 1.792 3.007 3.007 0 0 1 .127.417c4.819-1.857 4.452 4.883 1.76 6.54-.731.369-.816-.124-1.908-.227-1.093.1-1.172.6-1.907.227-2.653-1.635-3.006-8.197 1.597-6.616z" class="cls-1" data-name="Path 463" transform="translate(-14.769 3.143)"/>
        <path id="Path_469" d="M65.835 20.612c-.118-.4-.413-1.066-1.063-1.066v-.423a1.36 1.36 0 0 1 1.18.711 2.206 2.206 0 0 1 2.714-1.355 2.292 2.292 0 0 1-2.5 1.792 3.007 3.007 0 0 1 .127.417c4.819-1.857 4.452 4.883 1.76 6.54-.731.369-.816-.124-1.908-.227-1.093.1-1.172.6-1.907.227-2.653-1.635-3.006-8.197 1.597-6.616z" class="cls-2" data-name="Path 469" transform="translate(-43.909 3.91)"/>
        <path id="Path_475" d="M66.663 21.135c-.146-.491-.509-1.315-1.312-1.315v-.52a1.678 1.678 0 0 1 1.456.877 2.722 2.722 0 0 1 3.349-1.677 2.828 2.828 0 0 1-3.084 2.212 3.709 3.709 0 0 1 .157.514c5.946-2.291 5.494 6.025 2.171 8.07-.9.456-1.007-.152-2.354-.281-1.349.128-1.446.736-2.353.281-3.274-2.016-3.71-10.112 1.97-8.161z" class="cls-3" data-name="Path 475" transform="translate(-36.24 -2.793)"/>
        <path id="Path_485" d="M65.835 20.612c-.118-.4-.413-1.066-1.063-1.066v-.423a1.36 1.36 0 0 1 1.18.711 2.206 2.206 0 0 1 2.714-1.355 2.292 2.292 0 0 1-2.5 1.792 3.007 3.007 0 0 1 .127.417c4.819-1.857 4.452 4.883 1.76 6.54-.731.369-.816-.124-1.908-.227-1.093.1-1.172.6-1.907.227-2.653-1.635-3.006-8.197 1.597-6.616z" class="cls-1" data-name="Path 485" transform="translate(-21.671 -6.826)"/>
        <path id="Path_491" d="M65.835 20.612c-.118-.4-.413-1.066-1.063-1.066v-.423a1.36 1.36 0 0 1 1.18.711 2.206 2.206 0 0 1 2.714-1.355 2.292 2.292 0 0 1-2.5 1.792 3.007 3.007 0 0 1 .127.417c4.819-1.857 4.452 4.883 1.76 6.54-.731.369-.816-.124-1.908-.227-1.093.1-1.172.6-1.907.227-2.653-1.635-3.006-8.197 1.597-6.616z" class="cls-4" data-name="Path 491" transform="translate(-15.536 -12.193)"/>
        <path id="Path_481" d="M65.835 20.612c-.118-.4-.413-1.066-1.063-1.066v-.423a1.36 1.36 0 0 1 1.18.711 2.206 2.206 0 0 1 2.714-1.355 2.292 2.292 0 0 1-2.5 1.792 3.007 3.007 0 0 1 .127.417c4.819-1.857 4.452 4.883 1.76 6.54-.731.369-.816-.124-1.908-.227-1.093.1-1.172.6-1.907.227-2.653-1.635-3.006-8.197 1.597-6.616z" class="cls-4" data-name="Path 481" transform="translate(-3.267 -1.458)"/>
        <path id="Path_465" d="M66.357 20.549c.115-.387.4-1.036 1.033-1.036V19.1a1.321 1.321 0 0 0-1.147.691 2.144 2.144 0 0 0-2.637-1.317 2.227 2.227 0 0 0 2.429 1.742 2.922 2.922 0 0 0-.124.4c-4.683-1.8-4.326 4.745-1.71 6.355.71.359.793-.12 1.854-.221 1.062.1 1.139.58 1.853.221 2.579-1.582 2.922-7.958-1.551-6.422z" class="cls-5" data-name="Path 465" transform="translate(-21.403 4.687)"/>
        <path id="Path_468" d="M66.357 20.549c.115-.387.4-1.036 1.033-1.036V19.1a1.321 1.321 0 0 0-1.147.691 2.144 2.144 0 0 0-2.637-1.317 2.227 2.227 0 0 0 2.429 1.742 2.922 2.922 0 0 0-.124.4c-4.683-1.8-4.326 4.745-1.71 6.355.71.359.793-.12 1.854-.221 1.062.1 1.139.58 1.853.221 2.579-1.582 2.922-7.958-1.551-6.422z" class="cls-6" data-name="Path 468" transform="translate(-50.542 5.454)"/>
        <path id="Path_474" d="M66.357 20.549c.115-.387.4-1.036 1.033-1.036V19.1a1.321 1.321 0 0 0-1.147.691 2.144 2.144 0 0 0-2.637-1.317 2.227 2.227 0 0 0 2.429 1.742 2.922 2.922 0 0 0-.124.4c-4.683-1.8-4.326 4.745-1.71 6.355.71.359.793-.12 1.854-.221 1.062.1 1.139.58 1.853.221 2.579-1.582 2.922-7.958-1.551-6.422z" class="cls-7" data-name="Path 474" transform="translate(-42.874 .853)"/>
        <path id="Path_484" d="M66.357 20.549c.115-.387.4-1.036 1.033-1.036V19.1a1.321 1.321 0 0 0-1.147.691 2.144 2.144 0 0 0-2.637-1.317 2.227 2.227 0 0 0 2.429 1.742 2.922 2.922 0 0 0-.124.4c-4.683-1.8-4.326 4.745-1.71 6.355.71.359.793-.12 1.854-.221 1.062.1 1.139.58 1.853.221 2.579-1.582 2.922-7.958-1.551-6.422z" class="cls-4" data-name="Path 484" transform="translate(-28.304 -5.282)"/>
        <path id="Path_490" d="M67.266 21.035c.141-.474.491-1.267 1.264-1.267v-.5a1.617 1.617 0 0 0-1.4.845A2.624 2.624 0 0 0 63.9 18.5a2.726 2.726 0 0 0 2.972 2.132 3.577 3.577 0 0 0-.152.5c-5.731-2.208-5.295 5.807-2.093 7.778.869.439.97-.147 2.269-.27 1.3.123 1.394.709 2.268.27 3.156-1.952 3.576-9.755-1.898-7.875z" class="cls-7" data-name="Path 490" transform="translate(-23.848 -12.604)"/>
        <path id="Path_495" d="M67.1 20.945c.136-.457.474-1.225 1.221-1.225v-.486a1.562 1.562 0 0 0-1.356.817 2.535 2.535 0 0 0-3.118-1.557 2.634 2.634 0 0 0 2.872 2.059 3.455 3.455 0 0 0-.146.479c-5.537-2.133-5.115 5.611-2.022 7.515.84.424.938-.142 2.192-.261 1.256.119 1.347.685 2.191.261 3.047-1.879 3.453-9.418-1.834-7.602z" class="cls-8" data-name="Path 495" transform="translate(-4.532 -17.61)"/>
        <path id="Path_480" d="M66.357 20.549c.115-.387.4-1.036 1.033-1.036V19.1a1.321 1.321 0 0 0-1.147.691 2.144 2.144 0 0 0-2.637-1.317 2.227 2.227 0 0 0 2.429 1.742 2.922 2.922 0 0 0-.124.4c-4.683-1.8-4.326 4.745-1.71 6.355.71.359.793-.12 1.854-.221 1.062.1 1.139.58 1.853.221 2.579-1.582 2.922-7.958-1.551-6.422z" class="cls-5" data-name="Path 480" transform="translate(-9.9 .086)"/>
        <path id="Path_466" d="M66.212 20.85c-.131-.441-.457-1.179-1.176-1.179V19.2a1.5 1.5 0 0 1 1.306.787 2.442 2.442 0 0 1 3-1.5 2.537 2.537 0 0 1-2.766 1.983 3.326 3.326 0 0 1 .141.461c5.332-2.055 4.927 5.4 1.947 7.237-.809.409-.9-.137-2.111-.252-1.21.115-1.3.66-2.11.252-2.933-1.806-3.325-9.068 1.769-7.318z" class="cls-8" data-name="Path 466" transform="translate(9.933 2.834)"/>
        <path id="Path_473" d="M66.212 20.85c-.131-.441-.457-1.179-1.176-1.179V19.2a1.5 1.5 0 0 1 1.306.787 2.442 2.442 0 0 1 3-1.5 2.537 2.537 0 0 1-2.766 1.983 3.326 3.326 0 0 1 .141.461c5.332-2.055 4.927 5.4 1.947 7.237-.809.409-.9-.137-2.111-.252-1.21.115-1.3.66-2.11.252-2.933-1.806-3.325-9.068 1.769-7.318z" class="cls-4" data-name="Path 473" transform="translate(-19.207 3.601)"/>
        <path id="Path_479" d="M66.212 20.85c-.131-.441-.457-1.179-1.176-1.179V19.2a1.5 1.5 0 0 1 1.306.787 2.442 2.442 0 0 1 3-1.5 2.537 2.537 0 0 1-2.766 1.983 3.326 3.326 0 0 1 .141.461c5.332-2.055 4.927 5.4 1.947 7.237-.809.409-.9-.137-2.111-.252-1.21.115-1.3.66-2.11.252-2.933-1.806-3.325-9.068 1.769-7.318z" class="cls-3" data-name="Path 479" transform="translate(-11.538 -1)"/>
        <path id="Path_489" d="M66.212 20.85c-.131-.441-.457-1.179-1.176-1.179V19.2a1.5 1.5 0 0 1 1.306.787 2.442 2.442 0 0 1 3-1.5 2.537 2.537 0 0 1-2.766 1.983 3.326 3.326 0 0 1 .141.461c5.332-2.055 4.927 5.4 1.947 7.237-.809.409-.9-.137-2.111-.252-1.21.115-1.3.66-2.11.252-2.933-1.806-3.325-9.068 1.769-7.318z" class="cls-1" data-name="Path 489" transform="translate(3.031 -7.134)"/>
        <path id="Path_494" d="M67.3 21.534c-.167-.562-.583-1.506-1.5-1.506v-.6a1.921 1.921 0 0 1 1.667 1 3.117 3.117 0 0 1 3.834-1.914 3.238 3.238 0 0 1-3.531 2.532 4.248 4.248 0 0 1 .18.588c6.808-2.623 6.29 6.9 2.486 9.239-1.032.522-1.153-.175-2.7-.321-1.545.147-1.656.843-2.694.321-3.75-2.303-4.249-11.573 2.258-9.339z" class="cls-3" data-name="Path 494" transform="translate(-13.901 -19.087)"/>
        <path id="Path_467" d="M65.342 20.3c-.1-.343-.355-.917-.915-.917v-.364a1.17 1.17 0 0 1 1.016.612 1.9 1.9 0 0 1 2.336-1.166 1.973 1.973 0 0 1-2.151 1.543 2.588 2.588 0 0 1 .11.359c4.147-1.6 3.832 4.2 1.514 5.629-.629.318-.7-.106-1.642-.2-.941.089-1.009.513-1.641.2-2.285-1.409-2.589-7.056 1.373-5.696z" class="cls-1" data-name="Path 467" transform="translate(-1.353 3.882)"/>
        <path id="Path_471" d="M65.342 20.3c-.1-.343-.355-.917-.915-.917v-.364a1.17 1.17 0 0 1 1.016.612 1.9 1.9 0 0 1 2.336-1.166 1.973 1.973 0 0 1-2.151 1.543 2.588 2.588 0 0 1 .11.359c4.147-1.6 3.832 4.2 1.514 5.629-.629.318-.7-.106-1.642-.2-.941.089-1.009.513-1.641.2-2.285-1.409-2.589-7.056 1.373-5.696z" class="cls-6" data-name="Path 471" transform="translate(-30.492 4.649)"/>
        <path id="Path_477" d="M65.342 20.3c-.1-.343-.355-.917-.915-.917v-.364a1.17 1.17 0 0 1 1.016.612 1.9 1.9 0 0 1 2.336-1.166 1.973 1.973 0 0 1-2.151 1.543 2.588 2.588 0 0 1 .11.359c4.147-1.6 3.832 4.2 1.514 5.629-.629.318-.7-.106-1.642-.2-.941.089-1.009.513-1.641.2-2.285-1.409-2.589-7.056 1.373-5.696z" class="cls-6" data-name="Path 477" transform="translate(-22.824 .048)"/>
        <path id="Path_487" d="M65.342 20.3c-.1-.343-.355-.917-.915-.917v-.364a1.17 1.17 0 0 1 1.016.612 1.9 1.9 0 0 1 2.336-1.166 1.973 1.973 0 0 1-2.151 1.543 2.588 2.588 0 0 1 .11.359c4.147-1.6 3.832 4.2 1.514 5.629-.629.318-.7-.106-1.642-.2-.941.089-1.009.513-1.641.2-2.285-1.409-2.589-7.056 1.373-5.696z" class="cls-1" data-name="Path 487" transform="translate(-8.254 -6.087)"/>
        <path id="Path_493" d="M65.342 20.3c-.1-.343-.355-.917-.915-.917v-.364a1.17 1.17 0 0 1 1.016.612 1.9 1.9 0 0 1 2.336-1.166 1.973 1.973 0 0 1-2.151 1.543 2.588 2.588 0 0 1 .11.359c4.147-1.6 3.832 4.2 1.514 5.629-.629.318-.7-.106-1.642-.2-.941.089-1.009.513-1.641.2-2.285-1.409-2.589-7.056 1.373-5.696z" class="cls-4" data-name="Path 493" transform="translate(-2.12 -11.455)"/>
        <path id="Path_483" d="M65.342 20.3c-.1-.343-.355-.917-.915-.917v-.364a1.17 1.17 0 0 1 1.016.612 1.9 1.9 0 0 1 2.336-1.166 1.973 1.973 0 0 1-2.151 1.543 2.588 2.588 0 0 1 .11.359c4.147-1.6 3.832 4.2 1.514 5.629-.629.318-.7-.106-1.642-.2-.941.089-1.009.513-1.641.2-2.285-1.409-2.589-7.056 1.373-5.696z" class="cls-4" data-name="Path 483" transform="translate(10.15 -.719)"/>
        <path id="Path_464" d="M66.346 20.543c.115-.386.4-1.033 1.03-1.033v-.41a1.318 1.318 0 0 0-1.144.689 2.138 2.138 0 0 0-2.63-1.313 2.222 2.222 0 0 0 2.422 1.737 2.914 2.914 0 0 0-.124.4c-4.67-1.8-4.315 4.732-1.705 6.338.708.358.791-.12 1.849-.22 1.06.1 1.136.578 1.848.22 2.573-1.581 2.915-7.94-1.546-6.408z" class="cls-3" data-name="Path 464" transform="translate(3.757 3.452)"/>
        <path id="Path_472" d="M66.346 20.543c.115-.386.4-1.033 1.03-1.033v-.41a1.318 1.318 0 0 0-1.144.689 2.138 2.138 0 0 0-2.63-1.313 2.222 2.222 0 0 0 2.422 1.737 2.914 2.914 0 0 0-.124.4c-4.67-1.8-4.315 4.732-1.705 6.338.708.358.791-.12 1.849-.22 1.06.1 1.136.578 1.848.22 2.573-1.581 2.915-7.94-1.546-6.408z" class="cls-8" data-name="Path 472" transform="translate(-25.382 4.219)"/>
        <path id="Path_478" d="M66.346 20.543c.115-.386.4-1.033 1.03-1.033v-.41a1.318 1.318 0 0 0-1.144.689 2.138 2.138 0 0 0-2.63-1.313 2.222 2.222 0 0 0 2.422 1.737 2.914 2.914 0 0 0-.124.4c-4.67-1.8-4.315 4.732-1.705 6.338.708.358.791-.12 1.849-.22 1.06.1 1.136.578 1.848.22 2.573-1.581 2.915-7.94-1.546-6.408z" class="cls-8" data-name="Path 478" transform="translate(-17.714 -.382)"/>
        <path id="Path_488" d="M67.881 21.364c.158-.532.551-1.424 1.421-1.424v-.566a1.817 1.817 0 0 0-1.577.95 2.949 2.949 0 0 0-3.625-1.81 3.064 3.064 0 0 0 3.34 2.4 4.019 4.019 0 0 0-.17.557c-6.44-2.482-5.95 6.526-2.352 8.741.977.494 1.091-.165 2.55-.3 1.461.139 1.567.8 2.548.3 3.545-2.192 4.018-10.961-2.135-8.848z" class="cls-6" data-name="Path 488" transform="translate(-3.144 -9.818)"/>
        <path id="Path_462" d="M66.417 20.581c.117-.393.407-1.051 1.048-1.051v-.417a1.341 1.341 0 0 0-1.164.7 2.176 2.176 0 0 0-2.676-1.336 2.26 2.26 0 0 0 2.464 1.767 2.965 2.965 0 0 0-.126.411c-4.751-1.831-4.39 4.815-1.735 6.449.72.364.8-.122 1.881-.224 1.078.1 1.156.588 1.88.224 2.618-1.612 2.966-8.082-1.572-6.523z" class="cls-7" data-name="Path 462" transform="translate(-8.135 4.986)"/>
        <path id="Path_470" d="M66.417 20.581c.117-.393.407-1.051 1.048-1.051v-.417a1.341 1.341 0 0 0-1.164.7 2.176 2.176 0 0 0-2.676-1.336 2.26 2.26 0 0 0 2.464 1.767 2.965 2.965 0 0 0-.126.411c-4.751-1.831-4.39 4.815-1.735 6.449.72.364.8-.122 1.881-.224 1.078.1 1.156.588 1.88.224 2.618-1.612 2.966-8.082-1.572-6.523z" class="cls-4" data-name="Path 470" transform="translate(-37.275 5.752)"/>
        <path id="Path_476" d="M66.417 20.581c.117-.393.407-1.051 1.048-1.051v-.417a1.341 1.341 0 0 0-1.164.7 2.176 2.176 0 0 0-2.676-1.336 2.26 2.26 0 0 0 2.464 1.767 2.965 2.965 0 0 0-.126.411c-4.751-1.831-4.39 4.815-1.735 6.449.72.364.8-.122 1.881-.224 1.078.1 1.156.588 1.88.224 2.618-1.612 2.966-8.082-1.572-6.523z" class="cls-1" data-name="Path 476" transform="translate(-29.607 1.151)"/>
        <path id="Path_486" d="M66.417 20.581c.117-.393.407-1.051 1.048-1.051v-.417a1.341 1.341 0 0 0-1.164.7 2.176 2.176 0 0 0-2.676-1.336 2.26 2.26 0 0 0 2.464 1.767 2.965 2.965 0 0 0-.126.411c-4.751-1.831-4.39 4.815-1.735 6.449.72.364.8-.122 1.881-.224 1.078.1 1.156.588 1.88.224 2.618-1.612 2.966-8.082-1.572-6.523z" class="cls-6" data-name="Path 486" transform="translate(-15.037 -5.983)"/>
        <path id="Path_492" d="M66.417 20.581c.117-.393.407-1.051 1.048-1.051v-.417a1.341 1.341 0 0 0-1.164.7 2.176 2.176 0 0 0-2.676-1.336 2.26 2.26 0 0 0 2.464 1.767 2.965 2.965 0 0 0-.126.411c-4.751-1.831-4.39 4.815-1.735 6.449.72.364.8-.122 1.881-.224 1.078.1 1.156.588 1.88.224 2.618-1.612 2.966-8.082-1.572-6.523z" class="cls-2" data-name="Path 492" transform="translate(-8.902 -10.351)"/>
        <path id="Path_482" d="M66.417 20.581c.117-.393.407-1.051 1.048-1.051v-.417a1.341 1.341 0 0 0-1.164.7 2.176 2.176 0 0 0-2.676-1.336 2.26 2.26 0 0 0 2.464 1.767 2.965 2.965 0 0 0-.126.411c-4.751-1.831-4.39 4.815-1.735 6.449.72.364.8-.122 1.881-.224 1.078.1 1.156.588 1.88.224 2.618-1.612 2.966-8.082-1.572-6.523z" class="cls-7" data-name="Path 482" transform="translate(3.367 .385)"/>
        <g id="Rectangle_204" class="cls-9" data-name="Rectangle 204" transform="rotate(90 30.366 50.866)">
            <rect width="3" height="69" class="cls-13" rx="1.5"/>
            <rect width="2.5" height="68.5" x=".25" y=".25" class="cls-14" rx="1.25"/>
        </g>
        <g id="Rectangle_203" class="cls-9" data-name="Rectangle 203" transform="rotate(90 27.866 53.366)">
            <rect width="3" height="69" class="cls-13" rx="1.5"/>
            <rect width="2.5" height="68.5" x=".25" y=".25" class="cls-14" rx="1.25"/>
        </g>
        <g id="Rectangle_198" class="cls-9" data-name="Rectangle 198" transform="translate(10.732 18)">
            <rect width="3" height="16" class="cls-13" rx="1.5"/>
            <rect width="2.5" height="15.5" x=".25" y=".25" class="cls-14" rx="1.25"/>
        </g>
        <g id="Rectangle_199" class="cls-9" data-name="Rectangle 199" transform="translate(26.732 18)">
            <rect width="3" height="16" class="cls-13" rx="1.5"/>
            <rect width="2.5" height="15.5" x=".25" y=".25" class="cls-14" rx="1.25"/>
        </g>
        <g id="Rectangle_200" class="cls-9" data-name="Rectangle 200" transform="translate(44.732 18)">
            <rect width="3" height="16" class="cls-13" rx="1.5"/>
            <rect width="2.5" height="15.5" x=".25" y=".25" class="cls-14" rx="1.25"/>
        </g>
        <g id="Rectangle_201" class="cls-9" data-name="Rectangle 201" transform="translate(61.732 18)">
            <rect width="3" height="16" class="cls-13" rx="1.5"/>
            <rect width="2.5" height="15.5" x=".25" y=".25" class="cls-14" rx="1.25"/>
        </g>
        <g id="Rectangle_202" class="cls-9" data-name="Rectangle 202" transform="translate(78.732 18)">
            <rect width="3" height="16" class="cls-13" rx="1.5"/>
            <rect width="2.5" height="15.5" x=".25" y=".25" class="cls-14" rx="1.25"/>
        </g>
        <g id="Group_155" data-name="Group 155">
            <g id="Ellipse_23" class="cls-10" data-name="Ellipse 23" transform="translate(9.732 32)">
                <circle cx="8.5" cy="8.5" r="8.5" class="cls-13"/>
                <circle cx="8.5" cy="8.5" r="8" class="cls-14"/>
            </g>
            <g id="Ellipse_24" class="cls-11" data-name="Ellipse 24" transform="translate(13.732 36)">
                <circle cx="4.5" cy="4.5" r="4.5" class="cls-13"/>
                <circle cx="4.5" cy="4.5" r="4" class="cls-14"/>
            </g>
        </g>
        <g id="Group_156" data-name="Group 156" transform="translate(55)">
            <g id="Ellipse_23-2" class="cls-10" data-name="Ellipse 23" transform="translate(9.732 32)">
                <circle cx="8.5" cy="8.5" r="8.5" class="cls-13"/>
                <circle cx="8.5" cy="8.5" r="8" class="cls-14"/>
            </g>
            <g id="Ellipse_24-2" class="cls-11" data-name="Ellipse 24" transform="translate(13.732 36)">
                <circle cx="4.5" cy="4.5" r="4.5" class="cls-13"/>
                <circle cx="4.5" cy="4.5" r="4" class="cls-14"/>
            </g>
        </g>
        <g id="Rectangle_197" class="cls-10" data-name="Rectangle 197" transform="translate(9.732 30)">
            <rect width="73" height="5" class="cls-13" rx="2"/>
            <rect width="72" height="4" x=".5" y=".5" class="cls-14" rx="1.5"/>
        </g>
        <g id="noun_Monster_3288355" transform="translate(-2)">
            <path id="Path_461" d="M41.532 26.923a1.956 1.956 0 1 1 1.959-1.954 1.953 1.953 0 0 1-1.959 1.954zm.581-2.972a.439.439 0 1 0 .437.437.44.44 0 0 0-.437-.437z" class="cls-12" data-name="Path 461" transform="translate(-23.732 -14.619)"/>
            <path id="Path_460" d="M43.242 35.733c-.3 1.512-2.616.874-2.314-.639a14.982 14.982 0 0 0-3.394-12.42L36.453 27.3l-1.92 1.728-.591-1.887-1.368 1.429-.6-1.9-1.373 1.435-.591-1.882s-3.951 4.052-5.233 5.406q2.06 5.135 4.114 10.274a1.209 1.209 0 0 1-1.157 1.522h-6.4a1.2 1.2 0 0 1 0-2.4h4.638q-1.872-4.674-3.74-9.347a1.183 1.183 0 0 1 .307-1.171l3.889-4.1-.346-1.095-1.362 1.424-.6-1.9-1.373 1.435-.379-1.205q-3.629 2.7-7.249 5.4 1.591 5.718 3.188 11.436a1.215 1.215 0 0 1-1.157 1.522h-5.028a1.2 1.2 0 0 1 0-2.4h3.447l-2.981-10.7a1.244 1.244 0 0 1 .552-1.354q3.435-2.556 6.87-5.118l-.178-.432.461-1.973-5.742 3.077a1.215 1.215 0 0 1-1.762-.715q-1.728-5.549-3.461-11.091c-.461-1.479 1.858-2.112 2.314-.639q1.512 4.832 3.02 9.669 3.176-1.707 6.356-3.409l.519-2.218a8.48 8.48 0 0 1 2.016-3.812l-1.166-6.087c-.163-.85.048-.927.466-.168l2.616 4.7a8.476 8.476 0 0 1 11.537 2.693l4.426-3.058c.711-.49.864-.326.346.36l-3.745 4.945a8.448 8.448 0 0 1 .134 4.273 16.678 16.678 0 0 1 5.075 15.766zM27.067 12.089a3.793 3.793 0 1 0 3.793 3.793 3.791 3.791 0 0 0-3.793-3.793z" class="cls-12" data-name="Path 460" transform="translate(-9.268 -5.531)"/>
        </g>
    </g>
</svg>
