<svg xmlns="http://www.w3.org/2000/svg" xmlns:xlink="http://www.w3.org/1999/xlink" width="57.458" height="79.408" viewBox="0 0 57.458 79.408">
    <defs>
        <clipPath id="clip">
            <use xlink:href="#fill"/>
        </clipPath>
        <style>
            .cls-1{fill:#148f91}
        </style>
    </defs>
    <g id="brojevi_do_20_icon" data-name="brojevi do 20 icon" transform="translate(-250 -357.878)">
        <g id="noun_Monster_3288292" transform="translate(261 397)">
            <path id="Path_253" d="M12.176 14.161v10.957a1.315 1.315 0 0 0 1.233 1.347h8.108a7.259 7.259 0 0 0-.059.873 7.535 7.535 0 0 0 2.634 5.61q1.916 8.755 3.832 17.5H24.55c-1.583 0-1.588 2.695 0 2.695h4.937a1.3 1.3 0 0 0 1.223-1.38 1.491 1.491 0 0 0-.035-.329q-1.827-8.343-3.655-16.7a10.875 10.875 0 0 0 7.96 0l-3.655 16.7a1.571 1.571 0 0 0-.035.334 1.3 1.3 0 0 0 1.223 1.374h4.932c1.588 0 1.588-2.695 0-2.695h-3.366q1.909-8.747 3.827-17.5a7.535 7.535 0 0 0 2.634-5.61 7.266 7.266 0 0 0-.059-.873h8.108a1.315 1.315 0 0 0 1.233-1.347V14.161a1.235 1.235 0 1 0-2.466 0v9.609h-7.788a8.272 8.272 0 0 0-1.494-1.892c.035-.1.069-.2.1-.307a6.214 6.214 0 0 0 .252-2.15 4.542 4.542 0 0 0-.641-2.037 4.806 4.806 0 0 0-1.1-1.266 7.6 7.6 0 0 0-.9-.636l-.355-.194c-.528-.286-.834-.313-.873-.237-.049.1.173.313.592.706 0 0 .1.1.286.264a8.2 8.2 0 0 1 .651.771 3.443 3.443 0 0 1 .72 2.6 3.869 3.869 0 0 1-.444 1.207 10.892 10.892 0 0 0-10.727 0 3.859 3.859 0 0 1-.439-1.207 3.4 3.4 0 0 1 .72-2.6 7.5 7.5 0 0 1 .651-.771l.281-.264c.424-.393.641-.6.592-.706-.039-.075-.345-.049-.868.237 0 0-.133.07-.36.194a8.028 8.028 0 0 0-.9.636 4.8 4.8 0 0 0-1.1 1.266 4.6 4.6 0 0 0-.641 2.037 6.213 6.213 0 0 0 .252 2.15l.1.307a8.268 8.268 0 0 0-1.494 1.892h-7.787v-9.609a1.235 1.235 0 1 0-2.466 0zM31 22.725a3.157 3.157 0 1 1-2.875 3.142A3.017 3.017 0 0 1 31 22.725z" class="cls-1" data-name="Path 253" transform="translate(-12.176 -12.858)"/>
            <path id="Path_254" d="M45 35.157a1.539 1.539 0 1 0-1.539-1.539A1.538 1.538 0 0 0 45 35.157z" class="cls-1" data-name="Path 254" transform="translate(-26.178 -21.876)"/>
        </g>
        <g id="Group_149" data-name="Group 149" transform="translate(-807 -2602.527)">
            <path id="Path_436" fill="none" stroke="#148f91" d="M11.086 93.5a3.371 3.371 0 0 0 3.386 3.357h33.862A3.371 3.371 0 0 0 51.72 93.5L55.326 74H7.48zm34.708-14.421a.847.847 0 0 1 1.693 0v8.465a.847.847 0 0 1-1.693 0zm-5.079 0a.847.847 0 1 1 1.693 0v8.465a.847.847 0 0 1-1.693 0zm-5.079 0a.847.847 0 1 1 1.693 0v8.465a.847.847 0 0 1-1.693 0zm-5.079 0a.847.847 0 0 1 1.693 0v8.465a.847.847 0 0 1-1.693 0zm-5.079 0a.847.847 0 1 1 1.693 0v8.465a.847.847 0 0 1-1.693 0zm-5.079 0a.847.847 0 0 1 1.693 0v8.465a.847.847 0 0 1-1.693 0zm-5.079 0a.847.847 0 1 1 1.693 0v8.465a.847.847 0 0 1-1.693 0z" data-name="Path 436" transform="translate(1055.466 2903.287)"/>
            <path id="Path_443" fill="#8f53cb" d="M67.67 21.251c.152-.512.531-1.37 1.367-1.37v-.544a1.748 1.748 0 0 0-1.517.914 2.837 2.837 0 0 0-3.489-1.742 2.947 2.947 0 0 0 3.214 2.3 3.866 3.866 0 0 0-.164.536c-6.2-2.388-5.725 6.279-2.263 8.41.939.475 1.049-.159 2.453-.292 1.406.133 1.507.767 2.452.292 3.411-2.1 3.866-10.537-2.053-8.504z" data-name="Path 443" transform="translate(1015.993 2944.833)"/>
            <path id="Path_445" fill="#f3b051" d="M66.911 21.292c-.154-.519-.538-1.39-1.386-1.39v-.552a1.773 1.773 0 0 1 1.539.927A2.877 2.877 0 0 1 70.6 18.51a2.989 2.989 0 0 1-3.259 2.337 3.921 3.921 0 0 1 .166.543c6.284-2.421 5.806 6.368 2.295 8.529-.953.482-1.064-.161-2.488-.3-1.426.135-1.529.778-2.487.3-3.458-2.132-3.919-10.689 2.084-8.627z" data-name="Path 445" transform="translate(1007.342 2942.43)"/>
            <path id="Path_446" fill="#df367c" d="M67.578 21.2c.149-.5.521-1.347 1.344-1.347v-.533a1.718 1.718 0 0 0-1.491.9A2.789 2.789 0 0 0 64 18.506a2.9 2.9 0 0 0 3.159 2.265A3.8 3.8 0 0 0 67 21.3c-6.09-2.347-5.627 6.171-2.224 8.266.923.467 1.031-.156 2.411-.287 1.382.131 1.481.754 2.41.287C72.949 27.5 73.4 19.2 67.578 21.2z" data-name="Path 446" transform="translate(1031.502 2942.833)"/>
            <path id="Path_447" fill="#dc3d39" d="M67.592 21.209c.15-.5.523-1.351 1.347-1.351v-.536a1.723 1.723 0 0 0-1.5.9A2.8 2.8 0 0 0 64 18.507a2.9 2.9 0 0 0 3.167 2.271 3.81 3.81 0 0 0-.162.528c-6.106-2.353-5.642 6.188-2.23 8.288.926.468 1.034-.157 2.418-.288 1.385.132 1.485.756 2.416.288 3.368-2.073 3.816-10.388-2.017-8.385z" data-name="Path 447" transform="translate(998.691 2944.444)"/>
            <path id="Path_448" fill="#489cba" d="M67.4 21.6c-.171-.575-.6-1.538-1.534-1.538v-.611a1.962 1.962 0 0 1 1.7 1.026 3.184 3.184 0 0 1 3.916-1.955 3.308 3.308 0 0 1-3.607 2.587 4.339 4.339 0 0 1 .184.6c6.954-2.68 6.425 7.047 2.539 9.438-1.054.533-1.178-.178-2.753-.328-1.578.15-1.692.861-2.752.328-3.822-2.358-4.333-11.826 2.307-9.547z" data-name="Path 448" transform="translate(1039.555 2942.028)"/>
            <g id="Rectangle_196" fill="#e4e4e4" stroke="#e4e4e4" data-name="Rectangle 196" transform="translate(1057 2974.527)">
                <rect id="fill" width="53" stroke="none"/>
                <path fill="none" d="M0-.5h53m0 1H0M.5 0" clip-path="url(#clip)"/>
            </g>
            <path id="Path_444" fill="#6ab288" d="M66.268 20.886c-.133-.447-.463-1.2-1.193-1.2v-.475a1.526 1.526 0 0 1 1.324.8 2.476 2.476 0 0 1 3.046-1.521 2.573 2.573 0 0 1-2.805 2.01 3.374 3.374 0 0 1 .143.468c5.408-2.084 5 5.481 1.975 7.341-.82.414-.916-.139-2.142-.255-1.227.117-1.316.67-2.14.255-2.976-1.833-3.376-9.198 1.792-7.423z" data-name="Path 444" transform="translate(1024.838 2943.394)"/>
            <path id="Path_435" fill="#fff" stroke="#148f91" d="M50.792 56H3.386C1.515 56 0 57.139 0 58.54v3.386h54.178V58.54c0-1.401-1.515-2.54-3.386-2.54z" data-name="Path 435" transform="translate(1059.78 2914.515)"/>
        </g>
    </g>
</svg>
