<svg xmlns="http://www.w3.org/2000/svg" width="86.928" height="88.515" viewBox="0 0 86.928 88.515">
    <defs>
        <style>
            .cls-2{fill:#8f53cb}.cls-6{fill:#6ab288}.cls-7{fill:#dc3d39}.cls-9{fill:#148f91}
        </style>
    </defs>
    <g id="brojevi_do_10_icon" data-name="brojevi do 10 icon" transform="translate(-7.5 11.451)">
        <path id="Path_385" fill="#df367c" d="M51.568 45.747a3.485 3.485 0 0 0-.131-.427 2.352 2.352 0 0 0 2.571-1.841 2.267 2.267 0 0 0-2.791 1.393A1.4 1.4 0 0 0 50 44.144v.434c.666 0 .972.687 1.093 1.092-4.734-1.626-4.371 5.126-1.642 6.8.757.381.837-.126 1.96-.235 1.124.109 1.208.616 1.962.235 2.771-1.7 3.146-8.627-1.805-6.723z" data-name="Path 385" transform="translate(-8.433 -14.675)"/>
        <path id="Path_386" d="M21.588 46.359a3.25 3.25 0 0 0-.122-.4 2.183 2.183 0 0 0 2.385-1.708 2.106 2.106 0 0 0-2.59 1.29 1.292 1.292 0 0 0-1.126-.676v.4c.618 0 .9.636 1.014 1.013-4.393-1.507-4.055 4.755-1.524 6.316.7.351.776-.118 1.818-.218 1.046.1 1.124.569 1.821.218 2.571-1.575 2.922-8.005-1.676-6.235z" class="cls-2" data-name="Path 386" transform="translate(-5.421 -10.419)"/>
        <path id="Path_388" fill="#489cba" d="M80.25 46.235c.111-.369.385-.99.991-.99v-.394a1.269 1.269 0 0 0-1.1.66 2.056 2.056 0 0 0-2.53-1.261 2.135 2.135 0 0 0 2.331 1.669 3.135 3.135 0 0 0-.118.39c-4.492-1.73-4.153 4.552-1.639 6.1.681.343.757-.115 1.779-.213 1.016.1 1.089.556 1.776.213 2.475-1.528 2.801-7.648-1.49-6.174z" data-name="Path 388" transform="translate(-9.167 -9.105)"/>
        <path id="Path_389" fill="#ec8e43" d="M37.5 53.554a4.187 4.187 0 0 0-.127-.426 2.353 2.353 0 0 0 2.565-1.835 2.261 2.261 0 0 0-2.788 1.389 1.39 1.39 0 0 0-1.209-.729v.431c.667 0 .972.684 1.092 1.095-4.726-1.623-4.362 5.11-1.641 6.788.755.378.835-.125 1.956-.233 1.123.108 1.208.611 1.956.233 2.761-1.703 3.137-8.616-1.804-6.713z" data-name="Path 389" transform="translate(-6.759 -12.357)"/>
        <path id="Path_391" fill="#f3b051" d="M65.482 20.081c.09-.3.315-.813.811-.813v-.323a1.037 1.037 0 0 0-.9.542 1.682 1.682 0 0 0-2.069-1.033 1.748 1.748 0 0 0 1.906 1.367 2.294 2.294 0 0 0-.1.318c-3.674-1.416-3.395 3.723-1.342 4.987.557.282.622-.094 1.455-.173.834.079.894.455 1.454.173 2.026-1.247 2.295-6.25-1.215-5.045z" data-name="Path 391" transform="translate(-13.584 -3.777)"/>
        <path id="Path_496" d="M65.482 20.081c.09-.3.315-.813.811-.813v-.323a1.037 1.037 0 0 0-.9.542 1.682 1.682 0 0 0-2.069-1.033 1.748 1.748 0 0 0 1.906 1.367 2.294 2.294 0 0 0-.1.318c-3.674-1.416-3.395 3.723-1.342 4.987.557.282.622-.094 1.455-.173.834.079.894.455 1.454.173 2.026-1.247 2.295-6.25-1.215-5.045z" class="cls-2" data-name="Path 496" transform="translate(-15.584 21.223)"/>
        <path id="Path_392" d="M21.652 30.772a3.279 3.279 0 0 0-.124-.4 2.222 2.222 0 0 0 2.425-1.738 2.138 2.138 0 0 0-2.633 1.315 1.313 1.313 0 0 0-1.144-.689v.411c.629 0 .915.648 1.03 1.03-4.466-1.535-4.122 4.834-1.549 6.42.714.36.789-.119 1.849-.219 1.062.1 1.142.579 1.853.219 2.611-1.611 2.968-8.147-1.707-6.349z" class="cls-6" data-name="Path 392" transform="translate(3.177 -5.303)"/>
        <path id="Path_393" d="M80.281 29.85c.112-.374.388-1 1-1v-.4a1.277 1.277 0 0 0-1.109.666 2.066 2.066 0 0 0-2.551-1.272 2.155 2.155 0 0 0 2.35 1.681 3.028 3.028 0 0 0-.119.39c-4.529-1.745-4.186 4.588-1.651 6.147.685.35.762-.115 1.792-.214 1.024.1 1.1.563 1.791.214 2.495-1.528 2.824-7.699-1.503-6.212z" class="cls-7" data-name="Path 393" transform="translate(-17.439 -6.15)"/>
        <path id="Path_394" d="M64.124 43.031c.681.344.76-.114 1.778-.213 1.019.1 1.093.557 1.778.213 2.475-1.523 2.8-7.642-1.49-6.168.111-.369.386-.989.992-.989v-.394a1.264 1.264 0 0 0-1.1.659 2.052 2.052 0 0 0-2.53-1.261 2.133 2.133 0 0 0 2.33 1.667 2.96 2.96 0 0 0-.119.387c-4.492-1.725-4.149 4.553-1.639 6.099z" class="cls-6" data-name="Path 394" transform="translate(-9.378 -3.732)"/>
        <path id="Path_395" d="M35.32 27.153c.73.366.806-.122 1.89-.225 1.087.1 1.167.591 1.89.225 2.673-1.643 3.034-8.325-1.743-6.484a3.311 3.311 0 0 0-.124-.413 2.276 2.276 0 0 0 2.479-1.777 2.191 2.191 0 0 0-2.694 1.343 1.348 1.348 0 0 0-1.17-.7v.42c.646 0 .939.662 1.057 1.057-4.566-1.573-4.216 4.932-1.585 6.554z" class="cls-7" data-name="Path 395" transform="translate(-4.371 -4.371)"/>
        <path id="Path_397" fill="none" stroke="#148f91" d="M77.829 29.642a8.824 8.824 0 0 0-8.024-8.747 8.836 8.836 0 0 0-8.838-8.071 8.976 8.976 0 0 0-3.391.661 8.915 8.915 0 0 0-15.352-3.033 8.914 8.914 0 0 0-15.184 2.9 8.94 8.94 0 0 0-3.033-.524 8.794 8.794 0 0 0-8.7 10.552c-.262-.021-.531-.039-.8-.039a8.831 8.831 0 0 0-8.874 8.788 8.671 8.671 0 0 0 1.512 4.907A8.672 8.672 0 0 0 5 42.75a8.893 8.893 0 0 0 15.937 5.317A8.927 8.927 0 0 0 34.8 50a8.923 8.923 0 0 0 2.216 1.948c1.323 5.366.5 15.984-3.433 24.613h16.273c-3.086-5.422-4.759-19.458-3.62-24.508A8.894 8.894 0 0 0 48.639 50a8.921 8.921 0 0 0 14.393-3.015A8.892 8.892 0 0 0 78.7 41.339a8.725 8.725 0 0 0-2.725-6.33 8.7 8.7 0 0 0 1.854-5.367z" data-name="Path 397" transform="translate(3)"/>
        <g id="noun_Monster_3288383" transform="rotate(39 29.383 83.477)">
            <path id="Path_370" d="M30.951 15.929c-.478-1.741-.688-4.366-2.479-5.327-1.673-.9-3.715-.044-5.358 1.047a6.012 6.012 0 0 0-.6-1.524l1.778-4c.247-.555.115-.644-.295-.193l-2.55 2.811a5.974 5.974 0 0 0-8.355 0l-2.55-2.811c-.41-.45-.542-.362-.295.193l1.778 4a6.011 6.011 0 0 0-.6 1.524c-1.651-1.092-3.69-1.942-5.363-1.049-1.754.942-1.968 3.461-2.435 5.168l-.528 1.934a.847.847 0 0 0 1.632.45c.071-.257.139-.515.21-.772.4-1.446.566-3.654 1.453-4.843 1.087-1.46 3.458-.017 4.853 1.06v4.755l1.043 1.494.274-.464q.462.935.928 1.87c.366.742 2.1.447 1.612-.549q-.437-.879-.867-1.751l.183-.315.715 1.209.708-1.2.711 1.2.711-1.209.715 1.209.708-1.2.711 1.2.711-1.209.186.315q-.4.8-.793 1.6c-.515 1.04 1.172 1.443 1.538.7.308-.623.62-1.246.928-1.87l.274.464 1.043-1.494V13.6c1.392-1.077 3.766-2.52 4.853-1.06.867 1.168 1.036 3.336 1.426 4.752l.237.864a.847.847 0 0 0 1.632-.45l-.483-1.777zm-13.686 1.652a2.676 2.676 0 1 1 2.676-2.676 2.677 2.677 0 0 1-2.676 2.676z" class="cls-9" data-name="Path 370" transform="translate(0 -23)"/>
            <path id="Path_371" d="M1.377 0a1.378 1.378 0 1 0 1.38 1.38A1.379 1.379 0 0 0 1.377 0zM.971 1.282a.31.31 0 1 1 .311-.311.31.31 0 0 1-.311.311z" class="cls-9" data-name="Path 371" transform="rotate(-120 6.77 -7.608)"/>
        </g>
    </g>
</svg>
