<svg xmlns="http://www.w3.org/2000/svg" width="82.832" height="94.079" viewBox="0 0 82.832 94.079">
    <defs>
        <style>
            .cls-1{fill:#148f91}
        </style>
    </defs>
    <g id="decimalni_brojevi" transform="translate(-1205.627 -5397)">
        <g id="noun_Monster_3288355" transform="translate(1205.627 5454.814)">
            <path id="Path_722" d="M9.589 34.432c.285 1.447 2.5.836 2.214-.611a14.337 14.337 0 0 1 3.248-11.885l1.034 4.424 1.838 1.654.565-1.805 1.312 1.369.57-1.815 1.314 1.374.565-1.8s3.781 3.877 5.008 5.173q-1.971 4.913-3.937 9.831a1.157 1.157 0 0 0 1.104 1.459h6.128a1.149 1.149 0 0 0 0-2.3h-4.438q1.792-4.472 3.579-8.945a1.132 1.132 0 0 0-.294-1.121l-3.721-3.928.331-1.047 1.3 1.364.57-1.815 1.321 1.374.363-1.153q3.47 2.584 6.937 5.171-1.523 5.472-3.05 10.943a1.163 1.163 0 0 0 1.104 1.457h4.815a1.149 1.149 0 0 0 0-2.3h-3.3l2.853-10.24a1.191 1.191 0 0 0-.528-1.3q-3.287-2.446-6.574-4.9l.17-.413-.441-1.888 5.494 2.945a1.162 1.162 0 0 0 1.686-.685q1.654-5.313 3.312-10.617c.441-1.415-1.778-2.021-2.214-.611q-1.447 4.624-2.89 9.252-3.039-1.633-6.083-3.262l-.5-2.122a8.115 8.115 0 0 0-1.93-3.648l1.116-5.825c.156-.813-.046-.887-.446-.161l-2.5 4.493A8.11 8.11 0 0 0 15.557 13.1l-4.236-2.926c-.68-.469-.827-.312-.331.345l3.583 4.732a8.084 8.084 0 0 0-.129 4.089 15.96 15.96 0 0 0-4.855 15.092zm15.478-22.626a3.629 3.629 0 1 1-3.629 3.629 3.628 3.628 0 0 1 3.629-3.629z" class="cls-1" transform="translate(-9.268 -5.531)"/>
            <path id="Path_723" d="M41.452 26.754a1.872 1.872 0 1 0-1.874-1.87 1.868 1.868 0 0 0 1.874 1.87zM40.9 23.91a.42.42 0 1 1-.418.418.421.421 0 0 1 .418-.418z" class="cls-1" transform="translate(-25.653 -14.98)"/>
        </g>
        <text id="_1" fill="#6ab288" font-family="Lato-Heavy, Lato" font-size="24px" font-weight="800" transform="translate(1227 5450)">
            <tspan x="0" y="0">1</tspan>
        </text>
        <text id="_2" fill="#8f53cb" font-family="Lato-Heavy, Lato" font-size="24px" font-weight="800" transform="translate(1251 5450)">
            <tspan x="0" y="0">2</tspan>
        </text>
        <text id="_2-2" fill="#f3b051" font-family="Lato-Heavy, Lato" font-size="24px" font-weight="800" transform="translate(1265 5450)">
            <tspan x="0" y="0">2</tspan>
        </text>
        <text id="_" fill="#df367c" font-family="Lato-Heavy, Lato" font-size="58px" font-weight="800" transform="translate(1238 5454)">
            <tspan x="0" y="0">,</tspan>
        </text>
        <g id="noun_Monster_3288383" transform="rotate(32 -8814.95 4921.94)">
            <path id="Path_370" d="M22.808 8.41c-.391-1.424-.562-3.57-2.028-4.357-1.368-.734-3.039-.036-4.382.856a4.917 4.917 0 0 0-.493-1.246L17.36.393c.2-.454.094-.526-.241-.158l-2.086 2.3a4.886 4.886 0 0 0-6.833 0L6.114.236c-.335-.368-.443-.3-.241.158l1.454 3.268a4.917 4.917 0 0 0-.493 1.246c-1.346-.891-3.014-1.587-4.382-.855C1.017 4.823.843 6.883.46 8.28L.028 9.861a.693.693 0 0 0 1.335.368l.172-.632c.324-1.182.465-2.988 1.188-3.96.889-1.194 2.828-.014 3.969.867v3.889l.853 1.222.224-.379q.378.764.759 1.529c.3.607 1.72.366 1.319-.449l-.709-1.432.15-.258.584.989.579-.981.582.981.582-.989.584.989.579-.981.582.981.582-.989.152.258-.648 1.307c-.421.85.958 1.18 1.258.573.252-.51.507-1.019.759-1.529l.224.379.853-1.222V6.5c1.138-.881 3.08-2.061 3.969-.867.709.956.848 2.728 1.166 3.886l.194.706a.693.693 0 0 0 1.331-.364l-.392-1.451zM11.615 9.761A2.188 2.188 0 1 1 13.8 7.573a2.189 2.189 0 0 1-2.185 2.188z" class="cls-1"/>
            <path id="Path_371" d="M1.126 0a1.127 1.127 0 1 0 1.129 1.129A1.128 1.128 0 0 0 1.126 0zM.794 1.049a.253.253 0 1 1 .255-.255.254.254 0 0 1-.255.255z" class="cls-1" transform="rotate(-120 8.382 1.598)"/>
        </g>
    </g>
</svg>
