<svg xmlns="http://www.w3.org/2000/svg" xmlns:xlink="http://www.w3.org/1999/xlink" width="79.013" height="82.626" viewBox="0 0 79.013 82.626">
    <defs>
        <clipPath id="clip-path">
            <path d="M0 0H64V3H0z" class="cls-1"/>
        </clipPath>
        <clipPath id="clip-path-2">
            <path d="M0 0H66.5V2H0z" class="cls-1"/>
        </clipPath>
        <clipPath id="clip">
            <use xlink:href="#fill"/>
        </clipPath>
        <clipPath id="clip-2">
            <use xlink:href="#fill-2"/>
        </clipPath>
        <clipPath id="clip-3">
            <use xlink:href="#fill-3"/>
        </clipPath>
        <clipPath id="clip-4">
            <use xlink:href="#fill-4"/>
        </clipPath>
        <clipPath id="clip-5">
            <use xlink:href="#fill-5"/>
        </clipPath>
        <clipPath id="clip-6">
            <use xlink:href="#fill-6"/>
        </clipPath>
        <clipPath id="clip-7">
            <use xlink:href="#fill-7"/>
        </clipPath>
        <clipPath id="clip-8">
            <use xlink:href="#fill-8"/>
        </clipPath>
        <clipPath id="clip-9">
            <use xlink:href="#fill-9"/>
        </clipPath>
        <clipPath id="clip-10">
            <use xlink:href="#fill-10"/>
        </clipPath>
        <style>
            .cls-1,.cls-3{fill:none}.cls-2{fill:#148f91}.cls-3{stroke:#148f91}.cls-7{stroke:none}
        </style>
    </defs>
    <g id="duzina" transform="translate(-242.163 -1124.544)">
        <g id="noun_Monster_3288357" transform="translate(235 1144.61)">
            <path id="Path_547" d="M20.169 29.324l1.8 7.695 2.683 2.415.825-2.63 1.91 1.996.832-2.65 1.919 2.006.832-2.63 1.905 1.992.034-.107 5.367 5.669-5.75 14.352a1.687 1.687 0 0 0 1.617 2.127h8.949a1.678 1.678 0 0 0 0-3.354h-6.48l5.233-13.061a1.655 1.655 0 0 0-.436-1.63q-2.717-2.878-5.434-5.742l.483-1.529 1.905 1.992.832-2.65 1.919 2.006.53-1.677q5.072 3.763 10.136 7.54-2.234 7.99-4.454 15.979a1.7 1.7 0 0 0 1.617 2.127h7.024a1.678 1.678 0 0 0 0-3.354h-4.818l4.166-14.953a1.733 1.733 0 0 0-.771-1.892q-4.8-3.572-9.593-7.144l.241-.61-1.483-6.36c.074-.389.315-1.717.4-2.14a39.92 39.92 0 0 1 1.65-5.528c1.892-4.944 5.072-9.721 10.291-11.492 2.033-.691 1.161-3.931-.892-3.233-6.968 2.367-11.221 8.846-13.381 15.77a11.709 11.709 0 0 0-1.784-2.542l1.63-8.513c.228-1.181-.067-1.288-.651-.235L37.316 13.9A11.833 11.833 0 0 0 21.2 17.658l-6.19-4.273c-.993-.684-1.208-.456-.476.5L19.76 20.8a11.837 11.837 0 0 0-.449 4.132 24.008 24.008 0 0 1-3.844-3.039c-5.186-5.105-4.931-11.23-.939-17.053 1.221-1.784-1.684-3.468-2.9-1.7-4.407 6.433-4.937 13.8.309 19.89a27.147 27.147 0 0 0 8.232 6.294zm14.913-13.558a5.3 5.3 0 1 1-5.3 5.3 5.3 5.3 0 0 1 5.3-5.3z" class="cls-2" transform="translate(-1 3)"/>
            <path id="Path_548" d="M46.947 31.627a2.734 2.734 0 1 0-2.737-2.737 2.734 2.734 0 0 0 2.737 2.737zm-.812-4.159a.614.614 0 1 1-.61.61.614.614 0 0 1 .61-.61z" class="cls-2" transform="translate(-12.194 -6.837)"/>
        </g>
        <g id="lenjir" transform="translate(-3 832)">
            <g id="Rectangle_187" class="cls-3">
                <path d="M0 0H70V8H0z" class="cls-7" transform="translate(249 313)"/>
                <path d="M0.5 0.5H69.5V7.5H0.5z" class="cls-1" transform="translate(249 313)"/>
            </g>
            <g id="Repeat_Grid_5" clip-path="url(#clip-path)" transform="translate(255 314)">
                <g transform="translate(-255 -314)">
                    <g id="Rectangle_188" class="cls-3" transform="translate(255 314)">
                        <path d="M0 0H1V3H0z" class="cls-7"/>
                        <rect height="2" x=".5" y=".5" class="cls-1"/>
                    </g>
                    <g id="Rectangle_189" class="cls-3" transform="translate(255 314)">
                        <path d="M0 0H1V3H0z" class="cls-7"/>
                        <rect height="2" x=".5" y=".5" class="cls-1"/>
                    </g>
                </g>
                <g transform="translate(-248 -314)">
                    <g id="Rectangle_188-2" class="cls-3" transform="translate(255 314)">
                        <path d="M0 0H1V3H0z" class="cls-7"/>
                        <rect height="2" x=".5" y=".5" class="cls-1"/>
                    </g>
                    <g id="Rectangle_189-2" class="cls-3" transform="translate(255 314)">
                        <path d="M0 0H1V3H0z" class="cls-7"/>
                        <rect height="2" x=".5" y=".5" class="cls-1"/>
                    </g>
                </g>
                <g transform="translate(-241 -314)">
                    <g id="Rectangle_188-3" class="cls-3" transform="translate(255 314)">
                        <path d="M0 0H1V3H0z" class="cls-7"/>
                        <rect height="2" x=".5" y=".5" class="cls-1"/>
                    </g>
                    <g id="Rectangle_189-3" class="cls-3" transform="translate(255 314)">
                        <path d="M0 0H1V3H0z" class="cls-7"/>
                        <rect height="2" x=".5" y=".5" class="cls-1"/>
                    </g>
                </g>
                <g transform="translate(-234 -314)">
                    <g id="Rectangle_188-4" class="cls-3" transform="translate(255 314)">
                        <path d="M0 0H1V3H0z" class="cls-7"/>
                        <rect height="2" x=".5" y=".5" class="cls-1"/>
                    </g>
                    <g id="Rectangle_189-4" class="cls-3" transform="translate(255 314)">
                        <path d="M0 0H1V3H0z" class="cls-7"/>
                        <rect height="2" x=".5" y=".5" class="cls-1"/>
                    </g>
                </g>
                <g transform="translate(-227 -314)">
                    <g id="Rectangle_188-5" class="cls-3" transform="translate(255 314)">
                        <path d="M0 0H1V3H0z" class="cls-7"/>
                        <rect height="2" x=".5" y=".5" class="cls-1"/>
                    </g>
                    <g id="Rectangle_189-5" class="cls-3" transform="translate(255 314)">
                        <path d="M0 0H1V3H0z" class="cls-7"/>
                        <rect height="2" x=".5" y=".5" class="cls-1"/>
                    </g>
                </g>
                <g transform="translate(-220 -314)">
                    <g id="Rectangle_188-6" class="cls-3" transform="translate(255 314)">
                        <path d="M0 0H1V3H0z" class="cls-7"/>
                        <rect height="2" x=".5" y=".5" class="cls-1"/>
                    </g>
                    <g id="Rectangle_189-6" class="cls-3" transform="translate(255 314)">
                        <path d="M0 0H1V3H0z" class="cls-7"/>
                        <rect height="2" x=".5" y=".5" class="cls-1"/>
                    </g>
                </g>
                <g transform="translate(-213 -314)">
                    <g id="Rectangle_188-7" class="cls-3" transform="translate(255 314)">
                        <path d="M0 0H1V3H0z" class="cls-7"/>
                        <rect height="2" x=".5" y=".5" class="cls-1"/>
                    </g>
                    <g id="Rectangle_189-7" class="cls-3" transform="translate(255 314)">
                        <path d="M0 0H1V3H0z" class="cls-7"/>
                        <rect height="2" x=".5" y=".5" class="cls-1"/>
                    </g>
                </g>
                <g transform="translate(-206 -314)">
                    <g id="Rectangle_188-8" class="cls-3" transform="translate(255 314)">
                        <path d="M0 0H1V3H0z" class="cls-7"/>
                        <rect height="2" x=".5" y=".5" class="cls-1"/>
                    </g>
                    <g id="Rectangle_189-8" class="cls-3" transform="translate(255 314)">
                        <path d="M0 0H1V3H0z" class="cls-7"/>
                        <rect height="2" x=".5" y=".5" class="cls-1"/>
                    </g>
                </g>
                <g transform="translate(-199 -314)">
                    <g id="Rectangle_188-9" class="cls-3" transform="translate(255 314)">
                        <path d="M0 0H1V3H0z" class="cls-7"/>
                        <rect height="2" x=".5" y=".5" class="cls-1"/>
                    </g>
                    <g id="Rectangle_189-9" class="cls-3" transform="translate(255 314)">
                        <path d="M0 0H1V3H0z" class="cls-7"/>
                        <rect height="2" x=".5" y=".5" class="cls-1"/>
                    </g>
                </g>
                <g transform="translate(-192 -314)">
                    <g id="Rectangle_188-10" class="cls-3" transform="translate(255 314)">
                        <path d="M0 0H1V3H0z" class="cls-7"/>
                        <rect height="2" x=".5" y=".5" class="cls-1"/>
                    </g>
                    <g id="Rectangle_189-10" class="cls-3" transform="translate(255 314)">
                        <path d="M0 0H1V3H0z" class="cls-7"/>
                        <rect height="2" x=".5" y=".5" class="cls-1"/>
                    </g>
                </g>
            </g>
            <g id="Repeat_Grid_6" clip-path="url(#clip-path-2)" transform="translate(252 314)">
                <g transform="translate(-252 -314)">
                    <g id="Rectangle_190" class="cls-3" transform="translate(252 314)">
                        <path id="fill" d="M0 0H0.5V2H0z" class="cls-7"/>
                        <path fill="none" d="M0 .5h.5m0-.5v2m0-.5H0M0 2V0" clip-path="url(#clip)"/>
                    </g>
                </g>
                <g transform="translate(-245 -314)">
                    <g id="Rectangle_190-2" class="cls-3" transform="translate(252 314)">
                        <path id="fill-2" d="M0 0H0.5V2H0z" class="cls-7"/>
                        <path fill="none" d="M0 .5h.5m0-.5v2m0-.5H0M0 2V0" clip-path="url(#clip-2)"/>
                    </g>
                </g>
                <g transform="translate(-238 -314)">
                    <g id="Rectangle_190-3" class="cls-3" transform="translate(252 314)">
                        <path id="fill-3" d="M0 0H0.5V2H0z" class="cls-7"/>
                        <path fill="none" d="M0 .5h.5m0-.5v2m0-.5H0M0 2V0" clip-path="url(#clip-3)"/>
                    </g>
                </g>
                <g transform="translate(-231 -314)">
                    <g id="Rectangle_190-4" class="cls-3" transform="translate(252 314)">
                        <path id="fill-4" d="M0 0H0.5V2H0z" class="cls-7"/>
                        <path fill="none" d="M0 .5h.5m0-.5v2m0-.5H0M0 2V0" clip-path="url(#clip-4)"/>
                    </g>
                </g>
                <g transform="translate(-224 -314)">
                    <g id="Rectangle_190-5" class="cls-3" transform="translate(252 314)">
                        <path id="fill-5" d="M0 0H0.5V2H0z" class="cls-7"/>
                        <path fill="none" d="M0 .5h.5m0-.5v2m0-.5H0M0 2V0" clip-path="url(#clip-5)"/>
                    </g>
                </g>
                <g transform="translate(-217 -314)">
                    <g id="Rectangle_190-6" class="cls-3" transform="translate(252 314)">
                        <path id="fill-6" d="M0 0H0.5V2H0z" class="cls-7"/>
                        <path fill="none" d="M0 .5h.5m0-.5v2m0-.5H0M0 2V0" clip-path="url(#clip-6)"/>
                    </g>
                </g>
                <g transform="translate(-210 -314)">
                    <g id="Rectangle_190-7" class="cls-3" transform="translate(252 314)">
                        <path id="fill-7" d="M0 0H0.5V2H0z" class="cls-7"/>
                        <path fill="none" d="M0 .5h.5m0-.5v2m0-.5H0M0 2V0" clip-path="url(#clip-7)"/>
                    </g>
                </g>
                <g transform="translate(-203 -314)">
                    <g id="Rectangle_190-8" class="cls-3" transform="translate(252 314)">
                        <path id="fill-8" d="M0 0H0.5V2H0z" class="cls-7"/>
                        <path fill="none" d="M0 .5h.5m0-.5v2m0-.5H0M0 2V0" clip-path="url(#clip-8)"/>
                    </g>
                </g>
                <g transform="translate(-196 -314)">
                    <g id="Rectangle_190-9" class="cls-3" transform="translate(252 314)">
                        <path id="fill-9" d="M0 0H0.5V2H0z" class="cls-7"/>
                        <path fill="none" d="M0 .5h.5m0-.5v2m0-.5H0M0 2V0" clip-path="url(#clip-9)"/>
                    </g>
                </g>
                <g transform="translate(-189 -314)">
                    <g id="Rectangle_190-10" class="cls-3" transform="translate(252 314)">
                        <path id="fill-10" d="M0 0H0.5V2H0z" class="cls-7"/>
                        <path fill="none" d="M0 .5h.5m0-.5v2m0-.5H0M0 2V0" clip-path="url(#clip-10)"/>
                    </g>
                </g>
            </g>
        </g>
        <path id="Path_571" fill="#8f53cb" d="M24.568 36.48c.471.13-2.611.862-.76 4.742 1.66 3.477 3.956 1.695 3.956 1.695l2.983-2.854-.626 2.325a.389.389 0 0 0 .313.444.384.384 0 0 0 .493-.229l.621-2.331 1.155 3.97s1.1 2.689 4.273.508c3.543-2.433 1.238-4.607 1.713-4.485.921.41 1.476-.671 2.476-1.96s3.1-1.835 2.306-3.322c-.787-1.471-4.341-1.66-11.031 2.006a1.026 1.026 0 0 0-.043-.129.439.439 0 0 0 .072-.064c.005 0 .007.008.013.01a.181.181 0 0 0 .217-.125.173.173 0 0 0-.127-.212h-.016a.438.438 0 0 0-.071-.181c.626-.893 1.856-2.371 2.663-2.321a.2.2 0 0 0 .11.086.209.209 0 0 0 .107-.4.192.192 0 0 0-.192.068c-1-.062-2.335 1.665-2.87 2.418a.373.373 0 0 0-.063-.032.378.378 0 0 0-.075 0c-.085-.921-.379-3.084-1.275-3.529a.194.194 0 0 0-.136-.153.207.207 0 1 0-.108.4.2.2 0 0 0 .139-.018c.726.358 1.05 2.255 1.143 3.342a.432.432 0 0 0-.149.119c-.006 0-.008-.009-.015-.011a.175.175 0 1 0-.09.339h.016a.486.486 0 0 0 .032.093c-.033.028-.066.054-.1.088-3.96-6.519-7.137-8.132-8.554-7.254s.115 2.412.339 4.03.162 2.827 1.161 2.927z" transform="translate(277.53 1095.25)"/>
    </g>
</svg>
