<svg xmlns="http://www.w3.org/2000/svg" width="62.494" height="87" viewBox="0 0 62.494 87">
    <defs>
        <style>
            .cls-3{fill:#148f91}.cls-6{stroke:none}.cls-7{fill:none}
        </style>
    </defs>
    <g id="Group_270" transform="translate(-246.62 -1010)">
        <g id="Group_185" transform="scale(-1) rotate(-24 -4965.798 1308.47)">
            <g id="Ellipse_37" fill="#dc3d39" stroke="#148f91" transform="translate(286 1078)">
                <circle cx="6" cy="6" r="6" class="cls-6"/>
                <circle cx="6" cy="6" r="5.5" class="cls-7"/>
            </g>
            <g id="Path_634" fill="#6ab288">
                <path d="M6 11.5C2.967 11.5.5 9.033.5 6S2.967.5 6 .5s5.5 2.467 5.5 5.5-2.467 5.5-5.5 5.5z" class="cls-6" transform="translate(254 1078)"/>
                <path fill="#148f91" d="M6 1C3.243 1 1 3.243 1 6s2.243 5 5 5 5-2.243 5-5-2.243-5-5-5m0-1c3.314 0 6 2.686 6 6s-2.686 6-6 6-6-2.686-6-6 2.686-6 6-6z" transform="translate(254 1078)"/>
            </g>
            <g id="noun_Monster_24991" transform="translate(254.97 1033)">
                <g id="Group_180">
                    <g id="Group_179">
                        <path id="Path_549" d="M46.109 49.577c1.767.311 2.016-1.168 0-1.091s-2.458.234-3.681 1.247c.95-4.978 1.871-12.648-11.054-13.344 3.485-6.368 8.816-16.189 10.759-20.193 1.461-2.893 5.372-5.652 4.524-9.6-.334-1.519-1.113-2.92-1.224 0s-2.64 4.9-6.018 5.11c-3.3.212-9.066.472-14.593.731A101.337 101.337 0 0 1 13.7 12.2c-.114-.01-.224-.017-.332-.024h.01c-1.933-.243-5.1-2.58-4.852-5.124s-.916-2.438-1.434 0c-.94 4.418 2.837 6.9 4.049 9.236.883 1.684 6.913 13.446 10.708 20.581C10.277 36.077 8.242 42.2 7.982 48.954a6.021 6.021 0 0 0-1.508-.7c-2-.7-2.374.935-.742 1.013s.965.779-.222 1.012c-2.231.44-1.929 2.1.52 1.355a21.384 21.384 0 0 1 7.049-.81c1.41.156 1.558-.7.371-1.09a8.356 8.356 0 0 0-4.3-.234c-.076-10.43 7.523-11.168 13.638-10.872 1 1.861 1.748 3.192 2.034 3.6 1.329 1.869 2.121 2.453 3.346 0 0 0 .854-1.545 2.151-3.908 6.392.113 13.215 3.058 10.583 11.418-2.077-.389-3.042-.389-4.007 0s-1.039 1.869.816 1.246 6.159-.078 7.94.545 2.1-.467.459-1.013-1.769-1.251-.001-.939zM22.925 20.938l.087-.009zm-.192.023l.1-.013zm8.912.819q.122.023.244.039l-.244-.039zm.254.04a5.625 5.625 0 0 0 .737.051 5.62 5.62 0 0 1-.736-.05zm.739.051c.08 0 .159 0 .239-.005-.077.003-.16.005-.24.005zm.249-.006a5.416 5.416 0 0 0 .71-.079 5.332 5.332 0 0 1-.711.079zM36.01 20.6c.051-.048.1-.1.15-.149-.048.049-.098.101-.15.149zm-.85-5.593a4.556 4.556 0 0 0-.77.038 4.663 4.663 0 0 1 .77-.038zm-.776.039a7.783 7.783 0 0 0-.841.159 7.8 7.8 0 0 1 .842-.159zm-13.053.8h-.021zm-.061-.011l-.028-.005zm-.066-.012l-.034-.007zm-.071-.014l-.045-.009zm-.07-.014c-.2-.04-.452-.091-.73-.14.278.045.528.1.731.145zm-.73-.14l-.11-.019zm-.119-.02l-.108-.018zm-.118-.02l-.109-.017zm-.119-.018l-.118-.017zm-.325-.043c-.1-.012-.207-.022-.312-.031.105.01.209.02.313.032zm-.326-.032l-.154-.011zm-.155-.011l-.159-.008zM19 15.505h-.143zm-.165 0q-.151 0-.3.007.154-.012.305-.012zm-.326.008l-.129.01zm-.148.011l-.144.016zm-.163.019l-.121.019zm-.151.024c-.091.017-.18.037-.266.061q.133-.04.271-.065zm-.295.07c-.036.011-.072.022-.106.034.039-.016.074-.027.111-.038zm-.129.042l-.121.047c.044-.02.084-.036.126-.051zm-.14.055l-.1.047zm-.126.061c-.037.02-.073.04-.109.063.041-.026.077-.046.114-.066zm2.428 5.631h.121c-.332-.528-.693-1.047-1.139-1.166-.564-.152-.159-.214-.571.123a1.143 1.143 0 0 0-.255.374 2.465 2.465 0 0 0 .813.494c-.846-.311-1.586-1.1-2.046-2.811-.384-1.426-.073-2.194.54-2.583.346.474.785.935 1.091 1.3.278-.265.864-1.484 1.31-1.6l.2.026c.608.283.874 2.146 1.381 2.587a14.241 14.241 0 0 0 1.327-2.142l-.051-.008c.347.049.7.1 1.064.144h-.01a7.475 7.475 0 0 1 .413.725c.207.444.232.957.6 1.272a10.377 10.377 0 0 0 1.19-1.771q.336.024.672.041c.328.84.537 1.81 1.325 2.306A11.309 11.309 0 0 0 29 16.4c.388-.034.765-.083 1.13-.151.457.849 1.032 1.85 1.632 1.933.183-1.038 1.187-1.776 1.4-2.873-.26.073-.525.157-.792.249.4-.138.8-.258 1.179-.351.405.7.178 2.468.973 2.532.224.018.865-.788 1.026-.966a5.876 5.876 0 0 0 .875-1.374 2.231 2.231 0 0 0-1.255-.39c1.191.05 2.024.686 2.1 2.4a4.042 4.042 0 0 1-.932 2.847c.049-.058.1-.117.142-.178a.6.6 0 0 0-.4-.317c-.51-.046-.828.739-1.058 1.538a4.512 4.512 0 0 0 .408-.241 4.878 4.878 0 0 1-1.831.725 4.225 4.225 0 0 0-.992-1.339c-.612-.413-.538-.059-.752.712a5.181 5.181 0 0 1-.21.62q-.194-.036-.389-.085c-.458-.117-.932-.222-1.414-.315a6.058 6.058 0 0 0-1.04-1.154 2.052 2.052 0 0 0-.651.887c-.784-.1-1.562-.174-2.3-.213-.124-.242-.237-.474-.336-.676a1.483 1.483 0 0 0-.477.645 17.562 17.562 0 0 0-1.932.052 2.234 2.234 0 0 0-.678-1.011c-.336.227-.217.462-.4.787-.079.145-.169.293-.265.442h.009a9.156 9.156 0 0 1-1.98.288zm-.029 0h-.094zm-.125 0l-.1-.007zm-.12-.008c-.082-.007-.164-.017-.245-.03.087.006.168.012.25.023zm-.264-.033l-.107-.02zm-.121-.023a2.684 2.684 0 0 1-.366-.1 2.615 2.615 0 0 0 .371.093zm5.543-5.065h-.024zm-.536-.059l-.073-.009zm4.239.209zm-.315.011zm-.316.006zm-.321 0zm-.323 0zm-.328-.009zm4.469-.478l-.1.031zm-.326.1l-.108.03zm-.354.092l-.087.021zm.99-.3c.135-.052.27-.1.406-.153-.131.035-.266.084-.401.139zm.409-.155q.2-.074.4-.143c-.128.029-.257.08-.395.129zm4.217 4.732c.05-.052.1-.106.145-.161l-.14.147zm-.19.189c-.051.048-.1.094-.158.14.059-.06.111-.106.162-.154zm-.18.159c-.055.045-.11.09-.168.133.064-.058.118-.102.172-.147zm-.187.147q-.088.066-.18.127.096-.075.184-.141zm-6.608.308h-.023zm-3.6-.358h.079zm-2.743.092l-.167.025zm-.337.054h-.008zm-.176.034h-.014zm-.182.037h-.018zm4.638 14.9a2.634 2.634 0 0 1-2.568-2.7 2.75 2.75 0 0 1 .848-2c.037.018.073.036.111.053a4.887 4.887 0 0 0 1.712.571 3.418 3.418 0 0 0 1.726-.514 2.757 2.757 0 0 1 .738 1.89 2.633 2.633 0 0 1-2.565 2.687z" class="cls-3" transform="translate(-4.001 -4.891)"/>
                        <circle id="Ellipse_29" cx=".651" cy=".651" r=".651" class="cls-3" transform="translate(21.963 27.785)"/>
                    </g>
                </g>
            </g>
        </g>
        <g id="Ellipse_38" fill="#489cba" stroke="#148f91" transform="translate(254 1010)">
            <circle cx="6.5" cy="6.5" r="6.5" class="cls-6"/>
            <circle cx="6.5" cy="6.5" r="6" class="cls-7"/>
        </g>
        <g id="Rectangle_209" fill="#ec8e43" stroke="#148f91">
            <path d="M0 0H12V12H0z" class="cls-6" transform="translate(265 1085)"/>
            <path d="M0.5 0.5H11.5V11.5H0.5z" class="cls-7" transform="translate(265 1085)"/>
        </g>
    </g>
</svg>
