<svg xmlns="http://www.w3.org/2000/svg" width="70.61" height="74.874" viewBox="0 0 70.61 74.874">
    <defs>
        <style>
            .cls-1{fill:#148f91}
        </style>
    </defs>
    <g id="geometrijska_tela" transform="translate(-242.39 -793.041)">
        <g id="Group_290" transform="rotate(-152 235.61 930.941)">
            <g id="noun_Monster_24991" transform="translate(254.97 1033)">
                <g id="Group_180">
                    <g id="Group_179">
                        <path id="Path_549" d="M30.337 32.84c1.105.195 1.261-.731 0-.682a2.878 2.878 0 0 0-2.3.78c.594-3.113 1.17-7.911-6.914-8.346 2.18-3.983 5.514-10.125 6.729-12.63.914-1.81 3.36-3.535 2.829-6-.209-.95-.7-1.827-.766 0s-1.651 3.063-3.764 3.2c-2.063.133-5.67.3-9.128.457a63.382 63.382 0 0 1-6.957-.146l-.208-.015h.006C8.656 9.3 6.677 7.835 6.831 6.244s-.573-1.525-.9 0c-.588 2.763 1.775 4.313 2.532 5.777.552 1.053 4.324 8.41 6.7 12.872-7.237-.5-8.51 3.33-8.673 7.557a3.766 3.766 0 0 0-.943-.439c-1.253-.438-1.485.584-.464.633s.6.487-.139.633c-1.4.275-1.207 1.315.325.847a13.375 13.375 0 0 1 4.409-.506c.882.1.974-.439.232-.682a5.227 5.227 0 0 0-2.691-.147c-.044-6.522 4.708-6.984 8.533-6.8.627 1.164 1.093 2 1.272 2.249.831 1.169 1.327 1.534 2.093 0 0 0 .534-.967 1.345-2.445 4 .071 8.266 1.913 6.619 7.141a4.214 4.214 0 0 0-2.506 0c-.6.243-.65 1.169.51.779a10.725 10.725 0 0 1 4.966.341c1.114.39 1.316-.292.287-.633s-1.106-.776-.001-.581zm-14.5-17.912l.054-.006zm-.12.015l.065-.008zm5.574.512q.076.014.153.025-.077-.012-.153-.026zm.159.025a3.518 3.518 0 0 0 .461.032 3.514 3.514 0 0 1-.461-.032zm.462.032h.149c-.05-.002-.1-.001-.149-.001zm.156 0a3.388 3.388 0 0 0 .444-.049 3.335 3.335 0 0 1-.445.045zm1.954-.791c.032-.03.063-.061.094-.093-.031.027-.063.058-.095.088zm-.532-3.5a2.85 2.85 0 0 0-.482.024 2.917 2.917 0 0 1 .482-.027zm-.49.021a4.868 4.868 0 0 0-.526.1 4.882 4.882 0 0 1 .526-.1zm-8.164.5h-.013zm-.038-.007h-.017zm-.041-.008h-.021zm-.044-.009l-.028-.006zm-.044-.009c-.127-.025-.283-.057-.457-.087.178.032.334.064.461.089zm-.457-.087l-.069-.012zm-.074-.013l-.067-.011zm-.074-.012L14 11.589zm-.074-.011l-.074-.01zm-.2-.027c-.065-.008-.13-.014-.2-.02l.2.022zm-.2-.02l-.1-.007zm-.1-.007h-.1zm-.1 0h-.089zm-.1 0h-.187q.084-.005.179-.005zm-.2.005l-.08.006zm-.093.007l-.09.01zm-.1.012l-.075.012zm-.094.015c-.057.01-.113.023-.166.038q.063-.027.152-.043zm-.184.044l-.066.021zm-.081.026l-.076.03zm-.087.035l-.062.029zm-.079.038c-.023.012-.046.025-.068.039.008-.019.03-.032.053-.044zm1.519 3.522h.076c-.208-.33-.434-.655-.712-.73-.353-.095-.1-.134-.357.077a.715.715 0 0 0-.16.234 1.542 1.542 0 0 0 .508.309c-.529-.195-.992-.686-1.28-1.758-.24-.892-.046-1.372.338-1.616.217.3.491.585.682.814.174-.166.541-.928.819-1l.128.016c.381.177.547 1.342.864 1.618a8.907 8.907 0 0 0 .83-1.34h-.032c.217.031.439.061.665.09h-.02a4.674 4.674 0 0 1 .258.454c.13.278.145.6.374.8a6.49 6.49 0 0 0 .745-1.108q.21.015.42.026c.205.526.336 1.132.829 1.442a7.073 7.073 0 0 0 .772-1.461c.242-.021.479-.052.707-.094.286.531.645 1.157 1.021 1.209.114-.649.742-1.111.873-1.8-.162.046-.328.1-.5.156.252-.086.5-.161.738-.219.253.439.111 1.544.609 1.584.14.011.541-.493.642-.6a3.675 3.675 0 0 0 .547-.859 1.4 1.4 0 0 0-.785-.244c.745.032 1.266.429 1.316 1.5a2.528 2.528 0 0 1-.583 1.781c.031-.036.06-.073.089-.111a.372.372 0 0 0-.247-.2c-.319-.029-.518.462-.662.962a2.822 2.822 0 0 0 .255-.168 3.051 3.051 0 0 1-1.145.453 2.643 2.643 0 0 0-.62-.837c-.383-.258-.336-.037-.47.445a3.24 3.24 0 0 1-.131.388q-.122-.022-.243-.053c-.286-.073-.583-.139-.885-.2a3.789 3.789 0 0 0-.65-.724 1.284 1.284 0 0 0-.407.555c-.49-.064-.977-.109-1.437-.133-.078-.151-.148-.3-.21-.423a.927.927 0 0 0-.3.4 10.985 10.985 0 0 0-1.209.033 1.4 1.4 0 0 0-.424-.632c-.21.142-.136.289-.247.492-.05.09-.105.183-.165.276h.005a5.727 5.727 0 0 1-1.244.191zm-.018 0h-.059zm-.078 0h-.064zm-.075 0c-.051 0-.1-.01-.153-.019.033-.005.087.002.133.006zm-.18-.036l-.067-.013zm-.076-.014a1.679 1.679 0 0 1-.229-.066 1.635 1.635 0 0 0 .229.068zm3.466-3.166h-.015zm-.335-.037l-.045-.005zm2.651.131zm-.2.007zm-.2 0zm-.2 0zm-.2 0zm-.205-.006zm2.8-.3l-.06.019zm-.2.062l-.067.019zm-.221.057l-.055.013zm.619-.189c.085-.033.169-.065.254-.1zm.256-.1q.126-.046.251-.089c-.09.035-.173.065-.257.095zm2.637 2.96l.091-.1q-.05.057-.097.106zm-.119.118q-.048.045-.1.087c.03-.022.062-.051.094-.081zm-.113.1l-.1.083.095-.077zm-.117.092q-.055.041-.113.079.053-.032.108-.073zm-4.133.193h-.014zm-2.254-.224h.05zm-1.716.058l-.1.015zm-.211.034zm-.11.021h-.009zm-.114.023h-.011zm2.9 9.319a1.647 1.647 0 0 1-1.606-1.686 1.72 1.72 0 0 1 .53-1.251l.069.033a3.057 3.057 0 0 0 1.07.357 2.138 2.138 0 0 0 1.08-.322 1.724 1.724 0 0 1 .462 1.182 1.647 1.647 0 0 1-1.608 1.693z" class="cls-1" transform="translate(-4.001 -4.891)"/>
                        <circle id="Ellipse_29" cx=".407" cy=".407" r=".407" class="cls-1" transform="translate(12.953 17.378)"/>
                    </g>
                </g>
            </g>
        </g>
        <g id="noun_Pyramid_2596343" transform="rotate(175 123.921 438.42)">
            <path id="Path_759" fill="#ec8e43" stroke="#f3b051" d="M17.907 35.767L0 7.7 26.953 0l6.356 11.69zm1.16-3.572L32.2 11.69l-5.34-9.881zm-1.345 1.531l8.35-32.52L1.484 8.258z"/>
        </g>
        <g id="noun_cube_2943168" transform="translate(436 1011.232)">
            <path id="Path_760" fill="#dc3d39" stroke="#dc3d39" d="M11.519 23.929a.211.211 0 0 0 .029.048l.014.016a.208.208 0 0 0 .06.044l7.911 3.692h.031a.209.209 0 0 0 .039.006h.038a.209.209 0 0 0 .039-.006h.031l7.911-3.692a.208.208 0 0 0 .06-.044l.014-.016a.21.21 0 0 0 .029-.048c0-.005.005-.01.007-.016a.209.209 0 0 0 .012-.067v-8.438a.209.209 0 0 0-.012-.065l-.006-.015a.211.211 0 0 0-.034-.057v-.006a.21.21 0 0 0-.042-.036l-.017-.008-.007-.005-7.911-3.692h-.009a.205.205 0 0 0-.043-.01.121.121 0 0 0-.074 0 .205.205 0 0 0-.043.01h-.009l-7.911 3.692-.007.005-.017.008a.21.21 0 0 0-.042.036v.006a.211.211 0 0 0-.034.057l-.006.015a.209.209 0 0 0-.012.065v8.438a.209.209 0 0 0 .012.067c-.006.006-.003.011-.001.016zm15.8-.217l-5.617 2.621-1.872.874v-7.973l7.489-3.495zm-7.7-11.763l7.412 3.459-7.412 3.459-7.409-3.459zm-7.7 3.79l7.489 3.495v7.973l-1.872-.874-5.617-2.621z" transform="translate(-155 -177)"/>
        </g>
        <g id="noun_Monster_2235989" transform="rotate(1 -46772.724 16305.471)">
            <g id="Group_292" transform="translate(11.071 4.476)">
                <path id="Path_753" d="M52.357 29.9a.85.85 0 0 0-.141.013.7.7 0 0 0 .141 1.376.625.625 0 0 0 .069 0 .7.7 0 0 0-.069-1.387z" class="cls-1" transform="translate(-36.597 -21.359)"/>
                <path id="Path_754" d="M33.929 15.709c2.809-.509 1.709-3.076-.681-3.337a1.414 1.414 0 0 0 .768-2.176 3.426 3.426 0 0 0-2.552-.8 1.4 1.4 0 0 0 .424-2.467 4.127 4.127 0 0 0-3.573 0c.938-2.537-3.979-3.45-4.681-1.088a3.913 3.913 0 0 0-.279-.489 4.422 4.422 0 0 0-.279.489c-.7-2.361-5.615-1.449-4.681 1.088a4.127 4.127 0 0 0-3.573 0 1.4 1.4 0 0 0 .427 2.471 3.426 3.426 0 0 0-2.552.8 1.413 1.413 0 0 0 .764 2.176c-2.386.261-3.49 2.828-.681 3.337a2.565 2.565 0 0 0-1.7 2.249 1.352 1.352 0 0 0 1.959 1.161c-.767 1.449.083 3.552 2.212 2.682a1.747 1.747 0 0 0 .34 2.249 2.28 2.28 0 0 0 2.893-.437 1.617 1.617 0 0 0 .807 1.538q.092 2.079.188 4.164c-.181-.017-.366-.026-.554-.026-1.716 0-3.106.632-3.106 1.409s6.209.777 6.209 0c0-.341-.268-.655-.717-.9q-.1-2.3-.206-4.6a2.362 2.362 0 0 0 .952-.787 1.579 1.579 0 0 0 1.3 1.508 1.575 1.575 0 0 0 1.3-1.508 2.348 2.348 0 0 0 .956.787q-.1 2.3-.21 4.6c-.445.245-.717.559-.717.9 0 .777 6.209.777 6.209 0s-1.39-1.409-3.1-1.409c-.192 0-.377.01-.558.026.065-1.389.127-2.778.192-4.164a1.623 1.623 0 0 0 .807-1.538 2.28 2.28 0 0 0 2.893.437 1.756 1.756 0 0 0 .34-2.249c2.125.87 2.976-1.234 2.212-2.682a1.348 1.348 0 0 0 1.955-1.161 2.559 2.559 0 0 0-1.707-2.253zm-13.844-.327h-.119a2.817 2.817 0 0 1-2.936-2.679 2.479 2.479 0 0 1 .275-1.128l2.918.433 2.657.394a2.071 2.071 0 0 1 .022.3 2.8 2.8 0 0 1-2.817 2.68zm1.235 2.553a1.856 1.856 0 0 1 2.035-1.6 1.854 1.854 0 0 1 2.035 1.6c-.001.883-4.07.883-4.07 0zm5.543-2.553h-.116a2.817 2.817 0 0 1-2.936-2.679 2.744 2.744 0 0 1 .018-.3l2.563-.38 3.016-.446a2.476 2.476 0 0 1 .272 1.128 2.8 2.8 0 0 1-2.817 2.677z" class="cls-1" transform="translate(-11.071 -4.476)"/>
                <path id="Path_755" d="M33.707 29.9a.673.673 0 0 0-.072 0 .695.695 0 0 0 0 1.389.672.672 0 0 0 .072 0 .7.7 0 0 0 0-1.384z" class="cls-1" transform="translate(-24.825 -21.359)"/>
            </g>
        </g>
    </g>
</svg>
