<svg xmlns="http://www.w3.org/2000/svg" width="69.937" height="63.408" viewBox="0 0 69.937 63.408">
    <defs>
        <style>
            .cls-1{fill:#148f91}.cls-2{fill:#ec8e43;stroke:#ec8e43;stroke-linejoin:round}.cls-3{fill:#8f53cb}.cls-4{fill:#df367c}.cls-5{stroke:none}.cls-6{fill:none}
        </style>
    </defs>
    <g id="Group_261" transform="translate(-247.948 -585.509)">
        <g id="noun_Monster_3288274" transform="translate(254 596.138)">
            <path id="Path_700" d="M50.992 11.594a18 18 0 0 0-7.111 8.744 50.945 50.945 0 0 0-1.846 5.848c-.24.9-.354 1.84-.55 2.75a12.284 12.284 0 0 1-.425 1.639c-.131.343-.463 1.252-.915 1.269-.408 0-2.281-3.1-2.848-4.2-.027-.054-.054-.114-.087-.169a6.269 6.269 0 0 0 1.094-1.53 7.577 7.577 0 0 0-.795-7.557l4.41-3.131c.849-.6.735-.822-.25-.485l-5.543 1.878a12.532 12.532 0 0 0-2.226-1.789l2.254-6.806c.332-.991.109-1.1-.49-.245l-4.111 5.875a12.418 12.418 0 0 0-2.766-.719l-1.8-5.57c-.321-1-.566-.953-.545.093l.12 5.4a7.591 7.591 0 0 0-6.534 3.871 7.6 7.6 0 0 0 .817 7.6c-.572.909-1.165 1.8-1.791 2.679a16.994 16.994 0 0 1-3.109 3.583c-1.024.811-1.345.975-1.8-.316-.888-2.51-.615-5.592-1.067-8.222a37.757 37.757 0 0 0-2.14-7.748 16.754 16.754 0 0 0-3.031-5.284c-1.214-1.269-3.136.658-1.927 1.927 2.129 2.232 3.131 5.886 3.839 8.772.844 3.419.817 6.926 1.492 10.351.272 1.383.779 2.995 2.145 3.664 3.354 1.65 6.969-3.212 9.333-7.166.3.272.621.534.964.784q-1.994 6.257-3.992 12.516-.743 2.352-1.5 4.7a18.381 18.381 0 0 0-.909 2.5 12.753 12.753 0 0 0-1.579.975l-3.915 2.172c-1.53.849-.158 3.2 1.378 2.347 1.3-.724 2.608-1.448 3.909-2.172 1.007-.555 2.211-.958 2.761-2 1.056-2.02 1.486-4.677 2.178-6.839q2.042-6.4 4.078-12.812a12.322 12.322 0 0 0 4.383 1.062q-1.829 10.618-3.654 21.23a1.379 1.379 0 0 0 1.312 1.721h7.677a1.362 1.362 0 0 0 0-2.722h-6.068q1.764-10.239 3.523-20.462a8.851 8.851 0 0 0 1.633-.544c.065.125.125.25.191.376.975 1.829 2.581 5.107 5 5.265 3.087.2 3.664-4.661 4.22-6.735 1.47-5.439 2.951-10.808 7.982-14.015 1.479-.947.118-3.3-1.369-2.353zm-20.031 8.369a3.083 3.083 0 1 1-1.372-4.138 3.093 3.093 0 0 1 1.372 4.138z" class="cls-1"/>
            <path id="Path_701" d="M41.932 24.462a.947.947 0 1 0 .419 1.274.945.945 0 0 0-.419-1.274z" class="cls-1" transform="translate(-13.933 -7.047)"/>
        </g>
        <g id="Group_258" transform="translate(25 64)">
            <g id="Rectangle_193" class="cls-2" transform="translate(255 522.952)">
                <rect width="3" height="13" class="cls-5" rx="1.5"/>
                <rect width="2" height="12" x=".5" y=".5" class="cls-6" rx="1"/>
            </g>
            <g id="Rectangle_194" class="cls-2" transform="rotate(90 -132.476 395.476)">
                <rect width="3" height="13" class="cls-5" rx="1.5"/>
                <rect width="2" height="12" x=".5" y=".5" class="cls-6" rx="1"/>
            </g>
        </g>
        <g id="Group_257" transform="rotate(42 269.505 574.441)">
            <rect id="Rectangle_193-2" width="2.69" height="15.644" class="cls-3" rx="1.345" transform="rotate(-13 2733.098 -874.923)"/>
            <rect id="Rectangle_194-2" width="2.69" height="15.644" class="cls-3" rx="1.345" transform="rotate(111 -67.848 395.82)"/>
        </g>
        <g id="Group_260" transform="rotate(42 296.9 653.594)">
            <rect id="Rectangle_193-3" width="2.69" height="15.644" class="cls-4" rx="1.345" transform="rotate(-13 2733.098 -874.923)"/>
            <rect id="Rectangle_194-3" width="2.69" height="9.644" class="cls-4" rx="1.345" transform="rotate(111 -69.91 392.821)"/>
        </g>
    </g>
</svg>
