<svg xmlns="http://www.w3.org/2000/svg" width="77.48" height="43.984" viewBox="0 0 77.48 43.984">
    <defs>
        <style>
            .cls-1{fill:#148f91}.cls-2{fill:#dc3d39}
        </style>
    </defs>
    <g id="jednacine_i_nejednacine" transform="translate(-241.133 -589.974)">
        <g id="noun_Monster_99939" transform="translate(210.933 577.638)">
            <g id="Group_275" transform="translate(30.2 12.337)">
                <path id="Path_720" d="M47.456 35.7a2.656 2.656 0 1 0 2.656 2.656 2.653 2.653 0 0 0-2.656-2.656zm.452 2.2a.678.678 0 1 1 .678-.678.687.687 0 0 1-.678.678z" class="cls-1" transform="translate(-36.551 -22.499)"/>
                <path id="Path_721" d="M52.067 28.758a11.03 11.03 0 0 0-8.984-10.792v-3.9c0-.057.339-.113.452-.283a.8.8 0 1 0-1.243.057.827.827 0 0 0 .283.17v3.79a11.008 11.008 0 0 0-1.413-.113 7.2 7.2 0 0 0-1.13.057c-.113 0-.17.057-.283.057v-3.846c0-.057.283-.113.4-.283a.806.806 0 0 0-.113-1.13.871.871 0 0 0-1.187.057.8.8 0 0 0 0 1.13.874.874 0 0 0 .339.17v3.9A10.988 10.988 0 0 0 36.867 38.7l-1.582 3.729a.579.579 0 0 0-.283.339c-.4.509-.17.622-.057.622.057.452.17 1.13.452 1.017 0 0 .283-.113.113-.565l.226-.113c.565-.113.452-1.017.452-1.13v-.113.114l1.412-3.276c-.226 1.7-.622 3.39-.961 5.029A4.519 4.519 0 0 0 38 48.308v.792a29.621 29.621 0 0 0 .17 3.164 2.976 2.976 0 0 0-2.995 2.769v.226a7.44 7.44 0 0 0 2.825.4c1.469 0 2.825-.17 2.825-.4v-1.018a8.45 8.45 0 0 1-1.13-4.407v-.4c.565.113 1.017.17 1.413.226a4.828 4.828 0 0 0 1.413-.226v.4a8.45 8.45 0 0 1-1.13 4.407v1.017c0 .226 1.356.4 2.825.4s2.825-.17 2.825-.4v-.226a2.962 2.962 0 0 0-2.941-2.768 29.622 29.622 0 0 0 .17-3.164v-.791c1.13-1.187 1.7-2.882 1.413-3.729-.4-1.752-.735-3.56-.961-5.368l1.526 3.56v.056c0 .113-.113 1.017.452 1.074l.17.17c-.17.452.113.565.113.565.283.113.452-.565.452-1.017.113-.057.339-.17-.056-.622a.446.446 0 0 0-.283-.339l-1.582-3.729a11.265 11.265 0 0 0 6.553-10.172zm-5.876 13.9zm-5.085-7.967a6.554 6.554 0 1 1 6.554-6.554 6.559 6.559 0 0 1-6.555 6.554z" class="cls-1" transform="translate(-30.2 -12.337)"/>
            </g>
        </g>
        <g id="noun_Monster_2108897" transform="translate(417 711.122)">
            <g id="Group_274" transform="translate(-141 -122.026)">
                <path id="Path_715" d="M38.1 41.111a3.336 3.336 0 0 1 .069.822 3.593 3.593 0 0 0 .685-1.233 3.2 3.2 0 0 1-.685.343c0 .068 0 .068-.069.068z" class="cls-1" transform="translate(-9.724 -12.54)"/>
                <path id="Path_716" d="M33.657 42.4a7.113 7.113 0 0 1-2.946 0c-.137.48-.274.959-.411 1.37a4.52 4.52 0 0 0 3.768 0c-.137-.48-.274-.959-.411-1.37z" class="cls-1" transform="translate(-7.268 -13.075)"/>
                <path id="Path_717" d="M41.187 22.474c-.137.069-1.37 1.028-1.439 1.1l.343-.959a.855.855 0 0 0-.48-1.165.91.91 0 0 0-1.165.48c-.069.206-.274 1.233-.343 1.37-.617-1.165-.891-1.644-.959-1.781a.845.845 0 0 0-1.164-.419.9.9 0 0 0-.411 1.165c.069.069 1.85 2.877 1.85 2.877a15 15 0 0 1-1.987 5c-.411-2.6-1.439-5.412-3.083-6.783-1.781-1.576-.137-3.563 2.672-2.946a3.947 3.947 0 0 0 4.727-3.013 3.876 3.876 0 0 0-3.837-4.727 3.815 3.815 0 0 0-3.768 2.946c-.548 2.055-1.3 1.85-2.329 3.631a1.523 1.523 0 0 1-1.918.685c-2.6-1.1-4.248.411-3.22-5a4.6 4.6 0 0 1 4.385-3.7h.069A5.19 5.19 0 1 0 27.759.962 5.424 5.424 0 0 0 23.785 5a5.1 5.1 0 0 0 .274 3.22c1.3 3.014-1.1 3.837-1.1 10.414a1.56 1.56 0 0 1-2.946.685 5.962 5.962 0 0 0-1.165-1.439 4.065 4.065 0 0 1-1.165-2.124 3.913 3.913 0 0 0-7.6 1.85 3.8 3.8 0 0 0 3.083 2.946 4.141 4.141 0 0 0 1.3 0 4.749 4.749 0 0 1 2.6.343c1.918.822.617 2.055-.754 4.316-2.329 1.3-4.727 3.905-5.755 9.8l-2.872 1.645a.914.914 0 0 0-.343 1.233.963.963 0 0 0 1.233.343c.137-.069 1.37-1.028 1.439-1.1l-.343.959a.891.891 0 0 0 1.644.685c.069-.206.274-1.233.343-1.37.617 1.165.891 1.644.959 1.781a.845.845 0 0 0 1.165.411.9.9 0 0 0 .411-1.233c-.069-.069-1.85-2.809-1.85-2.877a14.611 14.611 0 0 1 2.124-5.138c-.274 1.987-.274 5 .959 5.96a2.773 2.773 0 0 1 .959 2.261V40.9a1.041 1.041 0 0 1-.959 1.028c-1.3.137-2.74.959-2.74 2.192s1.507.548 3.357.548 3.357.685 3.357-.548c0 0-.343-2.535-.548-5.138a2.8 2.8 0 0 1 3.631-2.946h.069a8.222 8.222 0 0 0 5.138 0 2.819 2.819 0 0 1 3.631 2.946c-.274 2.672-.617 5.138-.617 5.138 0 1.233 1.507.548 3.357.548s3.357.685 3.357-.548-1.507-2.055-2.809-2.192a1.041 1.041 0 0 1-.959-1.028v-2.4c0-1.713 4.453-6.029 5.618-12.743l2.877-1.644a.914.914 0 0 0 .343-1.233 1.023 1.023 0 0 0-1.301-.406zM35.912 13.5a3.143 3.143 0 0 1 3.152 3.152 3.188 3.188 0 0 1-3.152 3.148 3.143 3.143 0 0 1-3.152-3.152 3.188 3.188 0 0 1 3.152-3.148zM28.787 1.989a4.179 4.179 0 0 1 0 8.358 4.2 4.2 0 0 1-4.179-4.179 4.241 4.241 0 0 1 4.179-4.179zM13.92 19.871a3.152 3.152 0 1 1 3.152-3.152 3.143 3.143 0 0 1-3.152 3.152zm5.892 7.6a.523.523 0 0 1 .137-.343.437.437 0 0 1 .411 0 8.551 8.551 0 0 0 1.233.754c.274-1.1.617-.617 1.165-.548s1.1-.343.822 1.233a5.866 5.866 0 0 0 2.672 0c-.274-1.576.274-1.165.891-1.233.548-.069.891-.548 1.165.48a11.917 11.917 0 0 0 1.233-.754.437.437 0 0 1 .411 0 .25.25 0 0 1 .137.343c-.96 5.759-9.318 5.827-10.277.072z" class="cls-1"/>
                <path id="Path_718" d="M26.9 40.8a4.011 4.011 0 0 0 .685 1.165c0-.274.069-.548.069-.754a.067.067 0 0 1-.069-.069c-.205-.136-.479-.205-.685-.342z" class="cls-1" transform="translate(-6.198 -12.571)"/>
                <circle id="Ellipse_59" cx=".891" cy=".891" r=".891" class="cls-1" transform="translate(35.021 15.76)"/>
                <circle id="Ellipse_60" cx=".891" cy=".891" r=".891" class="cls-1" transform="translate(13.029 15.76)"/>
                <path id="Path_719" d="M37.051 6.851c.48-.48.617-1.1.274-1.439s-.959-.206-1.439.274-.617 1.1-.274 1.439.96.206 1.439-.274z" class="cls-1" transform="translate(-8.881 -1.368)"/>
            </g>
        </g>
        <g id="Group_276" transform="translate(-56 3.905)">
            <rect id="Rectangle_195" width="3" height="16" class="cls-2" rx="1.5" transform="rotate(90 -137.5 474.5)"/>
            <path id="Path_419" d="M1.5 0C2.328 0 3 .977 3 2.182v11.636C3 15.023 2.328 16 1.5 16S0 15.023 0 13.818V2.182C0 .977.672 0 1.5 0z" class="cls-2" transform="rotate(90 -139.5 476.5)"/>
            <rect id="Rectangle_228" width="3" height="16" fill="#f3b051" rx="1.5" transform="rotate(151 86.824 353.599)"/>
        </g>
    </g>
</svg>
