<svg xmlns="http://www.w3.org/2000/svg" width="79" height="79.74" viewBox="0 0 79 79.74">
    <defs>
        <style>
            .cls-4{fill:#148f91}
        </style>
    </defs>
    <g id="kruznica_i_krug" transform="translate(-241 -1015)">
        <circle id="Ellipse_46" cx="15" cy="15" r="15" fill="#6ab288" opacity="0.621" transform="translate(290 1040)"/>
        <circle id="Ellipse_53" cx="11.5" cy="11.5" r="11.5" fill="#f3b051" opacity="0.621" transform="translate(243 1018)"/>
        <g id="Ellipse_47" fill="none" stroke="#dc3d39" stroke-width="2px" opacity="0.463" transform="translate(241 1052)">
            <circle cx="20" cy="20" r="20" stroke="none"/>
            <circle cx="20" cy="20" r="19"/>
        </g>
        <g id="noun_Monster_2236233" transform="translate(235.802 1009.87)">
            <g id="Group_205">
                <path id="Path_591" d="M46.344 5.13h-2.68c-24.55 1.8-28.33 30.42-27.82 32.79.53 2.43 2.97.51 2.97.51-.07 3.56.25 9.71 3.36 15.02.06-2.13.11-3.77.14-4.75a7.943 7.943 0 0 0 1.05 1.16c1.14.87.65-.7.59-.91l1.51 2.19c-.13 2.12-.21 4.19-.27 6.2a20.078 20.078 0 0 0 9.25 5.05c.6.15 1.24.29 1.89.41v17.22H32.2c-3.12 0-3.12 4.85 0 4.85h6.56a2.455 2.455 0 0 0 2.42-2.42V63.33c.8.03 1.62.05 2.48.03h2.68c.85.02 1.67 0 2.47-.03v19.12a2.464 2.464 0 0 0 2.43 2.42h6.55c3.13 0 3.12-4.85 0-4.85h-4.13V62.8c.66-.12 1.3-.26 1.9-.41a20.078 20.078 0 0 0 9.25-5.05q-.09-3.015-.27-6.2l1.5-2.19c-.06.21-.55 1.78.59.91a8.223 8.223 0 0 0 1.06-1.16c.03.98.08 2.62.13 4.75 3.11-5.31 3.44-11.46 3.37-15.02 0 0 2.43 1.92 2.96-.51.524-2.37-3.266-30.99-27.806-32.79zM45 39.97c-9.66 0-17.49-5.41-17.49-12.08S35.344 15.81 45 15.81s17.49 5.41 17.49 12.08S54.664 39.97 45 39.97z" class="cls-4"/>
                <path id="Path_592" d="M45 22.48a9.721 9.721 0 0 0-9.09 13.19 20.548 20.548 0 0 0 18.18 0A9.721 9.721 0 0 0 45 22.48zm0 11.38a3.81 3.81 0 1 1 3.81-3.81A3.8 3.8 0 0 1 45 33.86z" class="cls-4"/>
            </g>
        </g>
    </g>
</svg>
