<svg xmlns="http://www.w3.org/2000/svg" width="77.544" height="73.152" viewBox="0 0 77.544 73.152">
    <defs>
        <style>
            .cls-1{fill:#8f53cb}.cls-1,.cls-2,.cls-3,.cls-4,.cls-5{fill-rule:evenodd}.cls-2{fill:#f3b051}.cls-3{fill:#489cba}.cls-4{fill:#6ab288}.cls-5{fill:#dc3d39}.cls-6{fill:#148f91}
        </style>
    </defs>
    <g id="kvadar_i_kocka" transform="translate(-242.679 -904.847)">
        <g id="noun_cube_1584752" transform="translate(63.099 1600.903)">
            <g id="Group_291" transform="translate(160 -713.154)">
                <path id="Path_726" d="M46.088 43.028l-.1.038h-.11l-.1-.038-4.298-2.476-.086-.072-.055-.1-.018-.111.022-.111.059-.1.088-.07 4.289-2.283.1-.033h.1l.1.033 4.289 2.283.088.07.059.1.022.111-.018.111-.055.1-.086.072-4.289 2.477" class="cls-1" transform="translate(-10.191 -9.647)"/>
                <path id="Path_727" d="M39.991 34.438l.089.071.059.1.021.113-.021.113-.059.1-.089.065-4.238 2.256-.1.034h-.107l-.1-.037-4.276-2.468-.087-.074-.056-.1-.016-.113.024-.112.062-.1.092-.068 4.221-2.068.1-.03h.1l.095.032 4.291 2.284" class="cls-1" transform="translate(-5.357 -7.042)"/>
                <path id="Path_728" d="M25.022 26.571l.094-.026h.1l.091.032 4.293 2.288.091.072.059.1.019.114-.023.114-.062.1-.093.069-4.169 2.045-.1.03h-.1l-.1-.037-4.261-2.46-.088-.075-.056-.1-.015-.115.027-.113.065-.1.1-.066 4.137-1.87" class="cls-2" transform="translate(-.524 -4.429)"/>
                <path id="Path_729" d="M51.924 35l-.09-.071-.058-.1-.021-.113.021-.113.058-.1.09-.071 4.291-2.284.095-.032h.1l.1.03 4.223 2.071.092.068.062.1.024.112-.016.113-.056.1-.087.074-4.276 2.468-.1.037h-.107l-.1-.034L51.924 35" class="cls-3" transform="translate(-15.082 -7.042)"/>
                <path id="Path_730" d="M71.1 28.441l.1.066.065.1.027.113-.015.115-.056.1-.088.075-4.261 2.46-.1.037h-.1l-.1-.03-4.172-2.045-.093-.069-.062-.1-.023-.114.019-.114.059-.1.091-.072 4.293-2.285.091-.032h.1l.094.026 4.137 1.87" class="cls-4" transform="translate(-19.99 -4.429)"/>
                <path id="Path_731" d="M41.583 29.677l-.091-.072-.059-.1-.019-.115.023-.114.062-.1.093-.069 4.24-2.08.092-.027h.1l.092.029 4.24 2.08.093.069.062.1.023.114-.019.115-.059.1-.091.072-4.24 2.257-.1.033h-.1l-.1-.033-4.24-2.257" class="cls-2" transform="translate(-10.235 -4.642)"/>
                <path id="Path_732" d="M52.067 24.535l-.094-.071-.063-.1-.022-.115.022-.116.063-.1.094-.071 4.257-2.088.089-.029h.093l.09.025 4.17 1.885.1.067.066.1.025.115-.018.116-.059.1-.092.073-4.242 2.258-.095.032h-.1l-.1-.029-4.186-2.054" class="cls-5" transform="translate(-15.144 -2.225)"/>
                <path id="Path_733" d="M41.665 19.6l-.084-.06-.06-.083-.031-.1v-.1l.034-.1.063-.081.086-.057 4.2-1.9.086-.025h.09l.086.025 4.2 1.9.086.057.063.081.035.1v.1l-.031.1-.06.083-.084.06-4.2 2.062-.092.029h-.1l-.092-.029-4.2-2.062" class="cls-5" transform="translate(-10.27)"/>
                <path id="Path_734" d="M31.207 24.326l-.092-.073-.059-.1-.018-.116.025-.115.066-.1.1-.067 4.17-1.885.09-.025h.093l.089.029 4.257 2.088.094.071.063.1.022.116-.022.115-.063.1-.094.071-4.186 2.054-.1.029h-.1l-.095-.032-4.242-2.258" class="cls-4" transform="translate(-5.371 -2.225)"/>
                <path id="Path_735" d="M50.525 46.688l.019-.109.055-.1.085-.071 4.289-2.477.106-.038h.112l.105.04.085.074.054.1.016.112-.167 4.856-.02.1-.052.089-.078.069-4.122 2.573-.1.042h-.113l-.106-.037-.088-.071-.057-.1-.02-.111v-4.941" class="cls-5" transform="translate(-14.505 -12.563)"/>
                <path id="Path_736" d="M61.039 45.795l-.106.042h-.114l-.108-.038-.087-.074-.056-.1-.016-.113.165-4.8.022-.1.055-.092.082-.069 4.276-2.469.108-.038h.114l.106.042.085.076.052.1.013.114-.318 4.693-.022.1-.051.086-.076.065-4.124 2.574" class="cls-5" transform="translate(-19.206 -9.771)"/>
                <path id="Path_737" d="M75.374 36.854l-.024.094-.052.082-.073.063-4.125 2.575-.108.042h-.116l-.108-.041-.087-.077-.054-.1-.013-.115.313-4.633.024-.1.055-.088.08-.066 4.261-2.46.109-.039h.116l.107.044.084.08.05.1.01.115-.449 4.518" class="cls-4" transform="translate(-23.922 -6.981)"/>
                <path id="Path_738" d="M54.747 55.754l.107-.042h.114l.107.039.087.074.056.1.016.113-.167 4.858-.019.1-.048.083-.073.069-3.905 2.621-.1.046-.114.006-.109-.035-.089-.071-.059-.1-.02-.113v-4.935l.018-.106.052-.093.08-.071 4.073-2.543" class="cls-5" transform="translate(-14.505 -18.1)"/>
                <path id="Path_739" d="M51.03 75.644l-.105.049-.115.008-.111-.033-.092-.071-.061-.1-.021-.114v-4.92l.016-.1.049-.091.075-.071 3.856-2.588.107-.046h.116l.11.037.089.074.057.1.017.115-.167 4.86-.018.1-.046.085-.068.062-3.688 2.644" class="cls-5" transform="translate(-14.505 -23.655)"/>
                <path id="Path_740" d="M64.538 49.551l.108-.042h.116l.109.041.087.076.054.1.013.115-.319 4.712-.021.094-.048.084-.071.065-3.922 2.634-.106.046-.116.005-.11-.037-.089-.074-.057-.1-.018-.115.166-4.8.02-.1.052-.09.078-.069 4.075-2.544" class="cls-2" transform="translate(-19.016 -15.192)"/>
                <path id="Path_741" d="M63.921 61.2l.108-.046h.118l.111.039.089.076.056.1.014.117-.32 4.731-.02.091-.045.081-.067.065-3.717 2.666-.107.05-.117.008-.112-.036-.092-.074-.059-.1-.018-.116.166-4.8.019-.1.048-.088.073-.068 3.872-2.6" class="cls-2" transform="translate(-18.826 -20.648)"/>
                <path id="Path_742" d="M73.4 54.736l.094-.043.1-.011.1.022.088.053.066.078.039.1.006.1-.456 4.589-.022.087-.045.078-.065.062-3.746 2.69-.092.045-.1.014-.1-.019-.089-.05-.07-.076-.041-.093-.01-.1.316-4.671.021-.094.048-.084.071-.065 3.887-2.612" class="cls-2" transform="translate(-23.191 -17.618)"/>
                <path id="Path_743" d="M74.377 43.328l.109-.042h.114l.109.042.087.079.052.106.011.117-.453 4.554-.023.09-.048.08-.069.063-3.937 2.642-.108.046h-.117L70 51.071l-.09-.076-.055-.1-.014-.117.315-4.652.022-.1.052-.086.075-.065 4.076-2.545" class="cls-4" transform="translate(-23.558 -12.276)"/>
                <path id="Path_744" d="M44.969 46.43l.085.071.055.1.019.109v4.95l-.02.111-.057.1-.087.071-.106.037h-.113l-.1-.041-4.122-2.573-.078-.069-.055-.096-.02-.1-.17-4.859.016-.112.054-.1.084-.074.105-.04h.113l.106.038 4.289 2.477" class="cls-3" transform="translate(-9.666 -12.571)"/>
                <path id="Path_745" d="M40.609 56.054l.016-.113.056-.1.087-.074.107-.039h.114l.106.042 4.073 2.543.08.071.052.094.018.106v4.937l-.02.113-.059.1-.089.071-.109.035-.114-.006-.1-.045-3.905-2.621-.073-.068-.049-.09-.019-.1-.167-4.858" class="cls-4" transform="translate(-9.857 -18.108)"/>
                <path id="Path_746" d="M41.318 73.014l-.069-.068-.046-.085-.018-.1-.167-4.86.017-.115.057-.1.089-.074.11-.037h.116l.107.046 3.856 2.588.075.071.049.091.016.1V75.4l-.021.114-.061.1-.092.071-.111.033-.115-.008-.105-.049-3.688-2.648" class="cls-4" transform="translate(-10.049 -23.663)"/>
                <path id="Path_747" d="M34.968 45.532l-.016.113-.055.1-.088.074-.107.038h-.114l-.106-.043-4.124-2.574-.075-.066-.051-.086-.022-.1-.32-4.688.013-.114.052-.1.085-.077.106-.042h.114l.108.039 4.276 2.468.082.069.055.092.022.1.165 4.8" class="cls-3" transform="translate(-4.833 -9.78)"/>
                <path id="Path_748" d="M19.58 32.353l.01-.115.05-.1.084-.079.107-.044h.116l.109.039 4.261 2.46.08.066.055.088.024.1.313 4.633-.013.115-.054.1-.087.076-.108.041h-.116l-.108-.043-4.125-2.575-.073-.063-.051-.082-.024-.094-.449-4.518" class="cls-1" transform="translate(0 -6.989)"/>
                <path id="Path_749" d="M35.549 57.172l-.018.115-.057.1-.089.074-.111.037h-.116l-.106-.046-3.922-2.632-.071-.065-.048-.084-.021-.094-.319-4.712.013-.115.054-.1.087-.076.109-.041h.116l.108.043 4.075 2.544.078.069.052.09.02.1.166 4.8" class="cls-1" transform="translate(-5.199 -15.201)"/>
                <path id="Path_750" d="M25.729 50.791l-.014.117-.055.1-.09.076-.111.039h-.117l-.108-.046-3.934-2.642-.069-.063-.048-.08-.023-.09-.46-4.554.011-.117.052-.106.087-.079.109-.043h.118l.109.043 4.076 2.545.075.065.052.086.022.1.315 4.652" class="cls-2" transform="translate(-.526 -12.284)"/>
                <path id="Path_751" d="M26.676 62.276l-.01.1-.042.094-.069.076-.089.05-.1.019-.1-.014-.092-.046-3.746-2.69-.065-.062-.045-.078-.022-.087-.456-4.589.006-.1.039-.1.066-.078.088-.053.1-.022.1.011.093.043 3.887 2.608.071.065.048.084.021.094.316 4.671" class="cls-4" transform="translate(-1.058 -17.626)"/>
                <path id="Path_752" d="M36.133 68.869l-.018.116-.058.1-.092.074-.112.036-.117-.008-.107-.049-3.717-2.67-.067-.065-.045-.081-.02-.091-.32-4.731.014-.117.056-.1.089-.077.111-.039h.117l.108.046 3.872 2.6.073.069.048.087.019.1.166 4.8" class="cls-1" transform="translate(-5.568 -20.656)"/>
            </g>
        </g>
        <g id="noun_Monster_3288352" transform="translate(264 922.758)">
            <path id="Path_761" d="M5.462 11.263l16.922 10.88a10.873 10.873 0 0 0-.07 1.215v9.986l.869 1.24q-3.375 8.084-6.751 16.161c-.863-.927-1.732-1.854-2.6-2.781-1.406-1.5-3.663.761-2.263 2.263s2.826 3.024 4.239 4.533a1.621 1.621 0 0 0 2.672-.7q3.941-9.446 7.889-18.885l.588.991 1.349-2.276 1.343 2.276L31 33.9l1.336 2.263 1.349-2.276 1.342 2.276 1.338-2.263 1.335 2.263 1.349-2.276 1.342 2.276.588-.991q3.951 9.436 7.889 18.885a1.621 1.621 0 0 0 2.672.7q2.119-2.263 4.239-4.533c1.4-1.5-.85-3.765-2.263-2.263l-2.589 2.781q-3.375-8.084-6.751-16.161l.863-1.24v-6.569l6.732 4.162v12.415a1.6 1.6 0 0 0 3.2 0c0-2.423.722-12.46-.217-14.109-.889-1.566-3.976-2.679-5.428-3.58-1.432-.882-2.864-1.771-4.3-2.653a11.224 11.224 0 0 0-1.451-5.2l3.356-7.544c.467-1.048.217-1.215-.556-.364l-4.814 5.306a11.277 11.277 0 0 0-15.771 0L20.978 9.9c-.774-.85-1.023-.684-.556.364l3.356 7.544c-.2.352-.371.716-.537 1.087L7.073 8.5c-1.733-1.111-3.337 1.65-1.611 2.763zm25.022 3.491a5.05 5.05 0 1 1-5.05 5.05 5.053 5.053 0 0 1 5.05-5.051z" class="cls-6"/>
            <path id="Path_762" d="M43.548 27.457a2.605 2.605 0 1 0-2.608-2.6 2.6 2.6 0 0 0 2.608 2.6zm-.773-3.957a.585.585 0 1 1-.582.582.585.585 0 0 1 .582-.582z" class="cls-6" transform="translate(-13.064 -5.052)"/>
        </g>
    </g>
</svg>
