<svg xmlns="http://www.w3.org/2000/svg" width="77.664" height="58.95" viewBox="0 0 77.664 58.95">
    <defs>
        <style>
            .cls-1{fill:#148f91}.cls-4{fill:#489cba}
        </style>
    </defs>
    <g id="polozaj_velicina_icon" data-name="polozaj velicina icon" transform="translate(-253 -685.453)">
        <g id="noun_halloween_monstrous_2108912" data-name="noun_halloween monstrous_2108912" transform="translate(235 877.34)">
            <g id="Group_112" data-name="Group 112" transform="translate(55.554 -171.326)">
                <path id="Path_330" d="M39.233 14.691a15.04 15.04 0 0 0-1.533 1.656.117.117 0 0 1-.183 0c-.061 0-.061 0-.061-.059-.061-.355-.183-1.006-.367-2.07a.608.608 0 0 0-1.162.355l.612 1.893v.118c-.061.059-.061.059-.183.059-1.345-.592-1.712-.769-1.774-.769a.646.646 0 0 0-.8.177.629.629 0 0 0 .367.887c1.835.532 1.835.532 2.018.592.55.3.306.237-.428 5.383-.061 0-1.284-.3-3-.828a18.3 18.3 0 0 0-1.345-6.27 6.622 6.622 0 0 0 5.382-7.1 6.868 6.868 0 0 0-6.3-6.033 6.758 6.758 0 0 0-7.278 5.5h-.673a8.288 8.288 0 0 0-6.054 3.076A43.283 43.283 0 0 1 11.04 4.4a3.78 3.78 0 0 0-5.259 0 3.421 3.421 0 0 0 0 5.028c-.061 0-1.162-.651 8.195 5.679a17.185 17.185 0 0 0-1.529 5.5c-5.993-1.715-6.054-1.479-6.116-2.248a22.463 22.463 0 0 1 .369-2.544.73.73 0 0 0-.673-.828h-.185a.729.729 0 0 0-.673.769v2.425a.129.129 0 0 1-.122.118h-.123l-1.957-1.715c-.734-.651-1.835.414-1.04 1.124 1.162.769 1.9 1.242 2.324 1.479.061.059.061.059.061.118a.129.129 0 0 1-.122.118 21.4 21.4 0 0 0-2.813.828.741.741 0 0 0 .489 1.36c.673 0 2.507-1.183 3.608-1.065.673 0 .673.177 6.911 2.07.061 2.307.612 3.667 1.59 4.377.122 2.189.245 6.329.306 7.749a.968.968 0 0 1-.856.946c-1.223.118-2.63.887-2.63 2.011s1.407.532 3.18.532 3.18.592 3.18-.532c0-.414-.061-2.78-.183-5.383a2.717 2.717 0 0 1 2.569-2.78c.978-.059 2.018-.118 3.058-.118 1.407 0 2.752.118 3.975.177a2.735 2.735 0 0 1 2.63 2.543c.061 1.006.061 1.893.122 2.6a.968.968 0 0 1-.856.946c-1.223.118-2.63.887-2.63 2.011s1.407.532 3.18.532 3.18.592 3.18-.532c0-.651-.183-7.749-.367-11.3a5 5 0 0 0 .856-2.484 37.21 37.21 0 0 0 4.281.592c.122 0 .183-.059.245-.177v-.177c.8-6.152.673-6.211.856-6.684.306-.769 1.774-1.715 1.957-2.129.306-.408-.306-.936-.795-.645zm-28.682-5.8a2.986 2.986 0 0 1-4.159 0 2.756 2.756 0 0 1 0-4.022 2.986 2.986 0 0 1 4.159 0 2.862 2.862 0 0 1 0 4.025zM27.8 21.789a5.745 5.745 0 0 1-5.2 3.017 9.424 9.424 0 0 1-1.284-.118 5.64 5.64 0 0 1-4.77-5.087.828.828 0 0 1 1.04-.828l9.6 1.834a.828.828 0 0 1 .614 1.182zm2.2-7.157a5.368 5.368 0 0 1-5.443-5.264 5.446 5.446 0 0 1 10.886 0A5.368 5.368 0 0 1 30 14.632z" class="cls-1" data-name="Path 330"/>
                <path id="Path_331" d="M37.023 32.693l-1.242-.237-.769 1.36c-.059.118-.237.059-.3-.059l-.177-1.538-4.318-.887-.769 1.36a.127.127 0 0 1-.237-.059l-.237-1.6-1.237-.233a.259.259 0 0 0-.177.059.217.217 0 0 0-.059.177 4.639 4.639 0 0 0 1.893 3.49l.769-1.183c.059-.118.3-.059.355.059l.414 1.36.946-1.065c.059-.118.3-.059.355.059l.414 1.36.946-1.065c.059-.118.3-.059.355.059l.3 1.36a4.53 4.53 0 0 0 3.076-2.484c.059-.118 0-.177 0-.177-.124-.057-.182-.116-.301-.116z" class="cls-1" data-name="Path 331" transform="translate(-10.096 -11.495)"/>
                <path id="Path_332" d="M9.316 8.816a.962.962 0 0 0 1.36 1.36.962.962 0 0 0-1.36-1.36z" class="cls-1" data-name="Path 332" transform="translate(-3.278 -2.406)"/>
                <path id="Path_333" d="M44.175 7.4a1.775 1.775 0 1 0 1.775 1.775A1.743 1.743 0 0 0 44.175 7.4z" class="cls-1" data-name="Path 333" transform="translate(-15.985 -1.936)"/>
            </g>
        </g>
        <g id="noun_lines_362544" transform="translate(414 1288)">
            <g id="Group_113" data-name="Group 113" transform="translate(-161 -583.495)">
                <path id="Rectangle_182" fill="#f3b051" d="M0 0H22V3H0z" data-name="Rectangle 182" transform="translate(0 .495)"/>
                <path id="Rectangle_183" fill="#dc3d39" d="M0 0H32.09V3.703H0z" data-name="Rectangle 183" transform="translate(0 8.948)"/>
                <path id="Rectangle_191" d="M0 0H16.09V3.703H0z" class="cls-4" data-name="Rectangle 191" transform="translate(0 -9.052)"/>
                <path id="Rectangle_192" fill="#ec8e43" d="M0 0H10.09V3.703H0z" data-name="Rectangle 192" transform="translate(0 -19.052)"/>
                <path id="Rectangle_184" fill="#6ab288" d="M0 0H39.495V3.703H0z" data-name="Rectangle 184" transform="translate(0 17.896)"/>
                <path id="Rectangle_185" d="M0 0H32.09V3.703H0z" class="cls-4" data-name="Rectangle 185" transform="translate(0 26.844)"/>
                <path id="Rectangle_186" fill="#df367c" d="M0 0H23V4H0z" data-name="Rectangle 186" transform="translate(0 35.495)"/>
            </g>
        </g>
    </g>
</svg>
