<svg xmlns="http://www.w3.org/2000/svg" width="99.281" height="76.141" viewBox="0 0 99.281 76.141">
    <defs>
        <style>
            .cls-1{fill:#148f91}
        </style>
    </defs>
    <g id="masa" transform="translate(-1177.817 -6506.483)">
        <g id="noun_Monster_99939" transform="rotate(34 -10042.624 5220.212)">
            <g id="Group_200">
                <path id="Path_587" d="M2.043 0a2.043 2.043 0 1 0 2.044 2.043A2.041 2.041 0 0 0 2.043 0zm.348 1.7a.5.5 0 0 1-.522-.522.5.5 0 0 1 .522-.526.5.5 0 0 1 .522.522.529.529 0 0 1-.522.526z" class="cls-1" transform="translate(6.347 10.157)"/>
                <path id="Path_588" d="M16.825 12.635a8.487 8.487 0 0 0-6.913-8.3v-3c0-.043.261-.087.348-.217a.616.616 0 0 0-.913-.83.619.619 0 0 0-.043.869.636.636 0 0 0 .217.13V4.2a8.469 8.469 0 0 0-1.087-.087 5.543 5.543 0 0 0-.869.043c-.087 0-.13.043-.217.043V1.245c0-.043.217-.087.3-.217a.62.62 0 0 0-.083-.87.67.67 0 0 0-.913.042.616.616 0 0 0 0 .869.672.672 0 0 0 .261.13v3A8.454 8.454 0 0 0 5.13 20.287l-1.217 2.869a.445.445 0 0 0-.217.261c-.3.391-.13.478-.043.478.043.348.13.869.348.783 0 0 .217-.087.087-.435l.174-.087c.435-.087.348-.783.348-.869V23.2v.087l1.09-2.522c-.174 1.3-.478 2.608-.739 3.869A3.477 3.477 0 0 0 6 27.678v.609a22.793 22.793 0 0 0 .13 2.435 2.29 2.29 0 0 0-2.3 2.13v.174a5.725 5.725 0 0 0 2.174.3c1.13 0 2.174-.13 2.174-.3v-.783a6.5 6.5 0 0 1-.878-3.392v-.3c.435.087.783.13 1.087.174a3.715 3.715 0 0 0 1.087-.174v.3a6.5 6.5 0 0 1-.869 3.391v.783c0 .174 1.043.3 2.174.3s2.174-.13 2.174-.3v-.174a2.279 2.279 0 0 0-2.261-2.13 22.791 22.791 0 0 0 .13-2.435v-.609a3.5 3.5 0 0 0 1.087-2.869c-.3-1.348-.565-2.739-.739-4.13l1.174 2.739v.043c0 .087-.087.783.348.826l.13.13c-.13.348.087.435.087.435.217.087.348-.435.348-.783.087-.043.261-.13-.043-.478a.343.343 0 0 0-.214-.26l-1.217-2.869a8.668 8.668 0 0 0 5.042-7.826zM12.3 23.33zM8.391 17.2a5.043 5.043 0 1 1 5.043-5.043A5.047 5.047 0 0 1 8.391 17.2z" class="cls-1"/>
            </g>
        </g>
        <g id="noun_Mascot_Monster_1925416" transform="rotate(33 -10379.877 5349.537)">
            <g id="Group_199">
                <path id="Path_584" d="M43.461 28.97c-.139 0-.277-.069-.416-.069a7.423 7.423 0 0 0-1.317-3.257c-2.634-4.02-5.129-6.723-6.445-7 0-.069-.069-.069-.069-.139a10.849 10.849 0 0 0 2.148-5.822c.762-4.3-2.842-8.386-3.119-7.554-.139.208.069 4.158-1.386 6.238a4.92 4.92 0 0 1-.693.97 8.288 8.288 0 0 0-2.634-3.882c.554.069 1.109.069 1.663.139a6.082 6.082 0 0 0-3.257-2.911 2.226 2.226 0 0 1 1.525-.693 4.1 4.1 0 0 0-3.261-.347 3.083 3.083 0 0 1 .97-2.01 2.313 2.313 0 0 0-1.733.832 2.985 2.985 0 0 1 .628-2.911 7.419 7.419 0 0 0-3.535 2.98A4.248 4.248 0 0 0 20.035 0a3.272 3.272 0 0 1 .765 1.733 2.479 2.479 0 0 0-2.564.416A2.212 2.212 0 0 1 19.9 3.6a6.379 6.379 0 0 0-3.95 1.386 3.313 3.313 0 0 1 2.01.208 8.777 8.777 0 0 0-4.228 2.98c.762-.277 1.594-.554 2.356-.832a6.9 6.9 0 0 0-2.98 4.99 1.45 1.45 0 0 0-.277.416 4.451 4.451 0 0 1-1.109-1.386c-1.525-2.079-1.248-6.1-1.386-6.238-.277-.832-3.881 3.188-3.119 7.554A10.849 10.849 0 0 0 9.362 18.5c0 .069-.069.139-.069.208-1.317.347-3.812 2.98-6.376 6.931A7.124 7.124 0 0 0 1.6 28.9a.879.879 0 0 0-.416.069c-.693.139-1.248.485-1.178.832.069.277.693.416 1.386.277.069 0 .139-.069.208-.069a2.112 2.112 0 0 0 .554 1.109l-.139.139c-.554.485-.832 1.04-.624 1.317s.832.069 1.386-.416c0-.139.069-.139.139-.208a2.489 2.489 0 0 0 .693.485c-.347.624-.347 1.248-.139 1.386.277.139.762-.277 1.109-.9.277.069.485.139.762.208 0 .139-.069.208-.069.347-.139.693 0 1.386.347 1.386.277.069.624-.485.762-1.248 0-.208.069-.347.069-.485a2.024 2.024 0 0 0 .624-.139c1.04 3.535 3.535 5.614 6.931 6.723-1.386 2.772-5.752 4.436 1.941 4.782 2.842.139 3.6-1.455 3.327-3.812 1.04.069 2.079.139 3.188.139s2.148-.069 3.188-.139c-.277 2.287.485 3.881 3.327 3.812 7.693-.347 3.327-1.941 1.941-4.782 3.4-1.109 5.891-3.188 6.931-6.723a2.024 2.024 0 0 0 .624.139 1.179 1.179 0 0 0 .069.485c.139.693.485 1.248.762 1.248.277-.069.485-.693.347-1.386 0-.139-.069-.208-.069-.347.277-.069.485-.139.762-.208.347.624.832 1.04 1.109.9s.208-.762-.139-1.386c.208-.139.485-.347.693-.485.069.069.139.069.139.139.554.485 1.178.693 1.386.416.208-.208-.069-.832-.624-1.317l-.139-.139a3.335 3.335 0 0 0 .554-1.109c.069 0 .139.069.208.069.693.139 1.386 0 1.386-.277a2.16 2.16 0 0 0-1.455-.762zM32.233 12.475l-.416.416a15.231 15.231 0 0 0-1.386-1.591c.624.413 1.178.759 1.802 1.175zm-9.911-2.287a4.574 4.574 0 1 1-4.574 4.574 4.615 4.615 0 0 1 4.574-4.574zm-6.168 18.92a6.1 6.1 0 1 1 12.2 0c0 3.535-2.98 4.02-6.1 4.02s-6.1-.485-6.1-4.02z" class="cls-1"/>
                <path id="Path_585" d="M7.832.624l-.07 1.386c0 .277-.277.416-.554.277l-1.04-.416a.6.6 0 0 1-.416-.485V0h-.415l-.07 1.386a.6.6 0 0 1-.416.485c-.416.139-.762.277-1.178.416a.414.414 0 0 1-.554-.277L2.911.693A5.411 5.411 0 0 0 0 5.544c0 2.08 1.178 2.911 3.119 3.189V7.416A.4.4 0 0 1 3.535 7c.277 0 .624.069 1.04.069a.447.447 0 0 1 .416.416v1.386h.416l.069-1.386a.447.447 0 0 1 .416-.416A6.342 6.342 0 0 0 7.069 7a.4.4 0 0 1 .416.416l.069 1.317c2.079-.277 3.257-1.109 3.257-3.188A5.63 5.63 0 0 0 7.832.624z" class="cls-1" transform="translate(16.986 23.703)"/>
                <path id="Path_586" d="M1.8 3.673a1.835 1.835 0 0 0 1.8-1.8v-.348a.749.749 0 0 1-.485.208.769.769 0 0 1-.759-.763.919.919 0 0 1 .416-.693A1.591 1.591 0 0 0 1.8 0a1.837 1.837 0 0 0 0 3.673zm-.485-1.8a.327.327 0 0 1 .347.347.327.327 0 0 1-.347.347.327.327 0 0 1-.345-.349.445.445 0 0 1 .347-.347z" class="cls-1" transform="translate(20.451 12.683)"/>
            </g>
        </g>
        <g id="Group_217" opacity="0.997" transform="translate(1178.936 6533.087)">
            <circle id="Ellipse_45" cx="12.5" cy="12.5" r="12.5" class="cls-1" transform="translate(14.064 20.913)"/>
            <circle id="Ellipse_54" cx="7.5" cy="7.5" r="7.5" fill="#8f53cb" transform="translate(19.064 25.913)"/>
            <rect id="Rectangle_210" width="79.253" height="5.686" class="cls-1" rx="2.843" transform="rotate(34 1.03 3.37)"/>
        </g>
    </g>
</svg>
