<svg xmlns="http://www.w3.org/2000/svg" width="50.012" height="70.162" viewBox="0 0 50.012 70.162">
    <defs>
        <style>
            .cls-1{fill:#fff}.cls-3{fill:#148f91}
        </style>
    </defs>
    <g id="Group_195" transform="translate(-254.994 -1239.486)">
        <path id="Path_578" d="M20.019 0A20.019 20.019 0 1 1 0 20.019 20.019 20.019 0 0 1 20.019 0z" class="cls-1" transform="translate(261 1254.864)"/>
        <path id="Path_573" fill="#f3b051" d="M37.5 15A22.5 22.5 0 1 0 60 37.5 22.5 22.5 0 0 0 37.5 15zM22.8 38.4h-2.4a.9.9 0 1 1 0-1.8h2.358a.9.9 0 1 1 0 1.8zm4.942 10.135l-1.67 1.665a.9.9 0 1 1-1.278-1.269l1.674-1.665a.9.9 0 1 1 1.269 1.269zm0-20.793a.9.9 0 0 1-1.269 0l-1.674-1.674a.9.9 0 1 1 1.273-1.268l1.665 1.665a.9.9 0 0 1 0 1.278zm5.842 14.573a.9.9 0 0 1-.63-1.53l3.646-3.651V27.44a.9.9 0 1 1 1.8 0V37.5a.9.9 0 0 1-.27.639l-3.916 3.916a.9.9 0 0 1-.635.264zm4.816 12.29a.9.9 0 0 1-1.8 0v-2.394a.9.9 0 0 1 1.8 0zm0-31.774a.9.9 0 1 1-1.8 0V20.4a.9.9 0 0 1 1.8 0zM50.2 50.2a.881.881 0 0 1-1.269 0l-1.671-1.661a.9.9 0 1 1 1.278-1.269l1.662 1.665a.9.9 0 0 1 0 1.265zm0-24.132l-1.665 1.674a.9.9 0 1 1-1.278-1.278l1.678-1.664a.9.9 0 1 1 1.265 1.272zM54.6 38.4h-2.4a.9.9 0 0 1 0-1.8h2.4a.9.9 0 0 1 0 1.8z" transform="translate(243 1236)"/>
        <g id="Group_188" transform="translate(254.291 1256.618)">
            <path id="Path_560" d="M40.491 37.295c-.7-2.865-1.838-7.028-2.487-6.974-.692.057-.811 6.433-1.243 6.379-1.51-.188-2.538-6.839-3.676-6.974-.905-.108-1.784 6.487-3.622 6.487-.992 0-2-5.879-2.955-5.97-.883-.084-2.034 6.407-2.883 6.457-1.318.078-2.006-7.346-3.171-6.564S17.591 35.693 16.976 36c-1.149.568-2.161-7.917-3.081-6.433a14.09 14.09 0 0 0-2.325 7.19c0 3.855 2.226 5.62 5.435 6.428.318.079.621 5.677-1.51 7.669a1.58 1.58 0 0 0-.249 2.12c.563.092 6.59 0 7.19.054a1.861 1.861 0 0 0-.123-2.006c-1.586-2.249-1.194-7.261-.9-7.245 1.614.088 3.312.09 5 .09 2.113 0 3.562-.117 5.591-.244.364-.023 1.186 5.412-.652 7.352a2 2 0 0 0-.184 1.849c.312.418 6.389.093 6.875.021a2.128 2.128 0 0 0-.336-2.237c-2.024-1.867-1.837-7.215-1.6-7.267 3.242-.703 5.298-2.32 4.384-6.046zm-24.917 14.93a1.013 1.013 0 0 1 2.021 0c.005.525-2.021.525-2.021 0zm2.171.024a1.013 1.013 0 0 1 2.021 0c.002.526-2.02.526-2.02 0zm4.325.041c0 .526-2.022.526-2.022 0a1.013 1.013 0 0 1 2.022 0zm9.383-.182a1.013 1.013 0 0 1 2.021 0c.002.522-2.019.525-2.02 0zm2.172.021a1.013 1.013 0 0 1 2.022 0c.002.522-2.02.525-2.021 0zm3.313-.916a.982.982 0 0 1 1.012.95c0 .526-2.021.529-2.022 0a.983.983 0 0 1 1.011-.95z" class="cls-3"/>
        </g>
        <ellipse id="Ellipse_41" cx="10" cy="5" class="cls-1" rx="10" ry="5" transform="translate(270 1251)"/>
        <g id="noun_Monster_100929" transform="translate(254.996 1239.486)">
            <ellipse id="Ellipse_40" cx="1.134" cy="1.492" class="cls-3" rx="1.134" ry="1.492" transform="translate(21.23 14.823)"/>
            <path id="Path_562" d="M36.15 21.661a.9.9 0 0 1-.9.9h-.35a.9.9 0 0 1-.9-.9.9.9 0 0 1 .9-.9h.358a.9.9 0 0 1 .9.9z" class="cls-3" transform="translate(-6.799 -4.152)"/>
            <g id="Group_191" transform="translate(-.002)">
                <g id="Group_190">
                    <path id="Path_561" d="M48.92 24.5c-.094-.065 1.066-.67.965-.738s-1.255.366-1.375.287c-1.386-.919-2.773-1.846-4.17-2.75-1.5-.972-1.693-1.418-2.048-3.207a28.68 28.68 0 0 0-3.2-8.4c-.486-.862-1.01-1.7-1.561-2.5-4.516-6.547-12.662-10-19.335-4.339-2.952 2.5-5.027 5.91-6.956 9.218-.9 1.535-1.762 3.087-2.65 4.627a26.475 26.475 0 0 1-2.521 4.282c-1.2 1.4-2.587 2.679-3.88 3.991-.114.116-2.078-.118-2.186-.008s1.856.7 1.75.814c-.886.916-1.73 1.478-1.714 1.633.033.324.906-.381 1.958-.922.135-.07.182 2.253.326 2.177.162-.086.543-2.471.712-2.563 2.284-1.256 4.935-2.725 5-2.156.24 2.139.446 3.766.446 3.766s2.344-6.165 4.179-5.854c1.1.187 2.693 7.328 2.693 7.328s2.632-6.13 3.712-6.233c1.318-.125 3.684 7 3.684 7s2.48-7.781 3.186-7.781c.916 0 4.134 7.766 4.134 7.766s2.138-7.741 3.274-7.8c1.764-.09 4.428 7.048 4.428 7.048s.572-6.068 1.4-6.421c1.536-.658 3.051 5.795 3.051 5.795s.113-2.118.236-4.751c.025-.542 3.431.68 5.662 1.274.135.036.494 1.213.618 1.243s-.1-1.338.02-1.314c.678.146 1.248.426 1.257.218.003-.111-.371-.237-1.095-.73zm-26.475-5.789a3.251 3.251 0 0 1-3.056-3.411 3.251 3.251 0 0 1 3.056-3.415A3.251 3.251 0 0 1 25.5 15.3a3.251 3.251 0 0 1-3.055 3.411zm6.985 1.338a3.25 3.25 0 0 1-3.056-3.415 3.252 3.252 0 0 1 3.056-3.415 3.251 3.251 0 0 1 3.057 3.415 3.25 3.25 0 0 1-3.057 3.415z" class="cls-3" transform="translate(.002)"/>
                </g>
            </g>
        </g>
    </g>
</svg>
