<svg xmlns="http://www.w3.org/2000/svg" width="79.964" height="49.247" viewBox="0 0 79.964 49.247">
    <defs>
        <style>
            .cls-2{fill:#148f91}
        </style>
    </defs>
    <g id="merenje_zapremine" transform="translate(-238.268 -1364.692)">
        <g id="Group_296" transform="translate(-995 -6691.17)">
            <g id="noun_pouring_water_1458463" transform="translate(1268.713 8055.862)">
                <g id="Group_293">
                    <path id="Path_783" fill="#148f91" fill-rule="evenodd" d="M22.186 958.362a2.1 2.1 0 0 1 .99.262c4.087 2.386 8.251 4.87 11.8 6.858a2.109 2.109 0 0 1 .751 2.922l-1.074 1.67 1.5 2.6.394.7-.787.227-4.115 1.199-10.258 16.065a2.119 2.119 0 0 1-2.839.739c-3.209-1.844-6.42-3.713-9.626-5.57a2.174 2.174 0 0 1-.787-2.875c.362-.677.729-1.4 1.085-2.1l-2.875-2.552L6 978.21l.191-.429L14.063 960l.286-.632.608.346 4.008 2.338c.441-.872.907-1.738 1.336-2.612a2 2 0 0 1 1.885-1.078zm-.107 1.276a.736.736 0 0 0-.632.382c-.1.18-.215.4-.31.584l13.18 7.634.334-.525a.805.805 0 0 0-.31-1.109c-3.952-2.325-7.852-4.59-11.8-6.859a.852.852 0 0 0-.462-.107zm-1.527 2.111l-6.536 12.727h16.317l.382-.572.131-.2.215-.06 3.578-1.038-1.288-2.219-.179-.346.215-.322.251-.394-13.085-7.574zm-4.377 2.9l-5.606 12.667.382.334 6.357-12.35-1.133-.656z" transform="translate(-6 -958.361)"/>
                </g>
            </g>
            <path id="Path_788" d="M9.693 43.743c.377 1.913 3.31 1.105 2.928-.808a18.956 18.956 0 0 1 4.294-15.714l1.367 5.849 2.43 2.187.747-2.387 1.731 1.81.753-2.4 1.737 1.82.747-2.381s5 5.127 6.621 6.839q-2.606 6.5-5.206 13a1.53 1.53 0 0 0 1.464 1.925h8.1a1.519 1.519 0 0 0 0-3.037h-5.864q2.369-5.913 4.732-11.826a1.5 1.5 0 0 0-.389-1.482l-4.92-5.193.437-1.385 1.725 1.8.753-2.4 1.737 1.816.48-1.525q4.592 3.417 9.172 6.833-2.014 7.234-4.033 14.469A1.537 1.537 0 0 0 42.7 53.48h6.366a1.52 1.52 0 0 0 0-3.037H44.7L48.476 36.9a1.574 1.574 0 0 0-.7-1.713q-4.346-3.234-8.692-6.475l.225-.547-.583-2.5 7.265 3.893a1.537 1.537 0 0 0 2.229-.905q2.187-7.025 4.379-14.037c.583-1.871-2.351-2.673-2.928-.808q-1.913 6.114-3.821 12.233-4.018-2.159-8.042-4.313l-.656-2.806a10.729 10.729 0 0 0-2.552-4.815l1.476-7.7c.207-1.075-.061-1.172-.589-.213l-3.31 5.94a10.723 10.723 0 0 0-14.6 3.408l-5.6-3.869c-.9-.62-1.093-.413-.437.456l4.738 6.256a10.688 10.688 0 0 0-.17 5.406 21.1 21.1 0 0 0-6.415 19.952zm20.464-29.915a4.8 4.8 0 1 1-4.8 4.8 4.8 4.8 0 0 1 4.8-4.8z" class="cls-2" transform="translate(1224 8051.629)"/>
            <path id="Path_789" d="M42.056 27.96a2.475 2.475 0 1 0-2.478-2.472 2.47 2.47 0 0 0 2.478 2.472zm-.735-3.76a.556.556 0 1 1-.553.553.556.556 0 0 1 .553-.553z" class="cls-2" transform="translate(1212.101 8044.768)"/>
        </g>
        <g id="noun_Beaker_325" transform="translate(297 1377.013)">
            <path id="Path_781" d="M19.631 31l-1.366 2.186v18.559c0 .979-.381 1.36-1.36 1.36H4.328c-.979 0-1.36-.381-1.36-1.36V33.186L1.6 31H0l1.607 2.575v18.17a2.477 2.477 0 0 0 2.721 2.721H16.9a2.477 2.477 0 0 0 2.721-2.721v-18.17L21.232 31z" class="cls-2" transform="translate(0 -17.54)"/>
            <path id="Path_782" fill="#ec8e43" d="M12.716 40v17.684H25.3V40zM23.6 56.324h-2.722v-1.36H23.6zm0-2.721h-2.722v-1.36H23.6zm0-2.721h-2.722v-1.36H23.6zm0-2.721h-2.722V46.8H23.6zm0-2.721h-2.722v-1.36H23.6zm0-2.721h-2.722V41.36H23.6z" transform="translate(-8.392 -23.479)"/>
            <circle id="Ellipse_61" cx="2.211" cy="2.211" r="2.211" fill="#f3b051" transform="translate(11.126 10.399)"/>
            <circle id="Ellipse_69" cx="1.711" cy="1.711" r="1.711" fill="#6ab288" transform="translate(8.579 6.399)"/>
            <circle id="Ellipse_62" cx=".85" cy=".85" r=".85" class="cls-2" transform="translate(16.764 12.715)"/>
            <circle id="Ellipse_63" cx=".85" cy=".85" r=".85" fill="#8f53cb" transform="translate(8.405 11.42)"/>
            <circle id="Ellipse_68" cx=".85" cy=".85" r=".85" fill="#489cba" transform="translate(6.405 8.42)"/>
            <circle id="Ellipse_67" cx="1.53" cy="1.53" r="1.53" fill="#df367c" transform="translate(4.324 11.42)"/>
        </g>
    </g>
</svg>
