<svg xmlns="http://www.w3.org/2000/svg" width="61.005" height="81.37" viewBox="0 0 61.005 81.37">
    <defs>
        <style>
            .cls-2,.cls-5{fill:#148f91}.cls-2,.cls-4{stroke:#148f91}.cls-4{fill:none}
        </style>
    </defs>
    <g id="obim" transform="translate(-249.5 -1230.383)">
        <g id="noun_measuring_3394971" opacity="0.769" transform="translate(242.853 1189.967)">
            <path id="Path_625" d="M349.515 198.57h7.833v-5.17a16.011 16.011 0 0 1-4.689 3.727 24.776 24.776 0 0 1-3.144 1.443z" class="cls-2" transform="translate(-299.844 -105.141)"/>
            <ellipse id="Ellipse_50" cx="9.577" cy="3.42" fill="#8f53cb" stroke="#148f91" rx="9.577" ry="3.42" transform="translate(27.469 78.526)"/>
            <path id="Path_626" d="M109.721 75.319c-3.689 2.029-5.721 4.655-5.721 7.4s2.032 5.366 5.721 7.4a30.961 30.961 0 0 0 14.636 3.319 30.961 30.961 0 0 0 14.636-3.319c3.689-2.029 5.721-4.655 5.721-7.4s-2.032-5.366-5.721-7.4A30.961 30.961 0 0 0 124.357 72a30.961 30.961 0 0 0-14.636 3.319zm26.422 7.4c0 1.613-1.354 3.042-3.812 4.025a24.536 24.536 0 0 1-15.948 0c-2.458-.983-3.812-2.413-3.812-4.025s1.354-3.042 3.812-4.025a24.536 24.536 0 0 1 15.948 0c2.458.978 3.812 2.406 3.812 4.02z" class="cls-4" transform="translate(-87.211)"/>
            <path id="Path_627" d="M170.857 340.9v2.414h-2.143v-2.143H165.5v2.143h-2.143v-2.143h-3.214v6.429H158v-6.429h-3.214v2.143h-2.143v-2.143h-3.214v2.143h-2.143v-2.143h-3.214v6.429h-2.143v-6.429h-3.214v2.143h-2.143v-2.143h-3.214v2.143h-2.143v-2.143H128v10.714h40.714a6.436 6.436 0 0 0 6.429-6.429v-7.2a8.58 8.58 0 0 1-4.286 2.644z" class="cls-4" transform="translate(-107.996 -230.604)"/>
            <path id="Path_628" d="M42.714 360H32v10.714h10.714zm-6.429 8.571h-2.142v-6.429h2.143zm4.286 0h-2.142v-2.143h2.143zm0-4.286h-2.142v-2.143h2.143z" class="cls-2" transform="translate(-24.853 -249.429)"/>
            <path id="Path_629" d="M150.071 201.084v1.774h-2.143v-2.143h-3.214v2.143h-2.143v-2.143h-3.214v6.429h-2.143v-6.429H134v2.143h-2.143v-2.143h-3.214v2.143H126.5v-2.143h-2.143q-.538 0-1.071-.014v6.443h-2.143v-6.557c-1.093-.088-2.167-.219-3.214-.394v2.665h-2.143v-3.092a31.3 31.3 0 0 1-3.214-.924v4.016h-2.143v-4.865q-.9-.4-1.74-.863A16.024 16.024 0 0 1 104 193.4v9.455c0 2.74 2.032 5.366 5.721 7.4a30.961 30.961 0 0 0 14.636 3.319h23.571a6.429 6.429 0 0 0 2.143-12.489z" class="cls-2" transform="translate(-87.211 -105.144)"/>
        </g>
        <g id="Group_187" transform="translate(-1154 -2779.617)">
            <g id="noun_Monster_2108897" transform="translate(1409.263 4010)">
                <g id="Group_183">
                    <path id="Path_554" d="M52.276 32.894a6.467 6.467 0 0 0 7.745-4.939 6.35 6.35 0 0 0-6.286-7.745 6.25 6.25 0 0 0-6.174 4.827c-.9 3.367-2.133 3.031-3.816 5.949a2.5 2.5 0 0 1-3.145 1.122c-4.265-1.8-6.959.674-5.276-8.194a7.54 7.54 0 0 1 7.184-6.061h.112a8.5 8.5 0 1 0-2.243-16.838 8.887 8.887 0 0 0-6.51 6.623 8.353 8.353 0 0 0 .449 5.276c2.133 4.939-1.8 6.286-1.8 17.062a2.555 2.555 0 0 1-4.823 1.124 9.769 9.769 0 0 0-1.908-2.357 6.66 6.66 0 0 1-1.908-3.48 6.412 6.412 0 0 0-12.46 3.031 6.224 6.224 0 0 0 5.051 4.827 6.785 6.785 0 0 0 2.133 0 7.781 7.781 0 0 1 4.265.561c3.143 1.345 24.808-1.798 29.41-.788zm1.459-11.337A5.15 5.15 0 0 1 58.9 26.72a5.223 5.223 0 0 1-5.163 5.163 5.15 5.15 0 0 1-5.163-5.163 5.223 5.223 0 0 1 5.161-5.163zM42.061 2.7a6.847 6.847 0 0 1 0 13.694 6.874 6.874 0 0 1-6.847-6.847A6.948 6.948 0 0 1 42.061 2.7zM17.7 32a5.163 5.163 0 1 1 5.163-5.163A5.15 5.15 0 0 1 17.7 32z" class="cls-5" transform="translate(-11.263 -.878)"/>
                    <circle id="Ellipse_33" cx="1.459" cy="1.459" r="1.459" class="cls-5" transform="translate(41.013 24.383)"/>
                    <circle id="Ellipse_34" cx="1.459" cy="1.459" r="1.459" class="cls-5" transform="translate(3.859 23.261)"/>
                    <path id="Path_556" d="M38.091 7.891c.786-.786 1.01-1.8.449-2.357s-1.571-.337-2.357.449-1.01 1.8-.449 2.357 1.572.337 2.357-.449z" class="cls-5" transform="translate(-8.303 -.346)"/>
                </g>
            </g>
        </g>
    </g>
</svg>
