<svg xmlns="http://www.w3.org/2000/svg" xmlns:xlink="http://www.w3.org/1999/xlink" width="74" height="56.908" viewBox="0 0 74 56.908">
    <defs>
        <clipPath id="clip">
            <use xlink:href="#fill"/>
        </clipPath>
        <style>
            .cls-1{fill:#148f91}
        </style>
    </defs>
    <g id="Group_269" transform="translate(-243 -915.092)">
        <g id="noun_Monster_3288466" transform="translate(249.391 913.236)">
            <path id="Path_539" d="M55.111 9.078q-5.385-3.5-10.77-7.01a1.586 1.586 0 0 0-1.912.252q-4 4.325-8 8.657a11.122 11.122 0 0 0-2.953-.41 11.249 11.249 0 0 0-11.218 11.212v4.9l-7.83 9.792q-2.9-3.786-5.786-7.571c-1.211-1.59-3.956-.019-2.719 1.6l7.117 9.313c.543.713 1.767 1.205 2.473.322q3.388-4.23 6.77-8.461l1.917 2.743 1.325-2.234 1.319 2.234.751-1.268-5.414 19.995h-5.028a1.578 1.578 0 0 0 0 3.155h6.234a1.613 1.613 0 0 0 1.521-1.161q3.066-11.3 6.12-22.6l1.117 1.88 1.331-2.246 1.324 2.245 1.117-1.88q3.066 11.3 6.126 22.6a1.6 1.6 0 0 0 1.522 1.163H47.8a1.578 1.578 0 0 0 0-3.155h-5.03q-2.707-9.994-5.413-19.995l.751 1.268 1.319-2.234 1.319 2.234 1.943-2.782v-9.857a11.224 11.224 0 0 0-5.218-9.452L43.8 5.482q4.865 3.161 9.723 6.322c1.702 1.111 3.285-1.621 1.588-2.726zm-23.635 14.55a4.984 4.984 0 1 1 4.984-4.984 4.979 4.979 0 0 1-4.984 4.984z" class="cls-1"/>
            <path id="Path_540" d="M46.27 24.393a2.571 2.571 0 1 0 2.568 2.568 2.572 2.572 0 0 0-2.568-2.568zm-.763 2.385a.577.577 0 1 1 .58-.574.576.576 0 0 1-.581.574z" class="cls-1" transform="translate(-14.794 -8.318)"/>
        </g>
        <g id="Rectangle_224" fill="#f3b051" stroke="#f3b051" stroke-linecap="round" stroke-width="5px" transform="translate(243 970)">
            <rect id="fill" width="33" height="2" stroke="none" rx="1"/>
            <path fill="none" d="M0-.5h33m-2.5.5v2m2.5.5H0M2.5 2V0" clip-path="url(#clip)"/>
        </g>
        <rect id="Rectangle_225" width="33" height="2" fill="#dc3d39" rx="1" transform="translate(284 970)"/>
    </g>
</svg>
