<svg xmlns="http://www.w3.org/2000/svg" width="78.07" height="80.865" viewBox="0 0 78.07 80.865">
    <defs>
        <clipPath id="clip-path">
            <path d="M0 0H67.151V33.575H0z" class="cls-1"/>
        </clipPath>
        <style>
            .cls-1{fill:none}.cls-4{fill:#6ab288}.cls-6{fill:#148f91}.cls-7{fill:#f3b051}
        </style>
    </defs>
    <g id="pare_icon" transform="translate(-238.979 -568.835)">
        <g id="Group_343" transform="rotate(22 267.725 613.8)">
            <g id="noun_Money_2183705" transform="translate(376.378 644.242)">
                <g id="Group_314" transform="rotate(10.02 281.146 -775.36)">
                    <g id="Repeat_Grid_12">
                        <path id="Path_800" fill="#dc3d39" d="M0 33.575h67.151V0H0zM4.276 8.551a4.276 4.276 0 0 0 4.276-4.275H58.6a4.275 4.275 0 0 0 4.276 4.275v16.473A4.276 4.276 0 0 0 58.6 29.3H8.552a4.276 4.276 0 0 0-4.276-4.275V8.551z" transform="translate(3.109 5.483)"/>
                    </g>
                    <path id="Path_801" d="M28.185 0L0 4.334h28.851z" class="cls-4" transform="translate(39.947)"/>
                    <path id="Path_802" d="M1.961 13.051V0L0 .3z" class="cls-4" transform="translate(0 10.175)"/>
                    <path id="Path_803" d="M.666 4.334L28.851 0H0z" class="cls-4" transform="translate(4.572 40.207)"/>
                    <path id="Path_804" d="M0 0v13.051l1.961-.3z" class="cls-4" transform="translate(71.409 21.315)"/>
                    <path id="Path_819" d="M4.276 0A4.276 4.276 0 1 1 0 4.276 4.276 4.276 0 0 1 4.276 0z" class="cls-1" transform="translate(13.898 17.995)"/>
                    <circle id="Ellipse_72" cx="4.276" cy="4.276" r="4.276" class="cls-1" transform="translate(50.919 17.995)"/>
                    <path id="Rectangle_237" fill="#fff" d="M0 0H62V31H0z" transform="matrix(.998 .07 -.07 .998 7.52 4.714)"/>
                </g>
                <path id="Path_800-2" d="M0 33.575h67.151V0H0zM4.276 8.551a4.276 4.276 0 0 0 4.276-4.275H58.6a4.275 4.275 0 0 0 4.276 4.275v16.473A4.276 4.276 0 0 0 58.6 29.3H8.552a4.276 4.276 0 0 0-4.276-4.275V8.551z" class="cls-6" transform="rotate(16 142.745 -477.231)"/>
                <path id="Path_801-2" d="M28.185 0L0 4.334h28.851z" class="cls-7" transform="rotate(16 143.83 -343.432)"/>
                <path id="Path_802-2" d="M1.961 13.051V0L0 .3z" class="cls-7" transform="rotate(16 127.608 -490.635)"/>
                <path id="Path_803-2" d="M.666 4.334L28.851 0H0z" class="cls-7" transform="rotate(16 18.477 -489.389)"/>
                <path id="Path_804-2" d="M0 0v13.051l1.961-.3z" class="cls-7" transform="rotate(16 52.269 -242.158)"/>
                <circle id="Ellipse_71" cx="4.276" cy="4.276" r="4.276" class="cls-6" transform="rotate(16 92.834 -445.1)"/>
                <circle id="Ellipse_72-2" cx="4.276" cy="4.276" r="4.276" class="cls-6" transform="rotate(16 74.325 -313.39)"/>
            </g>
            <g id="noun_Monster_143037" transform="rotate(12.04 -2859.064 2000.8)">
                <g id="Group_342" transform="translate(-88.1 -20)">
                    <path id="Path_817" d="M29.248 20a9.317 9.317 0 1 0 9.352 9.317A9.351 9.351 0 0 0 29.248 20zm1.863 17.206a2.588 2.588 0 0 0-1.863-.217 2.568 2.568 0 0 0-1.863.186 1.013 1.013 0 0 0-.373.714 8.554 8.554 0 0 1-3.23-1.615 3.539 3.539 0 0 1 1.335-2.609l.652 1.3a.261.261 0 0 0 .217.124h.031a.174.174 0 0 0 .186-.155l.683-2.267a7.1 7.1 0 0 1 4.721 0l.683 2.267a.2.2 0 0 0 .186.155h.031a.314.314 0 0 0 .217-.124l.652-1.3a3.437 3.437 0 0 1 1.335 2.609 8.787 8.787 0 0 1-3.23 1.615 1.009 1.009 0 0 0-.369-.683zm-1.863-6.522a3.183 3.183 0 1 1 3.2-3.168 3.194 3.194 0 0 1-3.2 3.168zm1.77-7.329a.187.187 0 0 1-.124.031.3.3 0 0 1-.28-.186c-.155-.373-.776-1.46-1.335-1.46s-1.18 1.087-1.335 1.46a.306.306 0 1 1-.559-.248c.093-.186.839-1.832 1.926-1.832s1.832 1.646 1.926 1.832a.421.421 0 0 1-.219.402zm-4.69 9.566l-.4 1.367-.435-.87c.277-.188.556-.343.836-.498zm6.677.5l-.435.87-.4-1.367c.277.151.557.306.836.493zm-5.528 4.6a.49.49 0 0 1 .217-.466c.373-.311 1.211-.155 1.522-.093h.124a2.2 2.2 0 0 1 1.522.124.651.651 0 0 1 .217.435 8.572 8.572 0 0 1-1.77.186 8.313 8.313 0 0 1-1.831-.194z" class="cls-6" transform="translate(-19.9 -20)"/>
                    <circle id="Ellipse_73" cx="1.087" cy="1.087" r="1.087" class="cls-6" transform="translate(8.261 6.522)"/>
                </g>
            </g>
        </g>
        <g id="noun_Monster_3288383" transform="rotate(-19.01 1894.781 -436.089)">
            <path id="Path_370" d="M26.127 14.15c-.395-1.44-.569-3.61-2.05-4.406-1.384-.744-3.077-.036-4.431.865a4.972 4.972 0 0 0-.5-1.26l1.471-3.305c.2-.459.1-.532-.244-.16l-2.108 2.325a4.941 4.941 0 0 0-6.91 0L9.246 5.884c-.339-.373-.448-.3-.244.16l1.471 3.305a4.972 4.972 0 0 0-.5 1.26c-1.361-.9-3.047-1.6-4.431-.865-1.451.779-1.627 2.863-2.014 4.274l-.437 1.6a.7.7 0 0 0 1.35.373l.174-.639c.328-1.2.468-3.022 1.2-4.005.9-1.207 2.86-.014 4.014.877v3.933l.863 1.235.227-.384q.382.773.767 1.546c.3.613 1.739.37 1.333-.454l-.717-1.448.151-.26.591 1 .585-.992.588.992.588-1 .591 1 .585-.992.588.992.588-1 .154.26-.655 1.322c-.426.86.969 1.193 1.272.58.255-.515.513-1.031.767-1.546l.227.384.863-1.235v-3.934c1.151-.891 3.115-2.084 4.014-.877.717.966.857 2.759 1.179 3.93.064.238.132.476.2.714a.7.7 0 0 0 1.35-.373q-.202-.73-.401-1.467zm-11.318 1.367a2.213 2.213 0 1 1 2.212-2.217 2.214 2.214 0 0 1-2.212 2.217z" class="cls-6" transform="translate(0 -23)"/>
            <path id="Path_371" d="M1.139 0A1.14 1.14 0 1 0 2.28 1.141 1.14 1.14 0 0 0 1.139 0zM.8 1.06A.256.256 0 1 1 1.06.8a.257.257 0 0 1-.26.26z" class="cls-6" transform="rotate(-120 4.998 -7.946)"/>
        </g>
    </g>
</svg>
