<svg xmlns="http://www.w3.org/2000/svg" width="64.477" height="74.439" viewBox="0 0 64.477 74.439">
    <defs>
        <style>
            .cls-1{fill:#f3b051}.cls-5{fill:#148f91}
        </style>
    </defs>
    <g id="Group_347" transform="translate(-248.569 -575)">
        <g id="Group_345" transform="translate(-2.931 -12.932)">
            <g id="noun_diagram_2823392" transform="translate(251.5 602)">
                <path id="Path_820" d="M59.37 61.063V39.935h-9.293v21.128h-4.265V25.895h-9.293v35.168h-4.266v-25.34h-9.292v25.34H18.7v-46.4H9.405v46.4h-3.1V3.5H3.5v60.371h60.371v-2.808zm-47.157 0V17.471h3.677v43.592zm13.557 0V38.531h3.677v22.532zm13.558 0V28.7h3.677v32.36zm13.557 0v-18.32h3.677v18.32z" class="cls-1" transform="translate(-3.5 -3.5)"/>
            </g>
            <path id="Rectangle_241" d="M0 0H11.232V21.06H0z" class="cls-1" transform="translate(297.931 638.503)"/>
            <path id="Rectangle_242" fill="#8f53cb" d="M0 0H11.232V36.06H0z" transform="translate(283.931 623.503)"/>
            <path id="Rectangle_243" fill="#dc3d39" d="M0 0H11.232V47.06H0z" transform="translate(256.931 612.503)"/>
            <path id="Rectangle_244" fill="#489cba" d="M0 0H11.232V26.06H0z" transform="translate(270.931 633.503)"/>
        </g>
        <g id="noun_Monster_3288469" transform="translate(249 575)">
            <path id="Path_314" d="M26.765 20.947l1-1.382V15.27q2.583-4.575 5.169-9.146a.805.805 0 0 0-1.4-.79l-4.154 7.35a5.826 5.826 0 0 0-10.756 0q-2.072-3.677-4.151-7.35a.805.805 0 0 0-1.4.79l5.165 9.146v4.294l1 1.382.681-1.11.5.818c-.191.53-.386 1.059-.577 1.592a13.481 13.481 0 0 0-1.042 2.866c-.068.809.882 1.577 1.372 2.16.344.4.684.812 1.025 1.216h-1.2a.784.784 0 1 0 0 1.567h2.9a.748.748 0 0 0 .781-.771.884.884 0 0 0-.208-.567q-1.488-1.768-2.973-3.539.812-2.243 1.628-4.488l.522-.853.678 1.11.675-1.116.684 1.116.678-1.11.522.853q.812 2.247 1.628 4.488-1.488 1.773-2.977 3.539a.879.879 0 0 0-.2.564.747.747 0 0 0 .778.774h2.9a.784.784 0 0 0 0-1.567h-1.2c.34-.4.681-.812 1.021-1.216.493-.586 1.443-1.351 1.372-2.16a13.407 13.407 0 0 0-1.038-2.865q-.292-.8-.577-1.592l.5-.818zM22 16.969a2.478 2.478 0 1 1 2.562-2.476A2.517 2.517 0 0 1 22 16.969z" class="cls-5" transform="translate(-10.965 -4.946)"/>
            <path id="Path_315" d="M42.116 31.335a1.192 1.192 0 1 0 1.191 1.191 1.192 1.192 0 0 0-1.191-1.191zm-.354 1.106a.268.268 0 1 1 .269-.269.268.268 0 0 1-.269.269z" class="cls-5" transform="translate(-31.044 -23.263)"/>
        </g>
        <g id="noun_Monster_3288355" transform="translate(295.268 615)">
            <path id="Path_461" d="M40.593 25.037a1.014 1.014 0 1 0-1.015-1.012 1.012 1.012 0 0 0 1.015 1.012zm-.3-1.54a.228.228 0 1 1-.226.226.228.228 0 0 1 .225-.223z" class="cls-5" transform="translate(-32.038 -18.662)"/>
            <path id="Path_460" d="M9.442 21.181c.154.784 1.356.453 1.2-.331a7.763 7.763 0 0 1 1.758-6.436l.56 2.4 1 .9.306-.978.709.741.308-.983.711.744.306-.975s2.047 2.1 2.712 2.8q-1.067 2.661-2.132 5.324a.626.626 0 0 0 .6.789h3.319a.622.622 0 0 0 0-1.244h-2.4l1.938-4.843a.613.613 0 0 0-.159-.607l-2.015-2.127.179-.567.706.739.308-.983.711.744.2-.624q1.881 1.4 3.756 2.8l-1.652 5.926a.63.63 0 0 0 .6.789h2.607a.622.622 0 0 0 0-1.244h-1.797l1.545-5.545a.645.645 0 0 0-.286-.7l-3.56-2.652.092-.224-.239-1.022 2.975 1.595a.629.629 0 0 0 .913-.387q.9-2.877 1.794-5.749c.239-.766-.963-1.095-1.2-.331q-.784 2.5-1.565 5.01-1.646-.884-3.294-1.766l-.269-1.149a4.394 4.394 0 0 0-1.045-1.975l.6-3.154c.085-.44-.025-.48-.241-.087l-1.35 2.436a4.392 4.392 0 0 0-5.978 1.4L10.38 8.046c-.368-.254-.448-.169-.179.187l1.94 2.562a4.377 4.377 0 0 0-.07 2.214 8.642 8.642 0 0 0-2.629 8.172zm8.381-12.252a1.965 1.965 0 1 1-1.965 1.965 1.965 1.965 0 0 1 1.965-1.965z" class="cls-5" transform="translate(-9.268 -5.531)"/>
        </g>
    </g>
</svg>
