<svg xmlns="http://www.w3.org/2000/svg" id="noun_Monster_24989" width="73.319" height="61.252" viewBox="0 0 73.319 61.252">
    <defs>
        <style>
            .cls-1{fill:#148f91}
        </style>
    </defs>
    <g id="Group_182" data-name="Group 182">
        <g id="Group_181" data-name="Group 181">
            <path id="Path_551" d="M78.208 64.948c-2.011-.914-3.016-3.971-3.929-5.824a8.936 8.936 0 0 0-7.128-5.324c-4.112-.365-9.869.914-11.605 1.919a51.064 51.064 0 0 1-5.425 2.672c-1.29-2.886-5.057-4.626-5.634-4.77-.731-.183-4.3-1.829-.835-3.29a4.171 4.171 0 0 0-.535-7.767c-.836-.231-1.554-1.645.334-2.011 3.44-.731 3.958-7.472-.334-8.132-1.188-.183-2.037-1.477 0-3.016 4.386-2.376 3.471-7.859-2.1-7.859s-6.488 5.483-2.1 7.859c2.331 1.142 1.006 3.016 0 3.016-4.568 0-3.774 7.4-.334 8.132 1.43.457 1.189 1.872.334 2.011-3.381.548-3.995 6.306-.536 7.767s-.1 3.107-.834 3.29a7.77 7.77 0 0 0-4.725 3.2 27.94 27.94 0 0 1-5.964.546c-4.66 0-7.4-4.021-5.936-6.306a5.635 5.635 0 0 1 6.575-2.284c2.011.914 2.65.364.456-1.371s-6.4-.456-8.956.914c-2.327 1.246-3.519 7.556-.9 10.875-4.876.851-9.507 3.9-10.8 8.132-1.645 5.392.365 8.317 1.736 9.687s2.741 1.827 1.37-.549.822-8.954 4.751-11.106c3.2-1.75 10.447-1.346 15.548.013-4.651.269-8.28 4.751-8.512 7.529-.19 2.28-1.19 5.57-2.19 6.618s-6.122 3.155 0 1.968 4.569-4.294 7.31-8.041c2.45-3.348 9.037-3.99 12.191-3.9.282.024.571.041.869.051l.1.011-.014-.008q.274.009.558.009c4.658.282 12.156 3.012 13.709 5.2s-6.95 7.4-9.689 2.65-1.739-.364-1.462.366.917 5.391 6.125 4.933 13.523-4.2 10.691-8.771c-1.646-2.656-4.93-5.1-7.767-6.782 5.074.449 10.61 1.377 11.971 3.034 2.1 2.558-.092 8.223 4.569 9.046s.731-.823 0-1.462-.731-1.554-.822-3.107 2.1-10.417-6.122-11.7c-2.086-.324-3.966-.567-5.622-.745a52.052 52.052 0 0 0 6.536-2.545c3.565-1.736 7.311.549 8.863 2.605s3.473 3.883 6.214 4.067 2.011-.536 0-1.45zM37 25.476c0-1.716 1.8-3.107 4.018-3.107s4.018 1.391 4.018 3.107-1.8 3.107-4.018 3.107S37 27.191 37 25.476zm0 11.147c0-1.817 1.8-3.289 4.018-3.289s4.018 1.473 4.018 3.289-1.8 3.29-4.018 3.29S37 38.44 37 36.623zm0 10.052c0-1.868 1.8-3.382 4.018-3.382s4.018 1.514 4.018 3.382-1.8 3.381-4.018 3.381S37 48.542 37 46.675z" class="cls-1" data-name="Path 551" transform="translate(-6.681 -21.545)"/>
            <circle id="Ellipse_30" cx="1.094" cy="1.094" r="1.094" class="cls-1" data-name="Ellipse 30" transform="translate(32.328 1.921)"/>
            <circle id="Ellipse_31" cx="1.551" cy="1.551" r="1.551" class="cls-1" data-name="Ellipse 31" transform="translate(33.79 13.984)"/>
            <circle id="Ellipse_32" cx="2.099" cy="2.099" r="2.099" class="cls-1" data-name="Ellipse 32" transform="translate(32.237 23.031)"/>
        </g>
    </g>
</svg>
