<svg xmlns="http://www.w3.org/2000/svg" width="83.133" height="55.26" viewBox="0 0 83.133 55.26">
    <defs>
        <style>
            .cls-1{fill:#f3b051;stroke:#148f91;fill-rule:evenodd}.cls-6{fill:#148f91}
        </style>
    </defs>
    <g id="povrsina_kocke_i_kvadra" transform="translate(-239.099 -1246.014)">
        <g id="Group_298" transform="translate(-1058 -6629.235)">
            <g id="noun_cube_1584752" transform="rotate(-11 41711.89 -2782.741)">
                <g id="Group_291">
                    <path id="Path_728" d="M9.07.055L9.266 0l.2.007.194.067 9 4.792.191.152.124.209.04.24-.048.238-.13.206-.195.145L9.9 10.345l-.208.062-.218-.007-.2-.077-8.94-5.159-.185-.158-.117-.213L0 4.552l.057-.237.136-.2.2-.138L9.07.055" class="cls-1" transform="translate(.198 12.085)"/>
                    <path id="Path_729" d="M.354 6.043l-.188-.149-.123-.2L0 5.453l.043-.236.123-.205.188-.149 9-4.79L9.553 0h.209l.2.062 8.856 4.344.193.143.129.2.051.234-.035.236-.117.209-.183.156-8.964 5.179-.211.078h-.224l-.214-.071L.354 6.043" class="cls-1" transform="translate(34.802 18.296)"/>
                    <path id="Path_731" fill="#8f53cb" fill-rule="evenodd" stroke="#148f91" d="M.354 5.613l-.19-.151-.124-.21L0 5.011l.048-.238.13-.205.195-.145L9.266.06 9.459 0h.2l.193.06 8.893 4.363.195.145.13.205.048.238-.04.241-.124.209-.191.152-8.888 4.733-.206.07h-.216l-.206-.07L.354 5.613" transform="translate(23.28 12.593)"/>
                    <path id="Path_733" fill="#dc3d39" fill-rule="evenodd" stroke="#148f91" d="M.368 5.245l-.176-.124-.126-.174L0 4.742v-.215l.071-.2.133-.169.179-.119L9.2.052 9.381 0h.189l.18.052 8.814 3.983.179.119.131.169.072.2v.215l-.066.205-.126.174-.176.125L9.77 9.57l-.193.06h-.2l-.193-.06L.368 5.245" transform="translate(23.365 1.558)"/>
                    <path id="Path_734" fill="#6ab288" fill-rule="evenodd" stroke="#148f91" d="M.353 5.205L.16 5.052l-.123-.214L0 4.594l.052-.241.138-.205.2-.141L9.138.053 9.327 0h.195l.186.06 8.929 4.38.2.148.131.209.046.243-.046.242-.131.209-.2.148-8.78 4.312-.2.061h-.209l-.2-.068L.353 5.205" transform="translate(11.721 6.847)"/>
                    <path id="Path_796" fill="#489cba" fill-rule="evenodd" stroke="#148f91" d="M.353 5.205L.16 5.052l-.123-.214L0 4.594l.052-.241.138-.205.2-.141L9.138.053 9.327 0h.195l.186.06 8.929 4.38.2.148.131.209.046.243-.046.242-.131.209-.2.148-8.78 4.312-.2.061h-.209l-.2-.068L.353 5.205" transform="rotate(2 .175 9.968)"/>
                </g>
            </g>
            <g id="noun_Monster_3288359" transform="translate(1341.491 7875.249)">
                <path id="Path_790" d="M51.025 6.219a1.484 1.484 0 0 0-2.859-.789q-1.032 3.977-2.058 7.947c-.439 1.684-1.062 6.643-3.707 4.816a9.446 9.446 0 0 1-2.4-2.687 10.642 10.642 0 0 0-1.127-3.078l3.161-6.975c.445-.973.214-1.121-.51-.338L37.028 10A10.462 10.462 0 0 0 22.4 9.9l-4.43-4.952c-.712-.795-.949-.646-.522.332l3.063 7.02a10.342 10.342 0 0 0-1.3 3.8c-5.124 4.371-8.2 11.067-6.316 17.786a1.484 1.484 0 0 0 2.859-.789c-1.287-4.6.314-9.258 3.339-12.763l-.047 6.37 1.809 2.627 1.257-2.088.463.795c-2.1 4.4-4.442 10.818-.712 13.184 1.477.931 3.375.593 4.928.083.148-.047.291-.107.433-.154q-1.584 4.226-3.173 8.451h-6.82a1.484 1.484 0 0 0 0 2.965h7.841a1.529 1.529 0 0 0 1.428-1.096q2.224-5.916 4.448-11.838c1.773-.807 3.523-1.684 5.272-2.467q1.8-.8 3.594-1.607c.391.8.777 1.607 1.168 2.408.836 1.714 3.392.214 2.562-1.5-.581-1.192-1.162-2.39-1.744-3.582a1.518 1.518 0 0 0-2.034-.534l-2.509 1.121-4.8 2.153q1.361-3.63 2.728-7.259l.617 1.068 1.257-2.088 1.228 2.105 1.844-2.6.047-6.761c2.224 1.779 4.964 2.479 6.933-.623 2-3.149 2.443-7.562 3.369-11.144.183-.705.367-1.404.545-2.104zM28.576 37.545c-1.672.878-3.665 1.767-4.792 1.269-2.188-.967.071-6.536 1.732-10.005l1.578-1.536 1.228 2.105 1.263-2.1 1.233 2.122 1.257-2.088.213.362q-1.858 4.934-3.712 9.871zm.059-17.917a4.685 4.685 0 1 1 4.715-4.65 4.685 4.685 0 0 1-4.714 4.65z" class="cls-6" transform="translate(-12.338 -4.375)"/>
                <path id="Path_791" d="M36.9 16.324a2.417 2.417 0 1 0 2.4 2.432 2.412 2.412 0 0 0-2.4-2.432zm-.73 2.236a.543.543 0 1 1 .546-.54.535.535 0 0 1-.546.539z" class="cls-6" transform="translate(-21.343 -9.237)"/>
            </g>
        </g>
    </g>
</svg>
