<svg xmlns="http://www.w3.org/2000/svg" width="78.058" height="81.459" viewBox="0 0 78.058 81.459">
    <defs>
        <style>
            .cls-2{fill:#148f91}
        </style>
    </defs>
    <g id="prirodni_brojevi" transform="translate(-240.339 -245.311)">
        <path id="Path_797" fill="none" stroke="#148f91" d="M77.829 33.24c0-5.3-3.519-9.656-8.024-10.152-.366-5.242-4.184-9.367-8.838-9.367a7.906 7.906 0 0 0-3.391.768c-1.1-4.192-4.488-7.242-8.5-7.242a8.464 8.464 0 0 0-6.856 3.722 8.429 8.429 0 0 0-6.766-3.6c-3.918 0-7.241 2.92-8.418 6.963a7.839 7.839 0 0 0-3.033-.609c-4.9 0-8.875 4.567-8.875 10.2a11.925 11.925 0 0 0 .178 2.051c-.262-.024-.531-.045-.8-.045-4.9 0-8.874 4.568-8.874 10.2a11.23 11.23 0 0 0 1.512 5.7A11.047 11.047 0 0 0 5 48.453c0 5.63 3.974 10.193 8.875 10.193a8.524 8.524 0 0 0 7.061-4.022 8.757 8.757 0 0 0 7.693 5.113 8.278 8.278 0 0 0 6.171-2.866 9.5 9.5 0 0 0 2.216 2.261c1.323 6.228.5 18.552-3.433 28.567h16.273c-3.086-6.293-4.759-22.584-3.62-28.445a9.407 9.407 0 0 0 2.4-2.383 8.286 8.286 0 0 0 6.17 2.866c3.72 0 6.9-2.634 8.223-6.365a8.454 8.454 0 0 0 6.8 3.641c4.9 0 8.875-4.567 8.875-10.2a10.954 10.954 0 0 0-2.725-7.347 11.162 11.162 0 0 0 1.85-6.226z" transform="translate(237 238.565)"/>
        <path id="Path_389" d="M36.437 52.942a3.1 3.1 0 0 0-.094-.316 1.745 1.745 0 0 0 1.9-1.361 1.677 1.677 0 0 0-2.068 1.03 1.031 1.031 0 0 0-.9-.541v.32c.495 0 .721.507.81.812-3.505-1.2-3.235 3.79-1.217 5.034.56.28.619-.093 1.451-.173.833.08.9.453 1.451.173 2.055-1.262 2.33-6.389-1.333-4.978z" class="cls-2" transform="translate(206.944 267.754)"/>
        <path id="Path_391" d="M65.476 20.078c.09-.3.314-.811.809-.811v-.322a1.035 1.035 0 0 0-.9.541 1.679 1.679 0 0 0-2.065-1.031 1.744 1.744 0 0 0 1.9 1.364 2.288 2.288 0 0 0-.1.317c-3.667-1.413-3.388 3.716-1.339 4.977.556.281.621-.094 1.452-.173.832.079.892.454 1.451.173 2.026-1.245 2.295-6.238-1.208-5.035z" class="cls-2" transform="rotate(21 -622.12 796.095)"/>
        <path id="Path_395" d="M34.872 25.113c.56.281.619-.094 1.451-.173.834.079.9.454 1.451.173 2.052-1.261 2.329-6.39-1.338-4.977a2.542 2.542 0 0 0-.1-.317 1.747 1.747 0 0 0 1.9-1.364 1.682 1.682 0 0 0-2.068 1.031 1.035 1.035 0 0 0-.9-.541v.322c.5 0 .721.508.811.811-3.495-1.203-3.226 3.79-1.207 5.035z" class="cls-2" transform="rotate(-28 773.18 -386.834)"/>
        <g id="Page-1" transform="translate(247.405 298.868)">
            <g id="Artboard-Copy-12" transform="translate(.595 .91)">
                <g id="noun_Monster_3288506-Copy">
                    <g id="monster-showing">
                        <path id="Shape" d="M11.2 0a6.182 6.182 0 0 0-6.157 6.046Q2.581 9.243.125 12.439a.834.834 0 0 0 0 .878Q2 15.879 3.877 18.44a.948.948 0 0 0 1.437.087.693.693 0 0 0 .062-.961l-3.425-4.675q1.541-2.01 3.086-4.012v2.711l1.068 1.53.725-1.229.729 1.229.729-1.236.732 1.236.41-.691v3.7a15.012 15.012 0 0 0-2.922 1.84 6.205 6.205 0 0 0-.639.607 3.18 3.18 0 0 0-.923 3.024c.354 1.3 1.524 2.36 2.336 3.387.548.694 1.426.062 1.426-.663a.9.9 0 0 0-.2-.566c-.694-.878-2.263-2.114-1.829-3.346.337-.961 1.614-1.645 2.423-2.121.108-.066.219-.121.33-.184v8.021a.877.877 0 0 0 .868.868h3.544a.868.868 0 0 0 0-1.735h-2.678v-7.997a17.141 17.141 0 0 0 2.766-1.444 3.174 3.174 0 0 0 1.523-3.72l.125-.212.725 1.229 1.069-1.531V9.17c1.492-.489 1.048-2.169 0-1.826V6.168A6.186 6.186 0 0 0 11.2 0zM8.462 4.366A2.744 2.744 0 1 1 11.2 7.108a2.743 2.743 0 0 1-2.738-2.742zm5.491 8.83c-.2 1.038-1.59 1.687-2.787 2.173v-3.416l.038-.069.732 1.236.729-1.229.725 1.229.455-.771a1.457 1.457 0 0 1 .108.851z" class="cls-2"/>
                        <path id="Shape-2" d="M31.039 9.923a1.414 1.414 0 1 0-1.416 1.416 1.412 1.412 0 0 0 1.416-1.416zm-1.833-.1a.318.318 0 1 1 .319-.316.318.318 0 0 1-.319.315z" class="cls-2" transform="translate(-18.419 -5.556)"/>
                        <path id="Rectangle" d="M0 0h11.107q.68.371.68.826t-.657.9L0 1.735z" class="cls-2" transform="rotate(-25 26.027 -32.664)"/>
                    </g>
                </g>
            </g>
        </g>
        <g id="Group_309" transform="translate(88.664 -24)">
            <text id="_1347" fill="#8436df" font-family="ChalkboardSE-Bold, Chalkboard SE" font-size="8px" font-weight="700" letter-spacing="0.1em" transform="translate(211.336 314)">
                <tspan x="-10.835" y="0">1347</tspan>
            </text>
        </g>
        <g id="Group_312" transform="translate(80.664 -36)">
            <text id="_13" fill="#6ab288" font-family="ChalkboardSE-Bold, Chalkboard SE" font-size="11px" font-weight="700" letter-spacing="0.1em" transform="translate(211.336 314)">
                <tspan x="-7.296" y="0">13</tspan>
            </text>
        </g>
        <g id="Group_313" transform="translate(66.664 -50)">
            <text id="_561" fill="#489cba" font-family="ChalkboardSE-Bold, Chalkboard SE" font-size="11px" font-weight="700" letter-spacing="0.1em" transform="translate(215.336 313)">
                <tspan x="-11.018" y="0">561</tspan>
            </text>
        </g>
        <text id="_42" fill="#f3b051" font-family="ChalkboardSE-Bold, Chalkboard SE" font-size="10px" font-weight="700" letter-spacing="0.1em" transform="translate(259 271)">
            <tspan x="-6.633" y="0">42</tspan>
        </text>
        <text id="_12900" fill="#df367c" font-family="ChalkboardSE-Bold, Chalkboard SE" font-size="10px" font-weight="700" letter-spacing="0.1em" transform="translate(267 286)">
            <tspan x="-17.188" y="0">12900</tspan>
        </text>
    </g>
</svg>
