<svg xmlns="http://www.w3.org/2000/svg" width="81.046" height="28.095" viewBox="0 0 81.046 28.095">
    <defs>
        <style>
            .cls-1{fill:#ec8e43;stroke:#ec8e43;stroke-linejoin:round}.cls-4{fill:#dc3d39}.cls-5{fill:#148f91}.cls-6{stroke:none}.cls-7{fill:none}
        </style>
    </defs>
    <g id="racunske_peracije_icon" data-name="racunske peracije icon" transform="translate(-248 -599)">
        <g id="Group_133" data-name="Group 133" transform="translate(2 13)">
            <g id="Rectangle_193" class="cls-1" data-name="Rectangle 193" transform="translate(267 593)">
                <rect width="3" height="13" class="cls-6" rx="1.5"/>
                <rect width="2" height="12" x=".5" y=".5" class="cls-7" rx="1"/>
            </g>
            <g id="Rectangle_194" class="cls-1" data-name="Rectangle 194" transform="rotate(90 -161.5 436.5)">
                <rect width="3" height="13" class="cls-6" rx="1.5"/>
                <rect width="2" height="12" x=".5" y=".5" class="cls-7" rx="1"/>
            </g>
        </g>
        <g id="Group_137" fill="#489cba" data-name="Group 137" transform="translate(-18 -2)">
            <g id="Rectangle_195" stroke="#489cba" stroke-linejoin="round" data-name="Rectangle 195" transform="rotate(90 -140 472)">
                <rect width="3" height="11" class="cls-6" rx="1.5"/>
                <rect width="2" height="10" x=".5" y=".5" class="cls-7" rx="1"/>
            </g>
            <g id="Path_419" data-name="Path 419">
                <path d="M1.5 10.5c-.551 0-1-.449-1-1v-8c0-.551.449-1 1-1 .551 0 1 .449 1 1v8c0 .551-.449 1-1 1z" class="cls-6" transform="rotate(90 -142 474)"/>
                <path d="M1.5 1c-.276 0-.5.224-.5.5v8c0 .276.224.5.5.5s.5-.224.5-.5v-8c0-.276-.224-.5-.5-.5m0-1C2.328 0 3 .672 3 1.5v8c0 .828-.672 1.5-1.5 1.5S0 10.328 0 9.5v-8C0 .672.672 0 1.5 0z" transform="rotate(90 -142 474)"/>
            </g>
        </g>
        <g id="noun_Ice_Cream_18017" data-name="noun_Ice Cream_18017" transform="translate(284 1024)">
            <path id="Path_421" d="M6.4 0A6.4 6.4 0 0 0 0 6.4v11.19a2.135 2.135 0 0 0 2.132 2.132h2.932v5.6a1.333 1.333 0 0 0 2.665 0v-5.6h2.932a2.135 2.135 0 0 0 2.132-2.132V6.4A6.4 6.4 0 0 0 6.4 0zm-.8 25.319V23a6.6 6.6 0 0 1 .4 3.01.8.8 0 0 1-.4-.691zm.8.8a.767.767 0 0 1-.139-.014 6.434 6.434 0 0 0-.661-3.74v-2.643h.7a2.778 2.778 0 0 0-.177 2.08 5.287 5.287 0 0 1 .431 1.551 4.652 4.652 0 0 1-.038.483c-.07.629-.166 1.491.667 1.614a.8.8 0 0 1-.783.668zm.8-4.549c-.2-.007-.376-.292-.376-.63s.172-.623.376-.63zm0-1.527c-.361.005-.642.4-.642.9s.282.891.642.9v3.337c-.509-.093-.5-.581-.416-1.314a4.84 4.84 0 0 0 .04-.513 5.392 5.392 0 0 0-.449-1.647 2.63 2.63 0 0 1 .225-1.984h.6z" class="cls-4" data-name="Path 421" transform="translate(-36 -424)"/>
        </g>
        <g id="noun_Oni_Monster_1925409" data-name="noun_Oni Monster_1925409" transform="translate(619 710.132)">
            <g id="Group_139" data-name="Group 139" transform="translate(-340.46 -111.132)">
                <path id="Path_425" d="M38.554 23.007a.971.971 0 0 0 .954-.954v-.073a.468.468 0 0 1-.77-.33.477.477 0 0 1 .293-.44 1.015 1.015 0 0 0-.477-.11.971.971 0 0 0-.954.954 1 1 0 0 0 .954.953zm-.44-.954a.22.22 0 0 1 0 .44.211.211 0 0 1-.22-.22q.054-.219.22-.219z" class="cls-5" data-name="Path 425" transform="translate(-23.9 -12.262)"/>
                <path id="Path_426" d="M24.054 23.007a.971.971 0 0 0 .954-.954v-.073a.468.468 0 0 1-.77-.33.477.477 0 0 1 .293-.44 1.015 1.015 0 0 0-.477-.11.954.954 0 0 0 0 1.907zm-.44-.954a.22.22 0 1 1 0 .44.22.22 0 0 1 0-.44z" class="cls-5" data-name="Path 426" transform="translate(-15.796 -12.262)"/>
                <g id="Group_138" data-name="Group 138">
                    <path id="Path_427" d="M26.39 13.687a18.685 18.685 0 0 0-1.431-4.139 4.756 4.756 0 0 0 .564-7.33c-.347-.388-1.084-.172-1 .345A3.447 3.447 0 0 1 22.442 6.1a1.149 1.149 0 0 0-.26-.216 6.479 6.479 0 0 0-2.863-1.337 6.867 6.867 0 0 1 2.256-.517c.911-.043.781-.819-.347-.776A4.75 4.75 0 0 0 19.1 3.9c2.6-2.026-.043-2.242-.911-.043a3.264 3.264 0 0 1 1.041-1.638C20.577 1.1 18.321-.714 17.5 3.6a6.274 6.274 0 0 0-.564-1.466c-.651-1.035-2-.345-.737.345a1.79 1.79 0 0 1 .824 1.035c-2.039-1.94-4.164-.129-2.256.129a15.665 15.665 0 0 1 1.735.388c-2.6-.129-2 .561-1.778.6a7.475 7.475 0 0 0 1.388.043 5.609 5.609 0 0 0-2.3 1.207 1.149 1.149 0 0 1-.26.216 3.447 3.447 0 0 1-2.082-3.536c.13-.517-.651-.733-1-.345a4.76 4.76 0 0 0 .607 7.33 17.026 17.026 0 0 0-1.431 4.184C5.829 18.258 6 24.725 7.651 26.019c-.043.345-.043.992.174.992.174 0 .3-.6.3-.776h.347c0 .259.174.819.347.776.217-.043.174-.69.13-.862l.26-.086c.13 1.078.911.819.434-.3a.774.774 0 0 0 .217-.3c.477.517.954.388.39-.3l-.174-.172a15.269 15.269 0 0 0 .434-2.026 7.563 7.563 0 0 0 3.47 2.673l.13.992a2.354 2.354 0 0 0-1.778-.3 2.561 2.561 0 0 0-.824.345A2.474 2.474 0 0 0 10.6 27.7a1.026 1.026 0 0 0-.13.388v.043a1.477 1.477 0 0 0-.043.388h5.856a9.266 9.266 0 0 0 .13-2.285 11.134 11.134 0 0 0 3.167-.043 10.351 10.351 0 0 0 .13 2.328h5.856a1.477 1.477 0 0 0-.043-.388v-.043a4.053 4.053 0 0 0-.13-.388 2.484 2.484 0 0 0-1.735-1.38 2.369 2.369 0 0 0-1.778.3l.174-1.078a7.835 7.835 0 0 0 3.47-2.587c.087.431.3 1.682.434 2.026l-.174.172c-.564.69-.087.819.39.3.087.129.13.216.217.259-.13.216-.26.905 0 .992.217.086.434-.431.434-.69.217.086.217.086.26.086-.13 1.337.521.949.521.086h.347c0 .172.13.819.3.776.217 0 .26-.69.174-.992 1.737-1.37 1.606-7.928-2.037-12.283zm-5.29-6.51a2.691 2.691 0 0 1 2.82 3.018 2.586 2.586 0 0 1-2.429 2.415 3.041 3.041 0 0 1-2.6-2.285A2.473 2.473 0 0 1 21.1 7.177zm-6.16 0a2.458 2.458 0 0 1 2.212 3.148 3.1 3.1 0 0 1-2.6 2.285 2.586 2.586 0 0 1-2.429-2.415 2.689 2.689 0 0 1 2.815-3.018zm-3.427 9.658a.882.882 0 0 1 .39-.992 1.088 1.088 0 0 1 1.084-.043 1.736 1.736 0 0 0-.954.216 1.291 1.291 0 0 0-.522.819zm11.191.992a7.022 7.022 0 0 1-4.685 1.6 6.492 6.492 0 0 1-5.726-2.889 5.45 5.45 0 0 0 1.6 1.38c.564-1.466 1.084-1.811 1.562-1.638.521.172.737.776.26 2.415a8.21 8.21 0 0 0 2.3.3h.39c0-.388-.043-1.682.39-1.983a2.756 2.756 0 0 1 1.648-.216c.434.129.694 1.078.824 1.6a7.131 7.131 0 0 0 1.258-.69 6.466 6.466 0 0 0 .607-.517 7.519 7.519 0 0 1 .521-.6 3.206 3.206 0 0 1-.953 1.237zm1.778-.992c-.174-.647-.521-1.035-1.475-1.035a.994.994 0 0 1 1.474 1.035z" class="cls-5" data-name="Path 427" transform="translate(-6.54 -.868)"/>
                </g>
            </g>
        </g>
        <g id="noun_Ice_Cream_18020" data-name="noun_Ice Cream_18020" transform="translate(316.52 601)">
            <path id="Path_422" d="M0 66a2.09 2.09 0 0 0 1.874 2.077A2.091 2.091 0 0 1 0 66z" class="cls-4" data-name="Path 422" transform="translate(0 -48.777)"/>
            <path id="Path_423" d="M40.816 68.077A2.09 2.09 0 0 0 42.691 66a2.091 2.091 0 0 1-1.875 2.077z" class="cls-4" data-name="Path 423" transform="translate(-30.165 -48.777)"/>
            <path id="Path_424" d="M12.522 6.114v-.038a.522.522 0 0 0-.7-.471A3.137 3.137 0 0 1 8.073.97a.521.521 0 0 0-.309-.787h-.005L7.718.172Q7.572.137 7.424.11L7.344.1Q7.207.071 7.069.054l-.09-.012C6.888.032 6.8.024 6.706.017L6.618.011C6.5 0 6.381 0 6.263 0A6.236 6.236 0 0 0 4.4.282q-.239.074-.469.167A6.273 6.273 0 0 0 0 6.263v10.96A2.091 2.091 0 0 0 1.874 19.3a2.132 2.132 0 0 0 .213.011h2.87v5.48a1.3 1.3 0 1 0 2.61 0v-5.48h2.87a2.126 2.126 0 0 0 .213-.011 2.091 2.091 0 0 0 1.875-2.077V6.263c.001-.051-.001-.1-.003-.149zm-6.65 19.351a.781.781 0 0 1-.392-.674v-2.273a6.464 6.464 0 0 1 .392 2.947zm.391.109a.75.75 0 0 1-.136-.014 6.3 6.3 0 0 0-.647-3.66v-2.589h.688a2.72 2.72 0 0 0-.173 2.037 5.176 5.176 0 0 1 .422 1.518 4.555 4.555 0 0 1-.037.473c-.068.616-.162 1.46.653 1.581a.782.782 0 0 1-.77.653zm.783-4.454c-.2-.007-.368-.286-.368-.617s.168-.61.368-.617zm0-1.495c-.353.005-.629.388-.629.878s.276.873.629.878v3.273c-.5-.091-.486-.569-.407-1.287a4.739 4.739 0 0 0 .039-.5 5.279 5.279 0 0 0-.44-1.613 2.575 2.575 0 0 1 .221-1.943h.587z" class="cls-4" data-name="Path 424"/>
        </g>
    </g>
</svg>
