<svg xmlns="http://www.w3.org/2000/svg" width="68.667" height="57.547" viewBox="0 0 68.667 57.547">
    <defs>
        <style>
            .cls-2{fill:#148f91}
        </style>
    </defs>
    <g id="Group_262" transform="translate(-246 -697)">
        <g id="noun_lines_362544" transform="translate(405.728 1338.611)">
            <rect id="Rectangle_192" width="40" height="2.953" fill="#ec8e43" rx="1" transform="translate(-145.728 -614.417)"/>
        </g>
        <g id="Group_229" transform="translate(-887.102 -3143)">
            <g id="Group_227" transform="translate(1156.64 3840)">
                <path id="Path_550" d="M13.954 12.675a.655.655 0 1 1-.655-.655.684.684 0 0 1 .655.655zm6.84-4.8a.655.655 0 1 0 .655.655.684.684 0 0 0-.655-.651zm4.56 3.328a.655.655 0 1 0 .655.655.649.649 0 0 0-.655-.651zm2.988-4.665c-2.123-2.411-10.929-5.006-16.118 0-3.8 3.669-2.542 9.933-1.625 13 .629 2.411 1.808 6.5 2.883 7.181 1.546.97 3.512.367 3.25-.341-.1-.288-.393-.708-.629-1.179a.709.709 0 0 1 .708-1.022c.131.026.288.026.419.052.393.052 1.1.419 1.1.812l-.026.629c0 .734.341 1.258 1.1 1.258l1.835-.026a1.273 1.273 0 0 0 1.337-1.31v-.734a.646.646 0 0 1 .55-.629c.183-.026.314-.026.5-.052a.623.623 0 0 1 .655.865c-.079.157-.131.314-.21.446a.959.959 0 0 0 .839 1.363 8.166 8.166 0 0 0 2.123 0c1.572-.183 2.883-6.709 2.883-8.072 1.047-4.532-.185-10.691-1.574-12.237zm-12.108 6.215a2.175 2.175 0 1 1-2.175-2.175 2.17 2.17 0 0 1 2.175 2.175zm6.552-3.486a2.7 2.7 0 1 1-2.7-2.7 2.7 2.7 0 0 1 2.7 2.701zm5.451 3.407a2.228 2.228 0 1 1-2.228-2.228 2.226 2.226 0 0 1 2.228 2.229zM14.53 18.441c0-1.572 2.49 0 5.582 0a6.952 6.952 0 0 0 1.213-.118 9.6 9.6 0 0 0 1.846-.535c1.428-.536 2.523-1.245 2.523-.133a3.512 3.512 0 0 1-1.525 2.474 6.232 6.232 0 0 1-2.073 1.08 6.568 6.568 0 0 1-1.984.3c-3.092-.002-5.582-1.496-5.582-3.068zm1.756 2.49a3.5 3.5 0 0 1 1.179-3.119L17.2 17.5a3.865 3.865 0 0 0-1.31 3.512zm2.7.734c-.393-.341-.079-2.175.262-3.381l-.393-.1c-.157.524-.865 3.171-.131 3.8zm2.123-3.879l-.367.21c.524 1.31 1.127 3.381.786 3.853l.314.314c.629-.863-.498-3.801-.734-4.378zm2.333-.367l-.367.21c.629 1.075 1.389 2.778 1.1 3.2l.341.236c.55-.816-.816-3.201-1.075-3.646z" class="cls-2" transform="translate(-9.64 -3.68)"/>
            </g>
        </g>
        <g id="Group_227-2" transform="translate(246 731)">
            <path id="Path_550-2" d="M13.954 12.675a.655.655 0 1 1-.655-.655.684.684 0 0 1 .655.655zm6.84-4.8a.655.655 0 1 0 .655.655.684.684 0 0 0-.655-.651zm4.56 3.328a.655.655 0 1 0 .655.655.649.649 0 0 0-.655-.651zm2.988-4.665c-2.123-2.411-10.929-5.006-16.118 0-3.8 3.669-2.542 9.933-1.625 13 .629 2.411 1.808 6.5 2.883 7.181 1.546.97 3.512.367 3.25-.341-.1-.288-.393-.708-.629-1.179a.709.709 0 0 1 .708-1.022c.131.026.288.026.419.052.393.052 1.1.419 1.1.812l-.026.629c0 .734.341 1.258 1.1 1.258l1.835-.026a1.273 1.273 0 0 0 1.337-1.31v-.734a.646.646 0 0 1 .55-.629c.183-.026.314-.026.5-.052a.623.623 0 0 1 .655.865c-.079.157-.131.314-.21.446a.959.959 0 0 0 .839 1.363 8.166 8.166 0 0 0 2.123 0c1.572-.183 2.883-6.709 2.883-8.072 1.047-4.532-.185-10.691-1.574-12.237zm-12.108 6.215a2.175 2.175 0 1 1-2.175-2.175 2.17 2.17 0 0 1 2.175 2.175zm6.552-3.486a2.7 2.7 0 1 1-2.7-2.7 2.7 2.7 0 0 1 2.7 2.701zm5.451 3.407a2.228 2.228 0 1 1-2.228-2.228 2.226 2.226 0 0 1 2.228 2.229zM14.53 18.441c0-1.572 2.49 0 5.582 0a6.952 6.952 0 0 0 1.213-.118 9.6 9.6 0 0 0 1.846-.535c1.428-.536 2.523-1.245 2.523-.133a3.512 3.512 0 0 1-1.525 2.474 6.232 6.232 0 0 1-2.073 1.08 6.568 6.568 0 0 1-1.984.3c-3.092-.002-5.582-1.496-5.582-3.068zm1.756 2.49a3.5 3.5 0 0 1 1.179-3.119L17.2 17.5a3.865 3.865 0 0 0-1.31 3.512zm2.7.734c-.393-.341-.079-2.175.262-3.381l-.393-.1c-.157.524-.865 3.171-.131 3.8zm2.123-3.879l-.367.21c.524 1.31 1.127 3.381.786 3.853l.314.314c.629-.863-.498-3.801-.734-4.378zm2.333-.367l-.367.21c.629 1.075 1.389 2.778 1.1 3.2l.341.236c.55-.816-.816-3.201-1.075-3.646z" class="cls-2" transform="translate(-9.64 -3.68)"/>
        </g>
        <g id="Group_247" transform="translate(-886.64 -3109)">
            <g id="Group_227-3" transform="translate(1156.64 3840)">
                <path id="Path_550-3" d="M13.954 12.675a.655.655 0 1 1-.655-.655.684.684 0 0 1 .655.655zm6.84-4.8a.655.655 0 1 0 .655.655.684.684 0 0 0-.655-.651zm4.56 3.328a.655.655 0 1 0 .655.655.649.649 0 0 0-.655-.651zm2.988-4.665c-2.123-2.411-10.929-5.006-16.118 0-3.8 3.669-2.542 9.933-1.625 13 .629 2.411 1.808 6.5 2.883 7.181 1.546.97 3.512.367 3.25-.341-.1-.288-.393-.708-.629-1.179a.709.709 0 0 1 .708-1.022c.131.026.288.026.419.052.393.052 1.1.419 1.1.812l-.026.629c0 .734.341 1.258 1.1 1.258l1.835-.026a1.273 1.273 0 0 0 1.337-1.31v-.734a.646.646 0 0 1 .55-.629c.183-.026.314-.026.5-.052a.623.623 0 0 1 .655.865c-.079.157-.131.314-.21.446a.959.959 0 0 0 .839 1.363 8.166 8.166 0 0 0 2.123 0c1.572-.183 2.883-6.709 2.883-8.072 1.047-4.532-.185-10.691-1.574-12.237zm-12.108 6.215a2.175 2.175 0 1 1-2.175-2.175 2.17 2.17 0 0 1 2.175 2.175zm6.552-3.486a2.7 2.7 0 1 1-2.7-2.7 2.7 2.7 0 0 1 2.7 2.701zm5.451 3.407a2.228 2.228 0 1 1-2.228-2.228 2.226 2.226 0 0 1 2.228 2.229zM14.53 18.441c0-1.572 2.49 0 5.582 0a6.952 6.952 0 0 0 1.213-.118 9.6 9.6 0 0 0 1.846-.535c1.428-.536 2.523-1.245 2.523-.133a3.512 3.512 0 0 1-1.525 2.474 6.232 6.232 0 0 1-2.073 1.08 6.568 6.568 0 0 1-1.984.3c-3.092-.002-5.582-1.496-5.582-3.068zm1.756 2.49a3.5 3.5 0 0 1 1.179-3.119L17.2 17.5a3.865 3.865 0 0 0-1.31 3.512zm2.7.734c-.393-.341-.079-2.175.262-3.381l-.393-.1c-.157.524-.865 3.171-.131 3.8zm2.123-3.879l-.367.21c.524 1.31 1.127 3.381.786 3.853l.314.314c.629-.863-.498-3.801-.734-4.378zm2.333-.367l-.367.21c.629 1.075 1.389 2.778 1.1 3.2l.341.236c.55-.816-.816-3.201-1.075-3.646z" class="cls-2" transform="translate(-9.64 -3.68)"/>
            </g>
        </g>
        <g id="Group_248" transform="translate(-862.64 -3109)">
            <g id="Group_227-4" transform="translate(1156.64 3840)">
                <path id="Path_550-4" d="M13.954 12.675a.655.655 0 1 1-.655-.655.684.684 0 0 1 .655.655zm6.84-4.8a.655.655 0 1 0 .655.655.684.684 0 0 0-.655-.651zm4.56 3.328a.655.655 0 1 0 .655.655.649.649 0 0 0-.655-.651zm2.988-4.665c-2.123-2.411-10.929-5.006-16.118 0-3.8 3.669-2.542 9.933-1.625 13 .629 2.411 1.808 6.5 2.883 7.181 1.546.97 3.512.367 3.25-.341-.1-.288-.393-.708-.629-1.179a.709.709 0 0 1 .708-1.022c.131.026.288.026.419.052.393.052 1.1.419 1.1.812l-.026.629c0 .734.341 1.258 1.1 1.258l1.835-.026a1.273 1.273 0 0 0 1.337-1.31v-.734a.646.646 0 0 1 .55-.629c.183-.026.314-.026.5-.052a.623.623 0 0 1 .655.865c-.079.157-.131.314-.21.446a.959.959 0 0 0 .839 1.363 8.166 8.166 0 0 0 2.123 0c1.572-.183 2.883-6.709 2.883-8.072 1.047-4.532-.185-10.691-1.574-12.237zm-12.108 6.215a2.175 2.175 0 1 1-2.175-2.175 2.17 2.17 0 0 1 2.175 2.175zm6.552-3.486a2.7 2.7 0 1 1-2.7-2.7 2.7 2.7 0 0 1 2.7 2.701zm5.451 3.407a2.228 2.228 0 1 1-2.228-2.228 2.226 2.226 0 0 1 2.228 2.229zM14.53 18.441c0-1.572 2.49 0 5.582 0a6.952 6.952 0 0 0 1.213-.118 9.6 9.6 0 0 0 1.846-.535c1.428-.536 2.523-1.245 2.523-.133a3.512 3.512 0 0 1-1.525 2.474 6.232 6.232 0 0 1-2.073 1.08 6.568 6.568 0 0 1-1.984.3c-3.092-.002-5.582-1.496-5.582-3.068zm1.756 2.49a3.5 3.5 0 0 1 1.179-3.119L17.2 17.5a3.865 3.865 0 0 0-1.31 3.512zm2.7.734c-.393-.341-.079-2.175.262-3.381l-.393-.1c-.157.524-.865 3.171-.131 3.8zm2.123-3.879l-.367.21c.524 1.31 1.127 3.381.786 3.853l.314.314c.629-.863-.498-3.801-.734-4.378zm2.333-.367l-.367.21c.629 1.075 1.389 2.778 1.1 3.2l.341.236c.55-.816-.816-3.201-1.075-3.646z" class="cls-2" transform="translate(-9.64 -3.68)"/>
            </g>
        </g>
    </g>
</svg>
