<svg xmlns="http://www.w3.org/2000/svg" width="76.95" height="76.852" viewBox="0 0 76.95 76.852">
    <defs>
        <style>
            .cls-3{fill:#148f91}
        </style>
    </defs>
    <g id="trougao" transform="translate(-242.943 -909.672)">
        <path id="Polygon_5" fill="#dc3d39" d="M11 0l11 19H0z" opacity="0.443" transform="rotate(45.97 -966.1 766.72)"/>
        <path id="Polygon_6" fill="#f3b051" d="M11 0l11 19H0z" opacity="0.443" transform="rotate(45.97 -976.311 837.81)"/>
        <g id="Group_193" transform="translate(-10.205 -123.328)">
            <g id="noun_Monster_24991" transform="translate(254.97 1033)">
                <g id="Group_180">
                    <g id="Group_179">
                        <path id="Path_549" d="M67.107 71.86c2.648.466 3.022-1.751 0-1.635s-3.683.351-5.516 1.868c1.424-7.46 2.8-18.955-16.566-20C50.248 42.55 58.238 27.832 61.15 21.83c2.19-4.336 8.05-8.47 6.779-14.387-.5-2.276-1.668-4.377-1.834 0s-3.956 7.34-9.018 7.658c-4.943.318-13.586.707-21.871 1.1a151.87 151.87 0 0 1-16.669-.35c-.171-.014-.336-.026-.5-.036h.015c-2.9-.365-7.641-3.866-7.271-7.679s-1.372-3.653-2.15 0c-1.408 6.62 4.252 10.334 6.068 13.842 1.324 2.522 10.362 20.148 16.049 30.841-17.342-1.19-20.392 7.981-20.781 18.107a9.023 9.023 0 0 0-2.261-1.051c-3-1.049-3.558 1.4-1.112 1.518s1.446 1.167-.333 1.517c-3.344.659-2.891 3.152.779 2.031a32.048 32.048 0 0 1 10.56-1.214c2.113.234 2.335-1.051.556-1.633a12.524 12.524 0 0 0-6.449-.351c-.107-15.629 11.285-16.735 20.45-16.292 1.5 2.789 2.619 4.783 3.049 5.388 1.991 2.8 3.179 3.677 5.014 0 0 0 1.28-2.316 3.223-5.857 9.58.169 19.805 4.583 15.86 17.111-3.113-.583-4.559-.583-6.005 0s-1.557 2.8 1.223 1.867 9.23-.116 11.9.817 3.153-.7.687-1.518-2.65-1.866-.001-1.399zM32.362 28.94l.13-.014zm-.288.035l.157-.02zM45.431 30.2q.182.034.366.059-.184-.023-.366-.059zm.38.06a8.43 8.43 0 0 0 1.1.076 8.422 8.422 0 0 1-1.1-.073zm1.107.076c.119 0 .239 0 .358-.008-.12.008-.239.011-.359.011zm.373-.009a8.118 8.118 0 0 0 1.064-.118 7.991 7.991 0 0 1-1.065.121zm4.682-1.9c.076-.073.152-.147.225-.223-.074.083-.148.157-.225.23zM50.7 20.052a6.828 6.828 0 0 0-1.154.057 6.989 6.989 0 0 1 1.154-.057zm-1.162.058a11.664 11.664 0 0 0-1.261.239 11.7 11.7 0 0 1 1.259-.239zm-19.563 1.2l-.032-.006zm-.092-.017l-.042-.008zm-.1-.018l-.051-.01zm-.106-.02l-.068-.014zm-.1-.02c-.3-.06-.678-.137-1.095-.209.412.074.786.147 1.09.207zm-1.095-.209l-.17-.026zm-.178-.03l-.161-.026zm-.176-.029l-.164-.025zm-.178-.027l-.177-.025zm-.487-.064c-.155-.018-.311-.033-.468-.047.152.011.305.026.463.044zm-.488-.048l-.231-.016zm-.232-.016L26.5 20.8zm-.251-.011h-.214zm-.248-.005q-.226 0-.448.01.217-.015.443-.013zm-.489.012c-.065 0-.129.008-.193.014.06-.008.124-.013.189-.017zm-.222.017c-.073.007-.145.015-.216.024.067-.012.139-.021.212-.027zm-.245.028c-.061.008-.121.017-.181.028.056-.013.116-.023.177-.031zm-.226.035c-.136.025-.27.055-.4.092q.191-.057.396-.095zm-.442.105c-.054.016-.107.032-.159.051.047-.021.101-.038.155-.054zm-.194.063c-.062.022-.122.046-.182.071.056-.027.117-.052.179-.074zm-.209.083c-.05.023-.1.046-.148.07.045-.027.095-.05.144-.073zm-.189.092c-.055.029-.109.06-.163.094.05-.036.104-.067.16-.097zm3.639 8.439h.182c-.5-.792-1.039-1.569-1.707-1.748-.846-.227-.238-.321-.855.185a1.712 1.712 0 0 0-.383.56 3.694 3.694 0 0 0 1.218.741c-1.267-.466-2.376-1.645-3.066-4.212-.575-2.137-.11-3.288.81-3.871.519.71 1.177 1.4 1.634 1.95.417-.4 1.3-2.224 1.963-2.4l.307.039c.912.424 1.31 3.216 2.07 3.877a21.342 21.342 0 0 0 1.989-3.21l-.077-.011c.52.074 1.052.147 1.594.216h-.014a11.2 11.2 0 0 1 .619 1.087c.311.666.348 1.434.9 1.907a15.552 15.552 0 0 0 1.784-2.654q.5.036 1.007.062c.492 1.259.8 2.713 1.986 3.456a16.949 16.949 0 0 0 1.849-3.5c.581-.051 1.147-.124 1.693-.226.684 1.273 1.546 2.772 2.446 2.9.274-1.556 1.778-2.661 2.093-4.306-.389.11-.787.236-1.187.373.6-.207 1.2-.387 1.768-.526.607 1.051.266 3.7 1.458 3.794.335.027 1.3-1.181 1.537-1.448a8.806 8.806 0 0 0 1.311-2.058 3.344 3.344 0 0 0-1.896-.597c1.785.076 3.033 1.027 3.152 3.6a6.058 6.058 0 0 1-1.4 4.267c.073-.087.144-.175.212-.267a.891.891 0 0 0-.593-.474c-.765-.069-1.241 1.107-1.585 2.305a6.762 6.762 0 0 0 .611-.362 7.311 7.311 0 0 1-2.743 1.086 6.332 6.332 0 0 0-1.481-2.005c-.917-.619-.806-.088-1.127 1.067a7.763 7.763 0 0 1-.315.929q-.291-.053-.583-.127c-.686-.176-1.4-.332-2.119-.471a9.079 9.079 0 0 0-1.557-1.735A3.076 3.076 0 0 0 40.2 29.2c-1.175-.154-2.34-.261-3.443-.32h.005c-.186-.363-.355-.71-.5-1.013a2.222 2.222 0 0 0-.715.966 26.32 26.32 0 0 0-2.9.079 3.349 3.349 0 0 0-1.015-1.515c-.5.341-.325.693-.592 1.179-.119.217-.253.44-.4.662h.013a13.721 13.721 0 0 1-2.989.429zm-.043 0h-.14zm-.188-.006c-.051 0-.1-.006-.153-.01.047 0 .098.004.15.006zm-.179-.011c-.123-.01-.245-.025-.368-.045.119.015.241.03.364.041zm-.4-.05c-.054-.009-.107-.019-.16-.03.053.007.103.017.16.027zm-.182-.034a4.022 4.022 0 0 1-.548-.157 3.918 3.918 0 0 0 .548.153zm8.307-7.591h-.035zm-.8-.088l-.109-.013zm6.353.313zm-.472.017zm-.474.008zm-.481 0zm-.484-.007zm-.492-.014zm6.7-.717l-.145.046zm-.489.149l-.161.045zm-.53.137l-.131.031zm1.484-.452c.2-.079.405-.156.608-.23-.205.072-.41.149-.613.228zm.613-.232q.3-.111.6-.214c-.204.067-.404.139-.61.212zm6.32 7.092c.075-.079.147-.159.217-.241l-.223.239zm-.285.283c-.077.072-.155.141-.236.209.076-.07.153-.139.23-.211zm-.27.238c-.082.068-.166.134-.251.2.076-.068.163-.134.246-.205zm-.281.221q-.132.1-.27.19.133-.094.265-.193zm-9.9.462l-.035-.005zm-5.4-.536h.119zm-4.111.138l-.25.037zm-.5.081h-.012zm-.263.051h-.021zm-.273.056l-.027.006a.177.177 0 0 1 .015-.008zM37.886 51.5a3.947 3.947 0 0 1-3.848-4.039 4.121 4.121 0 0 1 1.27-3c.055.026.11.054.166.079a7.324 7.324 0 0 0 2.565.855 5.122 5.122 0 0 0 2.587-.771 4.131 4.131 0 0 1 1.106 2.833 3.946 3.946 0 0 1-3.846 4.043z" class="cls-3" transform="translate(-4.001 -4.891)"/>
                        <circle id="Ellipse_29" cx=".976" cy=".976" r=".976" class="cls-3" transform="translate(32.915 41.641)"/>
                    </g>
                </g>
            </g>
        </g>
    </g>
</svg>
