<svg xmlns="http://www.w3.org/2000/svg" width="76.064" height="80.294" viewBox="0 0 76.064 80.294">
    <defs>
        <style>
            .cls-2{fill:#148f91}
        </style>
    </defs>
    <g id="zapremina" transform="translate(-242 -1785)">
        <g id="noun_Monster_25226" transform="translate(225.497 1774.75)">
            <path id="Path_593" fill="none" stroke="#8f53cb" stroke-width="3px" d="M42.176 69.717a.239.239 0 0 1-.117.032.237.237 0 0 1-.117-.032l-15.313-8.841v17.648l3.071 1.771 8.269 4.775 4.165 2.4 4.165-2.4 8.29-4.787 3.046-1.758V60.793zm11.451-15.944c-.007.01-.011.02-.017.03l.037-.065z" opacity="0.849" transform="translate(-.64 -2.749)"/>
            <g id="Group_215" transform="translate(16.503 10.25)">
                <g id="Group_206" transform="translate(19.017 27.514)">
                    <path id="Path_594" d="M36.923 40.181a2.129 2.129 0 0 0-.12-.56q.053.4.126.806a2.147 2.147 0 0 0-.006-.246z" class="cls-2" transform="translate(-36.803 -39.621)"/>
                </g>
                <g id="Group_207" transform="translate(24.258 45.948)">
                    <path id="Path_595" d="M42.87 59.849a.223.223 0 0 0 .026.025l.022.02zm-.47-.549l.022.034.023.033.014.018z" class="cls-2" transform="translate(-42.398 -59.298)"/>
                    <path id="Path_596" d="M42.823 59.8l-.028-.027.036.036zm.047.046a.223.223 0 0 0 .026.025l.022.02zm-.47-.546l.022.034.023.033.014.018z" class="cls-2" transform="translate(-42.398 -59.298)"/>
                </g>
                <g id="Group_208" transform="translate(24.171 42.376)">
                    <path id="Path_597" d="M46.6 58a2.679 2.679 0 0 0-.639-1.539 2.748 2.748 0 0 0-1.424-.914 2.022 2.022 0 0 0-.887-.022 1.714 1.714 0 0 0-.811.411 1.628 1.628 0 0 0-.463.762 1.952 1.952 0 0 0-.035.856 2.618 2.618 0 0 0 .273.778 3.184 3.184 0 0 0 .463.656 2.837 2.837 0 0 0 1.341.844 1.944 1.944 0 0 0 .816.048 1.588 1.588 0 0 0 .763-.344 1.658 1.658 0 0 0 .486-.7A2.033 2.033 0 0 0 46.6 58zm-.372.749a1.417 1.417 0 0 1-.387.609 1.484 1.484 0 0 1-.644.348 1.834 1.834 0 0 1-.76.027 2.243 2.243 0 0 1-1.326-.778 2.159 2.159 0 0 1-.521-1.423 1.8 1.8 0 0 1 .153-.706 1.455 1.455 0 0 1 .409-.543 1.378 1.378 0 0 1 .6-.282 1.774 1.774 0 0 1 .689 0 2.26 2.26 0 0 1 1.241.707 2.341 2.341 0 0 1 .617 1.317 1.753 1.753 0 0 1-.075.725z" class="cls-2" transform="translate(-42.305 -55.485)"/>
                </g>
                <g id="Group_209" transform="translate(19.76 35.404)">
                    <path id="Path_598" d="M40.745 49.3a2.28 2.28 0 0 0-.939-1.045 1.685 1.685 0 0 0-.7-.214 1.425 1.425 0 0 0-.739.149 1.464 1.464 0 0 0-.305.217 1.4 1.4 0 0 0-.233.289 1.624 1.624 0 0 0-.219.677 2.423 2.423 0 0 0 .27 1.313 2.346 2.346 0 0 0 .889.974 1.636 1.636 0 0 0 .644.218 1.327 1.327 0 0 0 .689-.109 1.386 1.386 0 0 0 .542-.45 1.7 1.7 0 0 0 .279-.645 2.227 2.227 0 0 0-.178-1.374zm-.066 1.33a1.3 1.3 0 0 1-.666.973 1.233 1.233 0 0 1-.6.136 1.52 1.52 0 0 1-.613-.139 1.882 1.882 0 0 1-.893-.92 1.816 1.816 0 0 1-.106-1.26 1.36 1.36 0 0 1 .73-.885 1.3 1.3 0 0 1 1.1.057 1.9 1.9 0 0 1 .843.85 1.965 1.965 0 0 1 .205 1.192z" class="cls-2" transform="translate(-37.596 -48.043)"/>
                </g>
                <g id="Group_210" transform="translate(16.307 26.433)">
                    <path id="Path_599" d="M36.923 40.181a2.129 2.129 0 0 0-.12-.56q.053.4.126.806a2.147 2.147 0 0 0-.006-.246z" class="cls-2" transform="translate(-34.093 -38.539)"/>
                    <path id="Path_600" d="M36.62 39.548a1.858 1.858 0 0 0-.34-.585 1.525 1.525 0 0 0-.508-.385 1.269 1.269 0 0 0-.634-.106 1.214 1.214 0 0 0-.593.234 1.491 1.491 0 0 0-.4.476 1.863 1.863 0 0 0-.2.578 2.211 2.211 0 0 0-.021.6 2.023 2.023 0 0 0 .142.585 1.8 1.8 0 0 0 .308.519 1.443 1.443 0 0 0 .478.376 1.206 1.206 0 0 0 .6.116 1.219 1.219 0 0 0 .585-.207 1.5 1.5 0 0 0 .427-.451 1.932 1.932 0 0 0 .279-.947q-.069-.399-.123-.803zm-.258 1.69a1.369 1.369 0 0 1-.385.424 1.113 1.113 0 0 1-.531.2 1.26 1.26 0 0 1-1.046-.422 1.75 1.75 0 0 1-.32-.5 2.022 2.022 0 0 1-.141-.579 1.76 1.76 0 0 1 .286-1.128 1.248 1.248 0 0 1 .929-.575 1.217 1.217 0 0 1 .986.426 1.885 1.885 0 0 1 .221 2.153z" class="cls-2" transform="translate(-33.911 -38.466)"/>
                </g>
                <g id="Group_211" transform="translate(16.93 18.639)">
                    <path id="Path_601" d="M37.244 31.148a1.563 1.563 0 0 0-.039-.158 1.3 1.3 0 0 0-.182-.373A1.086 1.086 0 0 0 36 30.154a1.248 1.248 0 0 0-.535.2 2.112 2.112 0 0 0-.871 1.912 1.211 1.211 0 0 0 .205.528 1.046 1.046 0 0 0 .448.364 1.1 1.1 0 0 0 .563.069 1.455 1.455 0 0 0 .523-.186 1.891 1.891 0 0 0 .486-.409 2.005 2.005 0 0 0 .259-.387 1.7 1.7 0 0 0 .166-1.097zM36.98 32.2a1.546 1.546 0 0 1-.13.258 1.446 1.446 0 0 1-.55.526 1.074 1.074 0 0 1-.993.027 1.4 1.4 0 0 1-.518-1.814 1.511 1.511 0 0 1 .734-.74 1.147 1.147 0 0 1 .97-.034 1.086 1.086 0 0 1 .58.76 1.53 1.53 0 0 1 .03.184 1.782 1.782 0 0 1-.123.833z" class="cls-2" transform="translate(-34.575 -30.147)"/>
                </g>
                <g id="Group_212" transform="translate(20.339 12.806)">
                    <path id="Path_602" d="M40.273 24.439a.687.687 0 0 0-.236-.388.41.41 0 0 0-.042-.029l-.052-.031a.738.738 0 0 0-.106-.043.717.717 0 0 0-.221-.028 1.019 1.019 0 0 0-.406.109 1.569 1.569 0 0 0-.336.227 2.165 2.165 0 0 0-.275.289 1.827 1.827 0 0 0-.355.707.992.992 0 0 0-.014.4.632.632 0 0 0 .2.364.646.646 0 0 0 .393.144 1.044 1.044 0 0 0 .409-.074 1.355 1.355 0 0 0 .167-.079 1.759 1.759 0 0 0 .493-.407 1.685 1.685 0 0 0 .375-.734 1.213 1.213 0 0 0 .025-.248.877.877 0 0 0-.019-.179zm-.185.4a1.093 1.093 0 0 1-.031.133 1.575 1.575 0 0 1-.279.542 1.79 1.79 0 0 1-.209.221 1.42 1.42 0 0 1-.378.244.693.693 0 0 1-.7-.032.553.553 0 0 1-.191-.3.936.936 0 0 1-.015-.382 1.441 1.441 0 0 1 .331-.7 1.409 1.409 0 0 1 .634-.435.707.707 0 0 1 .677.079.5.5 0 0 1 .158.282.882.882 0 0 1 .003.345z" class="cls-2" transform="translate(-38.214 -23.92)"/>
                </g>
                <g id="Group_213" transform="translate(25.196 7.718)">
                    <path id="Path_603" d="M45.411 18.693l-.035-.039a.528.528 0 0 0-.042-.039.55.55 0 0 0-.09-.059.646.646 0 0 0-.2-.061 1 1 0 0 0-.382.036 1.516 1.516 0 0 0-.34.142 2.207 2.207 0 0 0-.3.2 2.183 2.183 0 0 0-.268.242 1.579 1.579 0 0 0-.219.289.958.958 0 0 0-.129.345.524.524 0 0 0 .08.375.535.535 0 0 0 .33.2 1.013 1.013 0 0 0 .379 0c.041-.007.082-.017.122-.028a1.806 1.806 0 0 0 .56-.272 1.781 1.781 0 0 0 .494-.52l.018-.028a1.028 1.028 0 0 0 .127-.374.582.582 0 0 0-.105-.409zm-.091.388a.872.872 0 0 1-.1.305 1.556 1.556 0 0 1-.439.517 1.6 1.6 0 0 1-.615.3.882.882 0 0 1-.335.015.435.435 0 0 1-.277-.154.448.448 0 0 1-.083-.309.943.943 0 0 1 .095-.334 1.465 1.465 0 0 1 .464-.535 1.4 1.4 0 0 1 .653-.258.608.608 0 0 1 .575.176.39.39 0 0 1 .062.277z" class="cls-2" transform="translate(-43.399 -18.489)"/>
                </g>
                <g id="Group_214">
                    <path id="Path_604" d="M79.217 53.206a14.21 14.21 0 0 0-1.651-5.606 14.6 14.6 0 0 0-9.158-7.2 14.859 14.859 0 0 0-1.989-.377c-.338-.039-.667-.069-1.015-.086l-.244-.01h-.739a17.928 17.928 0 0 0-10.994 3.846 18.365 18.365 0 0 0-6.061 8.562l-4.4-2.541a8.338 8.338 0 0 1-.856-3.086 5.88 5.88 0 0 1 .053-1.282c.007-.038.013-.077.021-.114a2.294 2.294 0 0 0 .882-1.183 2.662 2.662 0 0 0 .195-1.223 7.01 7.01 0 0 1 1.1-1.176c.1-.083.2-.164.3-.243a1.624 1.624 0 0 0 1.116-.292 1.929 1.929 0 0 0 .7-.683 5.75 5.75 0 0 1 .826-.215 5.011 5.011 0 0 1 1.739-.014 4.727 4.727 0 0 1 .717.182 5.05 5.05 0 0 1 1.019.471 5.351 5.351 0 0 0-1.453-1.356 6.158 6.158 0 0 0-1.952-.8 7.811 7.811 0 0 0-2.173-.18 9.5 9.5 0 0 0-2.194.4 10.565 10.565 0 0 0-4.025 2.3q-.226.207-.441.428c-.146.151-.282.3-.424.467l-.056.068-.042.047-.018.021-.01.011a.162.162 0 0 1-.014.021v.007l-.05.065c-.067.086-.131.174-.194.263q-.19.266-.361.542-.119.194-.23.392a25.031 25.031 0 0 1-1.273-3.983 3.171 3.171 0 0 0 .287-1.372 2.678 2.678 0 0 0-.141-.835 2.4 2.4 0 0 0-.428-.754 2.193 2.193 0 0 0-.193-.2 19.508 19.508 0 0 1 .159-4.362 2.922 2.922 0 0 0 .831-.935 2.4 2.4 0 0 0 .269-.719 2.156 2.156 0 0 0 .006-.787 1.9 1.9 0 0 0-.3-.755.4.4 0 0 0-.025-.034 19.892 19.892 0 0 1 1.432-3.264c.062-.022.122-.047.181-.073a3.43 3.43 0 0 0 .962-.669 2.877 2.877 0 0 0 .2-.22 1.943 1.943 0 0 0 .174-.249 2.026 2.026 0 0 0 .232-.575 1.574 1.574 0 0 0 .021-.657 1.039 1.039 0 0 0-.05-.179A19.85 19.85 0 0 1 42 20.293a1.526 1.526 0 0 0 .5-.006 2.545 2.545 0 0 0 1.008-.431 2.627 2.627 0 0 0 .771-.8 1.446 1.446 0 0 0 .2-.57v-.05l.1-.067c.23-.141.463-.278.7-.408a14.722 14.722 0 0 1 2.543-1.1.53.53 0 0 0 .078.069.985.985 0 0 0 .235.125 2.2 2.2 0 0 0 .477.112 3.426 3.426 0 0 0 .944-.024 3.386 3.386 0 0 0 .9-.274 2.11 2.11 0 0 0 .417-.257.951.951 0 0 0 .185-.192.472.472 0 0 0 .084-.2 12.094 12.094 0 0 1 3.128.206.993.993 0 0 0 .075.207 1.494 1.494 0 0 0 .351.445 2.542 2.542 0 0 0 .97.512 2.635 2.635 0 0 0 1.107.1 1.463 1.463 0 0 0 .525-.18c.08.041.158.085.237.129a11.113 11.113 0 0 1 2.083 1.521.692.692 0 0 0-.042.119.941.941 0 0 0-.025.3 1.494 1.494 0 0 0 .155.545 2.55 2.55 0 0 0 .7.844c.064.051.145.111.22.16a2.54 2.54 0 0 0 .239.141 2.337 2.337 0 0 0 .528.206c.05.011.1.022.152.028q.2.343.378.7a9.457 9.457 0 0 1 .884 3.074q.039.347.052.7a1.381 1.381 0 0 0-.171.23 2.072 2.072 0 0 0-.263.854 2.2 2.2 0 0 0 .09.9 1.258 1.258 0 0 0 .161.316c-.017.086-.036.171-.055.258a9.849 9.849 0 0 1-.908 2.432.693.693 0 0 0-.23.054 1.028 1.028 0 0 0-.361.271 1.97 1.97 0 0 0-.237.338c-.067.115-.126.233-.179.351a2.645 2.645 0 0 0-.222.749v.036c-.051.058-.1.116-.153.173q-.284.316-.6.608c-.1.1-.21.192-.318.286l-.04.035c-.015.011 0 0-.013.012l-.024.02-.087.072c-.045.037-.1.083-.156.125a7.484 7.484 0 0 1-.615.435h-.036c-.134 0-.264.011-.393.025a2.651 2.651 0 0 0-.758.191 1.034 1.034 0 0 0-.34.232.586.586 0 0 0-.167.364q-.325.111-.66.193a8.091 8.091 0 0 1-3.375.1 7.826 7.826 0 0 1-.8-.187 8.2 8.2 0 0 1-2.387-1.13 8.343 8.343 0 0 1-1.335-1.148q-.152-.162-.3-.332l-.072-.087-.066-.08c-.045-.057-.089-.114-.132-.172a6.565 6.565 0 0 1-.473-.73 6.672 6.672 0 0 1-.838-3.393 6.894 6.894 0 0 1 1.005-3.443 6.966 6.966 0 0 1 1.16-1.433 5.834 5.834 0 0 1 1.513-1.056 5.746 5.746 0 0 1 3.685-.422 5.849 5.849 0 0 1 1.787.71A5.971 5.971 0 0 1 57 24.006a6.034 6.034 0 0 0-1.385-1.416 6.1 6.1 0 0 0-1.795-.9 6.262 6.262 0 0 0-4.045.117 6.59 6.59 0 0 0-1.812 1.038A7.955 7.955 0 0 0 46.5 24.35a8.12 8.12 0 0 0-1.531 3.934 8.3 8.3 0 0 0 1.182 5.237q.073.118.149.233l.081.119.076.11c.1.148.212.292.324.436a10.368 10.368 0 0 0 4.235 3.181 10.429 10.429 0 0 0 1.187.408 10.735 10.735 0 0 0 8.7-1.344c.082-.052.157-.1.245-.163l.111-.075.118-.084c.151-.109.3-.22.448-.335.294-.23.581-.473.855-.729a13.274 13.274 0 0 0 1.521-1.67 13.515 13.515 0 0 0 2.114-4.024 13.794 13.794 0 0 0-.205-9.129 13.969 13.969 0 0 0-1.01-2.13c-.2-.34-.413-.674-.638-1s-.452-.621-.693-.923a16.276 16.276 0 0 0-7.621-5.27 17.73 17.73 0 0 0-4.622-.86 19.525 19.525 0 0 0-4.663.324 21.061 21.061 0 0 0-4.448 1.378q-.534.232-1.056.493c-.173.087-.347.175-.518.267l-.256.139-.265.149-.108.06-.027.015-.044.027-.062.037-.248.153q-.246.153-.488.313-.482.318-.946.656a26.427 26.427 0 0 0-3.426 3A27.771 27.771 0 0 0 32.1 20.8a27.2 27.2 0 0 0-3.846 8.268 27.567 27.567 0 0 0-.885 9.134 32.215 32.215 0 0 0 1.775 8.436q-.371-.215-.749-.409a19 19 0 0 0-6.106-1.9 14.865 14.865 0 0 0-4.24.154c-.485.072-.967.154-1.443.231l.195.155a17.047 17.047 0 0 1 4.958 1.257q.7.339 1.349.73a1.668 1.668 0 0 0 .122.224 2.483 2.483 0 0 0 .77.72 2.514 2.514 0 0 0 1 .36 14.376 14.376 0 0 1 1.233 1.118q.426.433.8.894a1.5 1.5 0 0 0 0 .42 2.475 2.475 0 0 0 .388.988 2.512 2.512 0 0 0 .769.76 1.7 1.7 0 0 0 .315.147c.029.059.056.119.082.178l-.163-.009a11.707 11.707 0 0 0-1.749.041c-.116.011-.232.024-.348.039a11.6 11.6 0 0 0-3.907 1.234 11.353 11.353 0 0 0-3.154 2.449 10.875 10.875 0 0 0-2.595 5.149 8.772 8.772 0 0 0-.166 1.923 8.461 8.461 0 0 0 .918 3.626 8.227 8.227 0 0 0 2.3 2.782 7.883 7.883 0 0 0 3.162 1.464 7.581 7.581 0 0 1-2.767-1.9 7.335 7.335 0 0 1-1.615-2.8 6.994 6.994 0 0 1-.245-3.09 6.809 6.809 0 0 1 .385-1.461l.025-.064a1.575 1.575 0 0 0 .435-.365 2.226 2.226 0 0 0 .467-1.02 2.811 2.811 0 0 0 .04-.365 8.32 8.32 0 0 1 1.679-1.771l.046-.035a2.585 2.585 0 0 0 .841-.1 2.521 2.521 0 0 0 .955-.508 1.493 1.493 0 0 0 .352-.453 1.073 1.073 0 0 0 .059-.151l.282-.1a7.761 7.761 0 0 1 2.438-.37.816.816 0 0 0 .16.246 1.411 1.411 0 0 0 .437.3l-.285.164-.335.194 15.18 8.786.335-.194 14.913-8.616-2.735-1.579c.026-.275.064-.55.111-.822a11.2 11.2 0 0 1 .35-1.443 2.323 2.323 0 0 0 .253-.156 3.233 3.233 0 0 0 1.267-2.675 2.058 2.058 0 0 0-.026-.226 11.617 11.617 0 0 1 1.738-1.989q.4-.367.835-.693a1.249 1.249 0 0 0 .141.038 1.789 1.789 0 0 0 .586.01 3.394 3.394 0 0 0 1.094-.355 3.5 3.5 0 0 0 .939-.681 1.8 1.8 0 0 0 .342-.5 1.021 1.021 0 0 0 .067-.218c.144-.051.29-.1.437-.144a11.887 11.887 0 0 1 2.568-.492h.019a.359.359 0 0 0 .024.061.491.491 0 0 0 .081.11.909.909 0 0 0 .2.147 2.114 2.114 0 0 0 .438.176 3.818 3.818 0 0 0 1.835.037 2.07 2.07 0 0 0 .445-.158.889.889 0 0 0 .165-.1 9.188 9.188 0 0 1 2.824 1.3.612.612 0 0 0 0 .11 1.074 1.074 0 0 0 .1.393 1.873 1.873 0 0 0 .5.634 1.9 1.9 0 0 0 .732.383 1.176 1.176 0 0 0 .424.03A9.5 9.5 0 0 1 74 51.359a1.515 1.515 0 0 0-.057.3 2.454 2.454 0 0 0 .148 1.051 2.5 2.5 0 0 0 .571.917l.011.069q.051.327.079.66c.009.111.018.222.022.333v.062a.035.035 0 0 0 0 .007v.248a7.372 7.372 0 0 1-.18 1.73 2.734 2.734 0 0 0-.286.4 2.5 2.5 0 0 0-.337 1.028 1.651 1.651 0 0 0 0 .289 7.555 7.555 0 0 1-.825 1.283 7.655 7.655 0 0 1-4.388 2.715q-.327.07-.66.112c-.111.014-.222.026-.334.035l-.168.012-.161.009h-.327q-.16 0-.32-.011a5.826 5.826 0 0 1-.636-.075 6.02 6.02 0 0 1-2.384-.971 6.217 6.217 0 0 1-2.661-4.446 5.9 5.9 0 0 1-.038-.592 4.761 4.761 0 0 1 .042-.731 4.876 4.876 0 0 1 .348-1.263 5.029 5.029 0 0 1 1.65-2.072 5.08 5.08 0 0 1 2.53-.961c.114-.011.231-.019.347-.022h.164c.056 0 .111 0 .167.006a3.943 3.943 0 0 1 .661.092 4.019 4.019 0 0 1 1.244.513 4.148 4.148 0 0 1 1.7 2.115 4.214 4.214 0 0 1 .258 1.399 3.263 3.263 0 0 1-.282 1.337 3.4 3.4 0 0 1-2.75 1.992 3.14 3.14 0 0 1-.362.02 2.781 2.781 0 0 1-.352-.024 2.73 2.73 0 0 1-1.31-.552 2.812 2.812 0 0 1-1.067-1.873 2.612 2.612 0 0 1-.022-.282 2.271 2.271 0 0 1 .749-1.75 2.35 2.35 0 0 1 1.386-.606 1.922 1.922 0 0 1 1.45.468 1.971 1.971 0 0 1 .671 1.417 2.035 2.035 0 0 0-.59-1.5 2.094 2.094 0 0 0-.7-.466 2.143 2.143 0 0 0-.84-.15 2.635 2.635 0 0 0-1.6.571 2.705 2.705 0 0 0-.946 1.459 2.837 2.837 0 0 0-.083.615v.272a3.412 3.412 0 0 0 .164.874 3.486 3.486 0 0 0 2.594 2.308 3.708 3.708 0 0 0 .459.066 4.369 4.369 0 0 0 3-.922 4.487 4.487 0 0 0 1.713-3.23 5.532 5.532 0 0 0-.188-1.844 5.707 5.707 0 0 0-4.769-4.111c-.08-.01-.16-.02-.241-.026-.038 0-.085-.007-.127-.009l-.116-.007c-.158-.007-.314-.009-.471-.006a7.084 7.084 0 0 0-3.6 1.08 7.258 7.258 0 0 0-3.244 4.65 7.519 7.519 0 0 0-.16 1.448c0 .165 0 .329.006.489a8.961 8.961 0 0 0 .96 3.7 9.186 9.186 0 0 0 6.93 4.932c.164.023.329.041.495.056l.248.018.243.011.247.006h.241c.16 0 .321-.007.482-.015.321-.016.643-.047.963-.091a11.3 11.3 0 0 0 3.694-1.183 11.583 11.583 0 0 0 5.263-5.694 11.7 11.7 0 0 0 .92-3.889c0-.078.009-.185.013-.261V54.663v-.484c.006-.326-.009-.649-.034-.973zM50.463 16.315a.554.554 0 0 1-.107.095 1.407 1.407 0 0 1-.268.142l-.046.018a3.5 3.5 0 0 1-.548.159 2.382 2.382 0 0 1-.621.048 1.119 1.119 0 0 1-.126-.015 1.028 1.028 0 0 1-.176-.043.593.593 0 0 1-.106-.046l-.028-.017a.15.15 0 0 1-.074-.1.159.159 0 0 1 .046-.108.6.6 0 0 1 .109-.1 1.848 1.848 0 0 1 .267-.15 2.24 2.24 0 0 1 1.22-.2 1.846 1.846 0 0 1 .3.06.618.618 0 0 1 .131.058.139.139 0 0 1 .07.087.109.109 0 0 1-.02.073.207.207 0 0 1-.023.039zm-2.472.18a.694.694 0 0 1 .137-.148 1.876 1.876 0 0 1 .371-.232 3.3 3.3 0 0 1 1.747-.282 1.822 1.822 0 0 1 .425.1.651.651 0 0 1 .176.1.25.25 0 0 1 .055.06.09.09 0 0 1 .013.054.223.223 0 0 1-.067.092l-.008.007a.852.852 0 0 1-.144.094 1.52 1.52 0 0 1-.214.095.425.425 0 0 0 .058-.058.291.291 0 0 0 .059-.108.186.186 0 0 0 0-.076.233.233 0 0 0-.118-.153.576.576 0 0 0-.157-.063 1.293 1.293 0 0 0-.32-.036 5.323 5.323 0 0 0-1.245.2 1.194 1.194 0 0 0-.291.136.566.566 0 0 0-.127.111.221.221 0 0 0-.057.179l.006.02a.188.188 0 0 0 .039.065.237.237 0 0 0 .047.04l.023.014a.6.6 0 0 0 .142.055 1.879 1.879 0 0 1-.312-.024h-.007c-.125-.021-.246-.069-.263-.123-.011-.014-.003-.069.032-.119zm-6.378 2.448a1.9 1.9 0 0 1 .649-.765 1.771 1.771 0 0 1 .937-.323 1.254 1.254 0 0 1 .449.056.66.66 0 0 1 .17.086.409.409 0 0 1 .064.055.147.147 0 0 1 .022.024v.006l.009.013.013.018.006.007.008.017c.007.011.011.023.017.036a.486.486 0 0 1 .021.077.587.587 0 0 1 .006.178 1.235 1.235 0 0 1-.122.4.056.056 0 0 1-.006.01 2.074 2.074 0 0 1-.582.711 2.224 2.224 0 0 1-.844.424c-.033.008-.067.015-.1.021a.741.741 0 0 1-.722-.184.61.61 0 0 1-.12-.406 1.281 1.281 0 0 1 .125-.461zm-4.827 4.927a1.542 1.542 0 0 1 .272-.485 1.576 1.576 0 0 1 .424-.359 1.705 1.705 0 0 1 .506-.19 1.561 1.561 0 0 1 .487-.027.658.658 0 0 1 .375.152.682.682 0 0 1 .2.335 1 1 0 0 1 .034.242 1.409 1.409 0 0 1-.012.225 2.2 2.2 0 0 1-.133.491c-.032.081-.067.161-.106.242a2.528 2.528 0 0 1-.134.235 1.66 1.66 0 0 1-.818.689h-.006a1.042 1.042 0 0 1-.513.049.766.766 0 0 1-.228-.075.647.647 0 0 1-.178-.132 1.2 1.2 0 0 1-.256-.862 1.749 1.749 0 0 1 .086-.531zm-3.5 5.907a1.788 1.788 0 0 1 .417-.571 1.892 1.892 0 0 1 1.214-.481 1.256 1.256 0 0 1 .583.121 1.275 1.275 0 0 1 .452.369 1.393 1.393 0 0 1 .175.3 1.638 1.638 0 0 1 .092.262 2.129 2.129 0 0 1 .054.647 2.433 2.433 0 0 1-.13.663 1.9 1.9 0 0 1-.565.837 1.55 1.55 0 0 1-.3.2 1.374 1.374 0 0 1-.658.152 1.345 1.345 0 0 1-.62-.17 1.744 1.744 0 0 1-.767-.963 1.882 1.882 0 0 1-.111-.678 1.745 1.745 0 0 1 .163-.688zm2.336 10.014a1.566 1.566 0 0 1-.55.516 1.481 1.481 0 0 1-.69.185 1.894 1.894 0 0 1-1.286-.516 2.132 2.132 0 0 1-.476-.6 2 2 0 0 1-.219-.756 2.055 2.055 0 0 1 .083-.781 2.113 2.113 0 0 1 .9-1.152 1.409 1.409 0 0 1 .642-.212 1.437 1.437 0 0 1 .654.11 1.727 1.727 0 0 1 .571.4 2.254 2.254 0 0 1 .207.253 2.74 2.74 0 0 1 .438 1.068 2.163 2.163 0 0 1-.085 1.109 1.78 1.78 0 0 1-.19.376zm4.217 8.674a1.773 1.773 0 0 1-.363.749 1.641 1.641 0 0 1-.642.469 2.059 2.059 0 0 1-1.539-.039 2.332 2.332 0 0 1-.72-.445 2.244 2.244 0 0 1-.516-.7 2.287 2.287 0 0 1-.118-1.676 2.212 2.212 0 0 1 .364-.709 1.561 1.561 0 0 1 .586-.475 1.58 1.58 0 0 1 .728-.142 1.9 1.9 0 0 1 .753.2 2.606 2.606 0 0 1 .66.468 2.978 2.978 0 0 1 .516.655 2.332 2.332 0 0 1 .29 1.645zM45.2 56.22a1.9 1.9 0 0 1-1.381 1.317 2.409 2.409 0 0 1-1.029.023 3.109 3.109 0 0 1-1.342-.626l-.078-.064-.087-.077-.022-.02a.221.221 0 0 1-.026-.025l-.007-.006-.033-.032-.036-.036-.028-.029c-.044-.044-.085-.09-.126-.136s-.063-.073-.093-.111l-.077-.1-.014-.019-.014-.018-.023-.033-.022-.034c-.036-.051-.067-.1-.1-.156a3.328 3.328 0 0 1-.219-.422A3.048 3.048 0 0 1 40.2 54.6a2.424 2.424 0 0 1 .158-1.016 1.954 1.954 0 0 1 .594-.806 1.92 1.92 0 0 1 .894-.388 2.4 2.4 0 0 1 .973.05 3.005 3.005 0 0 1 .9.394 3.515 3.515 0 0 1 .746.644 3.48 3.48 0 0 1 .541.824 2.968 2.968 0 0 1 .273.942 2.4 2.4 0 0 1-.079.976zm9.778-4.009a2.249 2.249 0 0 1-.607.82 1.294 1.294 0 0 1-.438.242.681.681 0 0 1-.474-.019.689.689 0 0 1-.341-.344 1.341 1.341 0 0 1-.126-.5 2.069 2.069 0 0 1 .221-1.033 1.986 1.986 0 0 1 .687-.79.921.921 0 0 1 .895-.146.638.638 0 0 1 .283.318 1.235 1.235 0 0 1 .1.467 2.191 2.191 0 0 1-.201.985zm.484-.757l-.024.042a2.143 2.143 0 0 0 .02-.28 1.488 1.488 0 0 0-.114-.58 1.03 1.03 0 0 0-.17-.263.865.865 0 0 0-.264-.191.82.82 0 0 0-.311-.067.932.932 0 0 0-.3.05 1.421 1.421 0 0 0-.489.3 2.808 2.808 0 0 0-.619.9 2.7 2.7 0 0 0-.255 1.045 1.38 1.38 0 0 0 .09.544.818.818 0 0 0 .377.428.829.829 0 0 0 .576.047 1.443 1.443 0 0 0 .509-.254 1.938 1.938 0 0 0 .223-.2l-.058.147a2.7 2.7 0 0 1-.249.247 1.693 1.693 0 0 1-.55.333.879.879 0 0 1-.609.008.9.9 0 0 1-.464-.437 1.717 1.717 0 0 1-.177-.671 2.816 2.816 0 0 1 .249-1.3l.037-.082.048-.1.035-.065s.01-.02.017-.03l.018-.03.015-.026a2.763 2.763 0 0 1 .756-.846 1.726 1.726 0 0 1 .63-.289.9.9 0 0 1 .634.083.876.876 0 0 1 .376.474 1.694 1.694 0 0 1 .092.635 2.744 2.744 0 0 1-.049.428zm5.423-4.866a.967.967 0 0 1-.07.134 1.447 1.447 0 0 1-.131.178 2.277 2.277 0 0 1-.617.5 2.4 2.4 0 0 1-.75.281 1.314 1.314 0 0 1-.289.021.886.886 0 0 1-.1-.009.4.4 0 0 1-.3-.17.421.421 0 0 1 0-.353 1.285 1.285 0 0 1 .206-.348 2.018 2.018 0 0 1 .652-.513 1.9 1.9 0 0 1 .8-.211 1.3 1.3 0 0 1 .386.039.533.533 0 0 1 .153.069.239.239 0 0 1 .054.046.277.277 0 0 1 .038.059.367.367 0 0 1-.032.277zm.408-.084l-.011.025a1.6 1.6 0 0 1-.225.352 1.1 1.1 0 0 0 .1-.179.894.894 0 0 0 .046-.141.538.538 0 0 0-.049-.394.62.62 0 0 0-.088-.108.546.546 0 0 0-.114-.08.742.742 0 0 0-.241-.071 1.284 1.284 0 0 0-.452.041 3.381 3.381 0 0 0-.787.335 3.212 3.212 0 0 0-.681.5 1.307 1.307 0 0 0-.259.347.661.661 0 0 0-.066.22.444.444 0 0 0 .04.241.471.471 0 0 0 .074.1.586.586 0 0 0 .1.077.682.682 0 0 0 .155.067c.022.007.044.012.066.017a1.379 1.379 0 0 0 .447.01 2.571 2.571 0 0 0 .832-.265l.047-.024-.047.027a3.207 3.207 0 0 1-1.015.374 1.649 1.649 0 0 1-.529.011h-.008a.553.553 0 0 1-.4-.242.571.571 0 0 1 0-.487 1.711 1.711 0 0 1 .284-.464 2.853 2.853 0 0 1 .874-.683 2.73 2.73 0 0 1 1.06-.3 1.646 1.646 0 0 1 .525.04.427.427 0 0 1 .332.658zm4.407-.51a1.294 1.294 0 0 1-.289-.111.565.565 0 0 1-.121-.086.184.184 0 0 1-.046-.067.085.085 0 0 1-.008-.046.154.154 0 0 1 .064-.1.587.587 0 0 1 .125-.075 1.914 1.914 0 0 1 .289-.1 2.231 2.231 0 0 1 1.235.026 1.791 1.791 0 0 1 .284.112c.084.045.175.109.172.183a.151.151 0 0 1-.059.091.606.606 0 0 1-.107.067l-.015.007a1.41 1.41 0 0 1-.289.092 3.448 3.448 0 0 1-.615.068 2.382 2.382 0 0 1-.62-.06zm2.076-.13a.812.812 0 0 1-.178.09l-.022.008a2.4 2.4 0 0 1-.391.092c-.1.016-.205.027-.309.035.025 0 .052-.007.077-.012a1.486 1.486 0 0 0 .311-.089.631.631 0 0 0 .123-.067l.024-.019a.228.228 0 0 0 .094-.173v-.02a.279.279 0 0 0-.007-.03.236.236 0 0 0-.021-.047.345.345 0 0 0-.06-.071.56.56 0 0 0-.144-.09 1.22 1.22 0 0 0-.309-.092 5.257 5.257 0 0 0-1.261-.023 1.182 1.182 0 0 0-.311.082.531.531 0 0 0-.144.086.215.215 0 0 0-.088.166v.02l.006.024a.237.237 0 0 0 .021.044.286.286 0 0 0 .059.066.586.586 0 0 0 .142.085 1.757 1.757 0 0 0 .3.094 3.688 3.688 0 0 0 .516.077 4.846 4.846 0 0 1-.755-.081 2.11 2.11 0 0 1-.408-.116.568.568 0 0 1-.232-.155.137.137 0 0 1-.03-.074.2.2 0 0 1 .075-.144.7.7 0 0 1 .173-.119 1.893 1.893 0 0 1 .416-.149 3.378 3.378 0 0 1 .692-.09h.326a3.465 3.465 0 0 1 .76.122 1.91 1.91 0 0 1 .409.165.768.768 0 0 1 .169.126.193.193 0 0 1 .068.153.2.2 0 0 1-.092.126z" class="cls-2" transform="translate(-16.503 -10.25)"/>
                </g>
            </g>
        </g>
        <path id="Path_613" d="M39.033 38.434a4.54 4.54 0 0 0 4.534-4.534c0-1.954-2.982-6.226-4.533-8.251-1.551 2.025-4.533 6.3-4.533 8.251a4.534 4.534 0 0 0 4.532 4.534zm0-2.015a2.519 2.519 0 0 0 2.519-2.519.5.5 0 1 1 1.007 0 3.53 3.53 0 0 1-3.526 3.526.5.5 0 0 1 0-1.007z" class="cls-2" transform="rotate(-53 2000.689 677.27)"/>
        <path id="Path_621" d="M39.033 38.434a4.54 4.54 0 0 0 4.534-4.534c0-1.954-2.982-6.226-4.533-8.251-1.551 2.025-4.533 6.3-4.533 8.251a4.534 4.534 0 0 0 4.532 4.534zm0-2.015a2.519 2.519 0 0 0 2.519-2.519.5.5 0 1 1 1.007 0 3.53 3.53 0 0 1-3.526 3.526.5.5 0 0 1 0-1.007z" class="cls-2" transform="rotate(24 -4128.378 1541.843)"/>
        <path id="Path_620" d="M39.033 38.434a4.54 4.54 0 0 0 4.534-4.534c0-1.954-2.982-6.226-4.533-8.251-1.551 2.025-4.533 6.3-4.533 8.251a4.534 4.534 0 0 0 4.532 4.534zm0-2.015a2.519 2.519 0 0 0 2.519-2.519.5.5 0 1 1 1.007 0 3.53 3.53 0 0 1-3.526 3.526.5.5 0 0 1 0-1.007z" class="cls-2" transform="rotate(-97 976.912 817.944)"/>
    </g>
</svg>
