<svg xmlns="http://www.w3.org/2000/svg" viewBox="0 0 750 500"><defs><style>.cls-1,.cls-8,.cls-9{fill:#212121;}.cls-2,.cls-3,.cls-4,.cls-5,.cls-6,.cls-7{fill:none;}.cls-2,.cls-3,.cls-4,.cls-5,.cls-6,.cls-7,.cls-8,.cls-9{stroke:#fff;}.cls-2,.cls-3,.cls-4,.cls-5,.cls-6,.cls-7,.cls-9{stroke-linecap:round;stroke-linejoin:round;}.cls-2,.cls-7{stroke-width:1.2px;}.cls-3,.cls-4,.cls-5,.cls-6{stroke-width:1.21px;}.cls-4{stroke-dasharray:3.6 3.6;}.cls-5{stroke-dasharray:3.64;}.cls-6{stroke-dasharray:3.6 3.6;}.cls-7{stroke-dasharray:5.22;}.cls-8{stroke-miterlimit:10;}</style></defs><g id="Layer_2" data-name="Layer 2"><g id="BACKGROUND_2" data-name="BACKGROUND 2"><rect class="cls-1" width="750" height="500"/><path class="cls-2" d="M619.56,439.43a3.38,3.38,0,0,0-3.94.56,6.24,6.24,0,0,0-1.76,3.79,1.58,1.58,0,0,0,.09,1c.45.79,1.66.39,2.37-.16a12.59,12.59,0,0,0,3.77-4.9,7.44,7.44,0,0,0-1.39,4c.07,1.42,1.33,2.88,2.72,2.58a3.66,3.66,0,0,0,1.64-1"/><path class="cls-2" d="M654,448.63a3.38,3.38,0,0,0-3.93.55,6.22,6.22,0,0,0-1.77,3.8,1.52,1.52,0,0,0,.1,1c.44.78,1.66.39,2.37-.17a12.46,12.46,0,0,0,3.76-4.89,7.47,7.47,0,0,0-1.39,4c.07,1.42,1.33,2.87,2.72,2.58a3.86,3.86,0,0,0,1.65-1"/><path class="cls-2" d="M630.65,446a22,22,0,0,1,5.55,1.18"/><path class="cls-2" d="M630.14,447.92a22,22,0,0,1,5.55,1.18"/><path class="cls-2" d="M692.77,462.61a22.42,22.42,0,0,1,5.55,1.18"/><path class="cls-2" d="M692.26,464.52a22.44,22.44,0,0,1,5.55,1.19"/><path class="cls-2" d="M643.8,444.56c.44-1.2,2.48-.94,3,.23a3.11,3.11,0,0,1-1.17,3.39,24.27,24.27,0,0,1-3.33,1.9c-.47.27-1,.77-.79,1.28a1.22,1.22,0,0,0,.56.54,9.51,9.51,0,0,0,3.8,1.24"/><path class="cls-2" d="M673,454q-.74,2.58-1.45,5.16"/><path class="cls-2" d="M669.71,455.9l5.16,1.45"/><path class="cls-2" d="M662.15,443.49q-1.92,6.51-3.85,13a6.73,6.73,0,0,0,4.32.86c1.34-.19,2.79-1,2.9-2.37a2.62,2.62,0,0,0-.58-1.77,4.44,4.44,0,0,0-5.17-1.46"/><path class="cls-2" d="M713.21,464.47a3.37,3.37,0,0,0-3.93.55,6.28,6.28,0,0,0-1.77,3.8,1.61,1.61,0,0,0,.1,1c.45.79,1.66.4,2.37-.16a12.48,12.48,0,0,0,3.77-4.89,7.38,7.38,0,0,0-1.39,4c.06,1.42,1.32,2.87,2.72,2.58a3.83,3.83,0,0,0,1.64-1"/><path class="cls-2" d="M723.66,467.62c-.5,1.72-1,3.43-1.49,5.15"/><path class="cls-2" d="M720.34,469.45l5.15,1.49"/><path class="cls-2" d="M732.93,462.35l-3.93,13a6.7,6.7,0,0,0,4.31.89c1.34-.18,2.79-1,2.92-2.35a2.67,2.67,0,0,0-.57-1.77,4.47,4.47,0,0,0-5.17-1.5"/><path class="cls-2" d="M682.22,448.86q-1.92,6.5-3.85,13a6.79,6.79,0,0,0,4.32.85c1.34-.18,2.79-1,2.9-2.36a2.67,2.67,0,0,0-.58-1.78,4.44,4.44,0,0,0-5.17-1.45"/><path class="cls-2" d="M624.64,437.05c.72-.15,1.77-.1,1.86.64a1.41,1.41,0,0,1-.51,1l-1.78,1.89a11.29,11.29,0,0,0,3.56.43"/><path class="cls-2" d="M688.67,454.16c.73-.15,1.77-.09,1.86.64a1.37,1.37,0,0,1-.51,1l-1.77,1.9a11.49,11.49,0,0,0,3.55.43"/><path class="cls-2" d="M743.4,467.77c.73-.15,1.77-.1,1.86.64a1.37,1.37,0,0,1-.51,1L743,471.32a11.19,11.19,0,0,0,3.55.43"/><path class="cls-2" d="M707,457.61a8.34,8.34,0,0,0-2.3,12.9c.06.06.16.14.24.09s-.09-.18-.08-.09"/><path class="cls-2" d="M738.74,464.68a14.62,14.62,0,0,1-2.34,15c.07-.19.15-.39.22-.59"/><path class="cls-3" d="M240,304.82l8.2,7.45"/><path class="cls-3" d="M248.21,304.82l-8.2,7.45"/><path class="cls-3" d="M286.08,304.82l8.21,7.45"/><path class="cls-3" d="M294.29,304.82l-8.21,7.45"/><path class="cls-3" d="M332.83,307.55a26.93,26.93,0,0,1,6.94-.36"/><path class="cls-3" d="M332.83,310a27.38,27.38,0,0,1,6.94-.35"/><path class="cls-3" d="M278.81,304.49a4.13,4.13,0,0,0-4.48,1.9,7.66,7.66,0,0,0-.89,5.05,2,2,0,0,0,.43,1.17c.78.79,2.09-.06,2.76-.95a15.41,15.41,0,0,0,2.91-7c-.46,1.68-.92,3.48-.39,5.14s2.48,3,4,2.19a4.49,4.49,0,0,0,1.62-1.75"/><path class="cls-3" d="M315.19,304.49a4.14,4.14,0,0,0-4.49,1.9,7.72,7.72,0,0,0-.89,5.05,1.94,1.94,0,0,0,.44,1.17c.77.79,2.09-.06,2.76-.95a15.29,15.29,0,0,0,2.9-7c-.46,1.68-.92,3.48-.39,5.14s2.48,3,4,2.19a4.54,4.54,0,0,0,1.61-1.75"/><path class="cls-3" d="M265.49,302.88c.15-1.56,2.64-1.9,3.6-.66s.59,3.1-.31,4.38a28.93,28.93,0,0,1-3.34,3.3c-.47.48-.92,1.22-.53,1.77a1.49,1.49,0,0,0,.83.46,11.59,11.59,0,0,0,4.9.27"/><path class="cls-3" d="M301.88,304.87l-.09,6.56"/><path class="cls-3" d="M298.55,308.11l6.57.08"/><path class="cls-3" d="M257,304.87l-.09,6.56"/><path class="cls-3" d="M253.69,308.11l6.57.08"/><path class="cls-3" d="M321.66,300.06c.81-.41,2.07-.68,2.41.17a1.7,1.7,0,0,1-.28,1.36l-1.5,2.81a13.57,13.57,0,0,0,4.34-.62"/><path class="cls-3" d="M384.3,303.28a4.14,4.14,0,0,0-4.49,1.9,7.72,7.72,0,0,0-.89,5.05,2,2,0,0,0,.44,1.16c.78.79,2.09-.05,2.76-.94a15.33,15.33,0,0,0,2.9-7c-.46,1.68-.92,3.48-.39,5.13s2.48,3,4,2.2a4.61,4.61,0,0,0,1.61-1.75"/><path class="cls-3" d="M372.2,304.92q-.07,3.29-.13,6.57"/><path class="cls-3" d="M368.85,308.14l6.56.13"/><path class="cls-3" d="M396.84,297.63c.81-.41,2.06-.67,2.4.17a1.68,1.68,0,0,1-.28,1.37l-1.5,2.81a14.26,14.26,0,0,0,4.35-.62"/><path class="cls-3" d="M350.52,297.13a10.2,10.2,0,0,0,1.36,16c.09.06.23.12.31,0s-.16-.19-.12-.08"/><path class="cls-3" d="M390.34,295.45a18,18,0,0,1,2,18.49l.07-.76"/><path class="cls-3" d="M357.62,304.82l8.2,7.45"/><path class="cls-3" d="M365.82,304.82l-8.2,7.45"/><path class="cls-2" d="M478.89,461.94a1.2,1.2,0,0,0,.17-1.75,2.59,2.59,0,0,0-1.81-.73,6.8,6.8,0,0,0-5.63,2.37c-.83,1-1.34,2.53-.54,3.55a3.07,3.07,0,0,0,1.55.94c1.35.45,2.78.62,4.13,1.07a5.47,5.47,0,0,1,3.31,2.52c1.15,2.35-.83,5.38-3.4,5.91s-5.22-.88-6.91-2.88"/><path class="cls-2" d="M482.69,469.46l-.36,5.66a7,7,0,0,1,1.45-4.16c1-1.08,3.17-1.19,3.82.15.44.89.06,1.94-.06,2.92s.32,2.26,1.31,2.28"/><path class="cls-2" d="M496,472.76a24.69,24.69,0,0,1,6.36.48"/><path class="cls-2" d="M495.73,475a24.69,24.69,0,0,1,6.36.48"/><path class="cls-2" d="M514.56,460.35a25.11,25.11,0,0,1-.54,5.74,26.71,26.71,0,0,1,1-4.17c.58-1.31,1.93-2.45,3.34-2.15s2.24,2.13,2.2,3.69-.57,3.08-.46,4.63c0,.26.13.57.38.58s.1-.53,0-.32"/><path class="cls-2" d="M509.1,473.35a87.07,87.07,0,0,1,19.84,2.14l-1-.48"/><path class="cls-2" d="M514.27,477.77a1.87,1.87,0,0,1,3.55,0c.41,1.2-.47,2.46-1.43,3.29s-2.11,1.6-2.5,2.82a10.26,10.26,0,0,0,4.29,1"/><path class="cls-2" d="M542.87,460.37a31.55,31.55,0,0,0-8.29-.42l-1.8,18.85c-.09,1-.07,2.17.78,2.64a2.54,2.54,0,0,0,1,.24l9,.85"/><path class="cls-2" d="M541.31,468.61a1.67,1.67,0,0,1,2.49-.65,2.55,2.55,0,0,1,.75,2.72,5.54,5.54,0,0,1-1.68,2.44,20.22,20.22,0,0,0-2.14,2.1l6.4,1"/><path class="cls-2" d="M553.49,469.34a2,2,0,0,0-2.14.16,4.93,4.93,0,0,0-1.42,1.74,4.84,4.84,0,0,0-.8,2.44,2,2,0,0,0,1.42,1.95,2.57,2.57,0,0,0,2.36-1.37,8.51,8.51,0,0,0,1.46-3.9c-.91,1.29.1,4.56,1.14,5.77"/><path class="cls-2" d="M556.69,479.3c.44-.89.88-1.77,1.31-2.66,0,1.44,0,2.89-.12,4.33"/><path class="cls-2" d="M566.45,470.27l-.84,6"/><path class="cls-2" d="M563.05,472.83l6,.84"/><path class="cls-2" d="M591,471.15l-.84,6"/><path class="cls-2" d="M587.63,473.72l6,.84"/><path class="cls-2" d="M578.67,464.8a11.17,11.17,0,0,0-1.1,14.36"/><path class="cls-2" d="M581.14,470.78l-.12,5.46a9.08,9.08,0,0,1,1.77-4.49,1.94,1.94,0,0,1,1.32-.91c.94,0,1.45,1.08,1.57,2a9.18,9.18,0,0,1-.32,3.72"/><path class="cls-2" d="M596.59,474a8.76,8.76,0,0,1,2.72-2.8c-.26,1.81-.43,3.63-.52,5.46a11.23,11.23,0,0,1-.16,2.12"/><path class="cls-2" d="M602.6,465.49a10.93,10.93,0,0,1-1.41,16.83"/><path class="cls-2" d="M613.24,474a4,4,0,0,0-4.14.95,2.74,2.74,0,0,0,.31,3.94,1.47,1.47,0,0,0,1.34.22,1.63,1.63,0,0,0,.72-.61,7.83,7.83,0,0,0,1.21-3.8c.26-2,.42-4,.48-6.07a77,77,0,0,0-.85,7.74,4.66,4.66,0,0,0,.15,1.9,1.68,1.68,0,0,0,1.39,1.16"/><path class="cls-2" d="M618.1,466.93c1.37.51,2.88-.08,4.25.43a.82.82,0,0,1,.41.24.89.89,0,0,1,.07.7,122.63,122.63,0,0,0-1.71,17.42c-4.15,0-1.66.53-5.77,0"/><path class="cls-3" d="M31.41,281.27q-1,29.19-.61,58.39"/><path class="cls-3" d="M32.3,280.63c26.83,21.71,58.14,39.78,87.33,60.58a687.74,687.74,0,0,1-89-.88"/><path class="cls-3" d="M31,326.31c4.09.44,8.18-.66,12.27-.22a.88.88,0,0,1,.59.22.94.94,0,0,1,.15.58c.09,4.23.18,10,.26,14.23,0-.24,0-2,0-2.26"/><path class="cls-3" d="M17.66,305.18a7.12,7.12,0,0,0-3.32.68,3.71,3.71,0,0,0-2,2.59,2.52,2.52,0,0,0,1.51,2.76,2.73,2.73,0,0,0,3-1.29,5.42,5.42,0,0,0,.58-3.46,4.51,4.51,0,0,0,5.61,4.86"/><path class="cls-3" d="M68.41,346.53q0,6.29.51,12.54a8.21,8.21,0,0,1,.35-3.39,2.81,2.81,0,0,1,2.59-1.89,2.61,2.61,0,0,1,1.68.89,3.4,3.4,0,0,1-.24,4.63,3.25,3.25,0,0,1-4.56-.43"/><path class="cls-3" d="M86.9,305.52a3.46,3.46,0,1,0,.15,6.3"/><path class="cls-3" d="M98.38,371.28c.23.05.07-.35-.15-.41a4.95,4.95,0,1,0,1.81,8.6"/><path class="cls-3" d="M102.52,364.59c.15.07-.17,0-.1-.12a1.45,1.45,0,0,1,2.23-.28,2.35,2.35,0,0,1,.4,2.46,7,7,0,0,1-1.47,2.16,4.38,4.38,0,0,0,3.06.4"/><path class="cls-3" d="M128.09,371.74a1.94,1.94,0,0,0-2.25-.95,4.33,4.33,0,0,0-2.13,1.53,5.7,5.7,0,0,0-1.6,4.32c.22,1.57,1.81,3,3.33,2.55,1.35-.38,2-1.91,2.19-3.3a17.33,17.33,0,0,1,.49-4.15,9.83,9.83,0,0,0,1.31,5.19c1,1.47,3.34,2.2,4.7,1"/><path class="cls-3" d="M131.12,365.67c.35-.42.79-.89,1.34-.82.78.09,1,1.17.72,1.91a5.38,5.38,0,0,0-.72,2.21,1.62,1.62,0,0,0,2.54,1"/><path class="cls-3" d="M151.74,365c.16-.05,0-.33-.18-.24s-.16.28-.16.45a110.45,110.45,0,0,0,1.3,13,7.79,7.79,0,0,1,.6-4.18c.71-1.24,2.46-2,3.61-1.16A3.28,3.28,0,0,1,158,375a3.61,3.61,0,0,1-.31,2.63c-1,1.6-3.46,1.15-5.26.52"/><path class="cls-3" d="M158.39,365.12c.87-.32,1.8.53,1.93,1.44a4.69,4.69,0,0,1-.66,2.63,4.75,4.75,0,0,0,2.81.61"/><path class="cls-3" d="M142.71,371.31q-.15,3.27-.31,6.56"/><path class="cls-3" d="M139.28,374.43l6.56.31"/><path class="cls-3" d="M109,374.15a27.87,27.87,0,0,1,7-.12"/><path class="cls-3" d="M108.88,376.58a27,27,0,0,1,7-.12"/><path class="cls-3" d="M119.86,400.81c.22,0,.06-.35-.16-.41a4.94,4.94,0,1,0,1.81,8.6"/><path class="cls-3" d="M155.63,401.26a2,2,0,0,0-2.26-.94,4.22,4.22,0,0,0-2.12,1.52,5.73,5.73,0,0,0-1.61,4.33c.23,1.57,1.81,3,3.34,2.55,1.35-.38,2-1.91,2.18-3.3a17.42,17.42,0,0,1,.5-4.16c.11,1.81.25,3.72,1.3,5.19s3.35,2.21,4.7,1"/><path class="cls-3" d="M158.66,397.62c.34-.42.79-.89,1.33-.83.78.1,1,1.18.72,1.92a5.51,5.51,0,0,0-.71,2.21,1.61,1.61,0,0,0,2.54,1"/><path class="cls-3" d="M178.94,395.9a89.28,89.28,0,0,0,1.3,11.75,7.68,7.68,0,0,1,.6-4.18c.7-1.25,2.45-2,3.61-1.17a3.32,3.32,0,0,1,1.11,2.19,3.71,3.71,0,0,1-.31,2.63c-1.05,1.6-3.47,1.15-5.27.52"/><path class="cls-3" d="M185.93,397.07c.86-.32,1.79.53,1.93,1.44a4.7,4.7,0,0,1-.67,2.63,4.76,4.76,0,0,0,2.81.61"/><path class="cls-3" d="M170.25,400.83c-.11,2.19-.21,4.37-.31,6.56"/><path class="cls-3" d="M166.81,404l6.56.31"/><path class="cls-3" d="M125.58,403.68a27,27,0,0,1,7-.12"/><path class="cls-3" d="M125.5,406.1a27,27,0,0,1,6.95-.12"/><path class="cls-3" d="M137.76,403.14l3.49,6.27q1.45-6.17,2.93-12.33a2.47,2.47,0,0,1,2.9-2.41l54.82-2.21"/><path class="cls-3" d="M156.14,433.55c.23,0,.07-.36-.15-.42a4.95,4.95,0,1,0,1.81,8.6"/><path class="cls-3" d="M119.16,434a1.93,1.93,0,0,0-2.25-.94,4.29,4.29,0,0,0-2.13,1.52,5.74,5.74,0,0,0-1.6,4.33c.22,1.57,1.81,3,3.34,2.54,1.35-.38,2-1.91,2.18-3.3a17.33,17.33,0,0,1,.5-4.15c.11,1.8.25,3.71,1.3,5.19s3.35,2.2,4.7,1"/><path class="cls-3" d="M159.78,430.36c.35-.43.79-.9,1.34-.83.78.1,1,1.17.72,1.91a5.43,5.43,0,0,0-.72,2.21,1.62,1.62,0,0,0,2.54,1"/><path class="cls-3" d="M180.06,428.64a90.66,90.66,0,0,0,1.3,11.74,7.79,7.79,0,0,1,.6-4.18c.71-1.24,2.46-2,3.61-1.16a3.24,3.24,0,0,1,1.11,2.19,3.61,3.61,0,0,1-.31,2.63c-1,1.6-3.46,1.15-5.26.52"/><path class="cls-3" d="M187.05,429.8c.87-.31,1.8.54,1.93,1.45a4.69,4.69,0,0,1-.66,2.63,4.82,4.82,0,0,0,2.81.61"/><path class="cls-3" d="M171.37,433.57c-.1,2.19-.2,4.37-.31,6.56"/><path class="cls-3" d="M167.94,436.69l6.56.31"/><path class="cls-3" d="M126.71,436.41a27.4,27.4,0,0,1,7-.11"/><path class="cls-3" d="M126.62,438.84a27,27,0,0,1,7-.12"/><path class="cls-3" d="M138.89,435.88l3.48,6.27q1.47-6.16,2.93-12.34a3.38,3.38,0,0,1,.92-1.89,3.33,3.33,0,0,1,2-.52L203,425.2"/><path class="cls-3" d="M165.57,467.28c.22,0,.06-.35-.16-.41a4.94,4.94,0,1,0,1.81,8.6"/><path class="cls-3" d="M194.06,467.74a1.94,1.94,0,0,0-2.25-.95,4.35,4.35,0,0,0-2.13,1.52,5.76,5.76,0,0,0-1.6,4.33c.22,1.57,1.81,3,3.34,2.55,1.34-.38,2-1.91,2.18-3.3a17,17,0,0,1,.5-4.16c.11,1.81.25,3.72,1.3,5.19s3.35,2.21,4.7,1"/><path class="cls-3" d="M169.21,464.1c.34-.43.79-.9,1.33-.83.78.09,1,1.17.72,1.91a5.56,5.56,0,0,0-.71,2.21,1.61,1.61,0,0,0,2.54,1"/><path class="cls-3" d="M122.8,461.16a112.75,112.75,0,0,0,1.62,14.66c-.07-1.78-.13-3.67.75-5.22s3.07-2.49,4.51-1.45a4.11,4.11,0,0,1,1.38,2.73,4.59,4.59,0,0,1-.38,3.29c-1.31,2-4.33,1.44-6.57.64"/><path class="cls-3" d="M196.48,463.54c.86-.31,1.79.53,1.93,1.44a4.74,4.74,0,0,1-.67,2.64,4.84,4.84,0,0,0,2.81.61"/><path class="cls-3" d="M180.8,467.31c-.11,2.18-.21,4.37-.31,6.55"/><path class="cls-3" d="M177.36,470.43l6.56.31"/><path class="cls-3" d="M136.13,470.15a27,27,0,0,1,7-.12"/><path class="cls-3" d="M136.05,472.57a27.4,27.4,0,0,1,6.95-.11"/><path class="cls-3" d="M148.31,469.61l3.49,6.28q1.45-6.18,2.93-12.34a3.25,3.25,0,0,1,.92-1.9,3.36,3.36,0,0,1,2-.51l54.82-2.21"/><polyline class="cls-3" points="524.75 126.96 559.31 28.15 597.5 125.75"/><path class="cls-3" d="M525.83,124.21a13.68,13.68,0,0,1,1.17-1.39"/><path class="cls-4" d="M529.72,120.46c6.74-4.9,17.78-7.84,22.6-8.14,5.48-.35,21.91-.1,27.33.74a32.24,32.24,0,0,1,10.9,3.35"/><path class="cls-3" d="M592.07,117.37a17.34,17.34,0,0,1,1.44,1.12"/><path class="cls-3" d="M593.51,118.49c3.79,3.3,5.88,9,3.74,13.54-1.78,3.78-5.87,5.85-9.79,7.25-12.35,4.4-50.48,7.63-60.5-3.88-3.66-4.21-3.43-8-1.13-11.19"/><line class="cls-5" x1="558.7" y1="125.75" x2="558.7" y2="28.75"/><line class="cls-3" x1="597.5" y1="125.75" x2="561.13" y2="125.75"/><path class="cls-3" d="M603.39,123.54c1.48-.53,3.15.21,4.66-.2A3.18,3.18,0,1,0,605,118c-1.39,1.37-1.23,3.62-1,5.56l1.26,9.45"/><path class="cls-3" d="M563,71.18q.09,7.25.17,14.49l.58-4.42c.16-1.16.84-2.71,2-2.37.75.22,1,1.15,1.09,1.92l.51,3.67"/><path class="cls-3" d="M555.81,18.73a84.55,84.55,0,0,1,7.06,6"/><path class="cls-3" d="M556.46,24.37,561.75,19c.09-.09.19-.23.12-.34s-.27.09-.14.11"/><path class="cls-3" d="M559.46,115.79a47.09,47.09,0,0,1,9,.34c-.15,3.26.92,6.53.77,9.8"/><path class="cls-3" d="M572.47,117.5c.11,1.27.23,2.54.35,3.82a15.59,15.59,0,0,0,.19-2.56c.1-.86.62-1.79,1.47-1.87a1.68,1.68,0,0,1,1.6,1.31,5,5,0,0,1-.09,2.23"/><polyline class="cls-3" points="15.63 465.75 50.19 366.94 88.38 464.54"/><path class="cls-3" d="M16.72,463a12.38,12.38,0,0,1,1.16-1.39"/><path class="cls-6" d="M20.61,459.25c6.74-4.9,17.77-7.84,22.59-8.14,5.48-.35,21.91-.1,27.33.74a32.24,32.24,0,0,1,10.9,3.35"/><path class="cls-3" d="M83,456.16a17.34,17.34,0,0,1,1.44,1.12"/><path class="cls-3" d="M84.39,457.28c3.79,3.3,5.88,9,3.74,13.54-1.78,3.78-5.86,5.85-9.79,7.25-12.34,4.4-50.48,7.63-60.5-3.88-3.66-4.21-3.43-8-1.12-11.19"/><line class="cls-5" x1="49.58" y1="464.54" x2="49.58" y2="367.54"/><line class="cls-3" x1="88.38" y1="464.54" x2="52.01" y2="464.54"/><path class="cls-3" d="M53.85,410q.09,7.25.17,14.49l.59-4.42c.15-1.16.84-2.71,2-2.37.75.22,1,1.15,1.09,1.92l.51,3.67"/><path class="cls-3" d="M91.85,458.09c.7-.72,2,.09,2.13,1.09a4,4,0,0,1-1.13,2.68,4.1,4.1,0,0,0-1.17,2.68,17.83,17.83,0,0,0,5.14.51"/><path class="cls-3" d="M508.13,16.24c.36,29.28-.2,63.21.16,92.48"/><path class="cls-3" d="M507.31,16.37c-4.31,3.68-57.21,77.8-69.09,91.88,24,.47,47-.74,70.07.47"/><path class="cls-3" d="M447.46,53.31a63.71,63.71,0,0,0,4,12.64A82.37,82.37,0,0,0,454.89,43L470.54,43"/><path class="cls-3" d="M460.94,51.47a2.57,2.57,0,0,1,5-.22c.89,3-3.7,5.26-3.45,8.37a6.17,6.17,0,0,0,6.39-.84"/><path class="cls-3" d="M513.52,58.8a17.84,17.84,0,0,1,4.34-5.67c.36,5.41.71,8.4,1.07,13.81"/><path class="cls-3" d="M497.05,107.28l.72-7.47a40.15,40.15,0,0,1,10.56-.19"/><path class="cls-3" d="M473.29,121.54l4.3-5.83q0,6.57.07,13.15"/><path class="cls-3" d="M461.58,78.67c.54.66,1.08,1.31,1.61,2a25.08,25.08,0,0,1,2.27,3.07,19.79,19.79,0,0,1,2.23,6.51,41.68,41.68,0,0,1-.81,18.55"/><path class="cls-3" d="M454.51,92.34a1.53,1.53,0,0,1,1.34-1.52,5.92,5.92,0,0,1,2.08.59c.69.19,1.68-.1,1.68-.82"/><path class="cls-3" d="M452.05,98.83a99.18,99.18,0,0,0,11.82.52"/><path class="cls-3" d="M455.91,91.41a25.06,25.06,0,0,0-.25,5.19"/><path class="cls-3" d="M457.88,101a27.38,27.38,0,0,0-2.48,2.89l3.4.17"/><path class="cls-3" d="M458,91.94a49.67,49.67,0,0,1-.11,5.59"/><path class="cls-3" d="M458.14,100.85v5.31"/><path class="cls-3" d="M57.57,170.17a24.16,24.16,0,0,1,21.16,5.47,27.42,27.42,0,0,1,9,20.13c0,4.53-1.07,9.23-4,12.69a18.94,18.94,0,0,1-6.94,4.94,28,28,0,0,1-27.9-3.53C34.57,198.61,39.73,174.43,57.57,170.17Z"/><path class="cls-3" d="M63.66,134.11C63.21,171,64.87,202,64.86,243.7"/><path class="cls-3" d="M5.19,193.71c36.93.45,76.38-1.21,118.07-1.2"/><path class="cls-3" d="M44.71,173.4a19.64,19.64,0,0,0-1.52,6.67,32.29,32.29,0,0,1,7-1.94"/><path class="cls-3" d="M117.32,189.32c-1.53-1.06,1.73.72,2.19.92,1.63.71,3.27,1.08,4.45,2.32a10.94,10.94,0,0,0-5.16,4.54"/><path class="cls-3" d="M59.6,141.89l3.75-9.64,5.25,9.58"/><path class="cls-3" d="M76.06,145.19A12.15,12.15,0,0,0,74.84,159"/><path class="cls-3" d="M78.44,150.89c-.63,1.36-1,3.2.16,4.19a2.22,2.22,0,0,0,3-.24,2.68,2.68,0,0,0,.26-3.07,3.39,3.39,0,0,0-2.72-1.6c-.42,0-1,.3-.79.66"/><path class="cls-3" d="M84.91,154.77v2.88"/><path class="cls-3" d="M88.27,152.36a12.45,12.45,0,0,1,1.08-2.31l.48,5.34"/><path class="cls-3" d="M91.15,143.14a16.75,16.75,0,0,1,3,15.36c-.07.24-.44.46-.47.22"/><path class="cls-3" d="M94.4,169.8a9.25,9.25,0,0,0-.55,7.56A3.39,3.39,0,0,0,95,179c1.3.91,3.23-.08,3.87-1.52a8.09,8.09,0,0,0,.1-4.68,5.38,5.38,0,0,0-1.47-3.41c-1-.8-2.85-.5-3,.75"/><path class="cls-3" d="M93.12,175.21c.06-.79,1.1-1,1.89-1h5.32"/><path class="cls-3" d="M54.48,247.37c.05-.29-.49-.27-.55,0s.18.53.4.72l4.2,3.72"/><path class="cls-3" d="M60.48,245.75,56.92,258"/><path class="cls-3" d="M128.29,183.54A27.59,27.59,0,0,1,134,192"/><path class="cls-3" d="M128,191.44l6.17-7.95"/><path class="cls-3" d="M94.25,201.86a6.77,6.77,0,0,0,1.32,8.23"/><path class="cls-3" d="M98.75,206.6a13,13,0,0,1,1.69-3,22.22,22.22,0,0,0,.41,5.21"/><path class="cls-3" d="M104.56,208.82v2.76"/><path class="cls-3" d="M107.17,205a5.31,5.31,0,0,0,.37,2.69,1.8,1.8,0,0,0,2.28.93,2,2,0,0,0,.88-1.54,3,3,0,0,0-1.39-3,2,2,0,0,0-2.84,1.1"/><path class="cls-3" d="M111.57,199.68a8.34,8.34,0,0,1,2.06,10.45"/><path class="cls-3" d="M72.61,233.61a3.65,3.65,0,0,0,1.07,4.47,2.53,2.53,0,0,0,2.94.14,2.7,2.7,0,0,0,.38-3.37A3.47,3.47,0,0,0,73.79,233a2.49,2.49,0,0,0-2.26,2.69"/><path class="cls-3" d="M79.57,238.84a7,7,0,0,0,.31,4.24"/><path class="cls-3" d="M85.3,235.42l1.48-2.91a13.19,13.19,0,0,0,.47,4.88"/><path class="cls-3" d="M88.56,229.43a14.16,14.16,0,0,1,2,9.69"/><path class="cls-3" d="M69.27,231.38a18.84,18.84,0,0,0-.78,6.2,6.28,6.28,0,0,0,.53,2.54,2.65,2.65,0,0,0,2,1.5"/><path class="cls-3" d="M81.69,236.09h1"/><path class="cls-3" d="M11.84,203.19h2.42"/><path class="cls-3" d="M15.7,200.26,17,198.83a24.89,24.89,0,0,0,.24,4"/><path class="cls-3" d="M19.21,203a2.72,2.72,0,0,1-.64,2.35"/><path class="cls-3" d="M21.19,199.77a3.84,3.84,0,0,0-.06,2.2,1.55,1.55,0,0,0,1.73,1.08,1.67,1.67,0,0,0,.83-.63,2.18,2.18,0,0,0-.1-2.77,1.61,1.61,0,0,0-2.52.44"/><path class="cls-3" d="M25.6,197.84A6.92,6.92,0,0,1,27,204"/><path class="cls-3" d="M9,198.36a5.49,5.49,0,0,0,.42,6.8"/><path class="cls-3" d="M15.65,150.26a9.09,9.09,0,0,0-1.34,12.17"/><path class="cls-3" d="M20.25,155a27.06,27.06,0,0,0,3.92,5.75"/><path class="cls-3" d="M29.21,160.33a7.72,7.72,0,0,1-2.71,5.8"/><path class="cls-3" d="M31.8,155l3,4.14"/><path class="cls-3" d="M24,155.19l-4.52,5.71"/><path class="cls-3" d="M36.3,155.33A26,26,0,0,0,33.75,163"/><path class="cls-3" d="M38.68,150.1a11.76,11.76,0,0,1,1.18,8.48A3.67,3.67,0,0,1,39,160.4"/><line class="cls-3" x1="112.28" y1="287.92" x2="229.59" y2="287.92"/><path class="cls-3" d="M170.47,219.64c-.22,17.45.77,50.66.55,68.11"/><path class="cls-3" d="M171.92,286.64a491.42,491.42,0,0,0,32.29-38"/><path class="cls-3" d="M166.11,225.68a17.57,17.57,0,0,0,4.62-6.73L175,224.1"/><path class="cls-3" d="M197.21,249.65a20.54,20.54,0,0,1,8.21-2c-.22,1.57-.77,7.22-1,8.79"/><path class="cls-3" d="M170.26,286.64a491.42,491.42,0,0,1-32.29-38"/><path class="cls-3" d="M145,249.65a20.54,20.54,0,0,0-8.21-2c.22,1.57.77,7.22,1,8.79"/><path class="cls-3" d="M136.12,267c.15,1.65.31,3.3.47,4.95a6,6,0,0,1,.52-3.74c.31-.62,1-1.26,1.61-1a1.51,1.51,0,0,1,.63.79,10.64,10.64,0,0,1,.89,4v-.5"/><path class="cls-3" d="M160.59,275.86a15.24,15.24,0,0,1,11.41-3"/><path class="cls-3" d="M142.85,270.84a12,12,0,0,0,.09,3.05"/><path class="cls-3" d="M180,278.16a26.45,26.45,0,0,0-8.26-4.92"/><path class="cls-3" d="M185,246.62a20.43,20.43,0,0,1-2.86,5.45,4.16,4.16,0,0,1-2.11,1.74,1.69,1.69,0,0,1-2.15-1.17c-.11-.92.9-1.67,1.82-1.61a3.58,3.58,0,0,1,2.3,1.41,15.88,15.88,0,0,0,1.81,2.1"/><path class="cls-3" d="M161.72,247.49a24.46,24.46,0,0,1-1.6,5.83,2.46,2.46,0,0,1-1.09,1.42c-.92.42-2-.42-2.31-1.39a2,2,0,0,1,.84-2.45,2.46,2.46,0,0,1,2.38.48,13,13,0,0,1,3.13,3.73"/><path class="cls-3" d="M514.49,256.42l12.59,1.06a34.48,34.48,0,0,0-9.46,10.16l11.26.69"/><path class="cls-3" d="M536.92,260.46a37.77,37.77,0,0,0,8.89-.37"/><path class="cls-3" d="M552.69,257.22l7.36,9.83c.14.18.31.38.53.37s.36-.38.14-.44"/><path class="cls-3" d="M537.36,265a33.85,33.85,0,0,0,8,.38"/><path class="cls-3" d="M564.27,257.36a64.45,64.45,0,0,0-6,18"/><path class="cls-3" d="M572.21,260.92l7.61-.47"/><path class="cls-3" d="M585.85,254.3a5.52,5.52,0,0,1,4-.48,3,3,0,0,1,1.37.74,2.58,2.58,0,0,1-.21,3.42,4.74,4.74,0,0,1-3.46,1.24c1.22-1.24,3.64-.5,4.22,1.14a3.52,3.52,0,0,1-2.15,4.2,5,5,0,0,1-4.87-1"/><path class="cls-3" d="M575.6,257.1v8"/><path class="cls-3" d="M158.73,178.25l12.59,1.07a34.32,34.32,0,0,0-9.46,10.15l11.26.69"/><path class="cls-3" d="M181.17,182.3a38.25,38.25,0,0,0,8.88-.37"/><path class="cls-3" d="M196.93,179.06q3.69,4.91,7.36,9.82c.14.18.31.38.54.38s.35-.39.14-.45"/><path class="cls-3" d="M181.61,186.86a33.29,33.29,0,0,0,8,.38"/><path class="cls-3" d="M208.51,179.19a64.73,64.73,0,0,0-6,18"/><path class="cls-3" d="M216.45,182.76l7.62-.48"/><path class="cls-3" d="M230.09,176.13a5.46,5.46,0,0,1,4-.47,2.86,2.86,0,0,1,1.37.73,2.57,2.57,0,0,1-.21,3.42,4.74,4.74,0,0,1-3.46,1.24c1.22-1.24,3.64-.5,4.22,1.14a3.52,3.52,0,0,1-2.15,4.2,5,5,0,0,1-4.87-1"/><path class="cls-3" d="M219.84,178.93v8"/><path class="cls-3" d="M156,136.12q-6.71-.18-13.39,0a142.07,142.07,0,0,0-.28,19,91.49,91.49,0,0,1,17,.69"/><path class="cls-3" d="M164.89,147.47l12.06,0c.16,0,.38.06.37.22,0,.32-.47-.09-.42-.41"/><path class="cls-3" d="M142,146.19h9.73"/><path class="cls-3" d="M164.89,152.07a73.4,73.4,0,0,0,11.86-.24"/><path class="cls-3" d="M185.6,142.81a60.2,60.2,0,0,0,.9,8.79,13.15,13.15,0,0,1,1.12-7.13c.62-1.32,2-2.71,3.31-2.12a3.07,3.07,0,0,1,1.41,2.27,39.85,39.85,0,0,1,1,6.23c.58-1.68.33-3.55.82-5.25s2.38-3.3,3.94-2.45c1.14.62,1.38,2.12,1.5,3.41.13,1.56.27,3.11.41,4.67,0,.22.07.5.29.56s.32-.4.1-.35"/><path class="cls-3" d="M211.26,141.36a4.58,4.58,0,0,0-6.23,1.86,5.46,5.46,0,0,0,1.62,6.55,6.82,6.82,0,0,0,6.93.62c.39-.19.71-.86.28-.92"/><path class="cls-3" d="M213,132.44c.43-.64,1.56-.2,1.79.55a3.43,3.43,0,0,1-.43,2.25,2.7,2.7,0,0,0-.21,2.24c.68,1.3,2.63.82,3.94.16"/><path class="cls-3" d="M235.13,463.66q-6.69-.18-13.39,0a142,142,0,0,0-.28,19,90.63,90.63,0,0,1,17,.68"/><path class="cls-3" d="M244,475,256,475c.16,0,.39.05.38.22,0,.32-.48-.1-.43-.42"/><path class="cls-3" d="M221.13,473.74h9.73"/><path class="cls-3" d="M244,479.62a74.57,74.57,0,0,0,11.86-.25"/><path class="cls-3" d="M264.69,470.35a60.22,60.22,0,0,0,.91,8.79,13,13,0,0,1,1.11-7.12c.62-1.32,2-2.72,3.31-2.13a3.11,3.11,0,0,1,1.41,2.28,40.75,40.75,0,0,1,1,6.22c.57-1.68.32-3.54.82-5.25s2.37-3.29,3.93-2.45c1.14.62,1.39,2.12,1.5,3.42.14,1.55.27,3.11.41,4.66,0,.23.08.5.29.56s.33-.39.11-.34"/><path class="cls-3" d="M290.35,468.91a4.57,4.57,0,0,0-6.23,1.85,5.47,5.47,0,0,0,1.62,6.55,6.82,6.82,0,0,0,6.93.62c.39-.18.71-.85.29-.91"/><path class="cls-3" d="M292.1,460c.44-.65,1.57-.2,1.79.54a3.48,3.48,0,0,1-.42,2.25,2.68,2.68,0,0,0-.21,2.25c.67,1.3,2.62.81,3.93.15"/><path class="cls-3" d="M367.22,69.62c2.7-1.13,6.24-2.1,8.2.08a3.56,3.56,0,0,1-3.52,5.82c3.56-.89,7.26,3.27,5.94,6.7s-6.85,4-8.9,1"/><path class="cls-3" d="M347.56,76.1l13.26.68"/><path class="cls-3" d="M381.88,83.48a5.22,5.22,0,0,1-2.49,7.88"/><path class="cls-3" d="M388,76.12a42.59,42.59,0,0,0,4.86-7.89l.78,15.86"/><path class="cls-3" d="M404.19,67.51a23.54,23.54,0,0,0-6.47,9.36l10.89,0"/><path class="cls-3" d="M347.51,81.42a29.39,29.39,0,0,1,10.58.09"/><path class="cls-3" d="M404.58,68.6l.35,16.05"/><path class="cls-3" d="M326.38,70.57c.49-2,2.94-2.94,5-2.78s4.05,1,6.13,1.18,4.53-.81,5-2.84"/><path class="cls-3" d="M332.14,68.59a34.92,34.92,0,0,1-.47,10.65,2.88,2.88,0,0,1-.77,1.7c-.49.41-1.39.37-1.62-.22"/><path class="cls-3" d="M338.69,68.6A33.47,33.47,0,0,0,338,80.1a1.72,1.72,0,0,0,.45,1.15c.33.26,1,.1,1-.32"/><path class="cls-3" d="M690.21,174.14c2.7-1.13,6.25-2.09,8.2.09a3.55,3.55,0,0,1-3.51,5.82c3.56-.9,7.25,3.27,5.93,6.7s-6.84,4.05-8.89,1"/><path class="cls-3" d="M670.55,180.63l13.27.68"/><path class="cls-3" d="M704.87,188a5.22,5.22,0,0,1-2.48,7.88"/><path class="cls-3" d="M711,180.65a42.06,42.06,0,0,0,4.86-7.89q.39,7.94.79,15.86"/><path class="cls-3" d="M727.19,172a23.37,23.37,0,0,0-6.47,9.36l10.89,0"/><path class="cls-3" d="M670.51,186a29.39,29.39,0,0,1,10.58.09"/><path class="cls-3" d="M727.57,173.13l.35,16.05"/><path class="cls-3" d="M649.37,175.1c.5-2,3-2.94,5-2.79s4.05,1,6.13,1.18,4.52-.8,5-2.83"/><path class="cls-3" d="M655.14,173.12a34.92,34.92,0,0,1-.47,10.65,3,3,0,0,1-.78,1.7,1.06,1.06,0,0,1-1.62-.22"/><path class="cls-3" d="M661.69,173.13a33.22,33.22,0,0,0-.69,11.5,1.58,1.58,0,0,0,.45,1.14c.33.27,1,.11,1-.31"/><path class="cls-3" d="M628.44,112.81c17-31.52,30.38-59,44-86.56,19.09,28.36,32.43,51.4,54.25,82.92"/><path class="cls-3" d="M629.06,111.54A427.84,427.84,0,0,0,683,132.46c15.87-6.31,31.84-13.42,45.56-23.59"/><path class="cls-3" d="M672.14,26.12c3.59,38.19,8.44,70.93,12.08,107.3"/><path class="cls-5" d="M629.06,111q48.74-1.64,97.51-.12"/><path class="cls-5" d="M671.55,29.53c-.67,26.29.54,48.12.33,79.27"/><path class="cls-3" d="M621.06,124.47q1.85-4.43,3.28-9a41.67,41.67,0,0,1,2.47,9.31"/><path class="cls-3" d="M682.69,139.29a45.84,45.84,0,0,1,.5,7.67v-.83"/><path class="cls-3" d="M621.42,122.3a11.13,11.13,0,0,1,4.24-.68"/><path class="cls-3" d="M682.54,139.19a4.35,4.35,0,0,1,4.27-.41c.29.14.6.34.65.66a1,1,0,0,1-.38.84,4.6,4.6,0,0,1-2.62,1.34c1.17-.14,2.57-.21,3.3.72s.17,2.65-1,3.32a6.91,6.91,0,0,1-3.8.62"/><path class="cls-3" d="M736.15,104.73a3.63,3.63,0,1,0,.83,7.13"/><path class="cls-3" d="M674,14a2.94,2.94,0,0,0-3.52,1.6.9.9,0,0,0-.06.6,1,1,0,0,0,.42.43l2.73,1.83A2.65,2.65,0,0,1,674.94,20a1.8,1.8,0,0,1-1.59,1.85,5.29,5.29,0,0,1-2.63-.51"/><path class="cls-2" d="M106.82,52.77q1.11-12.48,2.21-25A63,63,0,0,0,115.09,45a83,83,0,0,1,5-16.4l1.17,22.28"/><path class="cls-2" d="M130.71,48.89c2.13.44,4.81.34,5.9-1.55,1.3-2.27-1.4-5.3-4-4.84s-4.19,3.31-4,5.92c.28,4.94,6.45,8.49,10.87,6.25"/><path class="cls-2" d="M147.62,45.24h12.67"/><path class="cls-2" d="M171.88,27.34c.32,10,.64,15.65,1,25.67,3.61.16,7.23.14,10.84,0"/><path class="cls-2" d="M147.62,50.89H160"/><path class="cls-2" d="M194.68,39.6c0-.05-.1,6.73,0,8s.63,9.59.66,6.42"/><path class="cls-2" d="M211,28.29A218.2,218.2,0,0,0,211.71,52"/><path class="cls-2" d="M190.25,46.69l9.47,1.54"/><path class="cls-2" d="M205.35,27.62l10,1.07"/><path class="cls-2" d="M207.21,53l11.94-.85"/><path class="cls-2" d="M239.46,13.35l-5.69,1.16a2.66,2.66,0,0,0-1.57.69,2.79,2.79,0,0,0-.48,1.76c-.56,16.36-.26,40.41.88,56.75a1,1,0,0,0,.2.64,1,1,0,0,0,.76.23l9,.26"/><path class="cls-2" d="M247.84,15.46a67.76,67.76,0,0,0,.26,10.37c.13-2.76.36-5.79,2.3-7.74a2.53,2.53,0,0,1,1.95-.88c1.28.15,1.84,1.68,2.07,2.95a51.54,51.54,0,0,1,.79,7.64"/><path class="cls-2" d="M242.5,31.34l21,.78-1.14.07"/><path class="cls-2" d="M247.91,38.26a2,2,0,0,1,2-1.74c1.51.07,2.4,1.91,2.1,3.38a8.21,8.21,0,0,1-2.45,3.73c-.65.7-1.34,1.73-.78,2.51a2,2,0,0,0,1.57.62,16.87,16.87,0,0,0,4.08-.24"/><path class="cls-2" d="M269.8,35.48a20.52,20.52,0,0,0,5.75.19"/><path class="cls-2" d="M282.63,42.31,283.1,44q-.53-12.27-.52-24.56a58.29,58.29,0,0,1,9.71-.45"/><path class="cls-2" d="M238.61,50.42a544.69,544.69,0,0,0,57.71,1.16l-1-.4"/><path class="cls-2" d="M282.16,31.75a38.77,38.77,0,0,1,8.81.44"/><path class="cls-2" d="M266.77,71a102.4,102.4,0,0,1,.49-15,2.66,2.66,0,0,1,.38-1.3,1.84,1.84,0,0,1,2.45-.2,5.24,5.24,0,0,1,1.59,2.16"/><path class="cls-2" d="M294.06,9.21a22.48,22.48,0,0,1,5.75,1,2.51,2.51,0,0,1,1.44.88,2.67,2.67,0,0,1,.3,1.51c0,17.27,0,40,0,57.28,0,1.41,0,3-1,4s-3,1.06-3.44-.29"/><path class="cls-2" d="M263.67,63l9.68.63"/><line class="cls-3" x1="509.18" y1="387.8" x2="601.29" y2="387.8"/><path class="cls-3" d="M580,304.34q-.67,41.36-1.33,82.71"/><path class="cls-3" d="M520.68,387.7c21-30.7,43.17-61.93,58.26-83.27"/><path class="cls-3" d="M567.63,386.86c.29-3.55.59-7.11.88-10.66l10.19,0"/><path class="cls-3" d="M516.47,380.43q-.4-6.93-.82-13.88a1.63,1.63,0,0,1,.14-1,1.33,1.33,0,0,1,1-.53c2-.31,3.84,1.82,3.61,3.84a5,5,0,0,1-4.05,4"/><path class="cls-3" d="M524,370.61l-.51,5.13"/><path class="cls-3" d="M584.56,296.07a9.46,9.46,0,0,0,4.05.29,2.85,2.85,0,0,0,.31-5.65,9.35,9.35,0,0,0-4-.15q.13,6.51.63,13"/><path class="cls-3" d="M591.63,298.66c1.3-.44,2.55,1.16,2.32,2.52a6.11,6.11,0,0,1-2.36,3.27,8.25,8.25,0,0,0,4.1.13"/><path class="cls-3" d="M516.81,400.82a9.89,9.89,0,0,0,4.19-.33c.88-.26,1.89-1.08,1.47-1.89a1.46,1.46,0,0,0-.58-.55,6.85,6.85,0,0,0-4-1,.86.86,0,0,0-.56.18.9.9,0,0,0-.18.61,50.42,50.42,0,0,0,.29,8.77.73.73,0,0,0,.22-.84"/><path class="cls-3" d="M525.16,396.81a6.66,6.66,0,0,1-.17,2.91"/><path class="cls-3" d="M523.47,403.75c0,1.12,0,2.24-.05,3.36,0,.18,0,.39.17.46s.33-.24.15-.26"/><path class="cls-3" d="M577.25,397.56a14.54,14.54,0,0,0,4.79.29,2.13,2.13,0,0,0,1.16-.37,1.5,1.5,0,0,0,.15-1.94,3.28,3.28,0,0,0-1.74-1.18A9,9,0,0,0,577,394a101.74,101.74,0,0,0,.18,12.83l0-.78"/><path class="cls-3" d="M586.48,393.91v3.76"/><path class="cls-3" d="M584.14,402.55c.74-.33,1.82-.57,2.22.15.66,1.14-1.61,2.2-1.32,3.48a13,13,0,0,0,3.46.14"/><line class="cls-3" x1="623.44" y1="377.46" x2="715.96" y2="377.46"/><line class="cls-3" x1="604.05" y1="428.39" x2="692.92" y2="428.39"/><path class="cls-3" d="M603.94,428.85l21-50.47"/><path class="cls-3" d="M693.66,428.85l21-50.47"/><path class="cls-5" d="M716.19,378.09q-.59,25.79-.7,51.58a.51.51,0,0,0,0,.13"/><path class="cls-5" d="M696.13,428.62c5.7-.29,10.58.28,17.1.41"/><path class="cls-3" d="M667.53,357.42,666.87,374a5.47,5.47,0,0,0,5.17-2.33,4.1,4.1,0,0,0-.93-5.34,3.29,3.29,0,0,0-4.87,1.56"/><path class="cls-3" d="M722.1,394.76l0-1.56a45.4,45.4,0,0,0,1.45,16.49,8.9,8.9,0,0,1,3-7.75,1.34,1.34,0,0,1,1.27-.44,1.42,1.42,0,0,1,.7.91,17.37,17.37,0,0,1,1,7.86"/><path class="cls-3" d="M347.44,32.69a10.3,10.3,0,0,0-9.31,7.17,3.71,3.71,0,0,0,.44,3.61,3.3,3.3,0,0,0,2.3.87A7,7,0,0,0,346.68,41a10.73,10.73,0,0,0,1.41-6.74,6.09,6.09,0,0,0,10.29,6.24"/><path class="cls-3" d="M363.8,20.26a188.66,188.66,0,0,1-.27,22.56,16.74,16.74,0,0,0,5.79.55,5.64,5.64,0,0,0,4.56-3.21c.87-2.26-.54-5-2.69-6.08a8.72,8.72,0,0,0-7.06,0"/><path class="cls-3" d="M339.35,22.16a17.86,17.86,0,0,0-1.53,27"/><path class="cls-3" d="M371,19.35c3.11,4.08,6,8.47,7.36,13.42a24.85,24.85,0,0,1-1,16"/><path class="cls-3" d="M380,22a32.18,32.18,0,0,1,.08,4.05,4.82,4.82,0,0,1,.78-2.7,1.66,1.66,0,0,1,2.46-.23c.68.87-.05,2.29.6,3.18a5,5,0,0,1,.87-2.84c.22-.32.61-.65,1-.48s.34.46.38.75a5.57,5.57,0,0,0,.61,2.66c.53.75,1.9.94,2.27.1"/><path class="cls-3" d="M405.87,31.07A6.75,6.75,0,0,0,398.26,33a9.8,9.8,0,0,0-2,7.9,6.33,6.33,0,0,0,7.2-1.57,8.44,8.44,0,0,0,1.8-7.39,7.58,7.58,0,0,0,5.55,9.18c1.71.34,3.86-.22,4.39-1.88"/><path class="cls-3" d="M430.89,18.34a126.17,126.17,0,0,0-2.08,22.11c2.48-.56,5.15-.14,7.56-1s4.42-3.83,2.88-5.87a4.79,4.79,0,0,0-3-1.53,17.66,17.66,0,0,0-9.36.75"/><path class="cls-3" d="M413.84,29.54l0,1.81a10,10,0,0,1,.76-2.45,1.65,1.65,0,0,1,.56-.76,1.25,1.25,0,0,1,1.65.63,3.58,3.58,0,0,1,.22,1.95,8.39,8.39,0,0,0,.94-2c.32-.67,1-1.29,1.71-1.07,1.11.34.77,2,1.18,3.06.13.36.86.44.69.1"/><path class="cls-3" d="M442.94,29.54l0,1.81a10,10,0,0,1,.76-2.45,1.65,1.65,0,0,1,.56-.76,1.25,1.25,0,0,1,1.65.63,3.58,3.58,0,0,1,.22,1.95,8.39,8.39,0,0,0,.94-2c.32-.67,1-1.29,1.71-1.07,1.11.34.77,2,1.18,3.06.13.36.85.44.69.1"/><path class="cls-2" d="M526.76,175c35.7-1,47.94.85,95.25.19"/><path class="cls-2" d="M526.76,227.09c35.7-1,47.94.85,95.25.19"/><path class="cls-2" d="M527.84,174.06c.62,17.26-.84,34.94-.22,52.2"/><path class="cls-2" d="M620.31,174.06c.62,17.26-.83,34.94-.22,52.2"/><path class="cls-2" d="M570.52,162.7a5.28,5.28,0,0,0-6.46,3.86,1.78,1.78,0,0,0,.34,1.65,1.81,1.81,0,0,0,1.67.23,6.66,6.66,0,0,0,5-5.69,4.11,4.11,0,0,0,6.06,4.75"/><path class="cls-2" d="M630.51,188.19l.87,19.53c2.39.28,5.23.09,6.58-1.9a3.69,3.69,0,1,0-6.22-4l-.4-1.16"/><path class="cls-2" d="M649.71,236.37q.35,55.31.7,110.63"/><path class="cls-2" d="M606.8,296c36.64.8,92.12,1,128.76.76"/><path class="cls-2" d="M645.28,247.51A116,116,0,0,0,650,235.88l3.6,9.73"/><path class="cls-2" d="M727.49,291.19a26.66,26.66,0,0,1,8.41,4.53,1.38,1.38,0,0,1,.63.9,1.43,1.43,0,0,1-.4.9L730.24,305l.09-1.48"/><path class="cls-7" d="M707.43,250.29c.64,31.31-.57,42-.13,83.54"/><path class="cls-7" d="M672.58,250.29c.64,31.31-.57,42-.13,83.54"/><path class="cls-7" d="M708,251.23c-11.54.54-23.37-.73-34.91-.19"/><path class="cls-7" d="M708,332.34c-11.54.54-23.37-.74-34.91-.19"/><path class="cls-2" d="M715.09,244.51a2,2,0,0,0-2.33.18,4.22,4.22,0,0,0-1.28,2.12,5.07,5.07,0,0,0,.21,4.13,2.65,2.65,0,0,0,3.66,1"/><path class="cls-2" d="M662.64,251.86q1.15-5,2.77-9.86l2.24,9.57c0,.16.1.34.25.4s.34-.18.2-.27"/><path class="cls-2" d="M669.65,344.67a22.09,22.09,0,0,0,.12-6.29,3.14,3.14,0,0,1,3.81,1.13,3.39,3.39,0,0,1-.36,4,3.71,3.71,0,0,1-4,.92"/><path class="cls-2" d="M705.72,346.16a36.25,36.25,0,0,1,.17-6.75"/><path class="cls-2" d="M663.24,250.2a24.73,24.73,0,0,0,4.79.11"/><path class="cls-2" d="M706,339a5.1,5.1,0,0,1,2.26-.14,1.73,1.73,0,0,1,1.42,1.57c0,1.12-1.36,1.65-2.46,1.89,1.43-.6,3.13,1.06,2.75,2.56a2.75,2.75,0,0,1-3.74,1.58"/><line class="cls-2" x1="675.85" y1="252.9" x2="703.69" y2="329.48"/><path class="cls-2" d="M700.83,328.57l4.27,2.18a23.93,23.93,0,0,0-.43-4.3"/><path class="cls-2" d="M667.44,322.26a71.53,71.53,0,0,1,6,9.07l4-6.75c.1-.16.25-.34.43-.29s0,.41-.1.24"/><path class="cls-2" d="M700,247.35a21.84,21.84,0,0,1,6.1,3.47q-1.5,2.63-3,5.25"/><path class="cls-2" d="M244.26,433.21c5.25-24.22,22-48.64,44.22-59.54a82,82,0,0,1,71.75.27c22.14,11.15,38.5,36.1,42.51,60.56"/><line class="cls-2" x1="244.52" y1="434.48" x2="401.4" y2="434.48"/><path class="cls-2" d="M281.88,419a44,44,0,0,1,23.23-29.75,43,43,0,0,1,37.68.14,42.16,42.16,0,0,1,22.33,30.29Z"/><line class="cls-2" x1="252.86" y1="429.09" x2="252.86" y2="433.43"/><line class="cls-2" x1="259.47" y1="429.09" x2="259.47" y2="433.43"/><line class="cls-2" x1="266.08" y1="429.09" x2="266.08" y2="433.43"/><line class="cls-2" x1="272.69" y1="429.09" x2="272.69" y2="433.43"/><line class="cls-2" x1="279.3" y1="429.09" x2="279.3" y2="433.43"/><line class="cls-2" x1="285.91" y1="429.09" x2="285.91" y2="433.43"/><line class="cls-2" x1="292.52" y1="429.09" x2="292.52" y2="433.43"/><line class="cls-2" x1="299.12" y1="429.09" x2="299.12" y2="433.43"/><line class="cls-2" x1="305.73" y1="429.09" x2="305.73" y2="433.43"/><line class="cls-2" x1="312.34" y1="429.09" x2="312.34" y2="433.43"/><line class="cls-2" x1="318.95" y1="429.09" x2="318.95" y2="433.43"/><line class="cls-2" x1="325.56" y1="429.09" x2="325.56" y2="433.43"/><line class="cls-2" x1="332.17" y1="429.09" x2="332.17" y2="433.43"/><line class="cls-2" x1="338.78" y1="429.09" x2="338.78" y2="433.43"/><line class="cls-2" x1="345.39" y1="429.09" x2="345.39" y2="433.43"/><line class="cls-2" x1="352" y1="429.09" x2="352" y2="433.43"/><line class="cls-2" x1="358.6" y1="429.09" x2="358.6" y2="433.43"/><line class="cls-2" x1="365.21" y1="429.09" x2="365.21" y2="433.43"/><line class="cls-2" x1="371.82" y1="429.09" x2="371.82" y2="433.43"/><line class="cls-2" x1="378.43" y1="429.09" x2="378.43" y2="433.43"/><line class="cls-2" x1="385.04" y1="429.09" x2="385.04" y2="433.43"/><line class="cls-2" x1="391.65" y1="429.09" x2="391.65" y2="433.43"/><path class="cls-2" d="M240.77,445.06a14.72,14.72,0,0,0,2.36-2.8,34.41,34.41,0,0,0,.2,5.37"/><path class="cls-2" d="M248.34,442.42c-.79-.27-1.9-.43-2.27.32s.56,1.62,1.38,2,1.79,1.14,1.46,2-1.35.75-2.08.45a1.46,1.46,0,0,1-.67-.47c-.42-.61.13-1.43.7-1.9s1.29-1,1.24-1.75"/><path class="cls-2" d="M251.81,443a3.11,3.11,0,0,0-.55,2.76,1.78,1.78,0,0,0,2.32,1.1,2.05,2.05,0,0,0,.82-2.29,2.47,2.47,0,0,0-1-1.55,1.53,1.53,0,0,0-1.76,0"/><path class="cls-2" d="M257.05,441.67a1.12,1.12,0,0,0,.25,2,1.23,1.23,0,0,0,1.23-1.72,1.36,1.36,0,0,0-2.22,0"/><path class="cls-2" d="M323,354.63a8.75,8.75,0,0,0-2.45-.17,1,1,0,0,0-.51.15.8.8,0,0,0-.22.79,1.65,1.65,0,1,0,3.18-.87,31,31,0,0,0,.22,5.36c0,.11.05.25.16.26s.06-.23,0-.14"/><path class="cls-2" d="M327,354.89a3.71,3.71,0,0,0,.43,5.53,1.34,1.34,0,0,0,1.25.25,1.32,1.32,0,0,0,.51-.46,3.6,3.6,0,0,0-1.75-5.26"/><path class="cls-2" d="M330.46,354.26a1.89,1.89,0,0,0,.48,1.17.86.86,0,0,0,1.16.06.89.89,0,0,0-.31-1.29,2.26,2.26,0,0,0-1.5-.14"/><path class="cls-2" d="M395.68,440.91a3.76,3.76,0,0,0-.42,2.9,2.4,2.4,0,0,0,2.22,1.71,2.29,2.29,0,0,0,2-2.33,3,3,0,0,0-1.92-2.62c-.59-.25-1.42-.25-1.72.31a.59.59,0,0,0,.5.48"/><path class="cls-2" d="M401.09,439.36a1.2,1.2,0,0,0,1.13,1.63,1.28,1.28,0,0,0,.92-1.82,1.38,1.38,0,0,0-2.07-.27"/><path class="cls-3" d="M16,105.43c-.54-30.29.83-58.22.33-90.82L155,107.84Z"/><path class="cls-3" d="M34,87.56c0-8.74.15-17.44.28-26.44q.09-6.12.16-12.38l59.3,39.85Z"/><line class="cls-3" x1="20.48" y1="102.13" x2="20.43" y2="105.76"/><line class="cls-3" x1="26.02" y1="102.21" x2="25.97" y2="105.84"/><line class="cls-3" x1="31.57" y1="102.29" x2="31.51" y2="105.93"/><line class="cls-3" x1="37.11" y1="102.37" x2="37.05" y2="106.01"/><line class="cls-3" x1="42.65" y1="102.45" x2="42.6" y2="106.09"/><line class="cls-3" x1="48.19" y1="102.54" x2="48.14" y2="106.17"/><line class="cls-3" x1="53.73" y1="102.62" x2="53.68" y2="106.25"/><line class="cls-3" x1="59.28" y1="102.7" x2="59.22" y2="106.34"/><line class="cls-3" x1="64.82" y1="102.78" x2="64.76" y2="106.42"/><line class="cls-3" x1="70.36" y1="102.86" x2="70.31" y2="106.5"/><line class="cls-3" x1="75.9" y1="102.95" x2="75.85" y2="106.58"/><line class="cls-3" x1="81.44" y1="103.03" x2="81.39" y2="106.66"/><line class="cls-3" x1="86.99" y1="103.11" x2="86.93" y2="106.75"/><line class="cls-3" x1="92.53" y1="103.19" x2="92.48" y2="106.83"/><line class="cls-3" x1="98.07" y1="103.27" x2="98.02" y2="106.91"/><line class="cls-3" x1="103.61" y1="103.36" x2="103.56" y2="106.99"/><line class="cls-3" x1="109.16" y1="103.44" x2="109.1" y2="107.07"/><line class="cls-3" x1="114.7" y1="103.52" x2="114.64" y2="107.16"/><line class="cls-3" x1="120.24" y1="103.6" x2="120.19" y2="107.24"/><line class="cls-3" x1="125.78" y1="103.68" x2="125.73" y2="107.32"/><line class="cls-3" x1="131.32" y1="103.77" x2="131.27" y2="107.4"/><line class="cls-3" x1="136.87" y1="103.85" x2="136.81" y2="107.48"/><polygon class="cls-3" points="260.31 202.81 332.04 141.58 466.46 201.06 260.31 202.81"/><polygon class="cls-3" points="335.32 162.68 385.15 183.6 310.11 184.21 335.32 162.68"/><line class="cls-3" x1="274.88" y1="197.96" x2="274.88" y2="201.6"/><line class="cls-3" x1="280.42" y1="197.96" x2="280.42" y2="201.6"/><line class="cls-3" x1="285.96" y1="197.96" x2="285.96" y2="201.6"/><line class="cls-3" x1="291.51" y1="197.96" x2="291.51" y2="201.6"/><line class="cls-3" x1="297.05" y1="197.96" x2="297.05" y2="201.6"/><line class="cls-3" x1="302.59" y1="197.96" x2="302.59" y2="201.6"/><line class="cls-3" x1="308.13" y1="197.96" x2="308.13" y2="201.6"/><line class="cls-3" x1="313.68" y1="197.96" x2="313.68" y2="201.6"/><line class="cls-3" x1="319.22" y1="197.96" x2="319.22" y2="201.6"/><line class="cls-3" x1="324.76" y1="197.96" x2="324.76" y2="201.6"/><line class="cls-3" x1="330.3" y1="197.96" x2="330.3" y2="201.6"/><line class="cls-3" x1="335.85" y1="197.96" x2="335.85" y2="201.6"/><line class="cls-3" x1="341.39" y1="197.96" x2="341.39" y2="201.6"/><line class="cls-3" x1="346.93" y1="197.96" x2="346.93" y2="201.6"/><line class="cls-3" x1="352.48" y1="197.96" x2="352.48" y2="201.6"/><line class="cls-3" x1="358.02" y1="197.96" x2="358.02" y2="201.6"/><line class="cls-3" x1="363.56" y1="197.96" x2="363.56" y2="201.6"/><line class="cls-3" x1="369.1" y1="197.96" x2="369.1" y2="201.6"/><line class="cls-3" x1="374.65" y1="197.96" x2="374.65" y2="201.6"/><line class="cls-3" x1="380.19" y1="197.96" x2="380.19" y2="201.6"/><line class="cls-3" x1="385.73" y1="197.96" x2="385.73" y2="201.6"/><line class="cls-3" x1="391.27" y1="197.96" x2="391.27" y2="201.6"/><line class="cls-3" x1="398.03" y1="197.96" x2="398.03" y2="201.6"/><line class="cls-3" x1="403.57" y1="197.96" x2="403.57" y2="201.6"/><line class="cls-3" x1="409.11" y1="197.96" x2="409.11" y2="201.6"/><line class="cls-3" x1="414.66" y1="197.96" x2="414.66" y2="201.6"/><line class="cls-3" x1="420.2" y1="197.96" x2="420.2" y2="201.6"/><line class="cls-3" x1="425.74" y1="197.96" x2="425.74" y2="201.6"/><line class="cls-3" x1="431.29" y1="197.96" x2="431.29" y2="201.6"/><path class="cls-3" d="M245,145.46l10.71-.79q1.13,6.22,2.26,12.45,2.22-9.66,3.67-19.46,11.75-1.49,23.57-2.34"/><path class="cls-3" d="M265.82,141.9l14.25,11.52"/><path class="cls-3" d="M277.06,140.27c-2.72,4.16-7.16,11-8.67,15.75"/><path class="cls-3" d="M247.72,138.69c.39,1.12.44,3.31.83,4.43-.11-1.32.32-4.06,1.54-4.57a2.19,2.19,0,0,1,2.56,1.1,6.25,6.25,0,0,1,.63,2.94"/><path class="cls-3" d="M184.86,96.52a5.49,5.49,0,0,1,8.62,6c-1.2,3.72-5.65,5-9.19,6.66-.85.4-1.81,1.21-1.45,2.07.26.6,1,.77,1.64.85a33.73,33.73,0,0,0,8.34,0"/><path class="cls-3" d="M212.28,97.85a5.49,5.49,0,0,1,8.62,6c-1.2,3.72-5.65,5-9.19,6.66-.85.39-1.81,1.21-1.45,2.07.26.59,1,.76,1.64.84a34.22,34.22,0,0,0,8.34,0"/><path class="cls-3" d="M202.18,101c.17,2.45-.82,6.32-.64,8.77"/><path class="cls-3" d="M206.25,105.44c-2.42-.37-6.36.31-8.78-.06"/><path class="cls-3" d="M237.44,108.36c-2.42-.37-6.36.31-8.78-.06"/><path class="cls-3" d="M237.2,111.6c-2.43-.37-6.37.31-8.79-.06"/><path class="cls-3" d="M240.52,97.74c.34,2.68-.11,4.94.45,7.58a51.92,51.92,0,0,0,8.27.21"/><path class="cls-3" d="M247.62,97.68c.21,3.89.6,12.24.81,16.13"/><path class="cls-3" d="M517.86,423.52a5.49,5.49,0,0,1,8.62,6c-1.2,3.72-5.65,5-9.19,6.66-.85.4-1.81,1.21-1.45,2.07.26.6,1,.77,1.64.85a33.73,33.73,0,0,0,8.34,0"/><path class="cls-3" d="M545.28,424.84a5.5,5.5,0,0,1,8.62,6c-1.2,3.72-5.65,5-9.19,6.65-.85.4-1.81,1.22-1.45,2.07.26.6,1,.77,1.64.85a34.22,34.22,0,0,0,8.34,0"/><path class="cls-3" d="M535.18,428c.17,2.45-.82,6.32-.64,8.77"/><path class="cls-3" d="M539.25,432.44c-2.42-.37-6.36.31-8.78-.06"/><path class="cls-3" d="M570.44,435.36c-2.42-.37-6.36.31-8.78-.06"/><path class="cls-3" d="M570.2,438.6c-2.43-.37-6.37.31-8.79-.06"/><path class="cls-3" d="M573.52,424.74c.34,2.68-.11,4.94.45,7.58a51.92,51.92,0,0,0,8.27.21"/><path class="cls-3" d="M580.62,424.68c.21,3.89.6,12.24.81,16.13"/><path class="cls-3" d="M147.54,317.75c-.64,2.34-1.3,4.78-.88,7.18s2.23,4.73,4.66,4.91c2.12.17,4.08-1.37,5.08-3.26a16.73,16.73,0,0,0,1.43-6.19,64.31,64.31,0,0,0,.74,12.16,15,15,0,0,1,.24,5.66,6.66,6.66,0,0,1-11.14,3.23"/><path class="cls-3" d="M165.78,322.47l13.26-.26"/><path class="cls-3" d="M186.47,321.54c4.42-.09,26.87-.17,31.29-.26"/><path class="cls-3" d="M165.78,327.38l13.26-.27"/><path class="cls-3" d="M196.73,311.36a40.89,40.89,0,0,0,5-7.11l.15,12.78"/><path class="cls-3" d="M186.23,333.59a41.82,41.82,0,0,0,5-7.11l.15,12.78"/><path class="cls-3" d="M200.07,328.26c.34,3.46.07,5.8.37,7.91"/><path class="cls-3" d="M196.3,332.4c3.46-.34,5.8-.07,7.91-.37"/><path class="cls-3" d="M205.81,327.73a5.28,5.28,0,0,1,5.11,6,4.22,4.22,0,0,1-1.36,2.57,5.45,5.45,0,0,1-2.8,1l-1.13.18"/><path class="cls-3" d="M216,327.73a5.51,5.51,0,0,0-3.69,1.62,5.42,5.42,0,0,0-1.42,4.39,4.17,4.17,0,0,0,1.36,2.57,5.45,5.45,0,0,0,2.8,1l1.13.18"/><path class="cls-3" d="M601.78,29.47c4.42-.09,4.84-.17,9.26-.26"/><path class="cls-3" d="M617.47,28.54c4.42-.09,26.87-.17,31.29-.26"/><path class="cls-3" d="M601.78,34.38c4.42-.09,4.84-.18,9.26-.27"/><path class="cls-3" d="M627.73,18.36a40.89,40.89,0,0,0,5-7.11L632.89,24"/><path class="cls-3" d="M617.23,40.59a41.82,41.82,0,0,0,5-7.11l.15,12.78"/><path class="cls-3" d="M631.07,35.26c.34,3.46.07,5.8.37,7.91"/><path class="cls-3" d="M627.3,39.4c3.46-.34,5.8-.07,7.91-.37"/><path class="cls-3" d="M585.81,25.73a5.28,5.28,0,0,1,5.11,6,4.22,4.22,0,0,1-1.36,2.57,5.45,5.45,0,0,1-2.8,1l-1.13.18"/><path class="cls-3" d="M596,25.73a5.51,5.51,0,0,0-3.69,1.62,5.42,5.42,0,0,0-1.42,4.39,4.17,4.17,0,0,0,1.36,2.57,5.45,5.45,0,0,0,2.8,1l1.13.18"/><path class="cls-3" d="M640.43,35a10.58,10.58,0,0,0-.56,4.58,3.21,3.21,0,0,0,6.22,1.06,10.66,10.66,0,0,0,.91-4,41.24,41.24,0,0,0,.47,7.77,9.37,9.37,0,0,1,.15,3.61,4.25,4.25,0,0,1-7.11,2.06"/><path class="cls-3" d="M481.89,175.11c1,2.46,2.53,5.28,5.18,5.56a5.09,5.09,0,0,0,4.7-2.93A14.12,14.12,0,0,0,493,172a178.12,178.12,0,0,0,.25-19.47l.06,1.79"/><path class="cls-3" d="M502,153.67q.69,9.44,1.39,18.87c.15,2.15.37,4.44,1.72,6.12s4.29,2.21,5.58.49"/><path class="cls-3" d="M484,157.81c-1.39-1.38-.52-4,1.17-5s3.79-.87,5.74-.71l9.17.72c4.08.33,8.73.45,11.61-2.46a1.71,1.71,0,0,0,.64-1.49c-.13-.56-1.05-.8-1.25-.27"/><path class="cls-3" d="M495.09,325.5c1,2.47,2.53,5.29,5.18,5.57a5.08,5.08,0,0,0,4.7-2.93,14.13,14.13,0,0,0,1.23-5.7,178.12,178.12,0,0,0,.25-19.47l.06,1.79"/><path class="cls-3" d="M515.22,304.07q.71,9.44,1.39,18.87c.16,2.15.37,4.44,1.73,6.12s4.28,2.21,5.57.49"/><path class="cls-3" d="M497.22,308.21c-1.4-1.38-.53-4,1.16-5s3.79-.87,5.75-.71l9.16.72c4.08.33,8.73.45,11.61-2.46a1.71,1.71,0,0,0,.64-1.49c-.12-.56-1-.8-1.24-.27"/><path class="cls-8" d="M501.28,399.68a3.2,3.2,0,0,1-1.22,2.55,8.82,8.82,0,0,1-2.8,1.57c-.75.28-1.71.5-2.27.05a1.61,1.61,0,0,1-.44-.7,25.81,25.81,0,0,1-1.44-4.88.63.63,0,0,1,.08-.55,1,1,0,0,1,.39-.21,11,11,0,0,1,2.91-.78C499.14,396.52,501.07,397.46,501.28,399.68Z"/><path class="cls-8" d="M482.58,396.43l8.34,29.92,8.85-2.49-8.34-29.92A12,12,0,0,0,482.58,396.43Z"/><path class="cls-8" d="M499.77,423.86,499.54,440l-8.62-13.68A11.12,11.12,0,0,1,499.77,423.86Z"/><path class="cls-8" d="M499.54,440l.12-8.66a7.2,7.2,0,0,0-4.73,1.33Z"/><path class="cls-8" d="M491.91,407.19l-2.59.71a4.76,4.76,0,0,1-5.76-3.42l-8.85-33.65a4.74,4.74,0,0,1,3.21-5.87l2.6-.71a4.75,4.75,0,0,1,5.76,3.42l8.85,33.64A4.75,4.75,0,0,1,491.91,407.19Z"/><path class="cls-8" d="M462.19,442.45l.15,3.23a2,2,0,0,0,.13.6l1.07,2.82-.12-3a1.94,1.94,0,0,0-.12-.58Z"/><path class="cls-8" d="M457.22,436.24l4.22,8.84a1.36,1.36,0,0,0,2.58-.47l.79-9.78Z"/><path class="cls-8" d="M461.39,437.79h0c-2.52.48-4.43,1.66-4.91-.86l-7.16-37.74a4.68,4.68,0,0,1,3.7-5.46h0a4.67,4.67,0,0,1,5.45,3.7l7.16,37.74C466.12,437.69,463.91,437.3,461.39,437.79Z"/><path class="cls-8" d="M466.36,437l-9.78,1.88a1.2,1.2,0,0,1-1.41-.95h0a1.2,1.2,0,0,1,.95-1.41l9.79-1.89a1.22,1.22,0,0,1,1.41,1h0A1.21,1.21,0,0,1,466.36,437Z"/><path class="cls-8" d="M443.48,350.6s-1.65,3.12.19,19.61c2.9,15.81,4.91,28.36,5.89,33.36a1.94,1.94,0,0,0,2.28,1.53l6.29-1.3a1.92,1.92,0,0,0,1.51-2.17l-5.76-38.69a2.76,2.76,0,0,1,2-3.06h0a7.51,7.51,0,0,0,4.32-3.14l4.2-6.42Z"/><path class="cls-8" d="M488.79,372.52c-1.58,1.38-2.19,3.56-2.45,5.64a24,24,0,0,0,6.6,19.42,4.19,4.19,0,0,0,1.54,1.11,4.71,4.71,0,0,0,2.94-.33,4.3,4.3,0,0,1,2.94-.25c.93.37.95,2.4.42,3.32,1.34-.68,1.87-3.5,1.26-4.88a9.87,9.87,0,0,0-3-3.31,59,59,0,0,1-5-4.67,3.12,3.12,0,0,1-.74-1.06,3.34,3.34,0,0,1,0-1.63,53.26,53.26,0,0,0,1-11.41C494.37,371.33,491.15,370.46,488.79,372.52Z"/><path class="cls-8" d="M444.5,327.5s-2.63,4.38-5.05,1.05c0,0-1.45-5.94-4.33-5.49s-4.74,4-3.95,8.08,1.61,23.5,20.9,23.56a14.08,14.08,0,0,0,4.08-.59l6.75-2s3.33-3.15,6.89,3.24-1.56-17.86-1.56-17.86Z"/><path class="cls-8" d="M453.65,324.29h0a3.21,3.21,0,0,1-3.92-2.24l-4.16-15.23a3.2,3.2,0,0,1,2.24-3.92h0a3.19,3.19,0,0,1,3.92,2.24l4.16,15.23A3.2,3.2,0,0,1,453.65,324.29Z"/><path class="cls-8" d="M482.41,375.93a6.19,6.19,0,0,1-7.33-4c-1.06-3-3.68-10.72-5.29-16.6a13.1,13.1,0,0,0-4.67-6.57,18.34,18.34,0,0,0-7.26-3.5c-4.23-1-11.67-3.93-14-11.65-1.71-5.65.21-10.83,5.26-14.22a11.27,11.27,0,0,1,3.25-1.5,10.26,10.26,0,0,1,9.35,2.11c7.19,6.93,13.59,17.35,19,31a145.46,145.46,0,0,1,6,18.38l0,.1a5.6,5.6,0,0,1-4.24,6.42Z"/><circle class="cls-8" cx="455.01" cy="328.93" r="3.84" transform="translate(-106.43 325.17) rotate(-35.48)"/><path class="cls-9" d="M336.64,118.29a8.48,8.48,0,0,1,6.84-15.51c31.59,13.73,65.9,25.62,99.9,40.7a36.57,36.57,0,0,1,2.41,4.21,1,1,0,0,1-.74,1.43c-2.35.34-3.88.4-6.37.75a1,1,0,0,0-.59,1.64c1.59,1.76,2.93,3.32,3.89,4.6a1,1,0,0,1-.55,1.55,55.27,55.27,0,0,1-6.3,1.24C401.93,145.36,367.83,132.09,336.64,118.29Z"/><path class="cls-9" d="M351.23,124.63l-9.51-4.11,6.5-15.71q4.72,2,9.55,4Z"/><line class="cls-9" x1="355.92" y1="108.12" x2="349.52" y2="123.62"/><line class="cls-9" x1="353.87" y1="107.27" x2="347.47" y2="122.77"/><line class="cls-9" x1="351.59" y1="106.33" x2="345.19" y2="121.83"/><path class="cls-9" d="M341.72,120.52l-5.08-2.23a8.48,8.48,0,0,1,6.84-15.51c1.58.68,3.15,1.36,4.74,2Z"/><path class="cls-9" d="M438.35,150.51c-33.25-13.67-47.52-20-83.67-33.57"/><path class="cls-9" d="M435.13,158.9a55.27,55.27,0,0,0,6.3-1.24,1,1,0,0,0,.55-1.55c-1-1.28-2.3-2.84-3.89-4.6a1,1,0,0,1,.59-1.64c2.49-.35,4-.41,6.37-.75a1,1,0,0,0,.74-1.43,36.57,36.57,0,0,0-2.41-4.21c3.86,2.63,18.84,14,23.68,18.17a.94.94,0,0,1-.67,1.65C459.49,162.87,438.64,160.33,435.13,158.9Z"/><path class="cls-9" d="M455.8,162.21a29,29,0,0,0,3-7.3c2,1.73,6.83,5.73,8.16,6.86a1,1,0,0,1-.71,1.73C464.56,163.39,458.44,162.4,455.8,162.21Z"/><path class="cls-3" d="M238.5,333.39c.58-.31-.23-1.1-.89-1.2a12.58,12.58,0,0,0-5.36,0,4.63,4.63,0,0,0-3.49,3.7,4.54,4.54,0,0,0,2.24,4,11.12,11.12,0,0,0,4.57,1.39c.73.09,1.77-.08,1.76-.82"/><path class="cls-3" d="M242.44,334.07c-.23-.2-.11-.57.08-.81,1-1.27,3.13-1.07,4.29.06a6.37,6.37,0,0,1,1.55,4.46,4.59,4.59,0,0,1-1.16,3.64c-1.56,1.37-4.25.33-5.17-1.53s-.54-4.1.12-6.06"/><path class="cls-3" d="M254.53,331.89a2.52,2.52,0,0,0-3.05,4,7.78,7.78,0,0,0,2.75,1.27c1,.37,1.93,1.12,1.91,2.14s-1.77,1.56-2,.57"/><path class="cls-3" d="M264.1,325.83a12.39,12.39,0,0,0-.06,16.91v-1.12"/><path class="cls-3" d="M266.11,334.5a15.4,15.4,0,0,1,5.5-.1"/><path class="cls-3" d="M275.06,331.06l10,8.37c.26.21.62.43.89.24s-.24-.69-.3-.36"/><path class="cls-3" d="M290.63,324.27a18.51,18.51,0,0,1-1.11,21.55"/><path class="cls-3" d="M284.14,331.05a111.91,111.91,0,0,0-7.41,10.17c-.13.2-.26.47-.11.66s.5-.18.27-.24"/><path class="cls-3" d="M299.56,334.63l10.12-.05"/><path class="cls-3" d="M325.38,333.38a5.47,5.47,0,1,0-.17,9.49"/><path class="cls-3" d="M329.79,335.17a6.87,6.87,0,0,0,1.2,7c1.74,1.78,5.06,1.94,6.59,0a4.38,4.38,0,0,0,.36-4.51,6.22,6.22,0,0,0-3.53-3,3.91,3.91,0,0,0-3.16,0,2,2,0,0,0-.89,2.74"/><path class="cls-3" d="M300.22,338.86l11-1.22"/><path class="cls-3" d="M347.25,333.43a4.93,4.93,0,0,0-5.46.44,2.71,2.71,0,0,0-1,3.16c.52,1,1.8,1.26,2.8,1.78a3.41,3.41,0,0,1,2,3.52c-.32,1.43-2.44,2.21-3.34,1.06"/><path class="cls-3" d="M356.51,325.39a13.05,13.05,0,0,0,1.9,19.56"/><path class="cls-3" d="M363.46,331.78l9.8,10.81"/><path class="cls-3" d="M375.81,325.36a17,17,0,0,1,2.63,19.75"/><path class="cls-3" d="M372.27,332l-8.22,11.25a1.34,1.34,0,0,0,1.28-.66"/><path class="cls-3" d="M217.7,363.89a13.84,13.84,0,0,0-6.92,7.42,6.84,6.84,0,0,0-.36,4.64,4.45,4.45,0,0,0,8.61-.9,3.6,3.6,0,0,0-.43-2.3,4.73,4.73,0,0,0-4-1.88c-2.54-.09-5.53,1.29-5.74,3.82a1,1,0,0,0,.36-1"/><path class="cls-3" d="M224.1,372.82a37.74,37.74,0,0,0,7.44-.14"/><path class="cls-3" d="M236.64,364.79a3.27,3.27,0,1,1,1.28,5.26,11.22,11.22,0,0,1,3.88.21,3.83,3.83,0,0,1,2.74,2.53c.45,1.8-1,3.63-2.81,4.21a10.37,10.37,0,0,1-5.49-.19c-.19-.05-.41-.13-.45-.31s.34-.3.32-.1"/><path class="cls-3" d="M226.46,369a1,1,0,0,1,1.19.32.8.8,0,0,1-1.18.68,1.19,1.19,0,0,1,.58-1.47c.56-.18,1.13.73.61,1"/><path class="cls-3" d="M226.85,377.18a.86.86,0,0,1,.65-.73.55.55,0,1,1-1,0,1.35,1.35,0,0,1,1.11.07,1.23,1.23,0,0,1-.1,1,.5.5,0,0,1-.58-.7"/><path class="cls-3" d="M248.72,372.08h10.16"/><path class="cls-3" d="M264.69,367.41l-.36-1.14a9.86,9.86,0,0,1,4.55-1.39,3.77,3.77,0,0,1,3.68,2.54c.42,1.69-.78,3.35-2.12,4.45s-2.94,2-3.81,3.5a2,2,0,0,0-.33,1.31c.16.89,1.2,1.31,2.1,1.38,2.44.2,4.76-.95,6.94-2.07l.21-.11"/><path class="cls-3" d="M248.72,375.21h12.11"/><path class="cls-3" d="M220.54,404.22l.18-2.12q-4.31,18.39-8.6,36.8,13.81-6.42,27-14.08"/><path class="cls-3" d="M214.18,417.53a18,18,0,0,1,10.1,17.63"/><path class="cls-3" d="M225.88,418.17a.87.87,0,0,1,.14-.63l-.57,3.72,3.81-1.89c.07,0,.16-.1.14-.18s-.18,0-.11,0"/><path class="cls-3" d="M232,413.67l-1.72,1.1a.59.59,0,0,0-.18.17.43.43,0,0,0,0,.31,10.76,10.76,0,0,0,1.17,2.13,3.62,3.62,0,0,1,1.31-.87A1.19,1.19,0,0,1,234,417a1.25,1.25,0,0,1-.39,1.43,2.09,2.09,0,0,1-1.42.53"/><path class="cls-3" d="M233.74,411.65a2.2,2.2,0,0,0,1,.41.78.78,0,0,0,.82-.51c.12-.49-.51-.89-1-.72a1.33,1.33,0,0,0-.76,1.19"/><path class="cls-3" d="M226.93,417.27a35.14,35.14,0,0,1,3.53,5l-.3-.72"/><path class="cls-3" d="M373.41,367.36l-1.16-.64a3.78,3.78,0,1,1,2.63,5.94,8.11,8.11,0,0,1,3.09-.27,2.71,2.71,0,0,1,2.26,1.87c.32,1.37-.89,2.67-2.2,3.18s-2.76.55-4.08,1"/><path class="cls-3" d="M412.89,367.48a8.16,8.16,0,0,1,4.24-1.64c1.53,0,3.16,1.3,2.92,2.82a3.93,3.93,0,0,1-1.05,1.87l-4.71,5.72a16.94,16.94,0,0,0,9.23.34c.27-.07.59-.23.56-.5s-.57,0-.32.1"/><path class="cls-3" d="M384.94,368.57a35.34,35.34,0,0,1,10.64,10.86,1.17,1.17,0,0,1-1.57-1.05"/><path class="cls-3" d="M392.57,368.07c.23,0,.14-.5,0-.29a113,113,0,0,1-6.1,11.18"/><path class="cls-3" d="M399,376.45l11.15-.2"/><path class="cls-3" d="M399,372.45l11.15-.2"/><path class="cls-3" d="M420.23,391.06q-7,13.44-13.91,26.9l.3-.5"/><path class="cls-3" d="M402.08,411.36q12.57,6.75,25.69,12.4l-.65-.31"/><path class="cls-3" d="M412.91,406.86a16.78,16.78,0,0,1,4.69,2.49c-1,2.51-1.89,5-2.83,7.54"/><path class="cls-3" d="M428.58,408.58a6.62,6.62,0,0,0-1.54,2.77,2.24,2.24,0,0,0,1.37,2.58,2.05,2.05,0,0,0,2.22-1.22,3.75,3.75,0,0,0,0-2.68,2.83,2.83,0,0,0-1.32-1.79c-.7-.33-3.57-2.62-3.74-1.88a3.45,3.45,0,0,0-1.2-1.08,1.71,1.71,0,0,0-2.25,1.06,1.68,1.68,0,0,0,1.42,2,1.62,1.62,0,0,0,1.65-1.81l-2.4,6.58.27-.62"/><path class="cls-3" d="M434.27,408.33a2.21,2.21,0,0,0,.63,2.43c.74.51,2-.06,1.9-.94a1.24,1.24,0,0,0-.4-.71,2.08,2.08,0,0,0-2.5-.27l.48-.47"/><path class="cls-3" d="M728.23,45.06q-7,13.44-13.91,26.9l.3-.5"/><path class="cls-3" d="M710.08,65.36q12.57,6.75,25.69,12.4l-.65-.31"/><path class="cls-3" d="M720.91,60.86a16.78,16.78,0,0,1,4.69,2.49c-1,2.51-1.89,5-2.83,7.54"/><path class="cls-3" d="M736.58,62.58A6.62,6.62,0,0,0,735,65.35a2.24,2.24,0,0,0,1.37,2.58,2.05,2.05,0,0,0,2.22-1.22,3.75,3.75,0,0,0,0-2.68,2.83,2.83,0,0,0-1.32-1.79c-.7-.33-3.57-2.62-3.74-1.88a3.45,3.45,0,0,0-1.2-1.08,1.71,1.71,0,0,0-2.25,1.06,1.68,1.68,0,0,0,1.42,2,1.62,1.62,0,0,0,1.65-1.81l-2.4,6.58.27-.62"/><path class="cls-3" d="M742.27,62.33a2.21,2.21,0,0,0,.63,2.43c.74.51,2-.06,1.9-.94a1.24,1.24,0,0,0-.4-.71,2.08,2.08,0,0,0-2.5-.27l.48-.47"/><path class="cls-3" d="M665.54,206l0,17.55a7.86,7.86,0,0,1,.37-3.71,2.7,2.7,0,0,1,3-1.7,3.15,3.15,0,0,1,1.8,1.86,4.79,4.79,0,0,1-.26,4.86c-1.05,1.35-3.46,1.54-4.38.1"/><path class="cls-3" d="M672.48,212.18c.9-.82,2.48.17,2.65,1.38a5.17,5.17,0,0,1-1.22,3.37l3.65.57"/><path class="cls-3" d="M682.13,219.4a29.38,29.38,0,0,1,8.46-.72"/><path class="cls-3" d="M699.71,207c-.21.08-.07-.38.12-.27s.14.4.07.61c-1.19,3.5-2.62,7-2.94,10.66s.7,7.72,3.6,10l-.09-1.24"/><path class="cls-3" d="M706.92,214.56a3.2,3.2,0,0,0-3.32,5.22,2.15,2.15,0,0,0,1,.66,2.26,2.26,0,0,0,2.47-1.61,6.54,6.54,0,0,0,0-3.2,5.9,5.9,0,0,0,.65,3.74c.71,1.08,2.37,1.6,3.32.73"/><path class="cls-3" d="M716.46,213a64.08,64.08,0,0,1,.59,9.49v-1"/><path class="cls-3" d="M722.39,205.62c.27,3.64.55,7.27.82,10.9a8.34,8.34,0,0,1,.42-2.4c.8-1.65,3.58-1.63,4.51,0a3.14,3.14,0,0,1-2,4.35c-1.11.29-2.59-.34-2.58-1.49"/><path class="cls-3" d="M730.78,204.87c-.17-.1,0-.39.18-.38s.33.18.44.34a17.77,17.77,0,0,1-1,20.78c0-.31.06-.62.08-.94"/><path class="cls-3" d="M714.19,217.54a9.44,9.44,0,0,1,5.71-.76"/><path class="cls-3" d="M682.1,222.44a33.11,33.11,0,0,1,9.2-.91"/><path class="cls-2" d="M616.55,320.45a77,77,0,0,1-4.27,13.85,16.38,16.38,0,0,1-3.66,5.94,6.48,6.48,0,0,1-6.46,1.65,7.41,7.41,0,0,1-3.84-4.19c-.78-1.78-1.16-3.94-.14-5.59,1.47-2.36,4.89-2.39,7.58-1.72A26.61,26.61,0,0,1,620,339.6c.19.25,0,.6-.15.87s-.31.64-.08.86.56-.39.25-.35"/><path class="cls-2" d="M653.55,464.45a77,77,0,0,1-4.27,13.85,16.38,16.38,0,0,1-3.66,5.94,6.48,6.48,0,0,1-6.46,1.65,7.41,7.41,0,0,1-3.84-4.19c-.78-1.78-1.16-3.94-.14-5.59,1.47-2.36,4.89-2.39,7.58-1.72A26.61,26.61,0,0,1,657,483.6c.19.25,0,.6-.15.87s-.31.64-.08.86.56-.39.25-.35"/><path class="cls-2" d="M627,247.74A61.73,61.73,0,0,0,611.75,249a76.62,76.62,0,0,0,14.08,8.61,27.63,27.63,0,0,0-14,4.46,67.21,67.21,0,0,0,17.72,1.56c.34,0,.79,0,.85.38s-.69.15-.39,0"/><path class="cls-2" d="M629.43,137.85c-.79-1.35-2.85-.75-4.21,0-2.51,1.41-5.42,3.65-4.76,6.46a5.54,5.54,0,0,0,1.34,2.3c2.86,3.28,7.3,5.75,8,10.06a3.09,3.09,0,0,1-.54,2.53,3.34,3.34,0,0,1-1.76.9,10.89,10.89,0,0,1-9.94-2.71c-1.13-1.08-2-2.62-1.71-4.14.45-2,2.68-2.89,4.61-3.49"/><path class="cls-2" d="M168.43,66.85c-.79-1.35-2.85-.75-4.21,0-2.51,1.41-5.42,3.65-4.76,6.46a5.54,5.54,0,0,0,1.34,2.3c2.86,3.28,7.3,5.75,8,10.06a3.09,3.09,0,0,1-.54,2.53,3.34,3.34,0,0,1-1.76.9,10.89,10.89,0,0,1-9.94-2.71c-1.13-1.08-2.05-2.62-1.71-4.14.45-2,2.68-2.89,4.61-3.49"/><path class="cls-2" d="M606.29,62.6a42.32,42.32,0,0,0-3.88,4.46,8.9,8.9,0,0,0-2.14,4.72,6.47,6.47,0,0,0,1.38,4A9.14,9.14,0,0,0,611,79.23a8.54,8.54,0,0,0,6.28-7.64,6,6,0,0,0-1.59-4.53c-1.79-1.75-4.63-1.79-7.1-1.4a1.66,1.66,0,0,0-1.32.66,1.69,1.69,0,0,0-.08,1.07q1.42,10.26,2.86,20.52"/><path class="cls-2" d="M713,41.79l-2.16-20.17a5.75,5.75,0,0,1,.19-2.86,3.21,3.21,0,0,1,4.37-1.32,4,4,0,0,1,1.72,4.46,5.36,5.36,0,0,1-3.49,3.49l4.33.06a2.1,2.1,0,0,1,1.24.29,1.72,1.72,0,0,1,.56,1.24,5.29,5.29,0,0,1-8.09,5"/><path class="cls-2" d="M286,118.79l-2.16-20.17a5.75,5.75,0,0,1,.19-2.86,3.21,3.21,0,0,1,4.37-1.32,4,4,0,0,1,1.72,4.46,5.36,5.36,0,0,1-3.49,3.49l4.33.06a2.1,2.1,0,0,1,1.24.29,1.72,1.72,0,0,1,.56,1.24,5.29,5.29,0,0,1-8.09,5"/><polygon class="cls-3" points="312.59 224.55 384.31 285.78 518.74 226.3 312.59 224.55"/><polygon class="cls-3" points="387.6 264.67 437.43 243.76 362.38 243.14 387.6 264.67"/><line class="cls-3" x1="327.16" y1="229.4" x2="327.16" y2="225.76"/><line class="cls-3" x1="332.7" y1="229.4" x2="332.7" y2="225.76"/><line class="cls-3" x1="338.24" y1="229.4" x2="338.24" y2="225.76"/><line class="cls-3" x1="343.78" y1="229.4" x2="343.78" y2="225.76"/><line class="cls-3" x1="349.33" y1="229.4" x2="349.33" y2="225.76"/><line class="cls-3" x1="354.87" y1="229.4" x2="354.87" y2="225.76"/><line class="cls-3" x1="360.41" y1="229.4" x2="360.41" y2="225.76"/><line class="cls-3" x1="365.95" y1="229.4" x2="365.95" y2="225.76"/><line class="cls-3" x1="371.5" y1="229.4" x2="371.5" y2="225.76"/><line class="cls-3" x1="377.04" y1="229.4" x2="377.04" y2="225.76"/><line class="cls-3" x1="382.58" y1="229.4" x2="382.58" y2="225.76"/><line class="cls-3" x1="388.13" y1="229.4" x2="388.13" y2="225.76"/><line class="cls-3" x1="393.67" y1="229.4" x2="393.67" y2="225.76"/><line class="cls-3" x1="399.21" y1="229.4" x2="399.21" y2="225.76"/><line class="cls-3" x1="404.75" y1="229.4" x2="404.75" y2="225.76"/><line class="cls-3" x1="410.3" y1="229.4" x2="410.3" y2="225.76"/><line class="cls-3" x1="415.84" y1="229.4" x2="415.84" y2="225.76"/><line class="cls-3" x1="421.38" y1="229.4" x2="421.38" y2="225.76"/><line class="cls-3" x1="426.92" y1="229.4" x2="426.92" y2="225.76"/><line class="cls-3" x1="432.47" y1="229.4" x2="432.47" y2="225.76"/><line class="cls-3" x1="438.01" y1="229.4" x2="438.01" y2="225.76"/><line class="cls-3" x1="443.55" y1="229.4" x2="443.55" y2="225.76"/><line class="cls-3" x1="450.31" y1="229.4" x2="450.31" y2="225.76"/><line class="cls-3" x1="455.85" y1="229.4" x2="455.85" y2="225.76"/><line class="cls-3" x1="461.39" y1="229.4" x2="461.39" y2="225.76"/><line class="cls-3" x1="466.94" y1="229.4" x2="466.94" y2="225.76"/><line class="cls-3" x1="472.48" y1="229.4" x2="472.48" y2="225.76"/><line class="cls-3" x1="478.02" y1="229.4" x2="478.02" y2="225.76"/><line class="cls-3" x1="483.56" y1="229.4" x2="483.56" y2="225.76"/><path class="cls-9" d="M346.06,274.77a8.48,8.48,0,0,1-8.31,14.78c-30.1-16.73-63.1-31.88-95.48-50.18a36.6,36.6,0,0,1-2-4.43,1,1,0,0,1,.87-1.34c2.37-.12,3.9,0,6.42-.14a1,1,0,0,0,.75-1.58c-1.42-1.9-2.61-3.58-3.43-4.94a1,1,0,0,1,.69-1.5,54.05,54.05,0,0,1,6.39-.62C283.7,241.51,316.36,258,346.06,274.77Z"/><path class="cls-9" d="M332.16,267.05q4.57,2.51,9.06,5l-8,15q-4.51-2.47-9.13-4.9Z"/><line class="cls-9" x1="325.89" y1="283.03" x2="333.77" y2="268.22"/><line class="cls-9" x1="327.85" y1="284.07" x2="335.73" y2="269.27"/><line class="cls-9" x1="330.03" y1="285.23" x2="337.9" y2="270.42"/><path class="cls-9" d="M341.22,272.06c1.63.9,3.24,1.81,4.84,2.71a8.48,8.48,0,0,1-8.31,14.78c-1.49-.83-3-1.65-4.51-2.48Z"/><path class="cls-9" d="M248,232.86c31.76,16.82,45.36,24.5,80,41.51"/><path class="cls-9" d="M252,224.82a54.05,54.05,0,0,0-6.39.62,1,1,0,0,0-.69,1.5c.82,1.36,2,3,3.43,4.94a1,1,0,0,1-.75,1.58c-2.52.11-4,0-6.42.14a1,1,0,0,0-.87,1.34,36.6,36.6,0,0,0,2,4.43c-3.59-3-17.4-15.78-21.81-20.38a.93.93,0,0,1,.82-1.57C228.11,218.51,248.61,223.05,252,224.82Z"/><path class="cls-9" d="M231.72,219.52a29.17,29.17,0,0,0-3.71,7c-1.86-1.92-6.25-6.36-7.46-7.61a1,1,0,0,1,.87-1.65C223.12,217.5,229.11,219.08,231.72,219.52Z"/></g></g></svg>