<svg xmlns="http://www.w3.org/2000/svg" width="18" height="18" viewBox="0 0 18 18">
    <g id="prefix__noun_yes_1896716" style="opacity:.82">
        <path id="prefix__Path_173" d="M11.5 2.5a9 9 0 1 0 9 9 9.008 9.008 0 0 0-9-9zm4.547 6.992l-4.813 5.476a.868.868 0 0 1-.644.3h-.038a.892.892 0 0 1-.625-.265l-2.936-2.954a.884.884 0 0 1 1.25-1.249l2.293 2.293 4.187-4.775a.877.877 0 0 1 1.251-.076.86.86 0 0 1 .075 1.25z" data-name="Path 173" transform="translate(-2.5 -2.5)" style="fill:#148f91"/>
    </g>
</svg>
