<svg xmlns="http://www.w3.org/2000/svg" id="prefix__uspeh" width="37.999" height="38" viewBox="0 0 37.999 38">
    <g id="prefix__Group_56" data-name="Group 56">
        <path id="prefix__Path_240" d="M7.719 1020.362a.594.594 0 0 0-.594.594c0 .959.012 1.959.034 2.969H.594a.594.594 0 0 0-.594.594 11.268 11.268 0 0 0 8.9 11c1.341 3.562 3.768 6.353 7.812 7.12v4.131a2.376 2.376 0 0 0-1.273 2.09v.061a4.138 4.138 0 0 0-3.5 3.5h-.061A2.383 2.383 0 0 0 9.5 1054.8v2.969a.594.594 0 0 0 .594.594h17.812a.594.594 0 0 0 .594-.594v-2.969a2.383 2.383 0 0 0-2.375-2.375h-.061a4.138 4.138 0 0 0-3.5-3.5v-.061a2.375 2.375 0 0 0-1.273-2.09v-4.131c4.044-.767 6.469-3.559 7.809-7.12a11.268 11.268 0 0 0 8.9-11 .594.594 0 0 0-.594-.594H30.84c.024-1.01.034-2.01.034-2.969a.594.594 0 0 0-.594-.594H7.718zm.615 1.188h21.333c-.014 4.191-.178 8.87-1.352 12.65-1.228 3.953-3.414 6.837-7.7 7.424a.594.594 0 0 0-.513.589v4.275H17.9v-4.275a.594.594 0 0 0-.513-.589c-4.287-.588-6.475-3.471-7.7-7.424-1.174-3.78-1.336-8.459-1.35-12.65zm10.616 3.205a.594.594 0 0 0-.508.387l-1.22 3.333-3.546.137a.594.594 0 0 0-.346 1.062l2.793 2.19-.969 3.414a.594.594 0 0 0 .9.657l2.946-1.977 2.948 1.974a.594.594 0 0 0 .9-.656l-.969-3.414 2.788-2.192a.594.594 0 0 0-.343-1.062l-3.544-.132-1.227-3.333a.594.594 0 0 0-.487-.385.6.6 0 0 0-.119 0zm-17.655.357h5.912c.014.394.04.791.063 1.188H3.318a.594.594 0 0 0-.568.763 8.9 8.9 0 0 0 5.337 5.747c.107.468.233.924.364 1.375a10.044 10.044 0 0 1-7.155-9.073zm29.5 0h5.912a10.045 10.045 0 0 1-7.158 9.076c.132-.452.257-.909.364-1.378a8.907 8.907 0 0 0 5.339-5.747.594.594 0 0 0-.568-.763h-3.952c.023-.4.048-.793.063-1.187zm-11.8 1.96l.8 2.187a.594.594 0 0 0 .536.387l2.329.088-1.832 1.44a.594.594 0 0 0-.2.631l.636 2.24-1.937-1.3a.593.593 0 0 0-.661 0l-1.934 1.3.633-2.245a.594.594 0 0 0-.2-.626l-1.832-1.443 2.329-.086a.594.594 0 0 0 .534-.39l.8-2.187zm-14.665.415h3c.1 1.311.244 2.615.466 3.885a7.881 7.881 0 0 1-3.463-3.885zm26.334 0h3a7.882 7.882 0 0 1-3.467 3.885c.227-1.272.369-2.572.47-3.885zM17.658 1047.7h2.686a1.157 1.157 0 0 1 1.032 1.157h-4.75a1.157 1.157 0 0 1 1.032-1.157zm-1.626 2.345h5.937a2.838 2.838 0 0 1 2.725 2.375H13.307a2.838 2.838 0 0 1 2.725-2.37zm-4.156 3.563h14.25a1.172 1.172 0 0 1 1.187 1.188v2.375H10.688v-2.371a1.172 1.172 0 0 1 1.188-1.188zm.543 1.188a.595.595 0 0 0 .061 1.188h13.061a.594.594 0 1 0 0-1.187H12.418z" data-name="Path 240" transform="translate(0 -1020.362)" style="fill:#b0b6b6"/>
    </g>
</svg>
