<svg xmlns="http://www.w3.org/2000/svg" viewBox="0 0 412.42 234.57"><defs><style>.cls-1{isolation:isolate;}.cls-2,.cls-6{fill:none;}.cls-2{stroke:#4b4c4e;stroke-linecap:round;stroke-linejoin:round;stroke-width:2.5px;stroke-dasharray:4 4;opacity:0.3;}.cls-24,.cls-3{fill:#e0e0e0;}.cls-3{opacity:0.7;}.cls-24,.cls-28,.cls-3,.cls-5{mix-blend-mode:multiply;}.cls-4,.cls-5{fill:#fec64d;}.cls-13,.cls-24,.cls-28,.cls-32,.cls-5{opacity:0.5;}.cls-6{stroke:#d3891c;stroke-miterlimit:10;stroke-width:2px;}.cls-7{fill:#e89f2b;}.cls-8{fill:#d3891c;}.cls-9{fill:#3f8a8e;}.cls-10{fill:#dc432b;}.cls-11{fill:#258a6b;}.cls-12{fill:#e8e1ca;}.cls-13{fill:#d3ccba;}.cls-14{fill:#d18c2b;}.cls-15{fill:#e8b03f;}.cls-16{fill:#d3c9ae;}.cls-17{opacity:0.2;}.cls-18{fill:#fff;}.cls-19{fill:#edab26;}.cls-20,.cls-28{fill:#5a9eaa;}.cls-21{fill:#68aeb5;}.cls-22{opacity:0.15;}.cls-23{fill:#ac2d22;}.cls-25{fill:#66130d;}.cls-26{fill:#d6d8d7;}.cls-27{fill:#153836;}.cls-29{fill:#eedac2;}.cls-30{fill:#dfbfa1;}.cls-31{fill:#1d2027;}.cls-33{fill:#4b4c4e;}</style></defs><g class="cls-1"><g id="Layer_2" data-name="Layer 2"><g id="BACKGROUND_1" data-name="BACKGROUND 1"><path class="cls-2" d="M372.1,111.45c20.66-2.54,32.25,19.57,23.19,42.76-3.8,9.74-15.58,14.95-25.14,19.25-11.34,5.1-23.19,3.26-35.16,3.22-12.36,0-24.14,3.94-31.6,14.26"/><path class="cls-2" d="M284.79,138.83c-2.23,3.11-7.11,1.88-10.41,0-17.11-10-26.3-29-36.19-46.16S214.68,57.81,195.12,54.7s-38.64,10-49.28,26.7S131,117.9,125.65,137s-12.59,38.59-27.4,51.71c-20.8,18.41-55.09,19.05-76.56,1.43s-24-41.86-16.9-62.51c8.43-24.66,36.48-33.71,46.93-28.09,0,0,32.62,11.6,21.75,36.24S1,109.64,41.57,50.92"/><path class="cls-3" d="M235.58,183.92s-188.3-6.46-196,5.78,105.06,13,87.84,15.29S11.11,204.23,8.53,218.75s198.93,7.65,245.14,3.32c6.18-.58-73.2,6.37-73.77,10.45-1.07,7.58,233.38-6.88,232.51-26C411.63,189.06,235.58,183.92,235.58,183.92Z"/><path class="cls-4" d="M242.92,5.94,177.84,146.71l87-15.19ZM203,126.25l31.84-68.88,10.73,61.45Z"/><polygon class="cls-5" points="188.26 139.56 182.42 136.89 183.05 135.53 188.89 138.2 188.26 139.56"/><polygon class="cls-5" points="184.39 141.43 181.03 139.9 181.67 138.53 185.02 140.07 184.39 141.43"/><polygon class="cls-5" points="191.42 132.73 185.58 130.06 186.21 128.69 192.05 131.36 191.42 132.73"/><polygon class="cls-5" points="187.54 134.6 184.19 133.06 184.82 131.7 188.18 133.23 187.54 134.6"/><polygon class="cls-5" points="194.57 125.89 188.73 123.22 189.36 121.86 195.2 124.53 194.57 125.89"/><polygon class="cls-5" points="190.7 127.76 187.34 126.23 187.97 124.86 191.33 126.4 190.7 127.76"/><polygon class="cls-5" points="197.73 119.06 191.88 116.39 192.51 115.02 198.36 117.69 197.73 119.06"/><polygon class="cls-5" points="193.85 120.93 190.5 119.39 191.13 118.03 194.48 119.56 193.85 120.93"/><polygon class="cls-5" points="200.88 112.22 195.04 109.55 195.67 108.19 201.51 110.85 200.88 112.22"/><polygon class="cls-5" points="197.01 114.09 193.65 112.56 194.28 111.19 197.64 112.72 197.01 114.09"/><polygon class="cls-5" points="204.03 105.39 198.19 102.72 198.82 101.35 204.66 104.02 204.03 105.39"/><polygon class="cls-5" points="200.16 107.25 196.81 105.72 197.44 104.36 200.79 105.89 200.16 107.25"/><polygon class="cls-5" points="207.19 98.55 201.35 95.88 201.98 94.51 207.82 97.18 207.19 98.55"/><polygon class="cls-5" points="203.32 100.42 199.96 98.89 200.59 97.52 203.95 99.05 203.32 100.42"/><polygon class="cls-5" points="210.34 91.71 204.5 89.04 205.13 87.68 210.97 90.35 210.34 91.71"/><polygon class="cls-5" points="206.47 93.58 203.11 92.05 203.75 90.68 207.1 92.22 206.47 93.58"/><polygon class="cls-5" points="213.5 84.88 207.66 82.21 208.29 80.84 214.13 83.51 213.5 84.88"/><polygon class="cls-5" points="209.62 86.75 206.27 85.21 206.9 83.85 210.25 85.38 209.62 86.75"/><polygon class="cls-5" points="216.65 78.04 210.81 75.37 211.44 74.01 217.28 76.68 216.65 78.04"/><polygon class="cls-5" points="212.78 79.91 209.42 78.38 210.05 77.01 213.41 78.55 212.78 79.91"/><polygon class="cls-5" points="219.81 71.21 213.96 68.54 214.59 67.17 220.44 69.84 219.81 71.21"/><polygon class="cls-5" points="215.93 73.08 212.58 71.54 213.21 70.18 216.56 71.71 215.93 73.08"/><polygon class="cls-5" points="222.96 64.37 217.12 61.7 217.75 60.34 223.59 63.01 222.96 64.37"/><polygon class="cls-5" points="219.09 66.24 215.73 64.71 216.36 63.34 219.72 64.87 219.09 66.24"/><polygon class="cls-5" points="226.11 57.53 220.27 54.87 220.9 53.5 226.74 56.17 226.11 57.53"/><polygon class="cls-5" points="222.24 59.41 218.88 57.87 219.52 56.51 222.87 58.04 222.24 59.41"/><polygon class="cls-5" points="229.27 50.7 223.43 48.03 224.06 46.66 229.9 49.33 229.27 50.7"/><polygon class="cls-5" points="225.4 52.57 222.04 51.04 222.67 49.67 226.03 51.2 225.4 52.57"/><polygon class="cls-5" points="232.42 43.86 226.58 41.19 227.21 39.83 233.05 42.5 232.42 43.86"/><polygon class="cls-5" points="228.55 45.73 225.19 44.2 225.82 42.83 229.18 44.37 228.55 45.73"/><polygon class="cls-5" points="235.58 37.03 229.74 34.36 230.37 32.99 236.21 35.66 235.58 37.03"/><polygon class="cls-5" points="231.7 38.9 228.35 37.36 228.98 36 232.33 37.53 231.7 38.9"/><polygon class="cls-5" points="238.73 30.19 232.89 27.52 233.52 26.16 239.36 28.83 238.73 30.19"/><polygon class="cls-5" points="234.86 32.06 231.5 30.53 232.13 29.16 235.49 30.7 234.86 32.06"/><polygon class="cls-5" points="241.88 23.36 236.04 20.69 236.67 19.32 242.51 21.99 241.88 23.36"/><polygon class="cls-5" points="238.01 25.23 234.66 23.69 235.29 22.33 238.64 23.86 238.01 25.23"/><polygon class="cls-5" points="241.17 18.39 237.81 16.86 238.44 15.49 241.8 17.02 241.17 18.39"/><line class="cls-6" x1="256.19" y1="92.51" x2="349.19" y2="92.51"/><rect class="cls-7" x="249.19" y="66.51" width="11" height="122"/><polygon class="cls-4" points="254.36 178.5 252.19 66.88 250.75 178.5 254.36 178.5"/><rect class="cls-7" x="346.19" y="66.51" width="11" height="122" transform="translate(703.39 255.01) rotate(180)"/><polygon class="cls-4" points="352.03 178.5 354.19 66.88 355.63 178.5 352.03 178.5"/><rect class="cls-8" x="297.69" y="110.01" width="11" height="148" transform="translate(487.2 -119.19) rotate(90)"/><path class="cls-9" d="M274.27,92.89a4.9,4.9,0,1,1-4.9-4.9A4.89,4.89,0,0,1,274.27,92.89Z"/><path class="cls-9" d="M285.5,92.89a4.89,4.89,0,1,1-4.89-4.9A4.89,4.89,0,0,1,285.5,92.89Z"/><path class="cls-9" d="M296.74,92.89a4.9,4.9,0,1,1-4.9-4.9A4.89,4.89,0,0,1,296.74,92.89Z"/><line class="cls-6" x1="256.19" y1="109.51" x2="349.19" y2="109.51"/><path class="cls-4" d="M274.27,109.74a4.9,4.9,0,1,1-4.9-4.89A4.89,4.89,0,0,1,274.27,109.74Z"/><path class="cls-4" d="M285.5,109.74a4.89,4.89,0,1,1-4.89-4.89A4.89,4.89,0,0,1,285.5,109.74Z"/><path class="cls-4" d="M296.74,109.74a4.9,4.9,0,1,1-4.9-4.89A4.89,4.89,0,0,1,296.74,109.74Z"/><path class="cls-4" d="M308.88,109.74a4.9,4.9,0,1,1-4.89-4.89A4.89,4.89,0,0,1,308.88,109.74Z"/><path class="cls-4" d="M320.11,109.74a4.89,4.89,0,1,1-4.89-4.89A4.89,4.89,0,0,1,320.11,109.74Z"/><path class="cls-4" d="M331.35,109.74a4.9,4.9,0,1,1-4.89-4.89A4.89,4.89,0,0,1,331.35,109.74Z"/><line class="cls-6" x1="256.19" y1="126.51" x2="349.19" y2="126.51"/><path class="cls-10" d="M316.49,126.59a4.9,4.9,0,1,1-4.89-4.89A4.89,4.89,0,0,1,316.49,126.59Z"/><path class="cls-10" d="M327.72,126.59a4.89,4.89,0,1,1-4.89-4.89A4.89,4.89,0,0,1,327.72,126.59Z"/><path class="cls-10" d="M339,126.59a4.9,4.9,0,1,1-4.89-4.89A4.89,4.89,0,0,1,339,126.59Z"/><line class="cls-6" x1="256.19" y1="143.51" x2="349.19" y2="143.51"/><path class="cls-11" d="M274.27,143.44a4.9,4.9,0,1,1-4.9-4.89A4.9,4.9,0,0,1,274.27,143.44Z"/><path class="cls-11" d="M285.5,143.44a4.89,4.89,0,1,1-4.89-4.89A4.89,4.89,0,0,1,285.5,143.44Z"/><path class="cls-11" d="M296.74,143.44a4.9,4.9,0,1,1-4.9-4.89A4.9,4.9,0,0,1,296.74,143.44Z"/><line class="cls-6" x1="256.19" y1="160.51" x2="349.19" y2="160.51"/><path class="cls-4" d="M274.27,160.3a4.9,4.9,0,1,1-4.9-4.9A4.89,4.89,0,0,1,274.27,160.3Z"/><path class="cls-4" d="M285.5,160.3a4.89,4.89,0,1,1-4.89-4.9A4.89,4.89,0,0,1,285.5,160.3Z"/><path class="cls-4" d="M296.74,160.3a4.9,4.9,0,1,1-4.9-4.9A4.89,4.89,0,0,1,296.74,160.3Z"/><path class="cls-4" d="M309.24,160.3a4.89,4.89,0,1,1-4.89-4.9A4.89,4.89,0,0,1,309.24,160.3Z"/><path class="cls-4" d="M320.48,160.3a4.9,4.9,0,1,1-4.9-4.9A4.89,4.89,0,0,1,320.48,160.3Z"/><path class="cls-4" d="M331.71,160.3a4.89,4.89,0,1,1-4.89-4.9A4.89,4.89,0,0,1,331.71,160.3Z"/><path class="cls-12" d="M330.07,157.88l-1.27,2.77a31.83,31.83,0,0,0,1.27,28.93h0l-69.22,20-1-33Z"/><path class="cls-13" d="M276.9,175.93a12.54,12.54,0,0,0-8.32,2.9,1.47,1.47,0,0,0-1.84.56c-3.66,5.27-9.29,28.22,2.4,28.7a4.94,4.94,0,0,0,4.09-1.73c1.68-2.1.23-4.48,0-6.9a26.62,26.62,0,0,1,1.38-11.84c1.15-3.21,3.28-5.9,4.24-9.18A2,2,0,0,0,276.9,175.93Z"/><polygon class="cls-14" points="265.32 211.28 330.19 191.07 330.19 187.06 259.44 208.27 265.32 211.28"/><polygon class="cls-15" points="265.01 177.5 111.01 177.5 178.92 157.5 329.93 157.5 265.01 177.5"/><path class="cls-8" d="M111.7,178.51l-.27.51a34.19,34.19,0,0,0,.27,32.49H264.16l-.23-.57a41.88,41.88,0,0,1,.23-32.43H111.7Z"/><path class="cls-16" d="M268.51,186.45s3.27-1.62,8.3-3.65c2.51-1,5.46-2.18,8.65-3.34,1.59-.57,3.23-1.19,4.91-1.76l5.11-1.73,5.13-1.63c1.69-.55,3.38-1,5-1.5,3.25-1,6.31-1.78,8.95-2.44,5.26-1.34,8.85-2,8.85-2s-3.27,1.62-8.3,3.66c-2.51,1-5.46,2.18-8.65,3.34-1.59.56-3.23,1.2-4.91,1.75l-5.11,1.73-5.14,1.63c-1.69.55-3.38,1-5,1.5-3.25,1-6.3,1.78-8.94,2.44C272.1,185.82,268.51,186.45,268.51,186.45Z"/><path class="cls-16" d="M285.82,196a57.3,57.3,0,0,1,5.2-2.69c1.58-.74,3.45-1.54,5.47-2.34s4.19-1.62,6.38-2.36,4.41-1.42,6.51-2,4.06-1.08,5.77-1.45a57,57,0,0,1,5.77-1,57.3,57.3,0,0,1-5.2,2.69c-1.58.75-3.45,1.56-5.47,2.35s-4.19,1.61-6.39,2.35-4.41,1.42-6.5,2-4.06,1.08-5.77,1.45A57,57,0,0,1,285.82,196Z"/><path class="cls-7" d="M265.06,211.61a2,2,0,0,1-1.76-1.05c-8.39-15.58,0-31.22.39-31.87a1.94,1.94,0,0,1,1.14-.94l64.33-20.61a2,2,0,1,1,1.22,3.81L266.86,181.3c-1.35,2.89-6.05,14.44-.76,25.9l63.55-19.28a2,2,0,1,1,1.16,3.83l-65.17,19.77A1.9,1.9,0,0,1,265.06,211.61Z"/><g class="cls-17"><path class="cls-18" d="M177.19,161.27c24.27,1.55,48.7-.28,73-.28a.49.49,0,0,0,0-1c-24.3,0-48.73-1.83-73-.28a.77.77,0,0,0,0,1.53Z"/></g><g class="cls-17"><line class="cls-18" x1="194.19" y1="209.51" x2="198.19" y2="209.51"/><path class="cls-18" d="M194.19,209.79a35.49,35.49,0,0,0,4-.12.17.17,0,0,0,0-.33,35.49,35.49,0,0,0-4-.12.29.29,0,0,0,0,.57Z"/></g><g class="cls-17"><line class="cls-18" x1="208.19" y1="209.51" x2="255.19" y2="209.51"/><path class="cls-18" d="M208.19,209.76c15.67.12,31.37,0,47,0a.3.3,0,0,0,0-.59c-15.63,0-31.33-.08-47,0a.26.26,0,0,0,0,.51Z"/></g><polygon class="cls-10" points="305.19 182.08 289.19 186.78 289.19 209.2 297.78 197.64 305.19 203.43 305.19 182.08"/><path class="cls-16" d="M276.15,191.88a57.3,57.3,0,0,1,5.2-2.69c1.58-.75,3.45-1.55,5.47-2.35s4.19-1.61,6.38-2.35,4.41-1.42,6.51-2,4.06-1.09,5.77-1.45a53.72,53.72,0,0,1,5.77-1,57.3,57.3,0,0,1-5.2,2.69c-1.58.74-3.45,1.55-5.47,2.35s-4.19,1.61-6.39,2.35-4.41,1.41-6.5,2-4.07,1.08-5.77,1.44A55.67,55.67,0,0,1,276.15,191.88Z"/><g class="cls-17"><path class="cls-18" d="M116.81,189.49q61.22,3.69,122.58,3c6.06-.07,12.8-.45,17-4.78-4-1.51-8.32-1.37-12.54-1.26a665.18,665.18,0,0,1-72.82-1.95c-18.91-1.55-38.13-3.89-56.72-.06-.81.16-1.73.45-2,1.22-.5,1.42,1.6,2.24,3.11,2.28l73,2.08"/><path class="cls-18" d="M116.81,190.25c25.54,2.42,51.45,2.71,77.09,3.11q18.78.28,37.58.17c8.54-.06,18.82,1.09,25.61-5.17a.94.94,0,0,0-.41-1.57c-7-2.19-14.48-1.21-21.66-1.12q-12.79.15-25.6-.19c-16.3-.43-32.53-1.58-48.78-3-7.9-.67-15.81-1.26-23.74-1.27-7.05,0-16.09-.35-22.86,2.08-2.3.83-4.17,2.93-1.58,4.88,1.55,1.17,4.16.9,6,1l12.82.36c19,.55,38.14,1.55,57.19,1.39a.92.92,0,0,0,0-1.83c-18.36-1.19-36.82-1.29-55.22-1.8l-12.81-.36c-1.14,0-7.11.74-5.74-1.41.55-.86,6.06-1.05,7.16-1.19a147.31,147.31,0,0,1,26.48-.54c17.44,1,34.8,2.86,52.27,3.5q13.78.5,27.57.39c9-.06,19.44-1.88,28.05.92l-.42-1.57c-4.17,3.76-9.57,4.31-15,4.45-5.74.15-11.49.12-17.23.13q-17.81.06-35.61-.27c-23.73-.43-47.42-2-71.15-2.61-1,0-1,1.43,0,1.52Z"/></g><g class="cls-17"><line class="cls-18" x1="114.19" y1="207.51" x2="185.19" y2="207.51"/><path class="cls-18" d="M114.19,207.76c23.65.76,47.35-.07,71-.07a.19.19,0,0,0,0-.37c-23.65,0-47.35-.83-71-.07a.26.26,0,0,0,0,.51Z"/></g><polygon class="cls-19" points="149.53 192.5 142.07 192.5 139.7 186.28 137.34 193.5 129.88 193.5 135.88 197.85 133.63 204.97 139.7 200.63 145.78 204.97 143.53 197.85 149.53 192.5"/><polygon class="cls-19" points="138.8 186.5 139.7 186.5 140.29 190.45 138.8 186.5"/><polygon class="cls-19" points="133.74 202.46 132.73 204.5 133.63 204.5 135.25 201.72 133.74 202.46"/><polygon class="cls-19" points="142.76 201.72 144.87 204.5 145.78 204.5 145.18 203.14 142.76 201.72"/><polygon class="cls-4" points="148.63 192.5 141.17 192.5 138.8 186.28 136.43 193.5 128.97 193.5 134.97 197.85 132.73 204.97 138.8 200.63 144.87 204.97 142.63 197.85 148.63 192.5"/><polygon class="cls-19" points="188.08 192.5 180.62 192.5 178.25 186.28 175.89 193.5 168.43 193.5 174.43 197.85 172.18 204.97 178.25 200.63 184.33 204.97 182.08 197.85 188.08 192.5"/><polygon class="cls-19" points="177.35 186.5 178.25 186.5 178.84 190.45 177.35 186.5"/><polygon class="cls-19" points="172.29 202.46 171.28 204.5 172.18 204.5 173.81 201.72 172.29 202.46"/><polygon class="cls-19" points="181.32 201.72 183.43 204.5 184.33 204.5 183.73 203.14 181.32 201.72"/><polygon class="cls-4" points="187.18 192.5 179.72 192.5 177.35 186.28 174.99 193.5 167.53 193.5 173.52 197.85 171.28 204.97 177.35 200.63 183.43 204.97 181.18 197.85 187.18 192.5"/><polygon class="cls-19" points="230.5 192.5 223.04 192.5 220.68 186.28 218.31 193.5 210.85 193.5 216.85 197.85 214.6 204.97 220.68 200.63 226.75 204.97 224.5 197.85 230.5 192.5"/><polygon class="cls-19" points="219.77 186.5 220.68 186.5 221.26 190.45 219.77 186.5"/><polygon class="cls-19" points="214.71 202.46 213.7 204.5 214.6 204.5 216.23 201.72 214.71 202.46"/><polygon class="cls-19" points="223.74 201.72 225.84 204.5 226.75 204.5 226.16 203.14 223.74 201.72"/><polygon class="cls-4" points="229.6 192.5 222.14 192.5 219.77 186.28 217.41 193.5 209.95 193.5 215.94 197.85 213.7 204.97 219.77 200.63 225.84 204.97 223.6 197.85 229.6 192.5"/><path class="cls-12" d="M303.68,120.43l-1.26,2.78a31.86,31.86,0,0,0,1.26,28.93h0l-69.21,20-1-33Z"/><path class="cls-13" d="M250.52,138.49a12.53,12.53,0,0,0-8.32,2.89,1.48,1.48,0,0,0-1.84.56c-3.66,5.28-9.29,28.22,2.4,28.71a5,5,0,0,0,4.09-1.73c1.68-2.1.22-4.48,0-6.91a26.59,26.59,0,0,1,1.38-11.83c1.15-3.21,3.28-5.91,4.24-9.18A2,2,0,0,0,250.52,138.49Z"/><polygon class="cls-20" points="238.32 173.83 303.19 153.63 303.19 149.62 232.44 170.83 238.32 173.83"/><polygon class="cls-20" points="238.63 140.5 84.63 140.5 152.54 120.5 303.54 120.5 238.63 140.5"/><path class="cls-9" d="M85.32,140.51l-.27.51a34.19,34.19,0,0,0,.27,32.49H237.78l-.23-.57a41.88,41.88,0,0,1,.23-32.43H85.32Z"/><path class="cls-16" d="M242.13,149s3.27-1.62,8.3-3.66c2.51-1,5.46-2.17,8.64-3.33,1.6-.57,3.24-1.2,4.92-1.76l5.11-1.73,5.13-1.63c1.69-.56,3.38-1,5-1.5,3.25-1,6.31-1.79,8.94-2.44,5.27-1.34,8.86-2,8.86-2s-3.27,1.62-8.3,3.66c-2.51,1-5.46,2.18-8.65,3.33-1.59.57-3.23,1.2-4.92,1.76l-5.1,1.73-5.14,1.63c-1.69.55-3.38,1-5,1.5-3.25,1-6.3,1.78-8.94,2.43C245.72,148.37,242.13,149,242.13,149Z"/><path class="cls-16" d="M259.44,158.6a57.3,57.3,0,0,1,5.2-2.69c1.58-.74,3.45-1.55,5.47-2.35s4.19-1.61,6.38-2.35,4.41-1.42,6.51-2,4.06-1.09,5.77-1.45a53.72,53.72,0,0,1,5.77-1,57.3,57.3,0,0,1-5.2,2.69c-1.58.75-3.45,1.55-5.47,2.35s-4.19,1.61-6.39,2.35-4.41,1.41-6.5,2-4.07,1.08-5.77,1.45A57,57,0,0,1,259.44,158.6Z"/><path class="cls-21" d="M238.68,174.17a2,2,0,0,1-1.76-1.06c-8.39-15.58,0-31.21.38-31.87a2.06,2.06,0,0,1,1.15-.94l64.33-20.61a2,2,0,1,1,1.22,3.82l-63.52,20.35c-1.36,2.88-6,14.43-.76,25.9l63.55-19.29a2,2,0,0,1,1.16,3.84l-65.17,19.77A1.9,1.9,0,0,1,238.68,174.17Z"/><g class="cls-17"><path class="cls-18" d="M151.19,123.27c24.27,1.55,48.7-.28,73-.28a.49.49,0,0,0,0-1c-24.3,0-48.73-1.83-73-.28a.77.77,0,0,0,0,1.53Z"/></g><g class="cls-17"><line class="cls-18" x1="167.19" y1="172.51" x2="171.19" y2="172.51"/><path class="cls-18" d="M167.19,172.79a35.49,35.49,0,0,0,4-.12.17.17,0,0,0,0-.33,35.49,35.49,0,0,0-4-.12.29.29,0,0,0,0,.57Z"/></g><g class="cls-22"><line class="cls-18" x1="182.19" y1="172.51" x2="229.19" y2="172.51"/><path class="cls-18" d="M182.19,172.76c15.67.12,31.37,0,47,0a.3.3,0,0,0,0-.59c-15.63,0-31.33-.08-47,0a.26.26,0,0,0,0,.51Z"/></g><path class="cls-16" d="M249.77,154.44a54.32,54.32,0,0,1,5.2-2.69c1.58-.75,3.45-1.55,5.47-2.35s4.19-1.62,6.38-2.36,4.41-1.42,6.51-2,4.06-1.08,5.77-1.45a57,57,0,0,1,5.77-1,55.58,55.58,0,0,1-5.2,2.7c-1.58.74-3.45,1.55-5.47,2.34s-4.19,1.61-6.39,2.35-4.41,1.42-6.5,2-4.07,1.08-5.78,1.45C252.13,154.18,249.77,154.44,249.77,154.44Z"/><g class="cls-22"><path class="cls-18" d="M90.43,152q61.22,3.71,122.58,3c6.06-.07,12.8-.45,17-4.78-4-1.51-8.32-1.37-12.54-1.25a665.18,665.18,0,0,1-72.82-1.95c-18.92-1.55-38.13-3.89-56.72-.07-.81.17-1.73.45-2,1.23-.5,1.42,1.6,2.24,3.1,2.28l73,2.07"/><path class="cls-18" d="M90.43,152.8c25.54,2.42,51.45,2.72,77.09,3.12q18.78.29,37.58.16c8.54-.05,18.82,1.09,25.61-5.16a1,1,0,0,0-.41-1.58c-7-2.19-14.48-1.2-21.66-1.12q-12.79.17-25.6-.18c-16.3-.43-32.53-1.58-48.78-3-7.9-.67-15.81-1.27-23.74-1.28-7,0-16.09-.35-22.86,2.09-2.31.83-4.17,2.92-1.58,4.87,1.55,1.17,4.16.91,6,1l12.82.37c19,.55,38.14,1.55,57.19,1.39a.92.92,0,0,0,0-1.83c-18.36-1.2-36.82-1.29-55.22-1.81L94,149.48c-1.14,0-7.1.75-5.73-1.4.55-.87,6.06-1.05,7.16-1.19a147.32,147.32,0,0,1,26.48-.55c17.44,1,34.8,2.87,52.27,3.5q13.78.51,27.57.39c8.95-.06,19.44-1.87,28.05.93l-.42-1.57c-4.17,3.76-9.57,4.31-15,4.45-5.74.14-11.49.12-17.23.13q-17.81,0-35.61-.28c-23.73-.43-47.42-2-71.15-2.61-1,0-1,1.43,0,1.52Z"/></g><g class="cls-17"><line class="cls-18" x1="88.19" y1="170.51" x2="159.19" y2="170.51"/><path class="cls-18" d="M88.19,170.76c23.65.76,47.35-.07,71-.07a.19.19,0,0,0,0-.37c-23.65,0-47.35-.83-71-.07a.26.26,0,0,0,0,.51Z"/></g><polygon class="cls-19" points="123.15 155.5 115.69 155.5 113.32 148.83 110.96 156.5 103.5 156.5 109.49 160.41 107.25 167.53 113.32 163.19 119.39 167.53 117.15 160.41 123.15 155.5"/><polygon class="cls-19" points="112.42 148.5 113.32 148.5 113.91 152.45 112.42 148.5"/><polygon class="cls-19" points="107.36 165.46 106.35 167.5 107.25 167.5 108.87 164.72 107.36 165.46"/><polygon class="cls-19" points="116.38 164.72 118.49 167.5 119.39 167.5 118.8 166.14 116.38 164.72"/><polygon class="cls-4" points="122.25 155.5 114.78 155.5 112.42 148.83 110.05 156.5 102.59 156.5 108.59 160.41 106.35 167.53 112.42 163.19 118.49 167.53 116.25 160.41 122.25 155.5"/><polygon class="cls-19" points="161.7 155.5 154.24 155.5 151.87 148.83 149.51 156.5 142.05 156.5 148.05 160.41 145.8 167.53 151.87 163.19 157.95 167.53 155.7 160.41 161.7 155.5"/><polygon class="cls-19" points="150.97 148.5 151.87 148.5 152.46 152.45 150.97 148.5"/><polygon class="cls-19" points="145.91 165.46 144.9 167.5 145.8 167.5 147.43 164.72 145.91 165.46"/><polygon class="cls-19" points="154.94 164.72 157.04 167.5 157.95 167.5 157.35 166.14 154.94 164.72"/><polygon class="cls-4" points="160.8 155.5 153.34 155.5 150.97 148.83 148.61 156.5 141.15 156.5 147.14 160.41 144.9 167.53 150.97 163.19 157.04 167.53 154.8 160.41 160.8 155.5"/><polygon class="cls-19" points="204.12 155.5 196.66 155.5 194.29 148.83 191.93 156.5 184.47 156.5 190.47 160.41 188.22 167.53 194.29 163.19 200.37 167.53 198.12 160.41 204.12 155.5"/><polygon class="cls-19" points="193.39 148.5 194.29 148.5 194.88 152.45 193.39 148.5"/><polygon class="cls-19" points="188.33 165.46 187.32 167.5 188.22 167.5 189.85 164.72 188.33 165.46"/><polygon class="cls-19" points="197.36 164.72 199.47 167.5 200.37 167.5 199.77 166.14 197.36 164.72"/><polygon class="cls-4" points="203.22 155.5 195.76 155.5 193.39 148.83 191.03 156.5 183.56 156.5 189.56 160.41 187.32 167.53 193.39 163.19 199.47 167.53 197.22 160.41 203.22 155.5"/><polygon class="cls-23" points="196.43 137.16 221.72 123.33 185.11 40.88 196.43 137.16"/><polygon class="cls-10" points="185.11 40.88 149.84 132.05 196.43 137.16 185.11 40.88"/><ellipse class="cls-24" cx="351.28" cy="219.25" rx="41.13" ry="1.81"/><path class="cls-25" d="M347.05,176.37C347,175.58,345,157,357.3,146.44l2.68,3.18c-11.45,9.81-10.79,26.32-10.77,26.5Z"/><path class="cls-10" d="M375.33,172.59c-9.24-12.16-23.07-6.6-27-4.65-3.95-1.95-17.78-7.51-27,4.65-10.12,13.32-1.68,43.52,26.89,46.24v0l.25,0c.08,0,.16,0,.75,0v0C377.26,216.11,385.45,185.91,375.33,172.59Z"/><path class="cls-11" d="M348.39,161.65s-14.19-5.54-10.5-20.31C337.89,141.34,350.36,145.15,348.39,161.65Z"/><path class="cls-23" d="M358.19,211.16c1.14,0,1.07,0,1,0s0,0,0,0v.41c-28.81-2.73-37.64-32.71-28.05-46.69a18.88,18.88,0,0,0-10.52,7.22c-10.37,13.65-1.72,44.61,27.57,47.39v-.61l.25,0,.75,0v0s16.69-5.09,21.78-10.7c-3.4,1.51-12.78,3-12.78,3Z"/><g class="cls-22"><path class="cls-18" d="M369.71,205.8a1.53,1.53,0,0,0-2,1.1,2.42,2.42,0,0,0,3.07-2.65.85.85,0,0,0-.33-.55c-.32-.21-.74,0-1.08.18l-1.23.73c-.54.32-1.15.76-1.11,1.39s1.06,1.07,1.72.75a3.49,3.49,0,0,0,1.38-1.68"/><path class="cls-18" d="M370.06,205.2c-1.21-.9-2.64,0-3.23,1.18a1,1,0,0,0,.61,1.5,3.47,3.47,0,0,0,4.2-2.09,2.67,2.67,0,0,0-.23-2.57c-.76-1-1.89-.6-2.8-.07a5.89,5.89,0,0,0-2.33,1.76,1.91,1.91,0,0,0,.41,2.49,2.44,2.44,0,0,0,2.34.38,4,4,0,0,0,2-2.17c.64-1.22-1.22-2.31-1.85-1.08a4.87,4.87,0,0,1-.61,1c-.07.08-.17.22-.28.25H368s0,.15.06.14l.22-.19a10.77,10.77,0,0,1,1.22-.75,4.65,4.65,0,0,0,.56-.32l-.3-.14a1.28,1.28,0,0,1,0,.19,4.15,4.15,0,0,1-.29.7,1.37,1.37,0,0,1-1.52.5l.75,1c0-.12.35-.23.42-.26s.23,0,.35-.07.42-.07.21-.07a.7.7,0,0,0,.35-1.3Z"/></g><g class="cls-22"><path class="cls-18" d="M366,169.1a2.55,2.55,0,0,0-1.05,2.37,5.28,5.28,0,0,0,1,2.49c1.26,1.82,3,3.23,4.42,4.92a16.59,16.59,0,0,1,3.34,6.65,5.26,5.26,0,0,0,.89,2.29,1.51,1.51,0,0,0,2.17.22,2,2,0,0,0,.34-1.19c.33-5.62-2.49-11-6.19-15.26a7.47,7.47,0,0,0-2.6-2.15,3,3,0,0,0-3.19.4c-1,1-.81,2.75,0,3.94a15.7,15.7,0,0,0,3.11,2.92,15.24,15.24,0,0,1,5.23,11.47,6.39,6.39,0,0,0,.2,2.23,1.69,1.69,0,0,0,1.71,1.19c.89-.16,1.29-1.2,1.45-2.09a18.67,18.67,0,0,0-5.21-16.39"/><path class="cls-18" d="M365.37,168.46c-3.63,3.52,1.17,7.47,3.51,10.09a17.24,17.24,0,0,1,3.72,6c.37,1.12.41,2.79,1.29,3.71a2.7,2.7,0,0,0,2.49,1c5.94-1.31-2.71-22.85-10.24-21.07-3.93.93-2.86,5.23-.85,7.45,2.74,3,5.56,4.72,6.68,8.95.54,2-.34,6,1.63,7.49,3.4,2.62,4.59-2.9,4.67-5.12a20.19,20.19,0,0,0-5.79-14.69c-1-1.1-2.71.56-1.66,1.66a18,18,0,0,1,4.79,8.9c.27,1.31.88,3.87.27,5.24.17,1.52-.27,1.55-1.3.09a8.63,8.63,0,0,0-.07-1.44c-.72-2.26-.85-4.45-2-6.57s-3.44-3.29-4.54-5.16q-2.26-1,.21-2.22,1.08-2.34,2.07-.44c.94.52,2.54,3.29,3.17,4.37a22.85,22.85,0,0,1,2.17,4.9,16.1,16.1,0,0,1,.67,3.84l-1.64-.15c-1.06-1-1.72-4.53-2.64-5.88-1.43-2.09-7.9-7-5.3-9.68a.91.91,0,0,0-1.28-1.28Z"/></g><g class="cls-22"><path class="cls-18" d="M373,201.92a1.21,1.21,0,1,0-1.22-1.21,1.23,1.23,0,0,0,1.22,1.21Z"/></g><rect class="cls-26" x="118.14" y="82.65" width="10.36" height="57.42" transform="translate(26.7 -23.82) rotate(12.36)"/><rect class="cls-11" x="111.43" y="116.94" width="14.14" height="32.74" transform="translate(31.29 -22.28) rotate(12.36)"/><circle class="cls-27" cx="132.69" cy="68.59" r="30.4" transform="translate(-8.08 118.55) rotate(-46.88)"/><circle class="cls-18" cx="132.69" cy="68.59" r="23.84" transform="translate(-11.89 31.08) rotate(-12.79)"/><rect class="cls-20" x="74.66" y="12.41" width="22.54" height="167.81" transform="matrix(1, -0.06, 0.06, 1, -5.89, 5.6)"/><rect class="cls-28" x="84.15" y="12.41" width="3.55" height="167.81" transform="translate(-5.89 5.6) rotate(-3.61)"/><rect class="cls-28" x="69.78" y="18.41" width="7.41" height="1.68" transform="translate(-1.07 4.66) rotate(-3.61)"/><rect class="cls-28" x="70.02" y="22.2" width="4.37" height="1.68" transform="translate(-1.31 4.59) rotate(-3.61)"/><rect class="cls-28" x="70.28" y="26.38" width="7.41" height="1.68" transform="translate(-1.57 4.71) rotate(-3.61)"/><rect class="cls-28" x="70.52" y="30.17" width="4.37" height="1.68" transform="translate(-1.81 4.64) rotate(-3.61)"/><rect class="cls-28" x="70.79" y="34.34" width="7.41" height="1.68" transform="translate(-2.07 4.76) rotate(-3.61)"/><rect class="cls-28" x="71.02" y="38.14" width="4.37" height="1.68" transform="translate(-2.31 4.68) rotate(-3.61)"/><rect class="cls-28" x="71.29" y="42.31" width="7.41" height="1.68" transform="translate(-2.57 4.81) rotate(-3.61)"/><rect class="cls-28" x="71.52" y="46.1" width="4.37" height="1.68" transform="translate(-2.81 4.73) rotate(-3.61)"/><rect class="cls-28" x="71.79" y="50.28" width="7.41" height="1.68" transform="translate(-3.07 4.85) rotate(-3.61)"/><rect class="cls-28" x="72.03" y="54.07" width="4.37" height="1.68" transform="matrix(1, -0.06, 0.06, 1, -3.31, 4.78)"/><rect class="cls-28" x="72.29" y="58.25" width="7.41" height="1.68" transform="translate(-3.57 4.9) rotate(-3.61)"/><rect class="cls-28" x="72.53" y="62.04" width="4.37" height="1.68" transform="matrix(1, -0.06, 0.06, 1, -3.81, 4.82)"/><rect class="cls-28" x="72.8" y="66.22" width="7.41" height="1.68" transform="translate(-4.07 4.95) rotate(-3.61)"/><rect class="cls-28" x="73.03" y="70.01" width="4.37" height="1.68" transform="matrix(1, -0.06, 0.06, 1, -4.31, 4.87)"/><rect class="cls-28" x="73.3" y="74.18" width="7.41" height="1.68" transform="translate(-4.57 4.99) rotate(-3.61)"/><rect class="cls-28" x="73.53" y="77.98" width="4.37" height="1.68" transform="matrix(1, -0.06, 0.06, 1, -4.81, 4.92)"/><rect class="cls-28" x="73.8" y="82.15" width="7.41" height="1.68" transform="translate(-5.07 5.04) rotate(-3.61)"/><rect class="cls-28" x="74.04" y="85.94" width="4.37" height="1.68" transform="translate(-5.31 4.97) rotate(-3.61)"/><rect class="cls-28" x="74.3" y="90.12" width="7.41" height="1.68" transform="translate(-5.57 5.09) rotate(-3.61)"/><rect class="cls-28" x="74.54" y="93.91" width="4.37" height="1.68" transform="translate(-5.81 5.02) rotate(-3.61)"/><rect class="cls-28" x="74.8" y="98.09" width="7.41" height="1.68" transform="translate(-6.07 5.14) rotate(-3.61)"/><rect class="cls-28" x="75.04" y="101.88" width="4.37" height="1.68" transform="translate(-6.31 5.06) rotate(-3.61)"/><rect class="cls-28" x="75.31" y="106.05" width="7.41" height="1.68" transform="matrix(1, -0.06, 0.06, 1, -6.57, 5.18)"/><rect class="cls-28" x="75.54" y="109.85" width="4.37" height="1.68" transform="translate(-6.81 5.11) rotate(-3.61)"/><rect class="cls-28" x="75.81" y="114.02" width="7.41" height="1.68" transform="matrix(1, -0.06, 0.06, 1, -7.07, 5.23)"/><rect class="cls-28" x="76.05" y="117.81" width="4.37" height="1.68" transform="translate(-7.31 5.16) rotate(-3.61)"/><rect class="cls-28" x="76.31" y="121.99" width="7.41" height="1.68" transform="translate(-7.57 5.28) rotate(-3.61)"/><rect class="cls-28" x="76.55" y="125.78" width="4.37" height="1.68" transform="matrix(1, -0.06, 0.06, 1, -7.81, 5.2)"/><rect class="cls-28" x="76.81" y="129.96" width="7.41" height="1.68" transform="translate(-8.07 5.33) rotate(-3.61)"/><rect class="cls-28" x="77.05" y="133.75" width="4.37" height="1.68" transform="matrix(1, -0.06, 0.06, 1, -8.31, 5.25)"/><rect class="cls-28" x="77.32" y="137.92" width="7.41" height="1.68" transform="translate(-8.57 5.37) rotate(-3.61)"/><rect class="cls-28" x="77.55" y="141.72" width="4.37" height="1.68" transform="matrix(1, -0.06, 0.06, 1, -8.81, 5.3)"/><rect class="cls-28" x="77.82" y="145.89" width="7.41" height="1.68" transform="translate(-9.07 5.42) rotate(-3.61)"/><rect class="cls-28" x="78.06" y="149.68" width="4.37" height="1.68" transform="matrix(1, -0.06, 0.06, 1, -9.31, 5.35)"/><rect class="cls-28" x="78.32" y="153.86" width="7.41" height="1.68" transform="translate(-9.57 5.47) rotate(-3.61)"/><rect class="cls-28" x="78.56" y="157.65" width="4.37" height="1.68" transform="matrix(1, -0.06, 0.06, 1, -9.81, 5.4)"/><rect class="cls-28" x="78.82" y="161.83" width="7.41" height="1.68" transform="translate(-10.07 5.51) rotate(-3.61)"/><rect class="cls-28" x="79.06" y="165.62" width="4.37" height="1.68" transform="matrix(1, -0.06, 0.06, 1, -10.31, 5.44)"/><rect class="cls-28" x="79.33" y="169.79" width="7.41" height="1.68" transform="translate(-10.57 5.56) rotate(-3.61)"/><rect class="cls-28" x="79.56" y="173.59" width="4.37" height="1.68" transform="matrix(1, -0.06, 0.06, 1, -10.82, 5.49)"/><rect class="cls-28" x="84.88" y="17.46" width="7.41" height="1.68" transform="translate(178.15 30.99) rotate(176.39)"/><rect class="cls-28" x="88.15" y="21.06" width="4.37" height="1.68" transform="translate(181.88 38.07) rotate(176.39)"/><rect class="cls-28" x="85.39" y="25.43" width="7.41" height="1.68" transform="translate(179.66 46.88) rotate(176.39)"/><rect class="cls-28" x="88.66" y="29.03" width="4.37" height="1.68" transform="translate(183.38 53.96) rotate(176.39)"/><rect class="cls-28" x="85.89" y="33.39" width="7.41" height="1.68" transform="translate(181.16 62.76) rotate(176.39)"/><rect class="cls-28" x="89.16" y="36.99" width="4.37" height="1.68" transform="translate(184.89 69.85) rotate(176.39)"/><rect class="cls-28" x="86.39" y="41.36" width="7.41" height="1.68" transform="translate(182.67 78.65) rotate(176.39)"/><rect class="cls-28" x="89.66" y="44.96" width="4.37" height="1.68" transform="matrix(-1, 0.06, -0.06, -1, 186.39, 85.74)"/><rect class="cls-28" x="86.89" y="49.33" width="7.41" height="1.68" transform="translate(184.17 94.54) rotate(176.39)"/><rect class="cls-28" x="90.16" y="52.93" width="4.37" height="1.68" transform="matrix(-1, 0.06, -0.06, -1, 187.89, 101.63)"/><rect class="cls-28" x="87.4" y="57.3" width="7.41" height="1.68" transform="translate(185.68 110.43) rotate(176.39)"/><rect class="cls-28" x="90.67" y="60.9" width="4.37" height="1.68" transform="matrix(-1, 0.06, -0.06, -1, 189.4, 117.51)"/><rect class="cls-28" x="87.9" y="65.26" width="7.41" height="1.68" transform="translate(187.18 126.32) rotate(176.39)"/><rect class="cls-28" x="91.17" y="68.86" width="4.37" height="1.68" transform="translate(190.9 133.4) rotate(176.39)"/><rect class="cls-28" x="88.4" y="73.23" width="7.41" height="1.68" transform="matrix(-1, 0.06, -0.06, -1, 188.69, 142.2)"/><rect class="cls-28" x="91.67" y="76.83" width="4.37" height="1.68" transform="matrix(-1, 0.06, -0.06, -1, 192.41, 149.29)"/><rect class="cls-28" x="88.9" y="81.2" width="7.41" height="1.68" transform="translate(190.19 158.09) rotate(176.39)"/><rect class="cls-28" x="92.17" y="84.8" width="4.37" height="1.68" transform="matrix(-1, 0.06, -0.06, -1, 193.92, 165.17)"/><rect class="cls-28" x="89.4" y="89.17" width="7.41" height="1.68" transform="translate(191.7 173.98) rotate(176.39)"/><rect class="cls-28" x="92.67" y="92.77" width="4.37" height="1.68" transform="translate(195.42 181.06) rotate(176.39)"/><rect class="cls-28" x="89.91" y="97.13" width="7.41" height="1.68" transform="translate(193.2 189.87) rotate(176.39)"/><rect class="cls-28" x="93.18" y="100.73" width="4.37" height="1.68" transform="translate(196.93 196.95) rotate(176.39)"/><rect class="cls-28" x="90.41" y="105.1" width="7.41" height="1.68" transform="translate(194.71 205.75) rotate(176.39)"/><rect class="cls-28" x="93.68" y="108.7" width="4.37" height="1.68" transform="translate(198.43 212.84) rotate(176.39)"/><rect class="cls-28" x="90.91" y="113.07" width="7.41" height="1.68" transform="translate(196.21 221.64) rotate(176.39)"/><rect class="cls-28" x="94.18" y="116.67" width="4.37" height="1.68" transform="translate(199.93 228.73) rotate(176.39)"/><rect class="cls-28" x="91.41" y="121.04" width="7.41" height="1.68" transform="translate(197.72 237.53) rotate(176.39)"/><rect class="cls-28" x="94.68" y="124.64" width="4.37" height="1.68" transform="translate(201.44 244.62) rotate(176.39)"/><rect class="cls-28" x="91.92" y="129" width="7.41" height="1.68" transform="translate(199.22 253.42) rotate(176.39)"/><rect class="cls-28" x="95.19" y="132.61" width="4.37" height="1.68" transform="matrix(-1, 0.06, -0.06, -1, 202.94, 260.5)"/><rect class="cls-28" x="92.42" y="136.97" width="7.41" height="1.68" transform="translate(200.73 269.31) rotate(176.39)"/><rect class="cls-28" x="95.69" y="140.57" width="4.37" height="1.68" transform="matrix(-1, 0.06, -0.06, -1, 204.45, 276.39)"/><rect class="cls-28" x="92.92" y="144.94" width="7.41" height="1.68" transform="translate(202.23 285.19) rotate(176.39)"/><rect class="cls-28" x="96.19" y="148.54" width="4.37" height="1.68" transform="matrix(-1, 0.06, -0.06, -1, 205.96, 292.28)"/><rect class="cls-28" x="93.42" y="152.91" width="7.41" height="1.68" transform="translate(203.74 301.08) rotate(176.39)"/><rect class="cls-28" x="96.69" y="156.51" width="4.37" height="1.68" transform="translate(207.46 308.16) rotate(176.39)"/><rect class="cls-28" x="93.93" y="160.87" width="7.41" height="1.68" transform="translate(205.24 316.97) rotate(176.39)"/><rect class="cls-28" x="97.2" y="164.48" width="4.37" height="1.68" transform="matrix(-1, 0.06, -0.06, -1, 208.97, 324.05)"/><rect class="cls-28" x="94.43" y="168.84" width="7.41" height="1.68" transform="translate(206.75 332.86) rotate(176.39)"/><rect class="cls-28" x="97.7" y="172.44" width="4.37" height="1.68" transform="matrix(-1, 0.06, -0.06, -1, 210.47, 339.94)"/><path class="cls-29" d="M58.74,51.1,55.19,65.59c2.29,6.68,10.15,4.9,10.15,4.9L68,64,61.11,50.92A5.35,5.35,0,0,1,58.74,51.1Z"/><path class="cls-30" d="M61.88,64.78,59.7,50.12l1.41.8L68,64S67.38,70.09,61.88,64.78Z"/><path class="cls-31" d="M58.74,51.1a5.35,5.35,0,0,0,2.37-.18l-1.58-3Z"/><path class="cls-4" d="M65.27,66.18a3.72,3.72,0,0,1-3.39-1.4,4.91,4.91,0,0,1-3.45,1.85c-2.42.3-3.24-1-3.24-1l10.7,75.26,10.67-1.3L68,64S68,65.87,65.27,66.18Z"/><path class="cls-7" d="M61.88,64.78a4.91,4.91,0,0,1-3.45,1.85c-2.42.3-3.24-1-3.24-1l10.7,75.26,5.63-.69Z"/><rect class="cls-10" x="66.67" y="144.47" width="10.76" height="7.1" rx="2.08" transform="translate(-17.32 9.76) rotate(-6.92)"/><rect class="cls-26" x="65.28" y="138.93" width="12.18" height="7.1" rx="2.08" transform="translate(-16.65 9.64) rotate(-6.92)"/><g class="cls-17"><path class="cls-18" d="M56.54,71.29c.56,11,2.75,22,4.62,32.86,2,11.44,2.37,23.35,4.85,34.67.23,1,1.9.8,1.82-.25C67,127,64,115.47,62.69,103.94,61.43,93,60.43,81.84,57.85,71.11a.67.67,0,0,0-1.31.18Z"/></g><g class="cls-17"><path class="cls-18" d="M65.26,141.14a17.55,17.55,0,0,0,5.51,0c1.59-.18,3.12-.26,4.34-1.41a.62.62,0,0,0-.13-1c-1.55-.88-3.23-.5-4.92-.27a16.86,16.86,0,0,0-5,1.29.74.74,0,0,0,.18,1.33Z"/></g><g class="cls-17"><path class="cls-18" d="M66.59,148l.11.25a1.53,1.53,0,0,0,1.36.79c2.66-.11,6.37-.12,8.55-1.79.47-.36.69-1.25,0-1.56-2.67-1.17-6.2-.33-9,.24a1.56,1.56,0,0,0-1,2.07Z"/></g><g class="cls-17"><path class="cls-18" d="M66.48,68.63c.22,2.25.54,4.48.86,6.73s.21,4.69,1.48,6.46a.71.71,0,0,0,1.27-.16c.63-1.89-.07-4-.37-5.93-.4-2.46-.78-4.92-1.28-7.36-.22-1.09-2.07-.86-2,.26Z"/></g><path class="cls-29" d="M104.66,171.87l-5-14.07c1.64-6.87,9.63-5.87,9.63-5.87l3.26,6.17L107,171.83A5.38,5.38,0,0,0,104.66,171.87Z"/><path class="cls-30" d="M106.46,158l-.75,14.8,1.33-.93,5.56-13.73S111.42,152.13,106.46,158Z"/><path class="cls-31" d="M104.66,171.87a5.38,5.38,0,0,1,2.38,0L105.76,175Z"/><path class="cls-4" d="M110.1,156.23a3.75,3.75,0,0,0-3.24,1.73,4.94,4.94,0,0,0-3.62-1.51c-2.43-.06-3.12,1.35-3.12,1.35l3.32-75.94,10.75.25-1.19,76S112.87,156.27,110.1,156.23Z"/><path class="cls-7" d="M106.46,158a4.94,4.94,0,0,0-3.62-1.51c-2.43-.06-3.13,1.35-3.13,1.35L103,81.86l5.68.13Z"/><rect class="cls-10" x="103.09" y="70.57" width="10.76" height="7.1" rx="0.6" transform="translate(1.76 -2.51) rotate(1.34)"/><rect class="cls-26" x="102.25" y="76.15" width="12.18" height="7.1" rx="0.6" transform="translate(1.89 -2.51) rotate(1.34)"/><g class="cls-17"><path class="cls-18" d="M101.82,152.11c1.51-10.93,1.45-22.11,1.64-33.13.2-11.6,2.06-23.39,1.74-34.95a.93.93,0,0,0-1.85,0c-1.32,11.13-.68,22.73-1.39,34s-2,22.64-1.45,34c0,.7,1.2,1,1.31.17Z"/></g><g class="cls-17"><path class="cls-18" d="M102.45,83a17.55,17.55,0,0,0,5.19.78c1.61.07,3.23.23,4.6-.73a.63.63,0,0,0,0-1.07c-1.33-1-3-.92-4.6-.93a16.85,16.85,0,0,0-5.19.55.73.73,0,0,0,0,1.4Z"/></g><g class="cls-17"><path class="cls-18" d="M103,75.27l.05.2a1.63,1.63,0,0,0,1.52,1.16c2.68.28,6.18.76,8.6-.62a.9.9,0,0,0,0-1.55c-2.35-1.49-5.93-1.15-8.6-1A1.63,1.63,0,0,0,103,74.62a1.12,1.12,0,0,0-.05.65Z"/></g><g class="cls-17"><path class="cls-18" d="M112.65,153.58c.26-2.49.4-5,.55-7.48.13-2,.56-4-.27-5.84a.69.69,0,0,0-1.19,0c-1,1.75-.76,3.86-.85,5.84-.11,2.49-.23,5-.24,7.48,0,1.31,1.87,1.25,2,0Z"/></g><polygon class="cls-10" points="37.19 114.5 37.19 213.44 117.19 222.2 117.19 114.5 37.19 114.5"/><polygon class="cls-4" points="65.42 167.14 58.32 163.29 61.87 156.77 55.39 153.25 59.22 146.19 65.7 149.71 69.21 143.24 76.3 147.09 72.79 153.56 79.26 157.07 75.43 164.13 68.95 160.62 65.42 167.14"/><polygon class="cls-4" points="84.99 193.78 77.89 189.93 81.44 183.41 74.96 179.89 78.79 172.83 85.27 176.35 88.78 169.87 95.87 173.72 92.36 180.2 98.83 183.71 95 190.77 88.53 187.26 84.99 193.78"/><polygon class="cls-23" points="151.19 114.5 117.19 114.5 117.19 222.2 151.19 207.18 151.19 114.5"/><g class="cls-32"><path class="cls-33" d="M142.35,6.87a33.26,33.26,0,0,1-1.25,7.57c-.18.65-.39,1.46-.61,2.43s-.42,1.74-.57,2.32-.31,1.17-.49,1.76c-.33,1.16-.65,1.75-1,1.75s-.47-.17-.73-.5a1.64,1.64,0,0,1-.38-1,14.57,14.57,0,0,1,.53-2.54q.53-2,1.19-5.51A57.21,57.21,0,0,0,140,5.78c0-.5.24-.76.57-.76a1.71,1.71,0,0,1,1.17.69A2,2,0,0,1,142.35,6.87Z"/><path class="cls-33" d="M149.1,20c1.27-.2,2.39-.36,3.34-.49a17.93,17.93,0,0,1,2.12-.2,3.83,3.83,0,0,1,1,.11.46.46,0,0,1,.36.46c0,.46-1.24,1-3.7,1.56a26.81,26.81,0,0,1-5.42.87,2.54,2.54,0,0,1-1.59-.67,1.88,1.88,0,0,1-.82-1.42c0-.39.79-1.18,2.36-2.36a37.18,37.18,0,0,0,4.35-3.78,10.33,10.33,0,0,0,1.68-2.28,4.83,4.83,0,0,0,.68-2.28A2.6,2.6,0,0,0,153,7.92a1.55,1.55,0,0,0-1.28-.59,2.67,2.67,0,0,0-1.52.49,7.07,7.07,0,0,0-1.16,1c-.29.32-.48.47-.56.47a1.88,1.88,0,0,1-1-.36c-.38-.25-.57-.5-.57-.74,0-.61.5-1.28,1.51-2a5.43,5.43,0,0,1,3.23-1.1,3.77,3.77,0,0,1,2.87,1.21,4.24,4.24,0,0,1,1.14,3q0,5.31-9.09,11.14C147,20.36,147.83,20.24,149.1,20Z"/><path class="cls-33" d="M169.32,14.9a2.45,2.45,0,0,1,1.33,2.15,3.6,3.6,0,0,1-1.57,2.65,11.41,11.41,0,0,1-3.78,2,14.23,14.23,0,0,1-4.5.73c-1.52,0-2.27-.27-2.27-.83,0-.15.48-.34,1.46-.58s2-.49,3.21-.76a11,11,0,0,0,3.21-1.3,2.52,2.52,0,0,0,1.46-2.08c0-.43-.3-.78-.89-1.05a7.34,7.34,0,0,0-2-.57q-2.85-.42-2.85-1a.46.46,0,0,1,.07-.29,3.81,3.81,0,0,1,1.25-1c.71-.41,1.42-.81,2.15-1.2a8.2,8.2,0,0,0,2-1.55,2.88,2.88,0,0,0,.91-1.94c0-.77-.42-1.16-1.26-1.16a5.94,5.94,0,0,0-2.55.8,9.51,9.51,0,0,1-1.76.8c-.14,0-.4-.18-.78-.53s-.56-.62-.56-.8c0-.49.67-1,2-1.52a9.81,9.81,0,0,1,3.55-.79,3.55,3.55,0,0,1,2.62,1.06,3.31,3.31,0,0,1,1.07,2.42,4,4,0,0,1-1.55,2.78,14.35,14.35,0,0,1-3.59,2.37A9.12,9.12,0,0,1,169.32,14.9Z"/></g><g class="cls-32"><path class="cls-33" d="M289,57.43a3.25,3.25,0,0,1,.94,2,3.32,3.32,0,0,1-.62,1.83,1.1,1.1,0,0,1,.3.64,14.63,14.63,0,0,1-.31,2.36c-.21,1.12-.33,1.84-.37,2.19s-.08.62-.11.82a5.31,5.31,0,0,1-.12.6c-.07.41-.22.62-.44.62s-.54-.26-.73-.78a6.54,6.54,0,0,1-.33-2q-2.19,2.77-4.06,2.78a3.34,3.34,0,0,1-2.22-1,2.75,2.75,0,0,1-1.1-2A8.53,8.53,0,0,1,281,61.87a14.29,14.29,0,0,1,2.8-3.87A4.83,4.83,0,0,1,287,56.31,2.64,2.64,0,0,1,289,57.43Zm-.84,3.2c0-1.52-.3-2.28-.91-2.28a3.42,3.42,0,0,0-2.23,1.36,13.62,13.62,0,0,0-2.17,3.09,6.44,6.44,0,0,0-.88,2.72.8.8,0,0,0,.34.68,1.33,1.33,0,0,0,.81.26,3.94,3.94,0,0,0,2.61-1.56,8.57,8.57,0,0,0,2-3.8.5.5,0,0,1,.41-.44Z"/><path class="cls-33" d="M306.12,60q0,1.08-6.2,1.7-.92,4.39-1.08,4.94c-.12.36-.26.54-.44.54a1,1,0,0,1-.74-.48,1.44,1.44,0,0,1-.39-.86,4.59,4.59,0,0,1,.07-.81c.05-.29.13-.73.23-1.33s.21-1.21.31-1.83q-2.11.15-3.78.15a1.42,1.42,0,0,1-1.06-.5,1.45,1.45,0,0,1-.47-1c0-.35.23-.52.69-.52,2.43,0,4.06,0,4.89-.1.15-1.23.3-2.71.44-4.45,0-.49.18-.73.5-.73A2.7,2.7,0,0,1,301,56.57a23.52,23.52,0,0,1-.59,3.15c2.33-.19,3.68-.29,4.06-.29C305.55,59.43,306.12,59.61,306.12,60Z"/><path class="cls-33" d="M307.79,68.5c-.23,0-.5-.18-.81-.53a1.5,1.5,0,0,1-.47-1,21.73,21.73,0,0,1,.77-3.2q.78-2.73,1.55-6.58a35.62,35.62,0,0,0,.78-7c0-.49.18-.74.54-.74s.58.25,1,.73a2.33,2.33,0,0,1,.56,1.41,40.25,40.25,0,0,1-1.33,8.63q2.93-4,5.31-4a2.37,2.37,0,0,1,2,1.13,4.6,4.6,0,0,1,.8,2.7,8.91,8.91,0,0,1-.9,3.57,10.72,10.72,0,0,1-2.42,3.46,4.16,4.16,0,0,1-6.49-.26l0,0Q308,68.5,307.79,68.5Zm3.91-1.89c1.06,0,2.1-.73,3.13-2.18a7.85,7.85,0,0,0,1.54-4.58c0-1-.3-1.45-.89-1.45-1,0-2,.66-3.18,2a19.48,19.48,0,0,0-3,4.74A3.2,3.2,0,0,0,311.7,66.61Z"/></g><g class="cls-32"><path class="cls-33" d="M22.3,139.2a25.43,25.43,0,0,0,2.84-1.32,5.33,5.33,0,0,1,1.53-.69c.18,0,.41.22.67.66a2,2,0,0,1,.33,1.2,4.85,4.85,0,0,1-.86,1.75c-.53.8-1.41,2-2.64,3.67s-2.72,3.72-4.47,6.21-2.88,4-3.37,4.65-.82.89-1,.87a.83.83,0,0,1-.51-.42,1.14,1.14,0,0,1-.24-.67,3.1,3.1,0,0,1,.5-1.06c.31-.51.81-1.27,1.51-2.28s1.38-2,2.05-2.93l6-8.53a7.81,7.81,0,0,1-4.57,1.23,3.84,3.84,0,0,1-.86-.15,6.54,6.54,0,0,1,.17,1.35,5.93,5.93,0,0,1-1.5,3.9,4.24,4.24,0,0,1-3.22,1.78,2.22,2.22,0,0,1-1.83-1.07,3.92,3.92,0,0,1-.78-2.37,7,7,0,0,1,1.44-4.25,4,4,0,0,1,3.11-2,2.19,2.19,0,0,1,1.08.29,4.49,4.49,0,0,0,2,.72A6.08,6.08,0,0,0,22.3,139.2ZM15,146.48c.48,0,1-.37,1.59-1.12a3.68,3.68,0,0,0,.87-2.26,4.09,4.09,0,0,0-.31-1.78c-.2-.43-.44-.64-.7-.64-.47,0-1,.45-1.57,1.36a5.17,5.17,0,0,0-.86,2.77,2.39,2.39,0,0,0,.27,1.16A.81.81,0,0,0,15,146.48ZM26.82,146a2.33,2.33,0,0,1,2,1.24,5,5,0,0,1,.8,2.77,5.87,5.87,0,0,1-1.5,3.88,4.25,4.25,0,0,1-3.22,1.77,2.18,2.18,0,0,1-1.8-1.07,3.92,3.92,0,0,1-.78-2.37,7.05,7.05,0,0,1,1.44-4.25A4,4,0,0,1,26.82,146Zm-1.57,7.72c.48,0,1-.37,1.57-1.12a3.66,3.66,0,0,0,.87-2.26,4.24,4.24,0,0,0-.31-1.78c-.21-.43-.44-.64-.7-.64-.48,0-1,.45-1.58,1.36a5.17,5.17,0,0,0-.86,2.77,2.42,2.42,0,0,0,.27,1.18A.82.82,0,0,0,25.25,153.68Z"/></g><g class="cls-32"><path class="cls-33" d="M212.74,33.39q1-1.08,1.44-1.08a1.41,1.41,0,0,1,.92.39c.31.26.46.49.46.68a.63.63,0,0,1-.18.46,5.06,5.06,0,0,1-.55.51,9,9,0,0,0-.71.67c-.22.24-.51.57-.85,1s-.76.93-1.24,1.55-.88,1.11-1.19,1.48c.1.15.25.4.45.74l.52.86.54.87c.22.36.4.64.55.86s.29.45.42.68a2.25,2.25,0,0,1,.39.88.52.52,0,0,1-.17.41.57.57,0,0,1-.42.16q-1.1,0-3.54-4c-2.14,2.64-3.45,4-3.9,4a1.21,1.21,0,0,1-.82-.41,1.14,1.14,0,0,1-.41-.75q0-.12.54-.66a45.81,45.81,0,0,0,3.56-3.88c-.75-1.35-1.39-2.59-1.92-3.74a8.67,8.67,0,0,1-.78-2.08,3.55,3.55,0,0,1,0-.45c0-.15.22-.22.54-.22a3.43,3.43,0,0,1,1.21.29c.47.2.71.44.71.71a10.75,10.75,0,0,0,1.45,3.84C211.11,35.36,212.09,34.11,212.74,33.39Z"/></g><g class="cls-32"><path class="cls-33" d="M262.65,19.44a2.15,2.15,0,0,1-1.37-.77,2.15,2.15,0,0,1-.77-1.29,1.57,1.57,0,0,1,.42-1,1.11,1.11,0,0,1,.83-.51c.28,0,.62.4,1,1.2a4.65,4.65,0,0,1,.59,1.78.59.59,0,0,1-.25.39A.7.7,0,0,1,262.65,19.44Zm.88-15.65.05.63a.44.44,0,0,1-.31.43,1.35,1.35,0,0,1-.54.14c-.15,0-.39-.19-.7-.57a1.61,1.61,0,0,1-.46-.95,3.13,3.13,0,0,1,1.2-2.41A4.09,4.09,0,0,1,265.57,0a3.93,3.93,0,0,1,2.72,1,3.51,3.51,0,0,1,1.12,2.73,4.08,4.08,0,0,1-.68,2.11,9.5,9.5,0,0,1-1.51,1.92,13.83,13.83,0,0,0-3.06,3.88,7.06,7.06,0,0,1-.82,1.65.63.63,0,0,1-.4.19c-.41,0-.61-.52-.61-1.57a4,4,0,0,1,.77-2.16,11.79,11.79,0,0,1,1.7-2,13.75,13.75,0,0,0,1.69-1.94,3.35,3.35,0,0,0,.78-1.88,1.67,1.67,0,0,0-.53-1.29,1.84,1.84,0,0,0-1.29-.48,2,2,0,0,0-1.34.47A1.44,1.44,0,0,0,263.53,3.79Z"/></g></g></g></g></svg>