<svg xmlns="http://www.w3.org/2000/svg" id="prefix__skuter_jak" width="32" height="22" data-name="skuter jak" viewBox="0 0 32 22">
    <g id="prefix__Artboard" transform="translate(-810 -742)">
        <g id="prefix__next" transform="translate(810 742)">
            <path id="prefix__Shape" d="M32 18.044a3.825 3.825 0 0 1-1.164 2.815A3.7 3.7 0 0 1 28.107 22a3.936 3.936 0 0 1-3.907-3.956 3.906 3.906 0 0 1 1.128-2.8 3.865 3.865 0 0 1 2.784-1.1 3.719 3.719 0 0 1 2.729 1.1 3.8 3.8 0 0 1 1.159 2.8zM30.406 15.7a2.609 2.609 0 0 0-1.91-.774 2.743 2.743 0 0 0-1.943 4.674 2.74 2.74 0 0 0 4.666-1.951 2.648 2.648 0 0 0-.813-1.949zm-.952-2.784a.454.454 0 0 1-.335.053 4.924 4.924 0 0 0-2.311-.018h-.018a5.822 5.822 0 0 0-1.094.355 5.022 5.022 0 0 0-1.217.9 4.68 4.68 0 0 0-1.411 3.425 5.306 5.306 0 0 0 .194 1.437.423.423 0 0 1-.406.568H8.761a.433.433 0 0 1-.353-.177.383.383 0 0 1-.071-.39A5 5 0 0 0 7.1 14.2a4.7 4.7 0 0 0-3.387-1.366 5.488 5.488 0 0 0-1.57.231.411.411 0 0 1-.353-.018.438.438 0 0 1-.212-.266.422.422 0 0 1 .035-.337.373.373 0 0 1 .247-.213 6.118 6.118 0 0 1 1.852-.284 5.538 5.538 0 0 1 4 1.633 5.5 5.5 0 0 1 1.694 3.8h10.02l4.6-7.24L20.157.887h-3.4a.437.437 0 0 1-.317-.142.387.387 0 0 1-.141-.3.443.443 0 0 1 .141-.32.468.468 0 0 1 .312-.125h4.834a.419.419 0 0 1 .406.266l4.975 11.747a6.917 6.917 0 0 1 2.364.089.436.436 0 0 1 .265.213.426.426 0 0 1 .053.319.435.435 0 0 1-.195.284zM21.012.786l3.972 9.26a.262.262 0 0 1-.018.251l-4.857 7.573a.262.262 0 0 1-.217.126H9.456a7.435 7.435 0 0 1-.09.861h13.253a5.715 5.715 0 0 1-.108-1.131 5.631 5.631 0 0 1 1.733-4.11 5.493 5.493 0 0 1 1.5-1.077l.794-.305L21.626.786zM6.64 15.247a3.963 3.963 0 0 1 0 5.612A3.718 3.718 0 0 1 3.893 22a3.661 3.661 0 0 1-2.747-1.178A3.7 3.7 0 0 1 0 18.044a3.874 3.874 0 0 1 1.146-2.8 3.781 3.781 0 0 1 2.747-1.1 3.741 3.741 0 0 1 2.747 1.103zm-3.14-.318a2.69 2.69 0 0 0-1.938.774 2.817 2.817 0 0 0 0 3.9h.017a2.551 2.551 0 0 0 1.921.824 2.606 2.606 0 0 0 1.942-.827 2.775 2.775 0 0 0 0-3.9 2.654 2.654 0 0 0-1.942-.771z" style="fill:rgba(20,143,145,1)"/>
        </g>
    </g>
</svg>
