<svg xmlns="http://www.w3.org/2000/svg" width="33" height="33" viewBox="0 0 33 33">
    <g id="prefix__icon_operacije" data-name="icon / operacije" transform="translate(.5 .5)" style="opacity:.603">
        <g id="prefix__big-icon-brojanje">
            <g id="prefix__Group_42" data-name="Group 42">
                <circle id="prefix__Oval" cx="16" cy="16" r="16" style="fill:none;stroke:#029194"/>
                <g id="prefix__Group" transform="translate(3.975 4.695)">
                    <g id="prefix__plus" transform="translate(14.825 3.705)">
                        <path id="prefix__Icon-Path" d="M10.4 4v2.4h-4v4H4v-4H0V4h4V0h2.4v4z" style="fill:#ff6956"/>
                    </g>
                    <g id="prefix__minus" transform="translate(0 13.885)">
                        <path id="prefix__Icon-Path-2" d="M.469.725h10.45v2.04H.469z" data-name="Icon-Path" transform="translate(-.469 -.725)" style="fill:#f7b500"/>
                    </g>
                    <g id="prefix__puta" transform="translate(3.315)">
                        <path id="prefix__Icon-Path-3" d="M8.2.717L5.412 3.5 2.625.717A1.179 1.179 0 0 0 .96 2.383l2.785 2.785L.96 7.955a1.179 1.179 0 0 0 1.665 1.666l2.787-2.787L8.2 9.621a1.179 1.179 0 0 0 1.664-1.666L7.077 5.168l2.787-2.787A1.179 1.179 0 0 0 8.2.715" data-name="Icon-Path" transform="translate(-.612 -.368)" style="fill:#6ab288"/>
                    </g>
                    <g id="prefix__podeljeno" transform="translate(10.025 13.305)">
                        <path id="prefix__Icon-Shape" d="M5.6 8a1.6 1.6 0 1 0 1.6 1.6A1.6 1.6 0 0 0 5.6 8zm0-4.8A1.6 1.6 0 1 0 4 1.6a1.6 1.6 0 0 0 1.6 1.6zm4.8 1.2H.8a.8.8 0 0 0-.8.8V6a.8.8 0 0 0 .8.8h9.6a.8.8 0 0 0 .8-.8v-.8a.8.8 0 0 0-.8-.8z" style="fill:#489cba"/>
                    </g>
                </g>
            </g>
        </g>
    </g>
</svg>
